<?xml version="1.0" standalone="no"?>
<!DOCTYPE svg PUBLIC "-//W3C//DTD SVG 20010904//EN"
 "http://www.w3.org/TR/2001/REC-SVG-20010904/DTD/svg10.dtd">
<svg version="1.0" xmlns="http://www.w3.org/2000/svg"
 width="640.000000pt" height="661.000000pt" viewBox="0 0 640.000000 661.000000"
 preserveAspectRatio="xMidYMid meet">

<g transform="translate(0.000000,661.000000) scale(0.100000,-0.100000)"
fill="#000000" stroke="none">
<path d="M2460 6210 c0 -5 5 -10 11 -10 5 0 7 5 4 10 -3 6 -8 10 -11 10 -2 0
-4 -4 -4 -10z"/>
<path d="M3310 6210 l-35 -7 37 -2 c20 0 40 4 43 9 7 11 7 11 -45 0z"/>
<path d="M2310 6141 c0 -17 4 -31 9 -31 5 0 9 11 9 25 0 14 -4 28 -9 31 -5 3
-9 -9 -9 -25z"/>
<path d="M420 6150 c18 -12 30 -13 30 -2 0 4 -10 9 -22 9 -18 2 -20 0 -8 -7z"/>
<path d="M1060 6150 c0 -5 5 -10 11 -10 5 0 7 5 4 10 -3 6 -8 10 -11 10 -2 0
-4 -4 -4 -10z"/>
<path d="M4243 6076 c9 -7 17 -18 17 -25 0 -6 8 -3 18 7 23 21 20 25 -21 28
-28 2 -30 1 -14 -10z"/>
<path d="M4255 5991 c-3 -5 -1 -12 5 -16 5 -3 10 1 10 9 0 18 -6 21 -15 7z"/>
<path d="M2306 5958 c-8 -33 -7 -118 2 -118 4 0 8 25 9 56 1 31 7 62 14 70 9
11 8 14 -4 14 -8 0 -17 -10 -21 -22z"/>
<path d="M3044 5916 c-12 -11 -25 -32 -29 -44 -11 -35 -67 -122 -78 -122 -6 0
-8 -3 -4 -6 7 -7 -46 -113 -81 -161 -12 -17 -22 -36 -22 -43 0 -7 -6 -10 -14
-7 -10 4 -12 0 -9 -14 3 -10 0 -19 -6 -19 -6 0 -11 -3 -10 -7 2 -16 -14 -53
-22 -53 -5 0 -9 -7 -9 -16 0 -8 -12 -31 -26 -49 -14 -19 -23 -39 -19 -44 4 -7
0 -8 -11 -4 -12 4 -15 2 -12 -8 3 -8 -7 -32 -22 -54 -15 -22 -37 -62 -50 -90
-13 -27 -38 -74 -57 -103 -18 -29 -33 -55 -33 -58 0 -3 -10 -20 -22 -37 -13
-18 -23 -36 -23 -40 0 -4 -7 -12 -15 -17 -8 -5 -11 -12 -7 -16 4 -4 -4 -22
-18 -40 -14 -18 -25 -40 -25 -48 0 -9 -4 -16 -10 -16 -5 0 -10 -4 -10 -9 0
-16 -84 -153 -97 -158 -14 -6 -19 -153 -5 -153 4 0 6 20 4 44 -4 40 -2 44 22
48 14 3 27 1 28 -4 4 -10 170 -11 472 -3 93 2 174 1 179 -2 6 -4 69 -6 141 -5
72 1 142 2 156 1 14 0 36 0 50 1 64 2 333 4 400 2 57 -1 78 2 86 14 13 16 7
54 -7 54 -5 0 -9 9 -9 19 0 11 -3 21 -7 23 -5 2 -21 29 -38 60 -16 32 -44 83
-62 115 -17 32 -38 69 -45 83 -7 14 -15 27 -19 30 -3 3 -8 10 -10 15 -6 14
-115 212 -141 255 -12 19 -31 53 -43 75 -38 70 -50 90 -56 95 -4 3 -19 30 -35
60 -16 30 -32 57 -35 60 -3 3 -21 32 -39 65 -18 33 -40 71 -50 85 -16 24 -32
58 -34 72 -1 4 -7 13 -13 20 -7 6 -13 16 -13 21 0 4 -11 23 -25 41 -14 18 -25
40 -25 49 0 10 -4 17 -8 17 -5 0 -14 11 -20 25 -14 30 -30 30 -58 1z m4 -459
c6 -5 12 -5 12 0 0 12 133 8 137 -4 2 -6 13 -9 23 -6 11 3 20 0 20 -6 0 -6 3
-10 8 -9 11 3 79 -29 86 -41 9 -15 1 -14 -32 3 -25 12 -91 30 -152 40 -14 2
-29 5 -35 6 -5 1 -12 1 -15 0 -3 -1 -38 -4 -79 -7 -42 -3 -85 -12 -98 -20 -13
-8 -23 -12 -23 -8 0 5 -8 1 -17 -8 -28 -24 -73 -26 -73 -4 0 37 197 90 238 64z
m88 -90 c4 -4 17 -7 28 -7 29 0 125 -36 146 -55 9 -8 21 -15 27 -15 6 0 32
-20 59 -45 l48 -45 -30 -28 c-42 -39 -84 -96 -90 -123 -13 -64 -16 -90 -17
-168 -2 -65 -5 -85 -17 -89 -8 -3 -21 -10 -29 -15 -7 -6 -20 -12 -29 -14 -9
-1 -18 -7 -20 -13 -2 -5 -8 -8 -12 -5 -5 3 -6 16 -2 28 10 31 8 67 -3 68 -6 1
-25 -20 -43 -47 -40 -57 -48 -64 -132 -97 -56 -22 -72 -24 -119 -17 -106 18
-176 51 -202 97 -21 37 -24 106 -5 122 8 7 12 19 10 26 -3 7 5 21 19 30 42 27
90 -7 80 -56 -5 -23 -52 -43 -69 -28 -19 15 -36 -49 -19 -73 21 -32 87 -78
111 -78 13 0 24 -3 24 -8 0 -12 144 -6 148 7 2 6 13 11 23 11 59 0 138 94 155
186 3 19 10 34 15 34 6 0 6 7 0 18 -5 9 -8 22 -8 27 2 12 -88 24 -106 13 -7
-4 -45 0 -83 8 -38 7 -72 14 -76 14 -5 0 -8 4 -8 9 0 5 16 5 38 0 51 -11 210
-4 247 11 17 7 36 14 43 16 35 7 172 118 172 140 0 9 -52 54 -63 54 -5 0 -6 4
-3 9 3 5 -4 11 -17 14 -12 3 -52 15 -88 25 -70 21 -103 16 -81 -11 7 -8 12
-19 10 -23 -1 -5 2 -20 6 -33 5 -15 2 -36 -9 -62 -32 -70 -117 -84 -170 -29
-24 26 -27 35 -23 79 3 27 12 57 22 66 21 22 11 37 -22 31 -41 -6 -112 -34
-165 -62 -15 -8 -33 -12 -40 -8 -6 4 -9 4 -5 -1 4 -4 3 -16 -2 -26 -8 -14 -1
-28 30 -68 22 -27 55 -62 75 -78 33 -27 44 -43 28 -43 -11 0 -75 54 -142 118
l-55 53 33 30 c31 27 44 33 64 30 4 0 7 3 7 7 0 8 54 38 55 30 1 -1 12 5 26
14 24 15 86 36 133 45 11 2 21 4 22 6 6 5 94 0 100 -6z"/>
<path d="M3239 5033 c-21 -5 -35 -71 -19 -87 15 -15 50 27 50 60 0 26 -7 32
-31 27z"/>
<path d="M3205 4908 c-10 -26 -2 -43 12 -26 7 8 8 19 3 28 -8 12 -10 12 -15
-2z"/>
<path d="M1119 5892 c-39 -54 -69 -110 -69 -127 0 -8 -5 -15 -11 -15 -16 0
-38 -31 -39 -52 0 -10 -4 -18 -9 -18 -5 0 -11 -8 -15 -17 -3 -10 -26 -51 -51
-91 -25 -41 -45 -78 -45 -83 0 -5 -4 -9 -10 -9 -5 0 -18 -17 -28 -37 -10 -21
-24 -37 -32 -35 -10 2 -11 0 -2 -11 10 -11 9 -17 -3 -27 -8 -7 -15 -16 -15
-20 0 -6 -24 -48 -98 -168 -12 -20 -27 -47 -32 -59 -5 -13 -14 -23 -19 -23 -5
0 -11 -8 -15 -17 -7 -22 -28 -56 -39 -64 -5 -3 -8 -10 -8 -15 1 -5 -12 -29
-27 -54 -16 -25 -32 -52 -36 -60 -3 -8 -17 -33 -31 -55 -14 -22 -30 -50 -35
-62 -5 -13 -14 -23 -20 -23 -5 0 -10 -9 -10 -19 0 -11 -3 -21 -7 -23 -11 -4
-53 -95 -53 -113 0 -9 9 -15 23 -15 12 0 108 -3 212 -5 194 -5 330 -6 445 -5
36 1 76 -1 90 -4 26 -6 246 -7 343 -2 32 1 57 -2 57 -7 0 -5 7 -4 15 3 8 6 20
8 27 4 14 -9 338 -7 347 2 3 3 -3 20 -13 37 -11 18 -33 59 -50 92 -17 33 -33
62 -36 65 -3 3 -11 16 -18 30 -6 14 -21 40 -31 59 -11 19 -25 46 -31 60 -5 14
-19 40 -29 56 -11 17 -20 38 -20 48 -1 9 -5 17 -9 17 -5 0 -14 10 -20 23 -6
12 -24 45 -39 72 -16 28 -51 91 -78 140 -27 50 -51 92 -54 95 -4 3 -17 28 -31
55 -13 28 -38 73 -55 100 -17 28 -52 92 -78 143 -42 81 -81 150 -125 217 -7
11 -15 28 -18 38 -10 28 -37 19 -65 -21z m66 -428 c84 -4 205 -42 205 -64 0
-17 -17 -19 -36 -5 -10 8 -28 15 -40 15 -11 0 -24 3 -28 7 -3 4 -14 9 -24 11
-29 6 -178 5 -206 -2 -16 -4 -26 -2 -26 5 0 6 -7 3 -16 -5 -8 -9 -20 -14 -25
-11 -5 4 -9 1 -9 -5 0 -6 -4 -9 -9 -6 -5 3 -14 -1 -21 -9 -15 -18 -63 -20 -58
-3 7 20 54 50 82 51 14 1 26 4 26 7 0 3 8 6 18 7 36 2 83 11 89 16 3 4 10 4
16 0 6 -3 34 -7 62 -9z m73 -109 c23 -4 42 -11 42 -16 0 -5 6 -6 13 -3 7 2 30
-7 51 -21 20 -14 39 -25 42 -25 12 0 104 -84 104 -95 0 -4 -23 -30 -50 -56
-49 -47 -68 -79 -76 -129 -2 -14 -7 -41 -11 -60 -3 -19 -5 -48 -4 -65 1 -16 3
-41 4 -54 1 -15 -6 -28 -18 -35 -11 -6 -22 -13 -25 -16 -3 -3 -16 -11 -29 -18
-20 -12 -25 -12 -32 -1 -9 14 -2 58 11 72 9 10 1 47 -9 47 -4 0 -18 -19 -31
-42 -48 -87 -86 -116 -186 -142 -107 -28 -205 0 -276 78 -31 32 -35 46 -15 47
10 0 10 2 0 6 -18 7 -16 68 2 104 19 35 64 57 77 37 4 -7 8 -8 8 -3 1 15 24
-28 25 -45 0 -25 -22 -40 -61 -40 l-37 0 5 -43 c5 -41 44 -97 68 -97 4 0 10
-4 12 -10 2 -5 35 -12 73 -15 89 -6 184 17 223 55 38 38 62 69 60 78 -1 4 4
21 11 37 7 17 14 35 15 40 2 6 6 18 10 27 4 9 6 25 4 35 -3 15 -15 18 -78 20
-96 3 -187 22 -208 42 -8 9 -18 15 -21 15 -22 -5 -107 66 -117 98 -3 10 -12
18 -19 18 -19 0 -37 34 -29 54 3 9 12 16 20 16 8 0 14 3 14 8 0 4 24 18 53 31
28 14 66 31 82 39 17 8 43 16 59 19 16 2 38 8 50 13 24 9 131 7 194 -5z"/>
<path d="M991 5315 c-25 -8 -48 -12 -53 -9 -4 3 -8 0 -8 -6 0 -6 -20 -20 -44
-30 -63 -29 -71 -41 -44 -76 12 -16 25 -31 29 -34 4 -3 18 -23 33 -44 14 -21
26 -36 26 -32 0 3 23 -6 51 -20 36 -19 70 -28 117 -31 37 -2 75 -5 85 -7 9 -2
17 0 17 5 0 5 15 9 34 9 19 0 38 5 42 11 3 6 19 9 35 7 15 -3 27 0 26 6 -1 5
16 19 38 30 22 12 42 24 43 29 2 4 9 13 15 20 34 35 38 46 28 65 -24 46 -143
110 -204 110 -22 0 -26 -5 -24 -28 1 -16 5 -26 9 -24 4 2 6 -18 5 -46 0 -27
-3 -50 -7 -50 -3 0 -17 -11 -32 -25 -15 -14 -31 -24 -35 -24 -4 1 -16 -1 -25
-5 -23 -10 -79 22 -95 54 -17 34 -10 108 12 124 20 15 12 36 -13 35 -9 0 -37
-7 -61 -14z"/>
<path d="M1120 5205 c0 -5 5 -17 10 -25 5 -8 10 -10 10 -5 0 6 -5 17 -10 25
-5 8 -10 11 -10 5z"/>
<path d="M1296 5023 c-11 -28 -6 -63 8 -63 17 0 21 5 30 41 4 21 2 28 -13 32
-12 3 -22 -1 -25 -10z"/>
<path d="M1273 4931 c-10 -15 -9 -22 1 -30 11 -9 15 -6 19 11 8 30 -5 42 -20
19z"/>
<path d="M785 4920 c-10 -11 -16 -22 -13 -25 3 -3 13 6 22 20 20 30 16 32 -9
5z"/>
<path d="M4997 5913 c-18 -21 -76 -121 -84 -145 -3 -10 -9 -18 -14 -18 -5 0
-9 -9 -9 -20 0 -22 -16 -27 -23 -7 -2 6 -4 -4 -5 -23 0 -19 -6 -36 -11 -38 -6
-2 -11 -10 -11 -17 0 -7 -7 -15 -15 -19 -8 -3 -12 -12 -9 -21 3 -8 2 -15 -4
-15 -5 0 -20 -22 -33 -50 -13 -27 -26 -50 -30 -50 -3 0 -16 -21 -29 -47 -13
-27 -31 -56 -39 -65 -8 -10 -10 -18 -6 -18 4 0 0 -9 -10 -20 -10 -11 -15 -20
-11 -20 4 0 -4 -15 -16 -32 -13 -18 -30 -46 -38 -63 -8 -16 -24 -43 -35 -60
-12 -16 -28 -45 -36 -63 -8 -18 -19 -30 -25 -28 -7 3 -9 -5 -6 -20 2 -14 0
-24 -7 -24 -6 0 -11 -7 -11 -15 0 -8 -4 -15 -10 -15 -5 0 -10 -6 -10 -14 0 -7
-7 -19 -15 -26 -8 -7 -15 -21 -15 -31 0 -11 -4 -19 -10 -19 -5 0 -10 -4 -10
-9 0 -16 -83 -151 -92 -151 -6 0 -7 -7 -4 -15 3 -9 -1 -18 -9 -21 -8 -4 -15
-14 -15 -23 0 -9 -10 -27 -21 -41 -20 -24 -20 -24 -14 -2 4 12 2 22 -3 22 -5
0 -12 -11 -14 -25 -3 -13 -2 -22 3 -20 4 3 9 -9 11 -27 4 -42 20 -45 203 -42
77 1 217 2 310 1 307 -1 718 0 805 3 47 1 113 -1 148 -5 l62 -8 0 32 c0 27
-14 65 -30 81 -3 3 -23 41 -45 85 -22 44 -45 85 -51 92 -6 6 -17 26 -24 45 -8
18 -16 35 -19 38 -4 3 -13 19 -21 35 -8 17 -21 36 -28 43 -7 8 -10 17 -7 22 3
5 1 10 -4 12 -4 1 -25 35 -46 73 -21 39 -49 90 -62 115 -14 25 -32 53 -41 63
-12 14 -13 17 -1 17 10 1 9 3 -3 11 -10 5 -25 26 -35 47 -9 20 -28 52 -40 71
-25 37 -30 56 -11 45 7 -4 8 -3 4 4 -4 7 -13 12 -20 12 -7 0 -20 15 -30 33 -9
17 -37 69 -61 114 -24 46 -53 95 -64 109 -12 15 -21 32 -21 39 0 7 -6 18 -13
24 -8 6 -25 32 -38 58 -33 67 -46 75 -72 46z m155 -471 c8 -6 18 -9 22 -5 4 4
10 3 14 -2 4 -6 19 -16 35 -22 15 -7 27 -18 27 -25 0 -9 -3 -9 -12 0 -7 7 -21
12 -33 12 -12 0 -26 5 -31 10 -8 8 -73 21 -109 21 -69 0 -173 -14 -191 -26
-13 -8 -32 -15 -43 -15 -11 0 -23 -4 -26 -10 -8 -13 -45 -13 -45 -1 0 16 57
51 83 51 14 0 29 5 32 11 4 6 13 8 19 6 7 -3 18 -2 24 2 20 12 218 6 234 -7z
m-69 -84 c12 -7 31 -13 42 -15 52 -5 86 -19 156 -65 41 -27 81 -59 88 -70 12
-19 9 -25 -26 -59 -50 -49 -63 -66 -63 -79 0 -6 -7 -24 -14 -39 -9 -17 -16
-63 -17 -114 -2 -58 -6 -84 -13 -80 -6 4 -5 -1 2 -10 18 -21 11 -30 -38 -56
-53 -27 -64 -27 -45 3 12 17 13 25 4 28 -9 3 -9 9 0 25 6 12 11 32 11 45 0 13
6 34 13 48 30 58 36 88 20 101 -12 11 -18 9 -33 -11 -10 -14 -16 -28 -13 -32
7 -13 -8 -68 -19 -68 -7 0 -8 16 -4 45 6 34 4 45 -6 46 -7 1 -53 3 -103 5
-124 5 -127 5 -150 20 -11 8 -27 14 -37 14 -9 0 -56 37 -103 82 -82 78 -85 82
-68 99 28 27 125 81 121 67 -3 -7 -13 -17 -24 -23 -29 -15 -59 -38 -67 -52 -9
-15 117 -144 163 -168 48 -25 238 -27 290 -3 19 9 44 19 55 22 11 3 34 17 50
32 56 48 105 96 105 103 0 12 -103 79 -132 86 -16 4 -25 12 -21 18 3 6 1 7 -6
3 -6 -4 -27 -2 -47 4 -27 9 -38 9 -49 0 -13 -10 -12 -16 1 -43 18 -34 14 -99
-8 -120 -7 -7 -26 -18 -43 -25 -106 -41 -184 82 -108 172 23 27 24 31 7 36
-24 9 -4 21 45 27 20 3 38 7 40 9 7 7 22 4 44 -8z m-153 -28 c0 -5 -4 -10 -10
-10 -5 0 -10 5 -10 10 0 6 5 10 10 10 6 0 10 -4 10 -10z m-35 -9 c-13 -12 -85
-31 -85 -22 0 4 12 12 28 18 34 14 69 16 57 4z m-161 -377 c9 -8 16 -26 16
-40 0 -25 -22 -35 -70 -31 -20 2 -25 -3 -27 -23 -3 -54 -2 -52 -17 -38 -11 11
-11 21 1 63 24 80 61 106 97 69z m372 -129 c-35 -73 -91 -113 -183 -129 -56
-9 -36 9 30 28 47 14 72 29 105 62 23 25 42 51 42 59 0 8 6 26 12 41 10 21 14
24 16 11 2 -9 -8 -42 -22 -72z m-363 -89 c32 -14 75 -26 97 -26 22 0 40 -5 40
-11 0 -17 -107 -2 -138 19 -15 10 -39 24 -54 32 -16 7 -28 20 -28 29 1 14 2
14 13 0 7 -9 38 -28 70 -43z"/>
<path d="M4240 5820 c-9 -6 -10 -10 -3 -10 6 0 15 5 18 10 8 12 4 12 -15 0z"/>
<path d="M4260 5805 c-19 -23 -8 -25 14 -4 11 11 15 19 9 19 -6 0 -16 -7 -23
-15z"/>
<path d="M6145 5780 c-3 -6 1 -7 9 -4 18 7 21 14 7 14 -6 0 -13 -4 -16 -10z"/>
<path d="M4251 5738 c-1 -29 2 -36 14 -32 16 7 21 24 6 24 -5 0 -12 10 -14 23
-3 14 -5 8 -6 -15z"/>
<path d="M2302 5667 c1 -40 2 -44 5 -17 2 19 11 41 20 48 9 6 15 12 12 13 -2
0 -12 2 -21 4 -15 3 -18 -4 -16 -48z"/>
<path d="M2300 5587 c0 -14 6 -24 15 -24 11 0 12 4 4 13 -6 7 -8 18 -4 24 3 5
1 10 -4 10 -6 0 -11 -10 -11 -23z"/>
<path d="M4238 5502 c3 -39 1 -57 -9 -63 -10 -6 -6 -9 13 -9 15 0 30 5 33 10
3 6 -1 10 -9 10 -12 0 -14 5 -6 25 6 15 6 27 0 30 -14 9 0 34 16 28 8 -3 14
-1 14 5 0 5 -13 12 -28 14 l-28 4 4 -54z"/>
<path d="M2288 5418 c7 -7 12 -38 12 -70 0 -32 3 -58 8 -58 4 0 5 25 4 55 -3
34 1 61 8 70 10 13 8 15 -16 15 -22 0 -25 -3 -16 -12z"/>
<path d="M2405 5310 c3 -5 8 -10 11 -10 2 0 4 5 4 10 0 6 -5 10 -11 10 -5 0
-7 -4 -4 -10z"/>
<path d="M4228 5268 c7 -7 12 -31 12 -55 0 -24 4 -43 10 -43 5 0 7 21 3 50 -5
43 -3 50 10 45 8 -4 18 -2 22 4 4 7 -7 11 -31 11 -30 0 -35 -3 -26 -12z"/>
<path d="M355 5250 c-3 -6 1 -7 9 -4 18 7 21 14 7 14 -6 0 -13 -4 -16 -10z"/>
<path d="M2350 5251 c0 -6 5 -13 10 -16 6 -3 10 1 10 9 0 9 -4 16 -10 16 -5 0
-10 -4 -10 -9z"/>
<path d="M2300 5088 l5 -73 3 60 c2 41 8 64 19 73 15 11 14 12 -8 12 -24 0
-24 -1 -19 -72z"/>
<path d="M2440 5040 c0 -5 5 -10 11 -10 5 0 7 5 4 10 -3 6 -8 10 -11 10 -2 0
-4 -4 -4 -10z"/>
<path d="M4230 4996 c6 -8 10 -33 9 -55 -2 -22 0 -43 4 -47 4 -4 7 14 7 41 0
34 5 52 18 61 15 12 13 13 -17 14 -28 0 -32 -2 -21 -14z"/>
<path d="M358 4983 c7 -3 16 -2 19 1 4 3 -2 6 -13 5 -11 0 -14 -3 -6 -6z"/>
<path d="M2287 4879 c8 -8 16 -8 30 0 16 9 14 10 -11 11 -22 0 -27 -3 -19 -11z"/>
<path d="M2297 4776 c-4 -10 -5 -21 -2 -24 9 -9 17 6 13 25 -3 17 -4 17 -11
-1z"/>
<path d="M4228 4733 c6 -2 13 -17 13 -31 1 -22 3 -23 6 -6 2 12 14 26 26 32
19 9 17 11 -18 11 -22 -1 -34 -3 -27 -6z"/>
<path d="M4227 4455 c18 -13 20 -20 13 -52 -5 -20 -7 -40 -4 -45 6 -9 34 1 34
14 0 5 -5 6 -10 3 -7 -4 -10 8 -8 35 1 25 8 45 17 50 12 7 5 9 -24 10 -38 0
-39 -1 -18 -15z"/>
<path d="M350 4440 c0 -5 7 -7 15 -4 8 4 15 8 15 10 0 2 -7 4 -15 4 -8 0 -15
-4 -15 -10z"/>
<path d="M2278 4353 c6 -2 12 -16 12 -30 0 -31 5 -28 14 10 6 23 3 27 -16 26
-13 0 -17 -3 -10 -6z"/>
<path d="M1338 4274 c-21 -21 -86 -23 -99 -4 -6 11 -9 8 -9 -12 0 -24 3 -27
23 -20 12 4 39 7 59 6 21 0 35 3 32 8 -3 5 0 15 6 23 17 20 8 19 -12 -1z"/>
<path d="M2932 4274 c-13 -23 -80 -26 -92 -5 -7 12 -9 7 -9 -19 0 -19 3 -29 6
-22 6 16 93 16 93 0 0 -23 13 3 17 32 3 34 -2 38 -15 14z"/>
<path d="M431 4255 c0 -20 2 -26 8 -16 6 9 23 12 55 10 25 -2 46 -1 46 3 0 5
-22 8 -49 8 -30 0 -51 5 -54 13 -3 6 -6 -1 -6 -18z"/>
<path d="M801 4273 c0 -7 -13 -13 -28 -14 l-28 -1 29 -9 c35 -10 39 -7 33 18
-3 10 -5 12 -6 6z"/>
<path d="M2133 4269 c-11 -11 -75 -15 -90 -6 -5 3 -10 -6 -11 -19 -2 -22 0
-23 12 -11 17 16 86 13 97 -4 3 -6 9 1 11 15 6 29 -3 41 -19 25z"/>
<path d="M2398 4269 c-3 -9 -20 -12 -56 -10 -29 1 -52 -2 -52 -7 0 -5 15 -9
33 -8 17 1 44 -1 59 -5 29 -8 43 7 28 31 -6 10 -8 10 -12 -1z"/>
<path d="M3095 4248 c0 -15 3 -28 8 -28 4 0 7 5 7 10 0 6 23 10 50 10 40 0 50
3 50 17 0 13 -3 14 -12 5 -16 -16 -47 -15 -78 1 -24 13 -25 12 -25 -15z"/>
<path d="M3364 4250 c-1 -24 2 -28 12 -19 8 6 34 9 59 7 39 -3 45 -1 45 16 0
13 -3 16 -12 9 -20 -16 -80 -14 -92 3 -9 11 -11 8 -12 -16z"/>
<path d="M4006 4265 c-6 -16 -71 -19 -91 -4 -7 5 -11 1 -12 -9 -1 -15 7 -17
58 -14 50 3 59 7 59 23 0 23 -6 25 -14 4z"/>
<path d="M4516 4262 c-23 -11 -36 -13 -58 -4 -22 8 -28 7 -28 -4 0 -10 15 -14
60 -14 53 0 60 2 60 20 0 11 -1 20 -2 19 -2 -1 -16 -8 -32 -17z"/>
<path d="M5070 4266 c0 -20 -86 -23 -93 -3 -3 7 -6 5 -6 -5 -1 -15 8 -18 49
-18 31 0 50 -4 50 -12 0 -17 10 -4 15 20 2 12 0 24 -6 27 -5 4 -9 -1 -9 -9z"/>
<path d="M1066 4263 c-4 -4 -28 -8 -53 -8 -32 0 -48 -5 -51 -15 -3 -11 -1 -12
7 -4 7 6 31 8 61 4 44 -6 50 -4 50 12 0 20 -3 22 -14 11z"/>
<path d="M1501 4257 c-1 -15 4 -17 27 -12 16 3 41 1 55 -4 23 -9 27 -8 27 7 0
16 -6 18 -50 12 -31 -4 -51 -2 -54 4 -2 6 -5 3 -5 -7z"/>
<path d="M1867 4264 c-3 -3 -28 -6 -56 -6 -40 1 -51 -3 -51 -15 0 -12 3 -13
13 -4 10 7 29 8 60 2 42 -8 47 -7 47 10 0 20 -3 23 -13 13z"/>
<path d="M2665 4261 c-6 -6 -30 -11 -54 -13 -26 -2 -46 -8 -47 -16 -1 -7 0 -8
3 -2 7 14 86 13 101 -2 9 -9 12 -6 12 15 0 30 -2 31 -15 18z"/>
<path d="M3630 4255 c0 -18 7 -20 60 -20 50 0 60 3 60 18 0 9 -4 17 -10 17 -5
0 -10 -4 -10 -10 0 -14 -74 -12 -88 2 -9 9 -12 8 -12 -7z"/>
<path d="M4172 4245 c0 -16 2 -24 5 -17 3 7 24 12 54 12 39 0 49 3 49 17 0 13
-3 14 -12 5 -16 -16 -85 -15 -91 1 -3 6 -5 -1 -5 -18z"/>
<path d="M4701 4244 c0 -16 3 -23 6 -16 3 7 24 12 53 12 29 0 50 -5 53 -12 3
-7 6 0 6 15 1 22 -3 27 -16 24 -56 -15 -76 -17 -89 -6 -11 9 -14 6 -13 -17z"/>
<path d="M5340 4259 c0 -7 -18 -10 -50 -7 -29 2 -50 -1 -50 -7 0 -5 25 -10 55
-10 46 0 55 3 55 18 0 9 -2 17 -5 17 -3 0 -5 -5 -5 -11z"/>
<path d="M5611 4263 c-1 -7 -13 -14 -28 -14 l-28 -1 30 -7 c31 -7 40 0 32 22
-4 10 -6 10 -6 0z"/>
<path d="M696 4245 c-5 -13 -2 -14 17 -4 32 17 33 19 10 19 -12 0 -23 -7 -27
-15z"/>
<path d="M5768 4235 c-6 -30 -2 -32 12 -6 6 11 6 22 1 25 -5 3 -11 -5 -13 -19z"/>
<path d="M5856 4251 c-19 -7 -19 -8 1 -13 14 -4 24 0 27 8 6 15 1 16 -28 5z"/>
<path d="M5513 4243 c9 -2 23 -2 30 0 6 3 -1 5 -18 5 -16 0 -22 -2 -12 -5z"/>
<path d="M5808 4243 c7 -3 16 -2 19 1 4 3 -2 6 -13 5 -11 0 -14 -3 -6 -6z"/>
<path d="M6040 4238 c0 -5 14 -8 30 -8 17 0 30 3 30 8 0 4 -13 7 -30 7 -16 0
-30 -3 -30 -7z"/>
<path d="M2280 4221 c0 -5 7 -12 16 -15 14 -5 15 -4 4 9 -14 17 -20 19 -20 6z"/>
<path d="M4244 4202 c-18 -11 -22 -111 -6 -117 22 -8 27 -6 14 7 -19 19 -15
89 6 104 18 14 6 19 -14 6z"/>
<path d="M340 4173 c0 -10 4 -14 8 -8 4 6 11 13 16 18 5 4 2 7 -7 7 -10 0 -17
-8 -17 -17z"/>
<path d="M2280 4075 c8 -10 11 -37 8 -80 -2 -41 0 -65 7 -65 6 0 9 26 7 71 -3
49 0 69 7 65 6 -4 11 -3 11 2 0 10 -23 22 -42 22 -6 0 -6 -6 2 -15z"/>
<path d="M1108 3939 c-10 -10 -18 -22 -18 -26 0 -3 -6 -14 -13 -22 -8 -9 -35
-56 -62 -106 -26 -49 -56 -101 -66 -114 -11 -13 -19 -30 -19 -37 0 -8 -4 -14
-10 -14 -5 0 -12 -11 -16 -25 -3 -14 -10 -25 -15 -25 -5 0 -9 -9 -9 -20 0 -11
-4 -20 -9 -20 -5 0 -11 -10 -15 -23 -3 -12 -14 -32 -26 -44 -11 -12 -20 -28
-20 -35 0 -13 -50 -91 -62 -96 -4 -2 -4 -10 -1 -18 3 -8 1 -14 -5 -14 -5 0
-13 -8 -16 -17 -11 -31 -32 -62 -56 -83 -13 -11 -20 -26 -17 -34 4 -9 2 -18
-3 -21 -5 -3 -17 -23 -26 -43 -10 -20 -23 -44 -29 -52 -7 -8 -24 -36 -37 -62
-14 -26 -29 -44 -33 -40 -5 4 -6 3 -3 -3 3 -5 -9 -37 -28 -70 -19 -33 -42 -77
-52 -97 -9 -21 -23 -38 -30 -38 -8 0 -12 -6 -9 -15 4 -8 2 -17 -4 -20 -11 -7
-39 -71 -39 -90 0 -19 73 -29 215 -28 72 0 213 0 315 0 102 -1 329 -2 505 -3
176 0 352 -1 390 -2 82 0 112 2 121 10 5 6 -17 65 -37 98 -5 8 -12 22 -16 30
-4 8 -9 17 -12 20 -4 3 -17 28 -31 55 -13 28 -35 64 -47 81 -13 17 -23 36 -23
42 0 7 -6 12 -14 12 -7 0 -19 7 -27 16 -10 13 -10 17 2 26 11 7 11 11 1 15 -6
2 -10 9 -6 14 3 5 -2 12 -10 15 -9 3 -16 13 -16 22 0 8 -6 23 -14 31 -8 9 -24
34 -37 56 -51 91 -79 142 -95 175 -10 19 -23 42 -29 50 -7 8 -28 44 -46 80
-19 36 -37 67 -40 70 -15 12 -29 51 -23 62 4 6 3 8 -4 4 -13 -8 -26 29 -16 45
4 8 3 9 -4 5 -11 -6 -50 47 -73 97 -13 31 -61 111 -69 117 -4 3 -15 24 -25 48
-11 23 -23 42 -29 42 -5 0 -6 3 -3 7 9 8 -12 33 -27 32 -6 0 -19 -9 -28 -20z
m146 -465 c41 -9 116 -43 116 -54 0 -12 -6 -12 -28 -1 -60 31 -268 44 -329 20
-15 -6 -39 -13 -53 -16 -13 -2 -27 -8 -30 -12 -9 -13 -60 -19 -60 -7 0 23 38
51 60 44 3 -1 16 5 30 13 46 25 197 32 294 13z m-64 -87 c8 -4 24 -8 35 -10
103 -18 265 -113 265 -157 0 -18 -55 -72 -85 -84 -14 -6 -16 -10 -6 -13 9 -4
10 -8 2 -12 -14 -9 -43 -119 -35 -132 3 -5 1 -9 -4 -9 -6 0 -6 -20 0 -51 13
-70 5 -89 -46 -121 -45 -29 -57 -33 -55 -20 1 4 1 26 0 50 -1 30 -5 42 -16 42
-8 0 -15 -6 -15 -13 0 -20 -108 -130 -120 -122 -5 3 -10 2 -10 -4 0 -5 -14
-12 -30 -16 -30 -7 -151 -8 -180 -2 -27 5 -79 40 -74 49 3 5 17 2 30 -7 35
-23 134 -30 205 -15 47 10 69 21 96 49 65 65 116 215 82 237 -8 4 -43 7 -79 6
-126 -5 -217 32 -306 123 -29 29 -60 57 -69 63 -11 5 -15 14 -10 22 10 16 111
80 128 80 7 0 18 5 24 11 13 13 114 51 120 45 2 -2 20 2 41 9 37 13 84 14 112
2z m-356 -407 c18 -6 26 -17 26 -33 0 -32 -18 -47 -57 -47 -18 0 -33 -3 -34
-7 0 -5 -2 -19 -3 -32 -2 -13 8 -36 22 -53 19 -22 22 -32 13 -41 -7 -7 -11 -7
-11 0 0 5 -11 22 -25 37 -39 42 -34 109 14 169 16 20 21 20 55 7z"/>
<path d="M1218 3342 c-22 -4 -22 -4 2 -47 11 -20 20 -42 20 -49 0 -24 -31 -76
-46 -76 -8 0 -14 -4 -14 -9 0 -28 -113 -14 -136 17 -14 19 -18 118 -4 127 25
15 9 35 -29 35 -42 0 -98 -22 -148 -57 -17 -13 -36 -23 -42 -23 -48 0 79 -151
157 -187 34 -15 61 -19 137 -17 149 4 239 42 324 137 l25 27 -42 40 c-23 21
-51 42 -62 45 -11 4 -20 10 -20 16 0 5 -10 8 -22 8 -13 -1 -36 3 -53 8 -16 5
-38 7 -47 5z"/>
<path d="M1299 3053 c-10 -3 -20 -19 -24 -40 -8 -43 7 -63 29 -41 8 9 13 18
10 21 -3 3 0 15 6 27 13 25 4 39 -21 33z"/>
<path d="M1315 2930 c3 -5 8 -10 11 -10 2 0 4 5 4 10 0 6 -5 10 -11 10 -5 0
-7 -4 -4 -10z"/>
<path d="M1257 2913 c-12 -11 -8 -23 8 -23 8 0 15 7 15 15 0 16 -12 20 -23 8z"/>
<path d="M3036 3931 c-9 -10 -16 -23 -16 -29 0 -7 -4 -12 -10 -12 -5 0 -10 -9
-10 -20 0 -11 -7 -23 -15 -26 -8 -4 -15 -15 -15 -25 0 -10 -4 -19 -10 -19 -5
0 -10 -7 -10 -15 0 -8 -3 -15 -7 -15 -5 0 -17 -19 -28 -43 -11 -23 -22 -44
-25 -47 -3 -3 -16 -27 -30 -55 -14 -27 -28 -51 -32 -53 -5 -2 -8 -10 -8 -18 0
-8 -7 -17 -15 -20 -8 -4 -15 -14 -15 -25 0 -10 -6 -22 -12 -26 -7 -4 -29 -39
-48 -78 -19 -38 -40 -77 -46 -85 -7 -8 -28 -46 -49 -84 -20 -39 -49 -89 -66
-113 -16 -24 -29 -51 -29 -59 0 -7 -4 -14 -10 -14 -5 0 -10 -6 -10 -14 0 -7
-6 -19 -13 -25 -8 -6 -24 -32 -37 -58 -14 -27 -39 -72 -57 -101 -18 -29 -33
-57 -33 -62 0 -6 -4 -10 -10 -10 -5 0 -10 -8 -11 -17 0 -10 -9 -31 -19 -48
-11 -16 -27 -46 -37 -65 -9 -19 -23 -41 -30 -48 -22 -23 -7 -28 74 -27 226 6
359 7 368 5 6 -2 18 0 28 5 9 4 30 4 45 1 70 -18 135 -20 307 -13 186 9 332
10 343 3 5 -3 76 -5 158 -5 82 0 170 0 197 0 33 0 47 4 47 13 0 17 -69 157
-86 173 -7 7 -20 31 -30 53 -10 22 -21 40 -26 40 -4 0 -8 9 -8 20 0 11 -3 20
-8 20 -8 0 -13 8 -51 86 -13 27 -34 62 -47 79 -12 17 -27 41 -33 55 -6 14 -27
52 -46 85 -20 33 -39 68 -42 78 -3 9 -10 17 -15 17 -5 0 -6 10 -3 21 5 15 4
19 -4 15 -7 -5 -19 10 -31 37 -11 25 -24 47 -29 49 -4 2 -25 35 -46 73 -21 39
-47 84 -57 100 -10 17 -21 38 -24 48 -4 9 -10 17 -15 17 -5 0 -9 9 -9 20 0 11
-4 20 -10 20 -5 0 -10 9 -10 20 0 11 -4 20 -10 20 -5 0 -12 11 -16 25 -3 13
-12 29 -20 36 -8 6 -11 15 -8 20 3 5 1 9 -3 9 -5 0 -22 24 -38 54 -36 67 -57
82 -79 57z m89 -461 c6 -4 24 -7 42 -8 39 -3 133 -43 115 -49 -7 -3 -20 -1
-30 3 -24 10 -28 11 -63 13 -19 1 -28 5 -23 12 4 8 1 8 -13 1 -10 -6 -25 -7
-33 -2 -8 4 -46 4 -85 0 -105 -12 -131 -17 -164 -34 -36 -19 -67 -20 -77 -4
-5 8 -2 9 10 5 10 -4 15 -3 11 3 -7 12 40 36 90 45 22 4 47 11 55 16 17 9 150
9 165 -1z m62 -109 c23 -6 45 -16 48 -21 3 -6 15 -10 25 -10 11 0 28 -10 40
-22 11 -12 20 -18 20 -14 0 13 58 -34 80 -64 l21 -30 -38 -40 c-54 -55 -57
-59 -77 -113 -14 -39 -17 -68 -14 -139 l4 -90 -35 -23 c-20 -13 -46 -26 -58
-30 -21 -6 -22 -3 -20 36 2 52 -13 59 -38 17 -46 -78 -160 -133 -255 -123 -83
8 -115 15 -118 26 -2 5 -10 9 -17 9 -7 0 -15 3 -17 8 -1 4 -16 17 -32 30 -16
12 -25 22 -20 22 5 0 3 4 -4 8 -7 5 -15 30 -19 57 -3 26 -1 45 3 42 5 -3 10 6
10 20 3 37 31 63 66 59 36 -4 41 -9 41 -41 0 -36 -18 -52 -52 -47 -26 3 -31 0
-37 -22 -9 -38 11 -78 56 -105 22 -14 36 -29 33 -35 -4 -6 1 -5 10 3 13 10 20
11 30 2 24 -19 136 -15 170 6 6 4 23 9 36 11 53 7 124 121 137 220 6 50 6 52
-17 52 -75 1 -189 9 -219 16 -43 9 -140 72 -140 90 0 8 -5 14 -12 14 -16 0
-88 70 -88 86 0 19 160 115 160 97 0 -5 4 -2 8 5 9 13 12 14 107 36 67 15 159
14 222 -3z"/>
<path d="M2920 3331 c-61 -15 -180 -83 -180 -104 0 -7 16 -30 35 -51 19 -22
32 -43 29 -48 -3 -4 2 -8 10 -8 9 0 16 -3 16 -7 0 -14 87 -63 111 -63 13 0 57
-3 97 -6 40 -3 80 -2 90 2 9 4 22 8 27 9 58 14 97 28 109 40 8 8 19 15 25 15
6 0 18 11 27 25 9 14 21 25 27 25 14 0 36 32 37 52 0 18 -66 72 -110 90 -42
17 -116 34 -127 31 -8 -3 -5 -18 7 -46 35 -82 -2 -149 -85 -152 -63 -3 -87 12
-102 64 -10 35 -10 50 2 84 18 53 10 60 -45 48z"/>
<path d="M3213 3028 c-13 -19 -16 -65 -4 -72 5 -4 18 11 27 31 10 21 19 41 21
46 7 12 -34 8 -44 -5z"/>
<path d="M4991 3921 c-11 -11 -27 -36 -37 -58 -10 -21 -33 -60 -51 -88 -18
-27 -33 -55 -33 -62 0 -7 -4 -13 -10 -13 -5 0 -10 -7 -10 -15 0 -9 -7 -18 -15
-21 -8 -4 -15 -11 -15 -18 0 -6 -9 -22 -20 -36 -11 -14 -20 -33 -20 -43 0 -10
-6 -20 -14 -23 -8 -3 -13 -11 -10 -18 3 -7 -2 -19 -11 -26 -8 -7 -15 -18 -15
-24 0 -6 -9 -22 -20 -36 -11 -14 -20 -33 -20 -42 0 -10 -4 -18 -9 -18 -5 0
-11 -8 -15 -17 -3 -10 -15 -33 -26 -50 -41 -67 -60 -99 -86 -150 -14 -29 -30
-53 -35 -53 -5 0 -9 -6 -9 -14 0 -7 -7 -19 -15 -26 -9 -7 -13 -15 -11 -18 7
-6 -22 -59 -46 -86 -10 -11 -18 -25 -18 -32 0 -6 -7 -17 -15 -24 -8 -7 -15
-21 -15 -31 0 -11 -4 -19 -10 -19 -5 0 -10 -9 -10 -20 0 -11 -4 -20 -9 -20 -5
0 -14 -12 -20 -27 -16 -38 -35 -70 -57 -96 -11 -12 -20 -31 -22 -42 -5 -34
-11 -46 -21 -41 -5 3 -8 -2 -7 -12 1 -11 -5 -16 -16 -14 -19 3 -23 -8 -9 -23
5 -6 11 -19 14 -30 4 -16 5 -15 6 6 l1 26 153 3 c83 1 202 2 262 2 61 -1 254
0 430 1 176 0 403 1 505 1 222 1 225 2 182 79 -59 104 -86 153 -120 217 -19
36 -39 67 -43 68 -5 2 -9 9 -9 16 0 7 -11 30 -25 50 -13 20 -22 36 -18 36 3 0
-1 8 -9 18 -35 40 -119 202 -112 214 4 7 4 10 -1 6 -8 -8 -29 17 -59 71 -15
28 -16 35 -5 43 11 8 10 9 -3 4 -12 -3 -24 7 -42 41 -14 25 -26 52 -26 59 0 8
-4 14 -9 14 -5 0 -24 28 -41 63 -18 34 -41 74 -51 89 -11 14 -19 31 -19 36 0
6 -3 12 -7 14 -5 2 -16 19 -26 38 -9 19 -31 60 -48 90 -64 113 -65 114 -98 81z
m207 -481 c28 -12 52 -27 52 -32 0 -10 -45 -6 -56 5 -4 4 -20 7 -34 7 -15 0
-43 6 -61 14 -19 7 -40 11 -48 8 -9 -3 -11 0 -6 8 6 9 4 11 -5 5 -7 -4 -23 -9
-34 -11 -66 -10 -159 -35 -196 -54 -44 -23 -74 -21 -64 4 7 17 91 59 104 51 5
-3 11 -1 15 4 3 6 12 8 19 5 8 -3 17 -1 20 4 3 6 56 9 123 8 98 -2 127 -7 171
-26z m-75 -82 c9 -1 17 -5 17 -8 0 -3 12 -7 26 -8 53 -4 204 -107 204 -138 0
-15 -46 -64 -60 -64 -6 0 -10 -7 -10 -15 0 -8 -5 -15 -12 -15 -6 0 -8 -3 -5
-6 8 -8 -12 -46 -21 -40 -11 7 -18 -143 -9 -223 1 -15 -5 -28 -18 -35 -10 -6
-25 -17 -33 -24 -47 -43 -64 -32 -55 35 7 54 -13 66 -32 19 -9 -20 -20 -36
-25 -36 -6 0 -10 -5 -10 -11 0 -24 -101 -89 -140 -89 -11 0 -20 -4 -20 -9 0
-14 -150 -4 -169 12 -9 7 -28 19 -43 26 -15 8 -39 27 -55 43 -23 24 -28 38
-29 83 -1 30 2 55 5 55 4 0 15 14 24 30 13 21 26 30 43 30 14 0 22 -4 19 -10
-3 -5 0 -7 9 -4 9 3 17 -2 21 -15 11 -37 -3 -57 -48 -67 -43 -9 -45 -14 -35
-65 7 -29 53 -67 106 -84 60 -19 150 -14 211 13 20 9 39 15 44 14 4 -1 7 2 7
6 0 5 11 22 25 38 14 16 28 38 31 49 4 11 10 22 14 25 13 10 38 118 29 131 -6
10 -35 14 -112 15 -75 1 -116 6 -152 20 -50 19 -63 27 -113 74 -15 14 -42 37
-59 51 -18 15 -35 38 -38 50 -5 20 1 28 40 52 25 15 50 27 55 27 4 0 21 7 37
15 37 20 102 47 133 56 21 6 126 4 203 -3z"/>
<path d="M4875 3321 c-41 -10 -135 -57 -164 -81 l-24 -21 20 -22 c11 -12 32
-35 46 -52 15 -16 27 -33 27 -37 0 -5 5 -8 10 -8 10 0 20 -7 53 -36 7 -6 32
-14 57 -19 156 -29 286 3 390 95 60 53 61 72 2 115 -26 19 -54 35 -62 35 -9 0
-20 4 -25 9 -16 14 -103 34 -115 26 -8 -5 -7 -13 3 -29 41 -62 29 -130 -29
-158 -45 -23 -71 -23 -111 2 -42 25 -57 77 -37 126 8 19 19 32 23 29 5 -3 7 4
4 15 -6 21 -18 23 -68 11z m442 -127 c-3 -3 -12 -4 -19 -1 -8 3 -5 6 6 6 11 1
17 -2 13 -5z"/>
<path d="M5170 3014 c-14 -35 -13 -44 5 -44 16 0 48 54 38 64 -14 14 -34 5
-43 -20z"/>
<path d="M5150 2941 c-7 -13 -7 -22 0 -26 13 -8 30 3 30 20 0 23 -18 27 -30 6z"/>
<path d="M4218 3923 c6 -2 13 -14 13 -26 1 -15 3 -17 6 -6 2 9 14 21 26 27 19
9 17 11 -18 11 -22 -1 -34 -3 -27 -6z"/>
<path d="M1745 3911 c-3 -6 4 -9 15 -8 11 1 20 5 20 9 0 11 -28 10 -35 -1z"/>
<path d="M4230 3851 c0 -11 -6 -22 -12 -24 -8 -3 -6 -6 5 -6 12 -1 17 7 17 24
0 14 -2 25 -5 25 -3 0 -5 -9 -5 -19z"/>
<path d="M2278 3739 c3 -44 0 -64 -10 -70 -9 -6 -4 -9 16 -9 21 0 26 3 19 13
-14 19 -8 108 8 118 10 6 7 9 -11 9 -24 0 -25 -2 -22 -61z"/>
<path d="M4214 3643 c7 -15 12 -18 14 -8 2 7 11 15 20 17 10 3 4 6 -14 9 -28
5 -30 4 -20 -18z"/>
<path d="M340 3639 c0 -5 5 -7 10 -4 6 3 10 8 10 11 0 2 -4 4 -10 4 -5 0 -10
-5 -10 -11z"/>
<path d="M4221 3590 c0 -15 -6 -31 -11 -36 -7 -7 -1 -9 20 -6 25 4 28 6 16 16
-8 6 -16 20 -19 31 -4 16 -5 15 -6 -5z"/>
<path d="M2276 3501 c7 -13 11 -29 8 -35 -12 -32 -10 -75 3 -80 23 -9 26 -7
14 7 -12 15 -13 119 -1 112 4 -3 10 1 13 9 4 10 -3 13 -22 12 -26 -1 -27 -2
-15 -25z"/>
<path d="M4215 3377 c14 -11 17 -22 12 -55 -3 -24 -1 -40 4 -36 5 3 9 23 9 46
0 29 4 39 13 35 8 -3 14 1 14 9 0 9 -12 14 -36 14 -32 0 -33 -1 -16 -13z"/>
<path d="M3725 3319 c-4 -6 -5 -12 -2 -15 2 -3 7 2 10 11 7 17 1 20 -8 4z"/>
<path d="M1596 3285 c4 -8 8 -15 10 -15 2 0 4 7 4 15 0 8 -4 15 -10 15 -5 0
-7 -7 -4 -15z"/>
<path d="M2274 3244 c3 -9 6 -21 7 -27 0 -7 4 -3 9 8 13 29 12 35 -6 35 -11 0
-14 -5 -10 -16z"/>
<path d="M2274 3155 c-1 -19 3 -35 7 -35 5 0 9 16 9 35 0 46 -15 46 -16 0z"/>
<path d="M1630 3131 c0 -6 4 -13 10 -16 6 -3 7 1 4 9 -7 18 -14 21 -14 7z"/>
<path d="M4203 3116 c20 -16 24 -92 5 -99 -7 -3 3 -5 22 -5 28 1 36 5 36 20 0
12 -5 16 -17 13 -14 -5 -17 0 -16 27 1 18 7 33 14 33 14 0 30 15 17 16 -5 0
-25 2 -44 4 -31 4 -33 3 -17 -9z"/>
<path d="M1715 3060 c3 -5 8 -10 11 -10 2 0 4 5 4 10 0 6 -5 10 -11 10 -5 0
-7 -4 -4 -10z"/>
<path d="M3775 3040 c-3 -5 -1 -10 4 -10 6 0 11 5 11 10 0 6 -2 10 -4 10 -3 0
-8 -4 -11 -10z"/>
<path d="M2258 2983 c8 -3 12 -27 12 -70 0 -83 8 -79 11 4 1 34 6 60 10 57 4
-2 10 0 14 6 4 6 -7 10 -27 9 -18 0 -27 -3 -20 -6z"/>
<path d="M4207 2836 c4 -12 8 -38 8 -58 0 -33 3 -38 22 -38 16 0 21 4 17 15
-4 8 -10 12 -15 9 -5 -3 -9 13 -9 35 0 35 3 41 22 41 32 0 14 12 -21 14 -27 2
-30 0 -24 -18z"/>
<path d="M330 2830 c-13 -8 -12 -10 3 -10 9 0 17 5 17 10 0 12 -1 12 -20 0z"/>
<path d="M2269 2688 c3 -24 6 -27 9 -13 2 11 12 25 21 32 14 11 13 12 -10 13
-23 0 -25 -3 -20 -32z"/>
<path d="M4220 2502 c0 -7 -1 -15 -2 -19 -2 -3 5 -7 15 -9 15 -2 16 0 5 14 -7
9 -14 19 -15 21 -2 2 -3 -1 -3 -7z"/>
<path d="M2249 2447 c10 -13 12 -34 8 -82 -4 -36 -3 -65 2 -65 4 0 9 28 10 63
1 45 6 65 18 75 15 11 15 12 1 12 -9 0 -25 3 -35 7 -16 6 -16 5 -4 -10z"/>
<path d="M1276 2335 c-3 -9 -11 -15 -18 -14 -30 4 -78 -2 -78 -8 0 -5 25 -8
55 -8 50 0 55 2 55 23 0 26 -5 28 -14 7z"/>
<path d="M2624 2335 c-4 -10 -20 -15 -47 -15 -49 0 -46 -5 9 -14 39 -5 42 -4
46 19 6 28 1 33 -8 10z"/>
<path d="M376 2327 c4 -11 20 -16 60 -16 38 0 54 4 51 12 -3 7 -11 10 -18 8
-44 -11 -72 -11 -85 0 -12 10 -13 9 -8 -4z"/>
<path d="M640 2325 c0 -18 5 -20 60 -17 33 2 58 7 55 11 -2 5 -26 7 -52 6 -28
-2 -51 2 -55 9 -5 7 -8 3 -8 -9z"/>
<path d="M1010 2329 c0 -7 -18 -10 -50 -7 -29 2 -50 -1 -50 -7 0 -6 26 -10 58
-10 51 0 58 2 54 18 -5 19 -12 23 -12 6z"/>
<path d="M1440 2326 c0 -13 11 -16 60 -16 33 0 60 4 60 9 0 5 -20 6 -45 3 -28
-3 -50 0 -60 8 -12 10 -15 10 -15 -4z"/>
<path d="M2350 2330 c0 -5 -17 -11 -37 -11 -35 -2 -35 -2 -8 -6 17 -3 36 -9
43 -15 9 -8 12 -4 12 16 0 14 -2 26 -5 26 -3 0 -5 -4 -5 -10z"/>
<path d="M2781 2317 c-1 -20 3 -26 12 -20 6 4 21 9 31 10 33 5 31 13 -1 13
-17 0 -34 6 -36 13 -3 6 -6 -1 -6 -16z"/>
<path d="M2872 2320 c-10 -17 -10 -20 6 -20 11 0 18 7 18 20 0 11 -3 20 -6 20
-3 0 -11 -9 -18 -20z"/>
<path d="M3151 2328 c-15 -16 -83 -18 -93 -3 -5 6 -8 3 -8 -7 0 -13 11 -16 60
-17 53 0 60 2 60 20 0 22 -2 23 -19 7z"/>
<path d="M3694 2325 c-3 -8 -4 -20 -2 -27 3 -7 7 -1 10 15 6 29 1 36 -8 12z"/>
<path d="M3946 2330 c-19 -6 -19 -7 -1 -13 20 -8 29 -4 24 11 -2 5 -13 6 -23
2z"/>
<path d="M1710 2318 c0 -3 27 -8 60 -10 36 -2 60 1 60 7 0 6 -27 10 -60 10
-33 0 -60 -3 -60 -7z"/>
<path d="M2045 2323 c-72 -6 -75 -18 -4 -18 40 0 59 4 59 13 0 6 -1 11 -2 10
-2 -1 -25 -3 -53 -5z"/>
<path d="M3415 2322 c-4 -4 -14 -7 -23 -8 -10 -1 -29 -2 -44 -3 -16 0 -28 -4
-28 -8 0 -5 27 -6 60 -5 33 2 60 8 60 12 0 13 -16 21 -25 12z"/>
<path d="M3591 2305 c0 -16 3 -25 7 -19 4 7 18 14 32 17 l25 4 -27 2 c-14 0
-29 7 -31 14 -3 6 -6 -1 -6 -18z"/>
<path d="M4490 2319 c0 -7 -18 -10 -50 -7 -29 2 -50 -1 -50 -7 0 -6 23 -9 55
-7 39 3 55 8 55 18 0 8 -2 14 -5 14 -3 0 -5 -5 -5 -11z"/>
<path d="M4760 2319 c0 -7 -20 -10 -55 -7 -68 4 -58 -8 13 -14 46 -4 52 -3 52
13 0 11 -2 19 -5 19 -3 0 -5 -5 -5 -11z"/>
<path d="M5030 2320 c0 -5 -25 -10 -55 -10 -30 0 -55 -3 -55 -7 0 -5 26 -7 57
-7 45 1 59 5 61 18 2 9 1 16 -2 16 -3 0 -6 -4 -6 -10z"/>
<path d="M5190 2315 c0 -18 7 -20 55 -20 30 0 55 5 55 10 0 6 -19 9 -46 6 -32
-2 -49 1 -55 10 -7 11 -9 9 -9 -6z"/>
<path d="M5826 2314 c-4 -9 -13 -14 -21 -10 -8 3 -15 1 -15 -4 0 -6 11 -10 25
-10 18 0 25 5 25 20 0 24 -6 26 -14 4z"/>
<path d="M2510 2310 c0 -5 5 -10 10 -10 6 0 10 5 10 10 0 6 -4 10 -10 10 -5 0
-10 -4 -10 -10z"/>
<path d="M3856 2308 c3 -5 25 -8 49 -8 24 0 46 -5 48 -10 3 -6 4 -5 3 2 -2 8
-24 15 -53 18 -28 3 -49 2 -47 -2z"/>
<path d="M4148 2313 c-47 -7 -31 -18 27 -18 37 0 55 4 55 13 0 12 -26 13 -82
5z"/>
<path d="M5556 2313 c-4 -4 -27 -6 -51 -4 -25 1 -45 -1 -45 -6 0 -4 25 -8 55
-9 39 0 55 4 55 13 0 15 -3 16 -14 6z"/>
<path d="M5725 2309 c7 -10 55 -18 55 -9 0 4 -13 10 -29 12 -17 2 -28 1 -26
-3z"/>
<path d="M5990 2293 c0 -5 29 -8 64 -8 35 0 62 3 59 8 -2 4 -31 7 -64 7 -32 0
-59 -3 -59 -7z"/>
<path d="M4217 2249 c4 -13 8 -18 11 -10 2 7 -1 18 -6 23 -8 8 -9 4 -5 -13z"/>
<path d="M5470 2236 c0 -2 7 -9 15 -16 13 -11 14 -10 9 4 -5 14 -24 23 -24 12z"/>
<path d="M4220 2211 c0 -5 9 -7 20 -4 11 3 20 7 20 9 0 2 -9 4 -20 4 -11 0
-20 -4 -20 -9z"/>
<path d="M2260 2093 c0 -42 3 -73 7 -70 3 4 5 34 4 66 -2 48 1 61 16 70 16 10
16 10 -4 11 -22 0 -23 -4 -23 -77z"/>
<path d="M4199 2041 c9 -6 12 -23 10 -55 -4 -41 -2 -46 16 -46 11 0 16 4 10 8
-5 4 -11 21 -12 39 -2 23 3 36 19 47 22 16 21 16 -17 16 -26 0 -35 -3 -26 -9z"/>
<path d="M310 2019 c0 -5 5 -7 10 -4 6 3 10 8 10 11 0 2 -4 4 -10 4 -5 0 -10
-5 -10 -11z"/>
<path d="M1076 1959 c-14 -17 -26 -36 -26 -43 0 -8 -9 -25 -20 -39 -11 -14
-20 -32 -20 -41 0 -9 -5 -16 -11 -16 -5 0 -17 -15 -25 -32 -8 -18 -22 -45 -32
-60 -34 -52 -72 -121 -72 -129 0 -5 -4 -9 -10 -9 -5 0 -10 -6 -10 -13 0 -6
-16 -34 -35 -61 -19 -27 -35 -54 -35 -60 0 -6 -14 -29 -30 -50 -17 -22 -30
-44 -30 -49 0 -5 -22 -47 -50 -94 -27 -47 -50 -89 -50 -93 0 -5 -8 -14 -17
-19 -10 -6 -15 -11 -10 -11 4 0 -3 -17 -16 -37 -12 -21 -29 -51 -37 -68 -8
-16 -22 -39 -31 -50 -10 -11 -19 -27 -21 -35 -2 -8 -18 -37 -35 -63 -18 -27
-33 -55 -33 -63 0 -8 -7 -14 -15 -14 -8 0 -15 -9 -15 -19 0 -11 -4 -23 -10
-26 -5 -3 -10 -15 -10 -26 0 -10 -4 -19 -10 -19 -5 0 -10 -7 -10 -15 0 -8 -4
-15 -10 -15 -5 0 -10 -13 -10 -30 0 -25 4 -30 24 -30 14 0 27 -4 30 -8 3 -5
60 -9 126 -9 67 -1 124 -4 127 -7 3 -3 13 -1 22 3 9 5 81 7 161 4 80 -3 204
-5 275 -5 72 0 136 -5 143 -10 8 -7 12 -7 12 1 0 7 5 9 10 6 6 -3 15 -3 22 1
17 11 141 12 155 1 14 -10 404 -4 422 7 15 10 14 32 -4 50 -8 8 -12 22 -9 30
3 9 1 16 -5 16 -6 0 -19 18 -28 40 -10 22 -21 40 -25 40 -5 0 -8 8 -8 17 0 9
-6 24 -14 32 -22 25 -76 127 -76 145 0 9 -3 16 -8 16 -4 0 -16 17 -27 38 -11
20 -37 65 -57 100 -21 34 -38 67 -38 72 0 6 -4 10 -10 10 -5 0 -10 7 -10 15 0
8 -4 15 -10 15 -5 0 -10 7 -10 15 0 8 -12 36 -27 62 -46 84 -65 117 -84 148
-10 17 -23 40 -28 52 -6 12 -22 41 -37 65 -26 40 -38 62 -114 204 -16 31 -27
61 -23 67 3 7 3 9 -2 5 -8 -7 -55 51 -55 69 -1 9 -36 53 -43 53 -3 0 -17 -14
-31 -31z m139 -452 c35 -6 95 -31 95 -40 0 -4 3 -6 8 -3 4 2 15 -2 25 -9 25
-18 5 -28 -30 -13 -15 6 -31 11 -34 10 -3 0 -28 6 -54 14 -50 15 -196 20 -209
7 -4 -5 -15 -8 -24 -8 -9 0 -45 -11 -80 -24 -46 -17 -66 -21 -74 -13 -13 13 8
46 23 36 5 -3 9 -1 9 4 0 33 226 58 345 39z m0 -102 c121 -44 184 -81 228
-131 l28 -33 -44 -44 c-25 -24 -48 -54 -52 -66 -3 -11 -10 -21 -14 -21 -14 0
-33 -121 -29 -187 5 -73 0 -83 -61 -115 -46 -25 -52 -23 -47 21 5 50 -5 68
-26 44 -9 -10 -19 -28 -22 -40 -4 -11 -21 -32 -39 -45 -39 -29 -115 -61 -128
-53 -5 4 -9 1 -9 -6 0 -14 -138 -5 -154 11 -6 6 -16 10 -24 10 -21 0 -91 59
-107 91 -29 56 -14 128 35 166 21 17 40 16 62 -4 21 -19 24 -56 5 -71 -6 -6
-28 -12 -47 -14 -28 -2 -36 -8 -38 -26 -4 -24 40 -92 59 -92 5 0 22 -9 37 -20
21 -16 45 -21 107 -22 69 -2 87 2 131 24 60 31 108 98 130 180 21 79 16 85
-69 87 -114 2 -158 11 -217 43 -65 36 -91 57 -84 69 3 5 0 9 -5 9 -16 0 -91
78 -91 94 0 17 47 49 61 41 5 -4 8 -1 7 6 -3 12 26 30 92 58 58 25 88 33 145
38 33 3 61 6 63 8 6 5 97 -2 117 -10z m-555 -375 c0 -5 -4 -10 -10 -10 -5 0
-10 5 -10 10 0 6 5 10 10 10 6 0 10 -4 10 -10z"/>
<path d="M945 1359 c-4 -6 -13 -8 -21 -5 -8 3 -14 2 -14 -3 0 -5 -10 -11 -22
-15 -28 -7 -29 -7 -48 -23 -8 -6 -26 -21 -40 -32 l-25 -19 23 -24 c12 -13 22
-28 22 -31 0 -12 58 -66 99 -92 21 -13 58 -27 82 -31 57 -10 162 -9 185 1 22
9 42 14 67 17 9 1 17 5 17 8 0 3 14 11 31 19 17 8 53 35 79 61 26 26 54 50 61
53 12 5 12 6 1 6 -8 1 -34 19 -59 41 -25 22 -52 41 -59 41 -18 2 -24 4 -54 16
-14 6 -40 14 -57 18 -27 5 -33 3 -33 -10 0 -9 7 -23 15 -31 18 -18 19 -59 4
-102 -7 -21 -24 -37 -52 -51 -37 -18 -48 -19 -80 -9 -53 16 -81 64 -72 121 4
23 12 45 18 48 5 4 7 14 4 23 -7 18 -62 22 -72 5z"/>
<path d="M1260 1045 c-6 -15 -9 -33 -6 -39 2 -6 7 -2 12 9 4 11 12 23 18 27 8
5 7 11 -1 19 -10 10 -15 6 -23 -16z"/>
<path d="M4975 1945 c-14 -13 -25 -31 -25 -40 0 -8 -3 -15 -7 -15 -5 0 -13
-10 -19 -23 -6 -12 -27 -51 -47 -85 -21 -35 -37 -70 -37 -78 0 -8 -4 -14 -9
-14 -5 0 -16 -15 -26 -32 -47 -92 -64 -121 -72 -127 -5 -3 -14 -17 -21 -31 -6
-14 -16 -32 -20 -40 -23 -40 -32 -61 -32 -75 0 -8 -7 -15 -15 -15 -8 0 -15 -9
-15 -20 0 -11 -4 -20 -8 -20 -5 0 -14 -16 -22 -35 -8 -19 -17 -35 -22 -35 -4
0 -8 -9 -8 -19 0 -11 -4 -22 -9 -25 -5 -3 -21 -29 -37 -58 -36 -70 -51 -96
-76 -138 -12 -19 -33 -58 -48 -86 -51 -96 -84 -149 -97 -157 -7 -5 -11 -13 -7
-18 3 -6 0 -18 -8 -27 -8 -9 -25 -38 -38 -64 -36 -70 -27 -75 122 -71 201 5
612 8 773 5 195 -2 556 5 599 13 37 7 42 31 13 63 -9 10 -17 26 -17 35 0 9 -4
17 -10 17 -5 0 -10 6 -10 13 0 7 -11 29 -25 49 -14 20 -25 44 -25 52 0 8 -6
21 -13 28 -7 7 -22 29 -32 48 -11 19 -26 43 -33 52 -8 9 -11 21 -8 26 3 6 0
12 -7 15 -6 3 -21 22 -32 43 -11 22 -37 66 -57 98 -21 33 -38 70 -38 83 0 12
-6 23 -12 23 -7 0 -26 25 -42 55 -16 30 -32 55 -35 55 -8 0 -36 67 -30 72 2 2
-10 18 -26 36 -29 33 -58 79 -71 115 -3 9 -10 17 -15 17 -5 0 -9 5 -9 11 0 5
-25 53 -55 105 -30 53 -55 99 -55 103 0 4 -9 16 -19 25 -11 10 -17 24 -14 32
3 8 -1 14 -11 14 -9 0 -16 8 -16 18 -1 18 -22 52 -34 52 -4 0 -18 -11 -31 -25z
m147 -450 c59 -14 138 -52 138 -68 0 -5 -8 -6 -17 -2 -47 18 -173 45 -212 45
-67 0 -161 -19 -211 -43 -48 -24 -77 -29 -86 -16 -7 11 28 49 39 42 5 -3 13 0
17 6 6 11 26 18 113 39 50 12 160 11 219 -3z m16 -109 c105 -28 222 -107 222
-151 0 -12 -18 -37 -40 -57 -57 -53 -76 -110 -74 -233 l0 -100 -55 -33 c-62
-37 -72 -32 -60 31 9 52 5 57 -21 26 -11 -13 -23 -28 -28 -34 -4 -5 -9 -14 -9
-18 -3 -20 -109 -94 -120 -84 -3 4 -19 -1 -36 -10 -57 -29 -189 -1 -252 54
-36 31 -55 66 -55 101 0 39 24 102 39 102 6 0 11 6 11 14 0 9 8 12 27 8 33 -6
53 -24 53 -47 0 -21 -36 -59 -48 -51 -21 13 -42 -6 -42 -37 0 -43 63 -101 121
-112 76 -14 123 -13 158 1 19 8 36 12 39 10 2 -3 23 13 46 34 22 22 44 40 49
40 4 0 7 9 7 19 0 11 10 36 21 56 12 20 19 39 15 42 -3 4 0 16 8 27 8 14 10
29 5 43 -7 20 -14 21 -116 22 -144 0 -199 22 -295 116 -59 58 -68 72 -63 93 3
13 8 22 11 19 3 -3 17 6 31 19 14 13 32 24 40 24 8 0 31 11 51 25 20 14 47 25
59 25 13 0 23 5 23 10 0 6 20 10 45 10 25 0 45 4 45 9 0 13 119 5 188 -13z"/>
<path d="M5103 1363 c-16 -6 -16 -31 0 -63 13 -26 9 -74 -8 -100 -34 -53 -120
-66 -161 -25 -14 14 -23 29 -19 34 3 5 0 11 -5 13 -21 7 -21 59 -1 93 11 18
17 36 14 39 -9 9 -51 7 -71 -3 -9 -5 -48 -24 -85 -42 -37 -18 -72 -39 -78 -46
-11 -13 -10 -14 81 -113 63 -69 165 -93 300 -70 104 18 146 39 212 102 26 27
48 52 48 57 0 19 -71 70 -127 90 -32 12 -65 25 -73 29 -8 5 -21 7 -27 5z"/>
<path d="M5167 1063 c-13 -12 -7 -43 8 -43 8 0 15 4 15 9 0 5 3 16 6 25 6 16
-16 23 -29 9z"/>
<path d="M1515 1940 c3 -5 8 -10 11 -10 2 0 4 5 4 10 0 6 -5 10 -11 10 -5 0
-7 -4 -4 -10z"/>
<path d="M3046 1926 c-9 -14 -16 -30 -16 -36 0 -5 -4 -10 -10 -10 -5 0 -10 -9
-10 -19 0 -10 -7 -21 -15 -25 -8 -3 -15 -14 -15 -23 0 -10 -9 -25 -20 -33 -11
-8 -20 -22 -20 -31 0 -9 -6 -22 -14 -29 -8 -6 -12 -18 -9 -26 3 -8 0 -14 -6
-14 -6 0 -19 -16 -28 -35 -9 -19 -20 -35 -25 -35 -4 0 -8 -11 -8 -25 0 -15 -6
-25 -15 -25 -8 0 -17 -11 -21 -25 -3 -13 -12 -29 -20 -36 -8 -6 -14 -20 -14
-30 0 -11 -4 -19 -10 -19 -5 0 -10 -6 -10 -14 0 -7 -7 -19 -16 -27 -9 -7 -25
-33 -37 -58 -32 -69 -60 -111 -77 -112 -10 0 -11 -2 -3 -5 8 -4 2 -21 -18 -55
-18 -28 -35 -46 -41 -42 -7 3 -8 1 -4 -6 4 -6 2 -18 -4 -26 -7 -8 -9 -15 -5
-15 4 0 -8 -18 -25 -40 -17 -22 -29 -40 -25 -40 3 0 -2 -12 -13 -27 -11 -16
-34 -54 -50 -85 -47 -85 -56 -103 -63 -108 -3 -3 -18 -31 -33 -62 -16 -32 -32
-58 -36 -58 -12 0 -9 -60 3 -61 134 -7 268 -11 472 -14 231 -4 386 -9 410 -15
6 -1 12 -1 15 0 3 1 76 4 164 6 87 1 161 5 164 8 2 3 13 1 24 -5 16 -8 180
-15 259 -10 18 1 32 38 18 46 -5 3 -16 23 -25 43 -10 20 -24 45 -33 56 -9 10
-14 19 -12 20 4 1 -19 47 -78 156 -23 41 -52 95 -64 120 -12 25 -25 47 -28 50
-10 9 -93 157 -145 260 -15 30 -33 58 -40 62 -6 4 -15 19 -18 33 -4 15 -20 45
-36 67 -17 23 -30 45 -30 49 0 5 -21 41 -46 80 -25 39 -43 74 -40 76 3 3 -8
23 -24 43 -17 21 -30 43 -30 49 0 6 -4 11 -10 11 -5 0 -10 8 -10 18 0 10 -5
23 -11 29 -6 6 -21 31 -33 54 -26 53 -55 62 -80 25z m164 -446 c50 -13 120
-49 120 -63 0 -5 -6 -7 -12 -4 -7 2 -40 10 -73 17 -33 7 -64 16 -70 20 -16 12
-126 11 -185 0 -30 -6 -79 -20 -108 -32 -39 -16 -55 -19 -64 -10 -18 18 5 37
70 57 31 10 60 21 65 24 11 11 207 4 257 -9z m-29 -96 c38 -8 69 -20 69 -25 0
-5 3 -8 8 -7 31 8 182 -102 182 -133 0 -6 -22 -33 -49 -60 -27 -27 -54 -64
-60 -82 -22 -69 -31 -160 -20 -199 9 -32 -7 -54 -63 -87 -28 -17 -38 -19 -39
-9 0 7 -4 4 -9 -7 -12 -27 -12 -1 -1 47 6 27 5 38 -4 42 -8 2 -16 -1 -19 -7
-30 -60 -67 -96 -118 -113 -10 -4 -18 -10 -18 -14 0 -13 -73 -26 -134 -24 -58
2 -136 28 -136 46 0 4 -3 7 -7 7 -21 -3 -26 2 -13 12 13 9 12 10 -3 5 -31 -10
-64 37 -69 99 -3 30 3 55 12 50 5 -3 7 0 4 9 -12 31 37 62 87 58 26 -3 30 -60
7 -82 -20 -18 -57 -16 -70 4 -4 6 -8 -10 -8 -36 0 -43 4 -49 46 -87 26 -23 52
-41 58 -42 6 0 20 -2 31 -4 62 -12 80 -12 141 2 79 18 127 59 167 145 25 53
38 121 25 134 -4 3 -49 7 -100 8 -101 2 -154 14 -207 47 -45 27 -28 47 20 22
19 -10 37 -22 41 -28 4 -5 27 -9 52 -10 25 0 46 -2 46 -5 0 -7 93 -5 105 2 6
3 27 9 48 13 63 12 130 50 175 99 23 25 42 50 42 55 0 13 -88 75 -125 88 -16
6 -39 15 -50 19 -26 10 -75 15 -75 9 0 -3 7 -17 16 -31 22 -33 23 -94 1 -127
-20 -30 -83 -53 -121 -43 -51 13 -90 88 -71 133 27 61 8 85 -48 63 -159 -63
-197 -97 -149 -132 10 -7 30 -29 45 -50 49 -64 10 -54 -61 17 l-67 66 33 28
c31 27 136 85 157 87 6 0 23 6 39 13 31 12 113 28 159 30 15 0 59 -6 98 -15z"/>
<path d="M3242 1051 c-8 -4 -16 -28 -19 -52 -6 -40 -5 -43 10 -30 10 7 17 21
17 30 0 9 5 22 12 29 15 15 -2 34 -20 23z"/>
<path d="M2260 1835 c0 -36 0 -68 -1 -72 0 -5 8 -9 18 -11 14 -2 15 -1 4 6
-10 7 -12 27 -9 76 2 36 0 66 -4 66 -4 0 -8 -29 -8 -65z"/>
<path d="M4190 1779 c0 -13 41 -22 52 -11 6 6 -1 11 -21 14 -17 3 -31 1 -31
-3z"/>
<path d="M305 1750 c-3 -6 1 -7 9 -4 18 7 21 14 7 14 -6 0 -13 -4 -16 -10z"/>
<path d="M4215 1680 c-4 -6 3 -10 14 -10 25 0 27 6 6 13 -8 4 -17 2 -20 -3z"/>
<path d="M318 1653 c7 -3 16 -2 19 1 4 3 -2 6 -13 5 -11 0 -14 -3 -6 -6z"/>
<path d="M2257 1588 c7 -55 13 -61 13 -15 0 21 5 37 10 37 6 0 10 5 10 10 0 6
-9 10 -19 10 -17 0 -18 -5 -14 -42z"/>
<path d="M2258 1513 c-3 -12 -3 -24 0 -27 9 -10 32 -7 32 5 0 5 -4 8 -9 4 -5
-3 -11 5 -13 17 l-3 23 -7 -22z"/>
<path d="M4188 1503 c7 -3 12 -24 12 -54 0 -44 2 -49 23 -49 19 1 20 2 5 10
-11 7 -15 20 -13 38 2 15 4 32 4 39 1 6 11 14 24 16 12 2 2 5 -23 5 -25 0 -39
-2 -32 -5z"/>
<path d="M310 1480 c0 -5 7 -7 15 -4 8 4 15 8 15 10 0 2 -7 4 -15 4 -8 0 -15
-4 -15 -10z"/>
<path d="M2257 1353 c-3 -5 -5 -38 -5 -75 0 -50 3 -68 13 -68 7 0 16 7 19 16
5 14 4 15 -8 5 -11 -10 -13 -3 -11 41 2 29 6 61 10 71 7 16 -9 25 -18 10z"/>
<path d="M4194 1227 c14 -10 17 -23 14 -55 -2 -23 0 -42 4 -42 5 0 8 23 8 51
0 28 4 48 9 44 5 -3 12 -1 16 5 4 6 -8 10 -31 10 -34 0 -36 -1 -20 -13z"/>
<path d="M305 1210 c4 -6 11 -8 16 -5 14 9 11 15 -7 15 -8 0 -12 -5 -9 -10z"/>
<path d="M5675 1130 c-3 -5 -1 -10 4 -10 6 0 11 5 11 10 0 6 -2 10 -4 10 -3 0
-8 -4 -11 -10z"/>
<path d="M2233 1086 c13 -10 17 -28 17 -80 0 -55 3 -66 17 -66 13 0 14 3 5 12
-15 15 -16 100 0 116 12 12 10 13 -39 27 -17 5 -17 4 0 -9z"/>
<path d="M4202 938 c15 -45 20 -49 16 -13 -2 20 1 29 10 28 6 -2 12 2 12 7 0
6 -11 10 -24 10 -24 0 -24 -2 -14 -32z"/>
<path d="M310 939 c0 -5 5 -7 10 -4 6 3 10 8 10 11 0 2 -4 4 -10 4 -5 0 -10
-5 -10 -11z"/>
<path d="M4200 875 c0 -8 7 -15 15 -15 9 0 12 6 9 15 -4 8 -10 15 -15 15 -5 0
-9 -7 -9 -15z"/>
<path d="M2242 778 c5 -24 7 -60 4 -80 -4 -23 -2 -38 4 -38 6 0 10 29 10 70 0
40 4 70 10 70 6 0 10 5 10 10 0 6 -11 10 -24 10 -23 0 -24 -2 -14 -42z"/>
<path d="M4183 693 c13 -3 17 -15 17 -54 0 -35 4 -49 14 -49 11 0 12 8 5 38
-12 51 -12 52 14 62 18 7 13 9 -23 8 -25 0 -37 -2 -27 -5z"/>
<path d="M840 525 c0 -5 56 -35 65 -35 3 0 4 4 1 9 -6 10 -66 33 -66 26z"/>
<path d="M2246 522 c-7 -12 -10 -131 -3 -139 4 -3 7 19 7 51 0 32 5 66 10 77
10 18 -3 29 -14 11z"/>
<path d="M4190 426 c0 -2 7 -6 15 -10 8 -3 15 -1 15 4 0 6 -7 10 -15 10 -8 0
-15 -2 -15 -4z"/>
<path d="M298 403 c7 -3 16 -2 19 1 4 3 -2 6 -13 5 -11 0 -14 -3 -6 -6z"/>
<path d="M2046 325 c-3 -8 -1 -15 4 -15 6 0 10 7 10 15 0 8 -2 15 -4 15 -2 0
-6 -7 -10 -15z"/>
<path d="M4648 308 c6 -6 18 -8 28 -6 14 3 12 5 -9 10 -19 3 -25 2 -19 -4z"/>
</g>
</svg>
