<?xml version="1.0" standalone="no"?>
<!DOCTYPE svg PUBLIC "-//W3C//DTD SVG 20010904//EN"
 "http://www.w3.org/TR/2001/REC-SVG-20010904/DTD/svg10.dtd">
<svg version="1.0" xmlns="http://www.w3.org/2000/svg"
 width="500.000000pt" height="500.000000pt" viewBox="0 0 500.000000 500.000000"
 preserveAspectRatio="xMidYMid meet">

<g transform="translate(0.000000,500.000000) scale(0.100000,-0.100000)"
fill="#000000" stroke="none">
<path d="M0 2501 l0 -2500 259 -1 259 -1 4 98 c4 117 21 153 88 190 25 13 34
16 20 6 -80 -58 -100 -101 -100 -221 l0 -72 197 2 c157 2 197 6 201 17 3 9 0
11 -9 5 -11 -6 -10 -3 1 11 14 17 15 17 18 -8 3 -22 8 -27 33 -27 27 0 29 2
24 28 -6 26 -6 26 9 8 9 -11 16 -24 16 -28 0 -5 242 -8 538 -8 l538 1 19 22
c11 12 20 26 20 31 0 5 25 27 57 49 42 30 69 41 107 45 71 6 173 -24 220 -66
l36 -32 -60 29 c-141 69 -186 69 -288 1 -93 -62 -103 -80 -43 -80 23 0 46 3
50 7 10 11 36 12 36 2 0 -5 136 -9 324 -9 l324 0 60 66 c86 95 113 153 119
256 3 60 2 79 -6 68 -6 -8 -11 -24 -12 -35 0 -15 -2 -16 -6 -5 -3 8 -11 18
-17 22 -25 16 -4 308 23 308 9 0 40 -159 48 -248 4 -55 0 -101 -17 -192 -13
-66 -27 -115 -31 -109 -6 10 -79 -105 -79 -124 0 -4 25 -7 55 -7 39 0 57 4 61
14 3 8 40 42 82 75 43 32 130 114 195 181 66 67 121 119 125 116 3 -3 13 8 23
24 17 27 39 40 39 24 0 -3 -51 -58 -114 -122 -152 -157 -187 -198 -178 -207 4
-5 1 -5 -5 -1 -12 7 -123 -69 -138 -94 -4 -6 43 -10 127 -10 l133 0 29 63 c29
60 80 127 99 127 5 0 3 -8 -4 -18 -13 -15 -12 -16 3 -4 10 8 16 19 15 25 -1 7
6 11 15 11 10 -1 16 2 13 6 -3 4 12 18 33 29 28 16 16 2 -46 -56 -73 -69 -142
-154 -142 -175 0 -5 25 -8 55 -8 51 0 55 2 61 28 8 33 30 60 66 78 42 22 40
18 -13 -37 -27 -28 -49 -55 -49 -60 0 -5 289 -9 740 -9 l740 0 0 331 0 330
-31 -5 c-25 -4 -28 -2 -18 10 6 8 20 14 30 14 16 0 19 8 19 50 0 28 -4 49 -9
48 -5 -2 -9 2 -9 7 0 6 4 9 9 7 5 -1 9 141 9 337 l0 340 -57 -35 c-93 -56
-153 -74 -245 -74 -45 0 -78 3 -74 7 4 4 26 6 50 4 49 -3 126 15 126 29 0 6
-9 6 -23 1 -31 -12 -58 3 -31 17 11 5 22 10 27 11 4 0 15 5 25 10 39 23 -16
10 -78 -19 l-65 -30 37 33 c50 45 96 57 212 57 l96 0 0 75 0 76 -47 -36 c-69
-53 -108 -67 -200 -74 -75 -6 -80 -5 -72 12 5 9 12 17 15 17 3 0 2 -5 -1 -10
-12 -19 88 -10 125 11 19 11 27 18 17 15 -66 -21 -77 -16 -54 22 13 20 -3 14
-35 -13 -35 -30 -50 -25 -22 6 28 32 113 69 159 69 22 0 57 3 78 6 l37 7 0 86
0 86 -31 -38 c-37 -44 -101 -84 -166 -102 -27 -7 -57 -16 -68 -20 -18 -7 -18
-6 3 12 12 11 39 23 60 27 20 3 51 17 67 30 26 22 27 25 8 21 -12 -2 -31 -8
-42 -14 -37 -20 -35 -11 4 31 l40 42 -42 -33 c-24 -18 -43 -36 -43 -39 0 -4
-9 -13 -20 -20 -20 -12 -20 -12 -6 16 30 59 78 86 209 117 26 7 27 10 27 72
l0 65 -57 -59 c-53 -55 -64 -61 -130 -77 -71 -18 -73 -19 -79 -55 -14 -82 -35
-175 -40 -180 -7 -8 5 73 24 149 8 36 18 128 22 205 l7 140 -1 -133 c-1 -72 2
-132 6 -132 27 0 119 45 143 70 34 36 22 41 -14 6 -15 -14 -39 -28 -56 -31
l-30 -7 30 26 c17 14 25 25 18 26 -7 0 -29 -14 -50 -31 -25 -21 -20 -14 13 19
42 41 64 54 122 72 l72 22 0 1484 0 1484 -2500 0 -2500 0 0 -2499z m2534 2158
c48 -12 91 -44 100 -75 4 -13 -2 -33 -17 -55 -19 -28 -29 -34 -57 -34 -31 1
-37 5 -58 45 -18 36 -21 39 -16 15 4 -16 13 -42 20 -57 8 -15 14 -42 14 -60 0
-47 -29 -191 -41 -203 -19 -19 -44 10 -50 61 -4 33 -6 39 -7 18 -3 -41 -10
-46 -39 -27 -23 15 -24 21 -18 68 5 46 2 60 -25 114 -38 74 -35 113 9 155 45
44 106 55 185 35z m-329 -37 c50 -17 68 -38 79 -92 3 -14 19 -47 37 -73 28
-42 31 -54 27 -99 -5 -50 -4 -53 34 -87 63 -57 78 -89 85 -185 6 -92 -2 -108
-33 -61 -9 13 -25 27 -36 31 -15 5 -18 11 -13 32 5 21 4 24 -8 13 -21 -16 -70
42 -62 73 6 20 5 20 -8 3 -28 -34 -97 12 -97 64 0 34 43 144 66 170 9 10 14
24 11 31 -4 9 -6 8 -6 -3 -1 -9 -11 -24 -22 -35 -12 -10 -25 -29 -30 -42 -9
-22 -10 -22 -41 -6 -18 9 -42 24 -53 33 -12 9 0 -4 26 -29 38 -36 46 -49 40
-65 -4 -11 -11 -37 -14 -57 -5 -33 -2 -41 24 -62 35 -30 48 -61 42 -102 -4
-25 1 -35 27 -57 28 -24 31 -31 28 -74 -2 -25 -8 -48 -13 -50 -11 -3 -50 59
-118 187 -22 41 -52 93 -68 116 -30 44 -69 150 -69 186 1 13 7 34 15 48 19 34
19 35 -12 55 l-28 18 18 -21 c19 -21 16 -42 -7 -42 -16 0 -107 65 -118 84 -15
26 19 76 65 97 54 24 163 25 232 1z m620 -46 c48 -15 95 -50 95 -72 0 -6 -7
-17 -15 -24 -8 -7 -29 -39 -46 -71 -30 -55 -64 -90 -118 -118 -30 -16 -39 -6
-47 51 -6 40 -3 51 20 81 15 20 40 40 57 46 38 13 37 18 -3 13 -25 -3 -40 -14
-60 -43 -18 -25 -33 -37 -43 -33 -13 5 -13 3 0 -22 15 -30 18 -111 6 -154 -11
-36 12 -74 56 -95 45 -21 53 -31 53 -66 0 -32 -34 -65 -77 -74 l-33 -7 -1 44
c0 39 -1 40 -10 18 -6 -13 -9 -36 -7 -51 3 -29 -22 -73 -51 -89 -18 -9 -19 -6
-17 68 1 42 6 86 11 96 6 14 5 17 -3 12 -20 -12 -14 34 10 73 l22 36 -22 -19
c-22 -19 -23 -19 -38 0 -15 19 -15 19 -8 -1 16 -43 -9 -292 -31 -315 -13 -12
-15 -6 -15 55 0 39 -3 113 -6 165 -6 82 -3 110 20 203 15 59 31 117 35 130 13
32 118 161 139 169 28 11 76 9 127 -6z m318 -109 c55 -33 74 -54 60 -68 -8 -8
-14 -5 -22 9 -10 19 -13 19 -38 6 -47 -24 -76 -51 -69 -63 4 -6 14 -11 22 -11
15 0 19 -37 6 -56 -10 -15 -42 -25 -42 -14 0 6 -5 10 -10 10 -6 0 -8 -11 -4
-25 8 -31 -16 -69 -55 -90 -27 -14 -30 -13 -35 3 -4 15 -9 109 -7 138 1 5 17
27 36 49 20 21 33 41 29 44 -3 3 -15 -6 -26 -22 -21 -29 -43 -35 -52 -14 -3 6
-3 -25 0 -70 6 -86 -3 -106 -33 -81 -15 12 -15 11 -5 -9 7 -12 17 -25 22 -28
20 -12 11 -75 -15 -100 -29 -29 -43 -31 -53 -7 -4 9 -16 17 -27 17 -11 0 -25
11 -32 25 -10 20 -10 29 2 47 24 35 17 41 -10 8 l-24 -29 -28 20 c-56 42 -39
83 55 136 57 33 96 77 107 121 4 15 20 41 36 58 29 31 31 32 99 27 49 -4 81
-12 113 -31z m-1196 -21 c38 -25 45 -37 63 -100 31 -104 38 -121 97 -209 29
-44 51 -82 49 -85 -10 -9 -144 50 -165 72 -13 13 -25 42 -28 65 -5 39 -6 40
-26 26 -28 -19 -33 -19 -57 5 -13 13 -20 34 -21 63 0 23 -3 36 -6 30 -8 -20
-32 -15 -58 12 -14 13 -25 20 -25 16 0 -4 10 -16 21 -27 25 -22 52 -81 44 -94
-8 -13 -62 -13 -87 1 -15 8 -19 8 -14 0 13 -21 -43 -11 -70 12 -20 18 -28 35
-31 73 -4 43 -1 54 27 92 43 60 97 84 180 79 51 -2 74 -9 107 -31z m-382 -130
c29 -13 35 -20 35 -46 0 -23 10 -42 35 -67 l36 -36 84 7 c110 9 152 -3 186
-52 20 -30 40 -43 90 -62 111 -40 194 -108 187 -154 -3 -18 -9 -21 -43 -18
-22 2 -53 7 -70 12 -16 4 -43 11 -58 15 -21 4 -27 10 -23 22 5 13 4 14 -9 3
-8 -7 -15 -9 -15 -4 0 5 -5 1 -11 -9 -8 -14 -18 -16 -47 -11 -76 13 -150 90
-111 115 11 7 9 9 -8 9 -15 0 -23 -7 -25 -22 -2 -17 -10 -23 -28 -23 -20 0
-28 8 -37 35 -10 31 -12 32 -12 10 -1 -14 5 -34 13 -45 14 -22 30 -125 18
-125 -24 1 -51 14 -45 23 4 6 1 7 -6 2 -18 -11 -60 15 -77 47 -18 35 -18 67 2
114 l16 39 -34 -39 c-29 -33 -37 -37 -53 -28 -33 17 -72 64 -57 69 6 3 12 12
12 20 0 12 3 13 14 4 11 -9 18 -8 30 4 9 9 16 22 16 28 -1 17 -25 47 -38 47
-6 0 -15 6 -19 14 -4 8 -10 15 -13 16 -34 6 -50 15 -50 26 0 16 -16 19 -25 3
-5 -6 -11 -4 -19 7 -14 19 -36 11 -36 -12 0 -21 -18 -17 -31 8 l-12 22 -8 -22
c-5 -12 -13 -22 -18 -22 -10 0 -34 -61 -26 -68 7 -8 -37 -42 -46 -36 -12 7
-11 34 1 34 6 0 10 8 10 18 0 18 81 112 97 112 5 1 31 7 58 15 66 18 128 18
170 1z m2359 -15 c-2 -3 -12 3 -22 13 -16 17 -16 18 5 5 12 -7 20 -15 17 -18z
m-14 -58 c0 -31 -2 -33 -15 -19 -18 17 -20 46 -4 46 7 0 5 11 -5 28 l-17 27
20 -24 c13 -14 21 -37 21 -58z m-95 1 c17 6 55 -30 55 -52 0 -12 -4 -10 -13 8
-18 36 -52 38 -66 3 -9 -23 -10 -24 -5 -3 3 14 6 36 6 50 0 17 2 19 5 7 3 -10
11 -16 18 -13z m170 6 c10 -11 14 -20 9 -20 -5 0 -15 9 -22 20 -7 11 -11 20
-9 20 2 0 12 -9 22 -20z m-42 -5 c-3 -9 -8 -14 -10 -11 -3 3 -2 9 2 15 9 16
15 13 8 -4z m-819 -21 c8 -3 13 -11 10 -18 -3 -8 9 -25 25 -39 35 -29 38 -39
16 -57 -13 -11 -18 -10 -30 6 -20 26 -19 9 1 -21 16 -24 15 -26 -23 -64 -37
-37 -87 -61 -100 -47 -3 3 1 31 10 63 20 70 14 81 -12 22 -23 -50 -77 -130
-89 -128 -20 3 -32 -2 -32 -16 0 -18 -12 -19 -28 -3 -27 27 -13 61 46 118 32
30 84 85 117 123 61 69 63 71 89 61z m844 -1 c-5 -26 87 -182 99 -169 3 3 1
11 -5 19 -6 7 -7 19 -3 26 6 8 10 2 15 -20 7 -36 32 -69 53 -69 16 0 17 12 1
28 -6 6 -10 14 -7 16 2 2 28 -32 57 -77 29 -45 41 -68 28 -52 -14 17 -26 25
-26 19 0 -17 41 -65 50 -59 11 7 32 -30 23 -39 -3 -3 -1 -6 6 -6 7 0 10 -4 6
-9 -3 -6 5 -20 18 -33 35 -35 81 -100 83 -117 1 -9 2 -20 4 -26 6 -23 -1 -45
-13 -45 -8 0 -24 12 -38 28 l-24 27 27 -24 c24 -21 28 -22 34 -7 8 20 -3 49
-15 42 -5 -3 -17 2 -28 12 -10 9 -14 14 -8 10 15 -9 55 -6 49 4 -3 5 -9 6 -13
3 -5 -2 -30 28 -57 67 -27 39 -65 87 -84 106 -19 20 -36 42 -37 51 -2 9 -4 27
-6 41 -2 15 -11 26 -23 29 -42 8 -144 102 -144 133 0 5 -8 27 -19 48 -10 21
-16 41 -13 44 8 8 12 7 10 -1z m-210 -63 c0 -9 -3 -7 -8 5 -5 11 -8 29 -8 40
0 16 2 15 8 -5 4 -14 8 -32 8 -40z m262 45 c7 -9 8 -15 2 -15 -5 0 -12 7 -16
15 -3 8 -4 15 -2 15 2 0 9 -7 16 -15z m-117 -30 c-7 -21 -12 -19 -10 4 0 11 5
18 9 15 4 -3 5 -11 1 -19z m-2561 -10 c3 -13 1 -22 -3 -19 -9 5 -13 44 -5 44
2 0 6 -11 8 -25z m38 -6 c0 -6 -4 -7 -10 -4 -5 3 -10 11 -10 16 0 6 5 7 10 4
6 -3 10 -11 10 -16z m2570 6 c5 3 8 -3 7 -14 -1 -19 -2 -19 -18 -3 -9 9 -14
21 -11 27 3 5 7 4 10 -3 2 -7 8 -10 12 -7z m90 -5 c6 -11 8 -20 6 -20 -3 0
-10 9 -16 20 -6 11 -8 20 -6 20 3 0 10 -9 16 -20z m-16 -15 c9 -14 13 -25 8
-25 -5 0 -14 11 -20 25 -6 14 -10 25 -8 25 2 0 11 -11 20 -25z m-1734 0 c16
-9 37 -29 45 -45 14 -27 14 -33 0 -60 -15 -29 -16 -30 -40 -14 -16 11 -25 26
-25 43 0 14 -4 41 -9 59 -11 37 -10 37 29 17z m1430 5 c0 -5 -4 -10 -9 -10 -6
0 -13 5 -16 10 -3 6 1 10 9 10 9 0 16 -4 16 -10z m105 -20 c10 -11 16 -20 13
-20 -3 0 -13 9 -23 20 -10 11 -16 20 -13 20 3 0 13 -9 23 -20z m-2443 -71 c18
-23 43 -52 56 -64 12 -12 22 -31 23 -41 1 -14 3 -12 8 6 5 19 2 27 -13 35 -26
13 -60 71 -52 90 6 16 66 21 66 6 0 -5 23 -38 51 -73 28 -35 58 -78 67 -97 13
-26 35 -42 102 -76 47 -24 95 -54 106 -66 28 -31 127 -219 115 -219 -5 0 -8
-7 -7 -16 0 -9 -5 -19 -12 -21 -7 -3 -24 20 -43 59 -16 34 -27 50 -24 34 3
-15 9 -42 12 -58 l6 -30 -31 16 c-54 28 -70 58 -68 131 0 36 -1 61 -2 55 -2
-6 -8 -8 -13 -4 -5 3 -9 -6 -9 -20 0 -14 -3 -26 -7 -26 -18 0 -76 56 -99 96
-29 49 -45 54 -20 5 22 -42 21 -44 -20 -38 -51 9 -84 42 -85 86 0 32 -1 33 -9
14 -12 -29 -35 -21 -49 15 -9 25 -9 25 -10 5 -2 -47 -101 -19 -101 29 0 12 -7
18 -21 18 l-20 0 20 26 c29 37 27 71 -9 100 -28 24 -28 26 -12 44 28 33 67 25
104 -21z m2613 1 c3 0 3 6 -1 13 -3 6 5 0 19 -14 14 -15 41 -36 61 -48 20 -13
36 -24 36 -25 0 -9 -44 3 -52 15 -8 11 -11 12 -15 1 -3 -9 -12 -3 -24 17 -13
21 -26 31 -44 31 -27 0 -32 -17 -14 -53 10 -21 9 -21 -10 2 -12 13 -21 29 -21
36 0 16 25 37 33 28 10 -9 9 11 0 23 -5 5 -1 1 9 -8 9 -10 19 -18 23 -18z
m-87 -15 c-3 -3 -13 7 -23 22 l-17 28 23 -22 c12 -12 20 -25 17 -28z m-1084 3
c7 -12 1 -30 -25 -73 -19 -31 -42 -65 -51 -75 -9 -10 -14 -22 -10 -26 4 -5 -1
-2 -10 5 -10 7 -18 20 -18 27 0 8 -5 14 -11 14 -6 0 -1 -16 10 -36 24 -40 22
-51 -6 -36 -10 5 -24 7 -30 5 -7 -3 -13 0 -13 6 0 6 -7 11 -16 11 -8 0 -13 4
-10 9 4 5 0 11 -6 14 -10 3 -8 10 6 25 10 12 23 19 29 15 5 -3 7 -1 4 4 -9 14
16 34 44 36 28 2 78 54 79 80 0 21 19 18 34 -5z m-403 -30 c34 -37 39 -49 39
-90 0 -27 -2 -48 -5 -48 -3 0 -17 12 -31 27 -14 15 -22 19 -18 10 7 -18 -11
-23 -34 -8 -22 13 -35 90 -21 123 6 15 16 28 21 28 6 0 28 -19 49 -42z m1454
2 c0 -7 -6 -15 -12 -17 -8 -3 -13 4 -13 17 0 13 5 20 13 18 6 -3 12 -11 12
-18z m-155 -23 c0 -2 -10 -12 -22 -23 l-23 -19 19 23 c18 21 26 27 26 19z m95
-23 c0 -10 -8 -20 -17 -22 -18 -3 -26 27 -11 42 12 11 28 0 28 -20z m-1979
-25 c40 -43 80 -58 170 -65 96 -7 140 -22 74 -25 l-45 -2 40 -6 c27 -4 35 -8
23 -13 -9 -4 -26 -4 -38 -1 -13 4 -26 0 -32 -8 -7 -10 -8 -8 -3 9 3 12 2 22
-3 22 -9 0 -29 -94 -24 -112 1 -5 -3 -8 -8 -8 -5 0 -10 5 -10 10 0 5 -6 9 -12
8 -7 -2 -12 5 -12 15 1 9 -2 17 -7 17 -5 0 -9 9 -9 19 0 11 -4 23 -10 26 -14
8 -13 -37 2 -72 6 -15 11 -31 10 -35 -1 -4 4 -5 11 -2 7 2 21 -2 32 -10 15
-12 17 -16 5 -16 -10 -1 -9 -4 5 -10 16 -7 17 -9 3 -9 -9 -1 -25 -17 -34 -38
-18 -36 -18 -36 -28 -12 -6 13 -13 26 -17 29 -4 3 -20 32 -37 66 -17 33 -46
79 -66 103 -30 36 -36 51 -36 90 0 71 11 77 56 30z m2129 5 c9 -15 12 -23 6
-20 -11 7 -35 46 -28 46 3 0 12 -12 22 -26z m-128 -16 c-3 -8 -6 -5 -6 6 -1
11 2 17 5 13 3 -3 4 -12 1 -19z m253 -14 c17 -26 20 -38 11 -47 -17 -17 -34 6
-37 48 -2 19 -1 35 1 35 2 0 13 -16 25 -36z m30 5 c15 -28 5 -23 -15 7 -9 15
-12 23 -6 20 6 -4 16 -16 21 -27z m-349 -12 c-10 -9 -11 -8 -5 6 3 10 9 15 12
12 3 -3 0 -11 -7 -18z m99 -8 c0 -22 -23 -35 -41 -24 -8 6 -7 10 5 17 9 5 16
16 16 24 0 8 5 12 10 9 6 -3 10 -15 10 -26z m30 -50 c-6 -21 -17 -45 -26 -53
-8 -9 -12 -22 -9 -28 4 -7 0 -5 -8 5 -8 9 -23 17 -34 17 -21 0 -53 31 -73 70
-8 16 1 9 25 -17 60 -70 114 -51 116 41 0 42 2 47 10 27 6 -15 5 -37 -1 -62z
m-1500 0 c0 -5 6 -6 14 -3 8 3 17 1 21 -5 3 -7 0 -8 -9 -5 -12 5 -16 -1 -17
-22 0 -16 -3 -23 -6 -16 -7 17 -33 15 -33 -3 0 -12 -4 -11 -20 5 -38 38 -18
88 26 68 13 -6 24 -15 24 -19z m1560 10 c0 -24 -23 -21 -28 4 -2 10 3 17 12
17 10 0 16 -9 16 -21z m-2569 -56 c29 -4 50 -14 62 -30 22 -27 70 -53 144 -77
56 -19 94 -55 118 -113 8 -19 24 -46 35 -61 20 -25 20 -27 4 -39 -30 -22 -47
-16 -40 12 4 14 2 25 -4 25 -5 0 -9 3 -9 8 4 22 -3 29 -26 24 -16 -3 -25 -11
-25 -23 0 -10 -7 -22 -16 -27 -24 -14 -57 22 -48 51 6 19 5 20 -10 8 -14 -12
-16 -11 -16 7 0 22 -16 39 -22 22 -5 -16 -73 10 -113 43 -22 18 -34 35 -31 44
3 8 2 12 -2 9 -14 -8 -42 32 -42 59 0 14 -3 24 -7 24 -22 -4 -33 3 -33 20 0
10 -6 24 -14 30 -8 7 -14 21 -13 32 1 16 5 15 33 -12 22 -21 45 -32 75 -36z
m2810 50 c13 -16 12 -17 -3 -4 -17 13 -22 21 -14 21 2 0 10 -8 17 -17z m-3022
-2 c11 -7 9 -11 -8 -20 -18 -10 -21 -9 -21 9 0 22 7 25 29 11z m1435 -12 c-3
-5 -10 -7 -15 -3 -5 3 -7 10 -3 15 3 5 10 7 15 3 5 -3 7 -10 3 -15z m1046 -7
c0 -9 -5 -24 -11 -32 -8 -12 -9 -9 -5 12 5 23 4 26 -11 21 -16 -6 -16 -5 -4
10 15 19 31 14 31 -11z m-1497 11 c-7 -2 -19 -2 -25 0 -7 3 -2 5 12 5 14 0 19
-2 13 -5z m1034 -7 c-3 -7 0 -19 6 -25 8 -8 8 -11 0 -11 -6 0 -13 6 -16 13 -4
13 2 37 10 37 3 0 3 -6 0 -14z m-990 -2 c-3 -3 -12 -4 -19 -1 -8 3 -5 6 6 6
11 1 17 -2 13 -5z m1323 -21 c0 -21 -3 -24 -9 -14 -5 8 -7 20 -4 28 8 21 13
15 13 -14z m567 -70 c41 -63 71 -87 90 -71 21 17 17 51 -5 44 -10 -4 -27 1
-38 9 -14 11 -15 14 -2 9 25 -8 58 14 58 39 1 21 2 20 15 -5 11 -20 12 -34 5
-52 -8 -23 -7 -26 11 -26 12 0 17 -4 14 -11 -4 -5 -12 -8 -18 -6 -7 2 -20 -3
-30 -11 -16 -14 -20 -14 -45 4 -29 22 -112 138 -112 157 0 7 6 3 12 -8 6 -11
26 -43 45 -72z m-2032 29 c-3 -3 -13 2 -23 13 -9 10 -11 15 -4 11 7 -5 12 -1
13 11 0 14 3 12 10 -6 5 -13 7 -26 4 -29z m184 14 c-3 -3 -11 5 -18 17 -13 21
-12 21 5 5 10 -10 16 -20 13 -22z m2016 -26 c3 -5 1 -10 -4 -10 -6 0 -11 5
-11 10 0 6 2 10 4 10 3 0 8 -4 11 -10z m-3476 -19 c17 -11 5 -31 -19 -31 -21
0 -34 15 -25 30 8 12 25 13 44 1z m1907 -16 c7 -27 19 -33 27 -12 4 9 8 8 17
-3 9 -11 13 -12 17 -2 9 22 23 13 23 -15 0 -21 3 -24 12 -15 19 19 36 14 40
-10 2 -17 9 -23 26 -22 12 0 22 -5 22 -12 0 -6 8 -11 17 -10 11 0 19 -7 21
-20 2 -12 11 -24 21 -27 10 -2 21 -19 26 -38 7 -29 9 -31 12 -11 8 40 28 18
28 -31 0 -25 3 -49 8 -53 4 -4 7 2 7 13 0 27 9 34 30 23 12 -6 16 -17 13 -29
-4 -15 1 -20 24 -23 23 -2 28 -8 28 -30 -1 -34 -1 -34 25 -6 l21 23 5 -22 c4
-14 15 -23 33 -25 18 -2 27 -10 29 -25 2 -15 10 -23 22 -23 11 0 27 -11 36
-25 16 -24 43 -37 28 -14 -4 7 -1 10 7 7 19 -6 24 -38 6 -38 -11 0 -13 -7 -9
-22 3 -12 7 -17 10 -10 2 6 12 12 23 12 11 0 16 5 13 14 -3 7 2 16 10 19 17 7
31 -8 22 -22 -3 -5 0 -20 7 -33 15 -30 57 -71 57 -57 0 6 -10 19 -22 28 -12
10 -18 23 -14 29 10 17 36 15 42 -2 3 -8 12 -12 20 -9 9 3 14 -2 14 -15 0 -11
8 -22 20 -25 11 -3 20 -11 20 -19 0 -7 10 -18 23 -23 12 -6 23 -20 25 -32 4
-29 -14 -30 -21 -2 -5 17 -11 20 -31 15 -22 -5 -26 -3 -26 14 0 23 -19 26 -39
8 -11 -11 -14 -10 -18 1 -4 9 -7 10 -13 2 -12 -21 -41 -1 -34 23 6 20 6 20
-13 4 -27 -25 -34 -22 -23 8 16 42 11 51 -10 17 -22 -37 -37 -45 -19 -11 l12
22 -29 -18 c-16 -10 -23 -13 -16 -5 19 21 14 34 -6 16 -30 -27 -49 -21 -23 7
23 24 25 56 6 63 -6 2 -11 -9 -10 -23 0 -17 -8 -32 -25 -42 -17 -11 -21 -11
-12 -2 6 8 12 19 12 25 0 6 -3 7 -8 0 -4 -5 -16 -17 -26 -25 -18 -14 -19 -13
-12 14 6 26 5 28 -8 17 -24 -20 -41 -3 -20 20 9 10 12 19 7 19 -6 0 -16 -7
-23 -15 -7 -8 -17 -12 -23 -8 -5 3 -16 -2 -23 -11 -19 -26 -37 -9 -32 30 5 42
-6 44 -23 5 -16 -37 -29 -30 -29 14 0 27 6 38 28 49 20 11 22 15 9 16 -10 0
-34 12 -53 26 -39 30 -47 21 -9 -11 23 -19 24 -23 12 -57 -13 -41 -23 -48 -30
-20 -4 14 -6 13 -12 -6 -6 -18 -10 -20 -21 -11 -8 6 -14 17 -14 25 0 7 -5 16
-11 20 -8 5 -10 -3 -7 -24 7 -50 -9 -27 -18 25 l-8 48 -5 -39 c-7 -48 -26 -58
-27 -15 -1 16 -7 36 -14 42 -10 10 -11 5 -5 -20 10 -48 -10 -48 -26 0 l-13 42
-6 -40 -5 -40 -15 25 c-8 14 -20 39 -27 55 l-11 30 -1 -28 c-1 -16 3 -36 8
-46 7 -13 6 -18 -4 -18 -7 0 -11 7 -8 14 3 8 0 13 -7 11 -8 -2 -19 15 -27 41
-11 39 -11 47 3 62 8 9 23 15 32 12 13 -3 18 2 18 16 0 11 -3 18 -7 15 -16 -9
-81 -15 -75 -6 5 9 -14 8 -67 -4 -21 -5 -34 -1 -51 15 -12 12 -25 18 -29 15
-4 -4 1 -13 11 -20 16 -12 16 -13 0 -14 -9 0 -20 5 -24 12 -5 8 -11 6 -20 -6
-12 -17 -13 -16 -24 3 -9 19 -8 21 14 21 14 0 28 5 31 10 11 18 47 11 52 -10
3 -11 12 -20 20 -20 13 0 13 2 2 17 -12 15 -12 15 4 6 20 -10 67 -6 67 7 0 23
-39 36 -120 39 -10 1 -7 6 8 17 12 8 20 18 18 22 -7 11 17 37 37 38 23 2 22
-1 -10 -30 -32 -30 -30 -33 17 -36 52 -3 56 -1 34 15 -19 15 -19 15 0 8 17 -5
15 -1 -8 30 -24 31 -26 38 -12 43 21 8 21 24 0 24 -12 0 -15 7 -12 25 3 13 1
22 -3 19 -5 -3 -9 2 -9 10 0 19 11 21 28 4 9 -9 12 -8 12 4 0 14 12 22 42 27
4 0 10 -10 14 -24z m-1354 -12 c10 -9 18 -24 18 -35 0 -15 -5 -17 -27 -12 -53
11 -53 11 -40 38 14 30 24 32 49 9z m2618 7 c0 -5 -2 -10 -4 -10 -3 0 -8 5
-11 10 -3 6 -1 10 4 10 6 0 11 -4 11 -10z m-2876 -15 c-4 -8 -15 -15 -25 -15
-10 0 -19 7 -19 15 0 9 9 15 25 15 18 0 23 -4 19 -15z m1491 5 c3 -5 -1 -10
-9 -10 -9 0 -16 5 -16 10 0 6 4 10 9 10 6 0 13 -4 16 -10z m-1405 -22 c0 -7
-5 -20 -11 -28 -8 -12 -9 -10 -4 9 5 17 4 22 -5 16 -9 -5 -11 -4 -6 3 10 16
26 15 26 0z m2812 -8 c59 -5 115 -13 125 -18 10 -5 43 -15 73 -22 33 -8 69
-25 88 -42 25 -21 39 -27 55 -22 12 4 40 6 62 6 48 -2 85 -37 85 -81 0 -71
-125 -112 -379 -126 -97 -6 -104 -5 -87 9 11 9 38 16 59 16 68 0 238 31 281
51 117 55 122 74 20 74 -62 0 -75 3 -107 28 -40 30 -124 63 -197 78 -226 44
-255 46 -366 23 -44 -9 -96 -14 -120 -10 -27 3 -55 0 -77 -9 -18 -7 -58 -16
-88 -19 l-54 -6 62 13 c35 8 66 17 70 22 5 4 -3 5 -17 1 -14 -3 -59 -9 -100
-13 -78 -7 -140 -26 -140 -44 0 -5 -4 -8 -9 -4 -5 3 -17 -2 -26 -11 -9 -9 -19
-14 -22 -11 -11 12 91 66 141 75 28 5 92 18 141 28 163 33 262 36 527 14z
m-1422 -4 c0 -3 -4 -8 -10 -11 -5 -3 -10 -1 -10 4 0 6 5 11 10 11 6 0 10 -2
10 -4z m-1647 -50 l4 -38 -22 28 c-18 22 -20 30 -9 32 8 2 14 8 14 14 0 25 9
0 13 -36z m3516 -19 c-2 -3 -15 10 -28 27 l-24 31 28 -27 c16 -15 27 -29 24
-31z m-3072 24 c34 -10 75 -28 92 -40 17 -12 43 -26 58 -32 32 -11 68 -65 51
-75 -7 -4 -8 -2 -4 4 4 7 1 12 -8 12 -10 0 -13 -6 -9 -17 4 -11 3 -14 -5 -9
-7 4 -12 1 -12 -8 0 -8 -10 -22 -22 -30 -12 -9 -18 -16 -13 -16 5 0 4 -5 -3
-12 -9 -9 -17 -6 -37 12 -29 27 -31 37 -11 59 9 10 11 23 6 36 -8 19 -9 19 -9
-3 -1 -12 -7 -25 -15 -28 -18 -7 -58 14 -51 27 4 5 0 10 -7 10 -7 1 -17 2 -23
4 -5 1 -23 3 -39 3 -28 2 -29 3 -11 22 10 11 22 17 26 14 15 -9 10 13 -5 25
-11 10 -16 8 -21 -8 -8 -26 -17 -26 -39 -2 -17 19 -17 21 8 45 30 31 25 31
103 7z m1201 3 c6 -2 12 -9 11 -16 0 -10 -2 -10 -6 0 -2 7 -22 12 -44 12 -21
0 -39 4 -39 10 0 8 41 6 78 -6z m781 -18 c-2 -2 -21 -11 -43 -20 -31 -13 -36
-13 -26 -2 10 13 26 19 64 25 5 0 7 -1 5 -3z m-249 -52 c0 -8 -19 -13 -24 -6
-3 5 1 9 9 9 8 0 15 -2 15 -3z m-1863 -29 c0 -8 -4 -12 -9 -9 -4 3 -8 9 -8 15
0 5 4 9 8 9 5 0 9 -7 9 -15z m1957 -35 c10 -13 9 -13 -6 -1 -10 7 -17 23 -17
35 1 20 2 20 6 1 3 -11 10 -27 17 -35z m-2314 34 c0 -8 -19 -13 -24 -6 -3 5 1
9 9 9 8 0 15 -2 15 -3z m479 -48 c13 -14 21 -33 19 -45 -5 -32 -22 -30 -26 1
-2 20 -10 30 -28 34 -20 5 -22 9 -13 20 16 19 22 18 48 -10z m1271 12 c0 -11
-12 -10 -30 2 -12 7 -10 9 8 7 12 0 22 -5 22 -9z m-1362 -63 c-3 -3 -9 2 -12
12 -6 14 -5 15 5 6 7 -7 10 -15 7 -18z m-287 -28 c-16 -16 -13 -37 5 -37 8 0
13 3 11 8 -2 4 2 21 9 37 7 17 13 24 14 18 0 -7 8 -13 18 -13 10 0 35 -9 57
-20 22 -11 46 -20 53 -20 11 0 12 -3 3 -14 -10 -12 -4 -17 36 -28 38 -11 51
-20 64 -47 8 -18 19 -33 24 -34 6 -1 8 -10 6 -21 -2 -16 2 -18 26 -12 21 5 24
4 13 -4 -8 -5 -10 -10 -5 -10 6 0 19 -7 30 -16 15 -11 17 -17 7 -23 -14 -8 -6
-41 10 -41 5 0 6 5 3 10 -3 6 -1 10 4 10 6 0 11 -7 11 -15 0 -8 4 -15 8 -15
12 0 42 -56 42 -79 0 -32 -27 -15 -34 22 -5 24 -9 28 -18 19 -18 -18 -27 -14
-21 11 4 19 3 20 -7 4 -9 -14 -15 -15 -31 -6 -11 5 -24 20 -29 32 -7 17 -9 18
-9 5 -1 -10 -5 -18 -11 -18 -5 0 -10 8 -10 18 0 15 -2 15 -11 2 -8 -12 -12
-12 -16 -2 -4 10 -8 10 -19 1 -11 -9 -14 -6 -14 17 l0 28 -16 -22 c-17 -25
-34 -29 -34 -7 0 8 -4 15 -10 15 -5 0 -10 8 -10 18 0 19 -18 42 -32 42 -5 0
-7 -16 -5 -35 3 -20 0 -38 -4 -41 -5 -3 -9 4 -9 15 0 11 -4 23 -10 26 -5 3
-10 -3 -10 -14 0 -33 -18 -34 -25 -1 -9 41 -39 40 -65 -2 -16 -27 -20 -29 -26
-14 -4 9 -1 29 5 43 10 21 17 24 45 21 30 -3 32 -2 22 14 -6 10 -12 14 -14 8
-6 -18 -20 -10 -15 9 3 13 -2 21 -17 26 -18 6 -20 12 -15 38 7 32 7 32 -10 10
-9 -13 -25 -23 -37 -23 -15 0 -18 3 -10 13 5 6 13 27 17 46 7 31 9 33 20 18
20 -27 27 5 8 34 -10 15 -11 19 -3 12 15 -14 41 -17 39 -5 -1 4 0 14 1 22 2
11 4 10 7 -4 3 -10 0 -23 -6 -29z m1661 20 c-12 -13 -22 -29 -22 -36 0 -7 -5
-9 -12 -5 -8 5 -9 -2 -5 -24 4 -18 3 -32 -2 -32 -11 0 -21 24 -22 53 -1 20 -2
20 -9 -3 l-8 -25 -1 26 c-1 39 24 58 93 68 5 0 0 -9 -12 -22z m48 -14 c-14
-18 -19 -35 -15 -51 4 -15 2 -21 -5 -17 -5 3 -10 12 -10 20 0 7 -6 15 -12 17
-20 7 19 58 43 58 20 0 20 0 -1 -27z m-1437 -17 c4 4 7 3 7 -2 0 -20 -16 -32
-41 -31 -20 2 -25 6 -21 22 3 11 10 26 15 33 8 11 13 9 22 -8 6 -11 14 -17 18
-14z m1092 24 c-11 -5 -29 -8 -40 -8 -16 0 -15 2 5 8 34 11 60 11 35 0z m75 6
c0 -2 -8 -10 -17 -17 -16 -13 -17 -12 -4 4 13 16 21 21 21 13z m130 -3 c0 -5
-9 -21 -20 -38 l-20 -30 0 28 c0 15 -6 27 -12 27 -20 0 14 20 35 20 9 0 17 -3
17 -7z m985 -3 l30 -8 -30 0 c-16 0 -43 4 -60 8 l-30 8 30 0 c17 0 44 -4 60
-8z m-2838 -6 c-3 -3 -12 -4 -19 -1 -8 3 -5 6 6 6 11 1 17 -2 13 -5z m2937
-13 c3 -5 0 -11 -7 -14 -8 -3 -14 1 -14 9 0 16 13 19 21 5z m-1327 -38 c-3
-10 -5 -4 -5 12 0 17 2 24 5 18 2 -7 2 -21 0 -30z m174 14 c-10 -9 -11 -8 -5
6 3 10 9 15 12 12 3 -3 0 -11 -7 -18z m1216 12 c-14 -8 -22 -8 -30 0 -8 8 -3
11 19 11 25 -1 27 -2 11 -11z m237 -56 c3 -4 6 11 7 33 1 31 4 23 19 -44 14
-61 30 -100 60 -145 60 -90 46 -127 -68 -178 -73 -33 -72 -33 -72 -18 0 14 77
99 83 92 3 -2 8 5 12 16 8 27 -10 59 -39 67 -35 8 -57 67 -47 124 l7 45 8 -67
c8 -62 10 -68 37 -77 16 -5 29 -6 29 -1 0 5 -9 11 -19 15 -22 7 -28 29 -35
135 -4 51 -3 65 3 42 5 -18 11 -36 15 -39z m-351 50 c-7 -2 -19 -2 -25 0 -7 3
-2 5 12 5 14 0 19 -2 13 -5z m-2680 -10 c-7 -2 -21 -2 -30 0 -10 3 -4 5 12 5
17 0 24 -2 18 -5z m3589 -53 c5 -14 9 -26 9 -28 -1 -1 5 -17 13 -36 19 -45 27
-128 16 -146 -9 -13 -10 -13 -11 0 -1 8 -1 18 0 23 0 4 -3 7 -8 7 -5 0 -7 9
-4 20 4 15 0 20 -16 20 -12 0 -20 4 -17 9 9 14 -4 41 -20 41 -8 0 -11 6 -8 15
3 8 9 14 12 13 19 -2 25 3 13 11 -10 7 -12 21 -6 57 4 27 10 42 13 34 3 -8 9
-26 14 -40z m-3682 9 c0 -21 40 -36 62 -23 7 4 10 4 6 -1 -4 -4 -3 -17 3 -28
6 -10 7 -17 2 -14 -13 8 -53 -29 -53 -48 0 -10 -9 -12 -35 -8 -26 4 -41 1 -55
-12 -23 -21 -39 -12 -24 13 8 11 25 17 52 17 33 0 47 6 72 32 l31 31 -40 -5
c-32 -4 -41 -2 -50 15 -8 15 -8 23 0 27 6 4 8 13 5 21 -3 8 0 11 10 7 7 -3 14
-14 14 -24z m500 7 c0 -2 -9 -2 -20 1 -11 3 -20 9 -20 15 0 5 9 4 20 -2 11 -6
20 -12 20 -14z m2130 -11 c5 3 11 1 15 -5 3 -5 0 -10 -9 -10 -29 0 -46 12 -46
33 0 21 0 21 16 -1 8 -12 19 -20 24 -17z m-2060 17 c0 -4 -9 -13 -21 -20 -19
-12 -19 -11 -9 8 10 19 30 28 30 12z m688 -23 c-10 -5 -18 -18 -19 -27 0 -11
-2 -12 -6 -4 -6 15 14 42 31 42 6 0 3 -5 -6 -11z m2111 -50 c13 -41 12 -109
-2 -109 -5 0 -7 11 -5 25 3 13 2 22 -3 20 -4 -3 -14 -2 -23 1 -16 6 -18 45 -3
60 4 4 7 19 7 33 0 32 14 18 29 -30z m196 -14 c12 -74 12 -105 -2 -116 -8 -7
-13 -8 -13 -1 0 5 -9 8 -20 5 -11 -3 -20 0 -20 6 0 5 7 8 15 5 11 -5 15 1 15
20 0 15 -5 25 -12 24 -15 -3 -13 38 4 91 12 39 22 29 33 -34z m-3615 38 c0
-27 -16 -47 -30 -38 -8 5 -11 4 -6 -3 3 -6 -3 -16 -14 -22 -23 -12 -25 -3 -6
23 8 10 20 16 27 15 9 -2 13 5 12 20 -2 12 2 22 7 22 6 0 10 -8 10 -17z m1875
-2 c72 -11 168 -31 215 -45 47 -14 186 -51 310 -81 282 -69 288 -71 385 -116
177 -82 285 -186 285 -275 0 -25 -6 -60 -14 -79 -21 -50 -95 -125 -144 -147
-42 -19 -45 -19 -63 -2 -19 17 -18 18 23 42 59 34 87 61 109 104 39 76 22 127
-71 210 -90 82 -215 140 -380 176 -74 17 -252 60 -395 97 l-260 68 -180 1
c-99 0 -207 -2 -240 -6 l-60 -7 65 15 c36 8 128 15 205 16 77 2 127 6 110 9
-54 12 -168 9 -270 -6 -136 -20 -185 -32 -285 -72 -98 -38 -95 -37 -78 -19 7
8 15 14 18 13 3 -1 23 9 46 20 107 57 303 100 459 102 44 0 139 -8 210 -18z
m1222 -38 c-3 -10 -5 -4 -5 12 0 17 2 24 5 18 2 -7 2 -21 0 -30z m-2903 21
c18 -7 22 -34 5 -34 -5 0 -8 -4 -5 -9 3 -4 -4 -17 -15 -27 -17 -15 -22 -16
-29 -4 -6 10 -9 5 -12 -16 -3 -28 -4 -27 -9 8 -3 24 -1 34 6 30 5 -3 4 2 -4
11 -12 15 -11 17 10 18 13 0 18 3 11 6 -6 2 -10 9 -6 14 6 10 25 12 48 3z
m-254 -18 c0 -2 -7 -7 -16 -10 -8 -3 -12 -2 -9 4 6 10 25 14 25 6z m168 -41
c-3 -27 -13 -33 -21 -11 -3 7 0 19 6 25 16 16 17 14 15 -14z m2973 15 c10 -6
26 -25 35 -43 9 -18 28 -42 43 -54 26 -21 26 -21 7 -42 -37 -41 -93 -13 -81
40 15 69 -26 90 -79 42 l-29 -28 21 32 c25 35 28 47 10 38 -7 -4 -4 1 6 9 23
19 40 20 67 6z m-1694 -6 c-3 -3 -12 -4 -19 -1 -8 3 -5 6 6 6 11 1 17 -2 13
-5z m-1127 -59 c0 -18 -5 -25 -20 -25 -20 0 -28 28 -13 43 15 16 33 6 33 -18z
m103 -5 c3 -11 1 -20 -4 -20 -5 0 -9 9 -9 20 0 11 2 20 4 20 2 0 6 -9 9 -20z
m2677 17 c0 -2 -10 -12 -22 -23 l-23 -19 19 23 c18 21 26 27 26 19z m-2959
-24 c13 -16 12 -17 -3 -4 -10 7 -18 15 -18 17 0 8 8 3 21 -13z m3759 -79 c0
-19 -6 -34 -14 -37 -10 -4 -13 -1 -10 7 3 8 0 17 -7 22 -8 5 -10 3 -4 -6 5 -9
4 -11 -3 -6 -15 9 -11 54 5 67 6 6 10 18 7 27 -2 9 2 4 10 -13 8 -16 15 -44
16 -61z m-2730 72 c0 -2 -7 -7 -16 -10 -8 -3 -12 -2 -9 4 6 10 25 14 25 6z
m-1311 -35 c-6 -2 -18 4 -27 13 -15 15 -15 15 10 4 15 -7 23 -15 17 -17z
m1251 4 c-7 -8 -17 -15 -23 -15 -6 0 -2 7 9 15 25 19 30 19 14 0z m-628 -14
c171 -36 254 -80 246 -131 -4 -27 -45 -59 -45 -36 0 9 4 13 9 10 4 -3 8 4 8
15 0 54 -112 99 -315 126 -177 23 -203 33 -89 34 55 1 130 -7 186 -18z m3486
-44 c13 -68 13 -97 1 -97 -5 0 -14 11 -19 24 -5 13 -13 27 -18 30 -5 3 -4 26
2 55 5 27 13 48 17 45 4 -2 12 -28 17 -57z m-1708 33 c-6 -11 -13 -20 -16 -20
-2 0 0 9 6 20 6 11 13 20 16 20 2 0 0 -9 -6 -20z m10 -35 c-48 -49 -51 -51
-47 -32 1 6 -4 11 -10 10 -17 -4 -16 2 3 17 8 8 14 9 12 3 -2 -6 2 -11 7 -11
6 0 9 4 7 10 -1 5 1 7 6 4 5 -3 20 6 32 19 13 14 26 25 29 25 3 0 -15 -20 -39
-45z m-2273 29 c-3 -3 -12 -4 -19 -1 -8 3 -5 6 6 6 11 1 17 -2 13 -5z m2146
-9 c-3 -9 -8 -14 -10 -11 -3 3 -2 9 2 15 9 16 15 13 8 -4z m854 -30 c26 -25
53 -45 61 -45 7 0 10 -4 7 -10 -3 -5 -1 -10 6 -10 19 0 49 -31 49 -50 0 -11 8
-16 23 -16 16 1 23 -5 25 -21 2 -13 10 -23 17 -23 8 0 12 6 10 13 -8 23 29 81
58 91 32 12 51 3 81 -37 19 -26 19 -29 3 -80 -15 -49 -16 -57 0 -110 14 -52
14 -61 0 -99 -8 -24 -18 -74 -22 -113 -6 -55 -35 -145 -48 -145 -1 0 -1 21 0
48 2 35 1 42 -6 27 -5 -11 -10 -37 -10 -57 -1 -42 -9 -68 -22 -68 -5 0 -9 8
-9 18 -1 16 -1 16 -14 -1 -13 -16 -14 -16 -20 5 -10 37 -6 100 8 140 8 21 10
41 5 47 -5 6 -6 9 -3 6 11 -8 41 38 49 75 4 19 13 54 21 78 8 24 12 57 9 73
-3 18 1 43 9 60 15 30 11 73 -6 63 -5 -3 -7 -12 -4 -19 2 -7 -2 -30 -9 -51 -8
-22 -14 -55 -15 -74 0 -20 -6 -45 -14 -56 -8 -11 -16 -33 -19 -50 -2 -16 -2
-11 0 11 12 132 22 185 41 229 27 59 27 66 3 66 -29 0 -43 -25 -50 -88 -5 -44
-10 -58 -25 -60 -27 -6 -39 12 -38 55 1 35 0 37 -13 19 -15 -19 -15 -19 -15 3
0 15 -5 21 -17 19 -14 -2 -17 3 -15 25 3 29 -15 36 -36 15 -9 -9 -12 -8 -12 6
0 13 -5 16 -16 12 -12 -5 -15 -2 -10 9 3 10 1 15 -7 13 -6 -1 -22 4 -35 11
-19 10 -21 15 -11 27 13 16 -2 19 -18 3 -6 -6 -17 -8 -24 -4 -9 6 -7 11 6 22
11 7 14 13 8 13 -6 0 -13 7 -17 15 -12 31 34 14 81 -30z m454 2 c-8 -8 -11 -3
-11 19 1 25 2 27 11 11 8 -14 8 -22 0 -30z m-1340 -12 c5 4 6 -1 2 -10 -5 -13
-7 -14 -14 -3 -5 7 -8 18 -8 23 0 6 3 4 6 -3 2 -6 9 -10 14 -7z m523 6 c3 -5
-7 -16 -22 -25 l-27 -17 23 20 c15 13 18 21 10 24 -9 4 -10 6 -1 6 6 1 14 -3
17 -8z m-73 -30 c-17 -13 -20 -20 -10 -23 9 -3 8 -6 -5 -11 -11 -4 -15 -3 -10
4 4 8 -1 9 -17 5 -16 -5 -10 2 16 18 47 30 61 34 26 7z m-1931 -6 c17 -9 30
-18 30 -21 0 -4 -59 23 -69 32 -10 9 13 3 39 -11z m2851 -25 c6 0 7 -5 3 -11
-9 -15 -24 9 -22 36 1 17 1 17 5 -2 2 -13 9 -23 14 -23z m-764 10 c1 -11 -3
-20 -8 -20 -6 0 -7 5 -3 11 4 7 1 10 -7 7 -8 -3 -13 -11 -11 -17 2 -13 0 -13
-22 -5 -13 5 -9 10 16 25 18 10 33 18 33 18 1 1 1 -8 2 -19z m-2439 -100 c-4
-3 -11 -64 -16 -135 -5 -72 -10 -109 -11 -82 0 26 -5 47 -10 47 -5 0 -7 -9 -4
-20 8 -30 -8 -193 -17 -184 -12 12 -23 275 -15 335 8 56 22 64 28 17 2 -19 5
-6 5 29 2 73 10 102 23 81 7 -10 9 -8 10 7 1 11 5 -5 8 -35 3 -30 3 -57 -1
-60z m3475 93 c4 -2 7 -10 7 -17 0 -6 16 -18 35 -25 23 -8 37 -21 41 -37 3
-13 12 -24 20 -24 7 0 19 -8 26 -18 7 -9 25 -23 40 -29 15 -7 30 -23 33 -35 3
-13 22 -33 41 -46 26 -17 35 -29 31 -43 -3 -10 -2 -17 3 -14 18 11 32 -25 25
-65 -6 -37 -12 -44 -52 -61 -25 -10 -57 -21 -71 -24 -15 -3 -4 4 23 15 28 12
56 27 64 35 11 11 9 15 -15 28 -16 8 -47 18 -69 21 -68 12 -78 28 -13 22 31
-3 63 -9 72 -12 10 -4 14 0 13 15 -1 11 -7 23 -15 26 -8 3 -11 0 -7 -8 4 -6
-2 -2 -13 11 -11 12 -24 22 -28 22 -4 0 -3 -5 4 -12 7 -7 12 -17 12 -22 -1 -6
-12 3 -26 19 -25 29 -25 29 -19 5 l6 -25 -21 25 c-32 36 -79 50 -110 32 l-25
-14 23 21 c18 16 28 18 42 11 24 -13 33 -13 24 1 -4 7 0 9 14 5 12 -4 23 -2
28 5 4 8 3 9 -4 5 -7 -4 -12 -3 -12 1 0 5 -9 9 -19 9 -11 0 -17 -4 -15 -8 3
-4 -8 -7 -23 -6 -15 0 -38 -3 -50 -7 -15 -5 -23 -3 -23 4 0 7 5 9 10 6 6 -3
10 -2 10 4 0 18 -20 22 -55 11 -19 -6 -39 -9 -45 -5 -16 10 8 45 31 45 11 0
17 -4 14 -10 -3 -5 -1 -10 4 -10 6 0 11 4 11 10 0 12 -35 31 -44 23 -3 -3 -6
-1 -6 5 0 7 -9 12 -20 12 -11 0 -24 8 -27 18 -4 9 -12 20 -19 25 -14 8 -8 37
8 37 5 0 6 -4 3 -10 -3 -5 -1 -10 4 -10 6 0 11 -6 11 -14 0 -8 3 -17 8 -19 4
-3 7 5 7 18 0 13 -3 21 -7 18 -5 -2 -8 3 -8 11 0 9 -6 16 -12 16 -7 0 1 11 17
25 24 19 37 23 65 18 19 -3 38 -8 43 -10z m-3166 -20 c10 -4 14 -3 9 5 -4 8 3
8 25 2 44 -13 44 -14 -2 -34 -38 -17 -42 -17 -57 -1 -16 15 -15 16 13 10 l30
-6 -32 15 c-32 15 -48 34 -18 22 8 -3 22 -9 32 -13z m2259 6 c10 -17 -17 -38
-56 -44 -28 -4 -31 -3 -15 5 16 8 12 9 -20 6 l-40 -5 50 24 c58 27 71 29 81
14z m-191 -17 c-3 -3 -11 0 -18 7 -9 10 -8 11 6 5 10 -3 15 -9 12 -12z m-2247
-61 c-13 -4 -15 0 -23 34 l-7 30 20 -30 c10 -16 15 -32 10 -34z m82 3 c0 -2
-8 -4 -17 -4 -10 0 -26 14 -35 30 l-17 31 34 -27 c19 -14 35 -28 35 -30z m49
8 c-12 -2 -26 2 -30 10 -16 24 -9 27 21 10 27 -16 28 -17 9 -20z m2161 20 c0
-5 -7 -9 -15 -9 -8 0 -12 4 -9 9 3 4 9 8 15 8 5 0 9 -4 9 -8z m-2660 -6 c0 -2
-8 -10 -17 -17 -16 -13 -17 -12 -4 4 13 16 21 21 21 13z m2697 -2 c-3 -3 -12
-4 -19 -1 -8 3 -5 6 6 6 11 1 17 -2 13 -5z m183 -4 c0 -6 -8 -23 -17 -37 -10
-15 -13 -25 -8 -21 6 3 19 2 30 -3 15 -5 7 -8 -30 -10 -27 -1 -68 -3 -90 -5
-28 -1 -34 0 -20 6 11 4 23 6 26 4 4 -2 10 3 13 12 5 14 -1 15 -39 12 -66 -5
-55 8 18 22 35 6 70 16 78 21 19 12 39 11 39 -1z m-2546 -16 c3 -8 2 -12 -4
-9 -6 3 -10 10 -10 16 0 14 7 11 14 -7z m2343 -30 c-3 -3 -12 -4 -19 -1 -8 3
-5 6 6 6 11 1 17 -2 13 -5z m-2532 -66 c-7 -55 -19 -79 -27 -56 -5 14 20 108
29 108 2 0 2 -24 -2 -52z m3468 38 c6 -16 -2 -28 -14 -20 -12 7 -11 34 0 34 5
0 11 -6 14 -14z m-980 -13 c-7 -2 -21 -2 -30 0 -10 3 -4 5 12 5 17 0 24 -2 18
-5z m338 -33 c-20 -17 -38 -20 -132 -20 -66 0 -109 4 -109 10 0 6 28 10 63 11
34 0 82 4 107 8 25 5 56 9 70 9 l25 1 -24 -19z m190 -94 c-5 -12 -12 -37 -14
-56 -3 -19 -14 -60 -27 -90 -15 -40 -22 -76 -21 -130 0 -62 -2 -69 -9 -40 -21
85 -1 223 53 363 l22 58 3 -42 c2 -24 -1 -52 -7 -63z m-3454 62 c-3 -8 -6 -5
-6 6 -1 11 2 17 5 13 3 -3 4 -12 1 -19z m813 8 c14 0 31 4 38 8 7 4 15 0 19
-9 3 -10 0 -21 -8 -26 -8 -5 -10 -9 -5 -9 5 0 18 7 28 17 17 15 18 15 18 -6 0
-12 4 -19 10 -16 16 10 50 -5 50 -21 0 -8 5 -14 11 -14 15 0 59 -42 59 -57 0
-7 9 -13 20 -13 11 0 20 -7 20 -15 0 -9 9 -15 25 -15 15 0 25 -6 25 -14 0 -9
7 -12 20 -9 14 4 21 -1 26 -21 6 -26 7 -26 31 -10 17 10 28 13 35 6 13 -13 2
-32 -18 -32 -8 0 -14 -5 -14 -11 0 -14 43 0 53 17 12 20 34 17 40 -6 4 -15 14
-20 37 -20 23 0 31 -4 27 -14 -8 -20 4 -28 19 -15 17 14 44 4 44 -16 0 -12 6
-14 27 -9 22 6 25 4 20 -10 -5 -13 -2 -15 18 -10 19 5 25 2 25 -9 0 -22 18
-31 35 -17 11 9 15 5 21 -24 6 -37 24 -60 24 -32 0 23 15 19 34 -8 8 -14 25
-27 36 -31 11 -3 22 -16 26 -29 3 -12 18 -27 35 -33 22 -9 29 -18 29 -37 0
-15 6 -37 14 -49 16 -26 33 -121 17 -97 -5 8 -7 18 -4 24 3 5 1 6 -5 2 -6 -3
-13 -2 -16 3 -4 5 -2 12 4 16 12 7 4 25 -11 25 -6 0 -7 -5 -3 -12 4 -7 3 -8
-4 -4 -6 4 -8 14 -5 24 6 15 5 16 -12 2 -16 -14 -17 -13 -11 7 6 18 4 20 -14
16 -22 -6 -27 6 -9 24 7 7 4 12 -10 16 -12 3 -24 1 -27 -4 -3 -5 -12 -9 -20
-9 -10 0 -9 5 6 20 12 12 18 26 14 32 -5 7 -10 4 -15 -10 -5 -12 -16 -21 -26
-21 -16 1 -16 2 1 6 13 4 15 7 7 13 -9 5 -8 11 4 24 25 25 5 19 -23 -6 -13
-13 -23 -18 -22 -13 5 22 -1 27 -17 14 -14 -12 -16 -12 -8 0 6 11 4 13 -7 8
-11 -4 -18 1 -21 14 -3 10 -10 19 -15 19 -6 0 -8 -8 -5 -19 3 -10 0 -22 -6
-25 -7 -5 -8 -1 -5 9 7 17 -16 17 -28 0 -5 -6 -8 -6 -8 2 0 7 8 17 18 22 24
14 9 14 -23 -1 -19 -9 -28 -9 -37 0 -9 9 -9 12 3 13 7 1 3 4 -11 8 -14 4 -24
13 -22 20 1 7 -2 9 -8 6 -6 -4 -20 1 -30 10 -11 10 -30 15 -47 13 -27 -4 -27
-4 11 -15 40 -13 76 -39 76 -57 0 -6 -5 -5 -12 2 -20 20 -30 14 -18 -10 7 -14
1 -10 -15 10 -33 40 -61 56 -71 40 -5 -7 -3 -8 6 -3 9 5 11 4 6 -3 -4 -7 -2
-10 6 -7 7 3 19 -5 27 -17 13 -21 13 -22 -2 -9 -15 12 -17 11 -18 -10 l0 -24
-10 25 c-5 14 -17 31 -26 38 -10 7 -12 12 -5 12 16 0 15 27 0 33 -7 2 -23 -3
-36 -11 -18 -11 -25 -12 -37 -2 -8 7 -25 10 -37 7 -14 -4 -26 0 -34 11 -12 16
-15 14 -38 -13 l-26 -30 -20 25 c-11 14 -18 31 -15 38 6 16 -31 16 -41 0 -4
-6 -2 -14 4 -16 7 -2 19 -11 28 -19 11 -12 12 -18 3 -29 -6 -8 -17 -14 -23
-14 -6 0 -19 -14 -28 -30 -10 -18 -25 -30 -38 -30 -28 0 -25 19 5 30 30 11 32
26 5 40 -17 9 -22 7 -30 -14 -7 -21 -16 -25 -43 -24 -19 1 -40 -3 -47 -7 -9
-5 -11 -4 -6 4 11 17 -22 25 -51 12 -14 -6 -23 -17 -20 -24 3 -8 -6 -12 -25
-12 l-30 -1 26 19 c30 22 34 61 9 76 -10 6 -12 11 -5 11 6 0 12 9 12 19 0 15
6 19 28 17 23 -3 27 -8 27 -35 0 -30 2 -32 34 -29 19 2 37 9 39 17 3 10 0 12
-12 8 -14 -6 -19 3 -15 30 1 10 -30 25 -40 19 -5 -3 -14 1 -20 8 -10 11 -5 20
24 41 19 15 35 33 35 41 0 16 -54 46 -64 36 -4 -3 -4 1 0 11 3 9 3 25 0 34 -6
14 -10 11 -26 -15 -24 -38 -25 -46 -7 -39 10 4 14 -3 13 -21 -1 -15 3 -33 8
-39 11 -16 -10 -43 -33 -43 -14 0 -14 2 -1 10 13 8 12 11 -5 24 -17 13 -18 15
-3 16 9 0 20 5 23 10 10 16 -14 40 -33 33 -10 -3 -13 -2 -7 4 6 4 21 25 33 47
l23 39 -22 23 c-12 13 -26 21 -32 17 -6 -3 -7 -1 -3 5 4 7 14 12 22 12 17 0
18 11 2 30 -7 8 -3 6 9 -3 21 -18 21 -18 28 3 4 12 4 24 1 27 -3 3 -1 14 5 24
6 13 6 19 -1 19 -6 0 -6 7 2 19 7 11 16 17 22 14 5 -4 22 -7 36 -7z m3175 4
c3 -5 2 -10 -4 -10 -5 0 -13 5 -16 10 -3 6 -2 10 4 10 5 0 13 -4 16 -10z
m-705 -36 c0 -8 -16 -22 -35 -30 -32 -13 -47 -12 -168 10 l-132 24 125 -4 c69
-3 138 -1 155 5 44 14 55 13 55 -5z m-2540 -8 c0 -11 -19 -15 -25 -6 -3 5 1
10 9 10 9 0 16 -2 16 -4z m-746 -18 c-5 -9 -2 -9 9 1 15 12 17 11 18 -5 0 -11
2 -27 4 -36 2 -10 -1 -20 -5 -23 -5 -3 -7 -12 -4 -19 3 -8 1 -17 -4 -20 -5 -3
-9 6 -9 21 0 15 -6 29 -12 31 -18 6 -13 62 6 62 2 0 1 -6 -3 -12z m426 -64
c-17 -51 -23 -35 -8 21 7 27 14 41 16 32 2 -10 -2 -33 -8 -53z m2600 47 c36
-5 98 -13 138 -17 72 -7 102 -24 40 -24 -42 1 -277 45 -286 55 -4 3 4 4 18 1
14 -3 54 -9 90 -15z m-2623 -23 c-3 -7 -5 -2 -5 12 0 14 2 19 5 13 2 -7 2 -19
0 -25z m278 12 c3 -5 -1 -10 -10 -10 -9 0 -13 5 -10 10 3 6 8 10 10 10 2 0 7
-4 10 -10z m1528 -131 c-4 -4 -6 22 -3 59 l5 67 3 -59 c2 -32 -1 -63 -5 -67z
m84 69 c-2 -13 -4 -5 -4 17 -1 22 1 32 4 23 2 -10 2 -28 0 -40z m-37 -89 c-7
-15 -24 -36 -39 -45 -14 -9 -21 -11 -14 -4 6 7 9 18 7 25 -3 7 -1 16 5 20 6 3
12 30 12 58 1 29 3 44 6 34 6 -25 23 -11 25 21 1 15 3 3 5 -27 2 -30 -1 -67
-7 -82z m130 34 c0 -22 -42 -63 -65 -63 -8 0 -10 -9 -8 -24 9 -47 -52 -115
-78 -89 -6 6 2 23 20 44 19 22 26 36 19 40 -15 9 3 73 20 75 25 3 27 5 12 14
-13 9 -13 12 3 21 9 5 17 22 17 36 0 15 3 23 7 19 4 -4 7 -24 6 -44 -1 -30 1
-27 9 16 l11 54 13 -39 c8 -21 14 -48 14 -60z m684 82 c105 -15 116 -19 99
-36 -9 -9 -30 -8 -80 0 -129 23 -166 33 -152 42 18 11 15 11 133 -6z m-2804
-22 c23 -30 20 -35 -29 -52 -38 -12 -46 -9 -37 14 4 11 13 14 31 9 18 -4 25
-2 25 9 0 21 -27 40 -45 33 -9 -3 -13 -2 -10 4 11 18 43 10 65 -17z m171 -26
c-13 -13 -15 1 -4 30 7 17 8 17 11 -1 2 -10 -1 -23 -7 -29z m-54 1 c-3 -7 -5
-2 -5 12 0 14 2 19 5 13 2 -7 2 -19 0 -25z m1779 -105 c-30 -44 -34 -112 -12
-205 13 -52 12 -59 -4 -78 l-18 -21 0 23 c1 13 0 55 -2 93 -4 92 -17 128 -18
49 0 -33 -6 -72 -12 -88 -6 -16 -10 -62 -9 -103 1 -49 -3 -78 -11 -86 -10 -9
-12 -8 -7 6 5 12 1 17 -11 17 -9 1 -28 7 -42 15 l-25 15 30 -6 c17 -3 36 -8
44 -10 11 -3 12 14 8 98 -3 57 -2 94 2 84 6 -16 10 -12 19 24 6 24 9 47 6 52
-13 20 -12 53 1 78 12 24 20 66 24 129 1 11 4 11 17 0 11 -9 14 -23 11 -46 -3
-19 -2 -31 2 -28 5 2 12 31 17 62 l9 58 3 -47 c2 -38 -2 -55 -22 -85z m1854
-98 c8 -89 36 -212 46 -203 2 2 -3 28 -11 58 -11 44 -11 52 -1 37 17 -23 47
-185 40 -214 -6 -20 -9 -17 -40 27 -19 27 -34 62 -34 77 0 16 -4 35 -9 42 -6
10 -8 -1 -4 -30 3 -24 16 -60 29 -80 24 -35 31 -59 17 -59 -14 1 -71 95 -76
125 -3 17 -4 12 -2 -10 2 -22 6 -51 9 -65 6 -23 -7 -60 -18 -50 -10 10 -18
132 -20 292 -1 92 0 165 3 163 9 -9 31 49 32 84 2 56 27 -73 39 -194z m-691
93 c-6 -20 -9 -46 -6 -57 3 -12 2 -21 -3 -21 -21 0 -16 119 8 185 13 37 14
-67 1 -107z m-839 93 c5 -11 10 -33 10 -50 0 -24 -7 -34 -30 -46 -16 -8 -40
-15 -54 -15 -13 0 -26 -5 -28 -11 -5 -16 -48 -1 -48 17 0 8 9 14 19 14 11 0
23 5 27 11 4 8 9 7 16 -2 7 -11 11 -11 15 -1 2 6 9 10 14 6 5 -3 7 5 6 18 -2
13 -10 23 -18 23 -8 0 -14 8 -14 18 0 9 3 17 8 17 4 0 13 0 21 0 8 0 22 -7 30
-16 9 -8 16 -11 16 -5 0 5 -7 17 -16 25 -14 14 -14 16 0 16 8 0 20 -9 26 -19z
m1750 9 c-8 -5 -19 -10 -25 -10 -5 0 -3 5 5 10 8 5 20 10 25 10 6 0 3 -5 -5
-10z m-99 -17 c13 -16 12 -17 -3 -4 -17 13 -22 21 -14 21 2 0 10 -8 17 -17z
m-3751 -38 c0 -14 -4 -25 -8 -25 -7 0 -8 31 -3 48 4 11 11 -3 11 -23z m2537
10 c0 -17 -13 -20 -21 -6 -4 5 0 12 6 14 7 3 13 6 14 6 0 1 1 -6 1 -14z m-851
-17 c1 -10 -2 -18 -7 -18 -6 0 -7 -26 -3 -65 10 -101 -16 -145 -86 -145 -37 0
-80 39 -79 72 0 18 3 16 12 -11 7 -19 19 -37 27 -39 12 -4 13 -2 3 9 -21 21
-15 31 10 15 49 -31 92 32 67 99 -6 15 -8 30 -6 32 3 3 10 -14 17 -37 9 -31
10 -52 2 -82 -7 -25 -7 -36 -1 -30 17 17 26 92 16 128 -6 23 -5 41 3 55 9 17
8 24 -2 31 -11 7 -9 8 5 6 11 -2 20 -11 22 -20z m1024 12 c0 -5 -10 -10 -22
-11 -22 -1 -22 -1 2 -8 23 -7 21 -9 -20 -20 -25 -7 -60 -17 -78 -23 -43 -13
-55 -2 -13 13 41 14 35 22 -7 10 -19 -6 -32 -6 -32 -1 0 9 48 25 124 40 22 4
42 8 44 9 1 1 2 -3 2 -9z m1200 -49 c0 -24 -9 -49 -25 -71 -14 -19 -25 -30
-25 -24 0 5 7 18 15 28 8 11 15 24 15 30 0 5 -6 2 -13 -9 -13 -17 -14 -17 -20
4 -3 13 -1 19 6 14 7 -4 8 0 4 11 -5 11 -3 15 4 10 7 -4 10 -1 7 7 -7 18 10
51 23 44 5 -4 9 -23 9 -44z m-4302 -21 c20 -10 48 -29 62 -41 14 -11 19 -18
13 -14 -7 3 -13 2 -13 -4 0 -5 6 -11 13 -14 6 -2 9 -7 6 -11 -4 -4 -24 9 -45
28 -21 19 -40 33 -42 31 -2 -2 7 -25 22 -51 30 -54 33 -72 9 -53 -15 12 -16
12 -10 -4 4 -11 3 -16 -4 -12 -5 4 -7 16 -3 27 4 13 2 18 -4 14 -7 -4 -9 1 -7
14 2 11 -1 22 -6 25 -8 5 -39 70 -39 81 0 8 11 4 48 -16z m2512 11 c0 -5 -10
-11 -22 -14 -22 -6 -22 -6 -4 8 23 17 26 18 26 6z m88 2 c-10 -2 -26 -2 -35 0
-10 3 -2 5 17 5 19 0 27 -2 18 -5z m184 -5 c-14 -14 -77 -16 -116 -4 -37 11
-35 11 42 11 44 0 78 -3 74 -7z m109 -11 c-10 -9 -11 -8 -5 6 3 10 9 15 12 12
3 -3 0 -11 -7 -18z m-2091 3 c0 -5 -4 -10 -10 -10 -5 0 -10 5 -10 10 0 6 5 10
10 10 6 0 10 -4 10 -10z m1458 -12 c-2 -6 -10 -14 -16 -16 -7 -2 -10 2 -6 12
7 18 28 22 22 4z m2123 -127 c-6 -10 -27 -28 -48 -40 l-38 -21 30 25 c17 14
29 30 27 36 -1 6 2 8 7 5 5 -3 12 1 15 10 4 9 2 13 -5 8 -8 -4 -9 1 -4 17 4
14 -5 6 -20 -18 -14 -24 -27 -43 -29 -43 -1 0 -2 10 0 23 1 12 3 28 3 35 1 7
5 10 11 7 5 -3 7 0 4 8 -3 8 8 29 23 48 l28 33 3 -57 c2 -31 -2 -65 -7 -76z
m-173 82 c36 -27 41 -37 15 -29 -25 8 -51 -9 -28 -17 10 -4 14 -3 9 4 -4 8 0
7 15 0 25 -14 28 -23 4 -14 -12 5 -14 3 -8 -8 7 -11 4 -10 -15 2 -14 9 -36 35
-49 59 l-24 42 24 -7 c13 -4 39 -18 57 -32z m-1997 6 c14 -28 39 -126 39 -153
0 -33 -16 -66 -42 -86 -17 -15 -18 -20 -7 -62 19 -70 4 -118 -43 -141 -55 -27
-130 -33 -151 -12 -9 9 -17 21 -17 26 0 6 7 3 16 -5 20 -21 41 -21 24 -1 -10
12 -10 15 4 15 9 0 16 -6 16 -12 0 -7 5 -5 11 5 5 9 18 17 28 17 10 0 28 11
41 25 19 20 22 31 17 67 -4 29 -3 37 3 23 13 -30 12 -86 -2 -105 -7 -9 -3 -5
10 8 27 28 27 44 1 102 -19 43 -19 45 -1 60 10 8 23 27 30 43 6 15 15 27 20
27 4 0 7 10 7 23 -2 30 -28 84 -40 83 -5 -1 -11 9 -13 22 -2 12 1 22 7 22 6 0
11 7 11 16 0 18 20 14 31 -7z m178 -1 c-12 -22 -29 -23 -29 -2 0 10 -6 14 -15
10 -8 -3 -15 -1 -15 4 0 5 15 8 34 7 29 -2 33 -5 25 -19z m506 12 c3 -6 -1 -7
-9 -4 -18 7 -21 14 -7 14 6 0 13 -4 16 -10z m-906 -21 c-12 -8 -11 -11 1 -19
13 -8 12 -10 -3 -10 -22 0 -34 29 -16 40 17 11 35 0 18 -11z m-1311 -6 c15 -3
19 -9 12 -13 -7 -5 -8 -14 -1 -33 6 -15 7 -27 2 -27 -5 0 -17 -3 -26 -7 -15
-5 -16 -3 -7 14 19 35 11 58 -21 60 -16 1 -39 -3 -51 -9 -19 -10 -20 -10 -7 5
14 17 57 22 99 10z m2916 -134 c5 -16 3 -29 -3 -33 -6 -4 -13 9 -16 31 -4 21
-10 49 -15 63 -7 21 -7 60 0 80 1 3 8 -22 14 -55 7 -33 16 -72 20 -86z m-1279
111 c-8 -25 10 -27 24 -3 5 10 13 15 17 11 4 -4 1 -14 -6 -23 -10 -12 -10 -15
4 -15 9 0 19 0 23 -1 4 0 9 5 12 12 2 7 -1 9 -8 5 -7 -5 -9 -1 -5 8 8 21 24
20 25 -1 0 -16 1 -16 8 1 10 26 25 3 16 -24 -9 -27 -45 -34 -80 -16 -17 9 -38
16 -47 16 -9 0 -20 5 -23 10 -3 6 1 10 10 10 8 0 18 7 21 15 9 22 16 18 9 -5z
m1450 -9 c-2 -20 2 -31 12 -35 9 -4 14 -9 11 -11 -3 -3 -18 0 -34 7 -44 20
-39 49 13 67 1 1 0 -12 -2 -28z m-3115 -10 c0 -19 -20 -52 -20 -34 0 7 -7 10
-15 7 -8 -4 -15 -1 -15 6 0 6 4 9 8 6 13 -8 35 11 28 22 -5 8 -15 8 -31 2 -14
-5 -25 -7 -25 -4 0 8 44 22 58 17 6 -3 12 -13 12 -22z m2640 -20 c-38 -45 -44
-49 -66 -39 -13 6 -24 15 -24 20 0 13 91 68 113 68 15 0 10 -9 -23 -49z
m-2758 17 c-15 -15 -16 -48 0 -48 6 0 8 -3 5 -6 -4 -4 -13 -1 -21 5 -15 13
-11 40 8 53 17 12 21 9 8 -4z m3369 -44 c-5 -16 -10 -21 -10 -12 -1 18 10 51
15 45 2 -1 -1 -16 -5 -33z m-3344 20 c-3 -3 -12 -4 -19 -1 -8 3 -5 6 6 6 11 1
17 -2 13 -5z m2278 -27 c0 -19 -5 -24 -25 -23 -16 1 -26 8 -28 20 -3 15 0 18
17 13 12 -3 21 -1 21 4 0 5 3 9 8 9 4 0 7 -11 7 -23z m1405 -40 c8 -12 18 -29
22 -39 6 -16 4 -17 -20 -12 -46 11 -63 24 -78 59 -8 19 -14 39 -14 46 0 15 70
-27 90 -54z m225 10 c-15 -65 -37 -100 -71 -115 -35 -17 -43 -14 -18 6 12 9
30 31 40 47 l18 30 -24 -20 c-14 -11 -32 -28 -41 -39 -26 -30 -30 -4 -6 39 17
31 96 105 111 105 2 0 -2 -24 -9 -53z m-3750 34 c3 -6 -3 -9 -14 -8 -11 0 -17
5 -15 9 7 11 22 10 29 -1z m480 -1 c3 -5 16 -10 27 -10 28 0 58 -28 57 -54 0
-21 0 -21 -9 0 -11 28 -32 42 -38 25 -3 -8 -9 -6 -19 6 -14 17 -14 17 -9 -5 4
-22 3 -22 -16 -10 -12 8 -25 24 -29 36 -7 18 -5 22 11 22 10 0 22 -4 25 -10z
m2255 6 c0 -11 -85 -84 -92 -80 -4 3 -2 11 5 18 6 8 16 11 21 8 5 -3 6 0 1 7
-4 8 -18 10 -34 7 l-26 -6 28 16 c16 8 31 13 34 11 2 -3 16 1 31 9 30 15 32
16 32 10z m-2330 -23 c0 -5 3 -19 7 -32 l6 -24 -21 21 c-22 22 -49 31 -38 13
4 -5 -3 -7 -14 -4 -19 5 -20 6 -3 19 19 14 63 19 63 7z m33 -20 c7 -39 1 -40
-11 -4 -6 17 -7 31 -3 31 5 0 11 -12 14 -27z m1233 12 c12 -8 24 -12 27 -9 3
3 9 -10 12 -30 4 -19 10 -35 14 -34 20 2 31 -4 31 -16 0 -21 -20 -30 -33 -16
-7 6 -7 10 -2 8 6 -2 12 1 15 6 3 5 -4 10 -14 12 -10 1 -22 8 -26 14 -4 7 -13
2 -24 -14 -9 -14 -12 -26 -7 -26 5 0 13 5 16 10 3 6 11 10 16 10 6 0 7 -5 4
-10 -4 -6 9 -17 27 -24 64 -27 83 -58 86 -145 4 -76 3 -79 -28 -114 -48 -55
-133 -73 -179 -38 l-24 19 23 7 c14 4 25 3 30 -5 6 -9 9 -9 15 -1 3 7 16 9 26
6 19 -6 58 12 88 42 23 24 31 81 16 124 -8 21 -12 39 -9 39 3 0 -10 14 -28 30
-19 18 -49 33 -70 37 -21 3 -38 7 -38 10 0 2 9 16 20 31 23 31 19 58 -11 67
-23 8 -42 -2 -33 -17 4 -7 2 -8 -4 -4 -7 4 -12 2 -12 -3 0 -6 -11 -11 -25 -11
-34 0 -31 14 8 39 38 24 65 26 93 6z m304 -3 c0 -13 -12 -22 -22 -16 -10 6 -1
24 13 24 5 0 9 -4 9 -8z m43 -7 c-3 -9 -8 -14 -10 -11 -3 3 -2 9 2 15 9 16 15
13 8 -4z m32 5 c3 -5 1 -10 -4 -10 -6 0 -11 5 -11 10 0 6 2 10 4 10 3 0 8 -4
11 -10z m-1970 -20 c-3 -5 -12 -10 -18 -10 -7 0 -6 4 3 10 19 12 23 12 15 0z
m-478 -20 c2 -20 -8 -26 -20 -13 -4 3 -2 12 4 20 15 17 14 17 16 -7z m2448 1
c-3 -6 -11 -8 -17 -5 -6 4 -5 9 3 15 16 10 23 4 14 -10z m135 -1 c0 -11 6 -20
14 -20 9 0 12 7 9 20 -4 15 0 20 14 20 27 0 49 -29 47 -62 0 -15 2 -25 6 -23
5 3 11 -2 14 -11 9 -24 -17 -11 -30 14 -10 20 -12 20 -32 6 -25 -17 -42 -11
-42 14 0 12 -3 13 -12 4 -7 -7 -19 -12 -27 -12 -12 0 -11 3 2 18 27 29 20 44
-8 17 -13 -14 -29 -25 -34 -25 -17 0 -23 20 -11 35 17 20 1 19 -21 -1 -16 -15
-17 -14 -12 5 5 18 13 21 64 21 52 0 59 -2 59 -20z m-876 -25 c5 -22 4 -26 -4
-15 -5 8 -10 24 -10 34 0 26 6 18 14 -19z m331 -5 c-13 -14 -31 -20 -62 -20
-23 0 -43 5 -43 10 0 6 15 10 33 10 21 0 41 8 52 20 12 14 22 17 29 10 6 -6 3
-16 -9 -30z m372 24 c2 -6 -3 -11 -10 -11 -8 0 -14 6 -14 14 0 15 19 12 24 -3z
m-1839 -19 c-3 -3 -9 2 -12 12 -6 14 -5 15 5 6 7 -7 10 -15 7 -18z m1802 21
c0 -2 -8 -10 -17 -17 -16 -13 -17 -12 -4 4 13 16 21 21 21 13z m1607 -33 c-3
-10 -5 -4 -5 12 0 17 2 24 5 18 2 -7 2 -21 0 -30z m-2170 -72 c8 -78 -9 -101
-73 -101 -44 0 -74 19 -32 21 60 2 104 33 94 68 -3 9 -7 36 -11 61 -4 34 -3
41 5 28 5 -9 13 -44 17 -77z m1483 62 c0 18 25 24 34 8 10 -16 -16 -132 -35
-154 l-19 -22 10 27 c11 31 -1 76 -32 120 -26 38 -13 56 18 27 20 -19 24 -20
24 -6z m638 -29 c39 -26 9 -30 -34 -5 -22 13 -34 16 -32 9 3 -7 29 -23 59 -36
53 -22 53 -22 14 -16 -47 7 -78 27 -113 72 l-26 33 53 -20 c29 -11 64 -27 79
-37z m-2663 22 c59 -19 106 -50 157 -101 71 -71 71 -143 2 -223 -47 -55 -102
-86 -194 -110 -41 -11 -101 -29 -133 -41 -32 -12 -79 -24 -105 -26 -43 -4 -44
-4 -12 4 81 21 137 39 167 54 18 10 39 17 47 17 8 0 41 10 73 21 71 27 149 97
164 150 11 34 9 42 -15 83 -30 51 -71 86 -134 114 -23 10 -40 21 -37 24 3 3
-7 3 -22 1 -17 -3 -23 -1 -16 4 13 10 -27 12 -190 12 -119 0 -201 -15 -275
-50 -35 -17 -69 -24 -135 -27 -48 -2 -95 -1 -105 4 -9 4 -26 9 -37 11 -40 7
-120 33 -85 27 169 -28 245 -24 353 18 44 17 113 36 155 44 99 17 309 12 377
-10z m1437 7 c19 -17 24 -43 8 -43 -5 0 -10 7 -10 15 0 8 -4 15 -9 15 -5 0
-11 7 -15 15 -7 20 3 19 26 -2z m-982 -35 c0 -16 -3 -19 -11 -11 -6 6 -8 16
-5 22 11 17 16 13 16 -11z m841 3 c31 -10 73 -22 95 -25 22 -4 46 -11 54 -16
28 -17 -33 -8 -120 18 -85 26 -127 30 -230 19 l-55 -6 54 10 c30 5 57 12 60
14 11 11 92 4 142 -14z m674 -11 c19 -37 3 -41 -32 -8 -28 26 -29 38 -3 38 12
0 26 -12 35 -30z m134 -24 c0 -33 -6 -61 -15 -73 -9 -10 -13 -12 -9 -5 3 6 1
12 -4 12 -12 0 -15 102 -4 113 20 21 32 4 32 -47z m852 17 c-30 -60 -85 -109
-141 -128 -28 -9 -54 -15 -56 -12 -3 3 7 8 23 11 16 4 42 18 58 32 l30 25 -35
-17 -35 -16 29 31 c17 17 25 31 19 31 -6 0 -23 -15 -38 -32 -41 -49 -60 -56
-32 -11 33 54 128 115 190 122 4 1 -1 -16 -12 -36z m-234 -10 c-3 -10 -5 -4
-5 12 0 17 2 24 5 18 2 -7 2 -21 0 -30z m-1947 -1 c26 -26 50 -85 50 -123 0
-21 -38 -69 -54 -69 -9 0 -15 19 -18 56 -3 31 -9 59 -15 62 -13 10 -24 42 -13
42 5 0 18 -12 30 -27 17 -21 21 -37 17 -66 -3 -21 -1 -35 4 -31 19 11 9 82
-15 111 -23 26 -26 27 -75 17 -28 -6 -51 -8 -51 -6 0 10 36 31 53 32 10 0 15
5 11 11 -3 6 -18 8 -33 5 -19 -5 -22 -4 -11 4 8 5 32 10 53 10 29 0 46 -7 67
-28z m-1707 11 c-7 -2 -21 -2 -30 0 -10 3 -4 5 12 5 17 0 24 -2 18 -5z m1960
0 c-7 -2 -21 -2 -30 0 -10 3 -4 5 12 5 17 0 24 -2 18 -5z m-174 -19 c46 -32
68 -137 35 -165 -13 -10 -17 -10 -24 2 -7 9 -5 15 5 17 18 4 20 32 3 32 -9 0
-8 4 2 10 8 5 10 10 3 10 -6 0 -9 9 -6 20 3 12 -1 22 -11 26 -9 3 -14 10 -11
14 3 5 -3 13 -12 19 -10 6 -13 11 -8 11 6 0 3 5 -5 10 -8 5 -10 10 -5 10 6 0
21 -7 34 -16z m931 -20 c41 -19 90 -45 109 -57 31 -19 32 -21 15 -29 -16 -7
-15 -8 4 -4 45 9 144 -41 325 -161 74 -50 207 -169 207 -185 0 -6 -6 -5 -15 2
-11 9 -35 11 -82 7 -56 -6 -70 -4 -94 14 -23 16 -28 17 -23 4 6 -14 2 -14 -37
1 -48 19 -88 45 -89 57 0 4 -9 16 -20 27 -15 15 -20 16 -20 6 0 -21 -39 -46
-71 -46 -37 0 -79 36 -79 67 0 30 26 63 48 63 9 0 12 3 9 6 -11 11 -66 -17
-73 -38 -9 -29 4 -67 31 -92 29 -27 92 -24 124 5 24 23 28 23 28 4 0 -8 -3
-15 -7 -15 -3 0 -15 -7 -26 -16 -16 -13 -16 -15 -1 -10 9 3 17 3 17 -1 0 -9
-42 -43 -54 -43 -6 0 -2 7 9 16 27 20 5 34 -44 28 -31 -4 -39 0 -62 27 -21 26
-27 29 -32 15 -4 -10 -1 -16 8 -16 9 0 12 -6 9 -15 -7 -18 -24 -20 -24 -2 0 6
-14 18 -31 26 -22 10 -28 16 -20 24 6 6 11 16 11 22 0 5 -5 2 -11 -8 -10 -17
-12 -18 -30 -1 -13 11 -34 16 -69 15 -27 0 -50 4 -50 9 0 9 23 14 34 8 2 -2
14 10 27 26 29 37 29 84 0 107 -12 10 -17 20 -11 24 5 3 10 11 10 16 0 5 -10
1 -22 -11 -41 -38 -108 -17 -108 34 0 25 18 51 40 59 13 5 12 6 -1 6 -9 1 -28
-10 -43 -24 -21 -19 -26 -31 -20 -48 6 -19 5 -20 -10 -8 -12 10 -14 17 -5 27
9 11 8 14 -4 14 -10 0 -14 6 -11 15 4 8 14 15 23 15 13 0 13 2 2 9 -9 6 -10
11 -2 15 6 4 16 4 23 0 7 -4 8 -3 4 5 -9 13 46 40 84 41 14 0 59 -16 100 -36z
m-3210 -18 c0 -6 -7 -1 -15 10 -8 10 -15 23 -15 28 0 6 7 1 15 -10 8 -10 15
-23 15 -28z m3569 31 c8 -10 7 -14 -4 -14 -8 0 -15 6 -15 14 0 7 2 13 4 13 2
0 9 -6 15 -13z m62 -8 c9 -18 7 -25 -10 -42 -13 -13 -21 -16 -21 -9 0 7 -4 11
-9 8 -5 -4 -4 10 2 29 12 40 22 44 38 14z m-1804 5 c-3 -3 -12 -4 -19 -1 -8 3
-5 6 6 6 11 1 17 -2 13 -5z m1516 -10 c9 -10 -4 -35 -15 -28 -6 4 -5 10 3 16
10 7 2 8 -24 4 -22 -3 -35 -1 -32 5 7 10 58 13 68 3z m319 -26 c-9 -9 -12 -7
-12 12 0 19 3 21 12 12 9 -9 9 -15 0 -24z m-1889 7 c-3 -9 -8 -14 -10 -11 -3
3 -2 9 2 15 9 16 15 13 8 -4z m55 -13 c3 -16 -2 -22 -16 -22 -24 0 -35 23 -19
39 16 16 31 8 35 -17z m62 9 c0 -14 -18 -23 -30 -16 -6 4 -8 11 -5 16 8 12 35
12 35 0z m2153 -2 c29 -15 66 -49 79 -72 8 -16 5 -15 -21 4 -42 31 -50 17 -12
-21 39 -39 39 -45 1 -25 -18 9 -40 35 -55 65 -33 66 -33 70 8 49z m-73 -15 c0
-8 -4 -12 -10 -9 -5 3 -10 10 -10 16 0 5 5 9 10 9 6 0 10 -7 10 -16z m-1827
-22 c21 -19 24 -108 3 -137 -15 -22 -28 -116 -31 -215 -2 -86 -3 -92 -14 -85
-5 3 -13 0 -17 -6 -4 -8 -3 -9 4 -5 7 4 12 3 12 -2 0 -13 -25 -33 -33 -27 -4
3 -5 2 -2 -2 7 -9 -26 -43 -42 -43 -8 0 -12 4 -9 9 3 5 -1 11 -9 14 -10 4 -12
1 -8 -11 4 -13 3 -14 -6 -6 -13 12 -5 44 11 44 6 0 6 6 -1 14 -8 9 -11 40 -9
80 2 56 0 68 -17 80 -42 32 -118 4 -128 -47 -2 -12 -3 -10 -1 6 8 66 18 75 88
76 32 1 45 -5 72 -35 19 -19 31 -27 27 -17 -18 47 -66 74 -119 67 -21 -3 -49
-6 -61 -6 -26 0 -27 -2 -14 -26 5 -11 2 -27 -10 -47 -11 -16 -19 -24 -19 -16
0 8 -3 11 -6 8 -4 -4 -1 -13 6 -22 10 -12 10 -15 0 -15 -10 0 -10 -3 0 -15 7
-8 8 -15 3 -15 -5 0 -15 11 -22 24 -24 43 22 141 79 171 43 22 81 18 131 -14
42 -26 54 -44 85 -119 15 -36 20 94 10 221 -4 43 -2 66 4 62 15 -9 12 8 -6 33
-8 12 -11 22 -6 22 18 0 41 -36 45 -70 4 -33 4 -33 5 8 2 30 -4 48 -18 62 -36
36 -19 37 23 2z m1711 11 c4 -10 4 -14 0 -10 -4 4 -22 -14 -41 -40 -32 -45
-45 -50 -20 -7 11 19 50 73 53 74 1 0 5 -8 8 -17z m-137 -53 c-4 -56 -9 -65
-33 -56 -13 5 -15 9 -6 18 21 21 14 36 -14 30 -20 -4 -25 -2 -19 8 4 7 2 16
-6 21 -10 6 -7 9 11 9 14 0 32 5 40 10 26 17 30 11 27 -40z m-1062 -2 c-4 -24
-13 -56 -20 -73 -8 -16 -21 -48 -30 -70 -17 -42 -56 -105 -66 -105 -15 0 4 66
45 153 25 54 46 102 46 106 0 7 21 31 28 31 2 0 1 -19 -3 -42z m1414 -126 c23
-45 29 -78 16 -82 -12 -3 -44 60 -38 76 2 7 -1 15 -8 20 -7 4 -10 3 -6 -4 4
-5 4 -18 1 -27 -6 -15 -9 -14 -20 6 -7 13 -13 20 -14 15 0 -5 11 -29 25 -53
14 -23 22 -43 18 -43 -4 0 3 -10 17 -21 l25 -20 -31 15 c-17 8 -37 23 -44 33
-12 15 -12 16 0 6 8 -7 19 -13 25 -13 5 0 -3 9 -18 19 -16 10 -28 20 -27 22 0
2 -5 20 -13 39 -8 19 -18 55 -22 80 -3 25 -9 54 -11 65 -7 28 102 -87 125
-133z m-2265 89 c-2 -2 -11 0 -21 3 -15 6 -15 8 -3 16 8 6 11 10 7 10 -5 0 -5
6 -1 12 6 9 10 5 14 -12 4 -14 5 -27 4 -29z m275 -21 c4 -33 4 -57 0 -53 -8
10 -22 129 -13 121 3 -4 9 -34 13 -68z m531 57 c0 -7 -7 -22 -15 -33 -13 -17
-13 -16 -3 14 13 34 18 40 18 19z m344 -9 c-3 -4 0 -8 5 -8 6 0 11 -4 11 -10
0 -16 -14 -12 -27 8 -9 15 -8 19 3 19 7 0 11 -4 8 -9z m976 7 c0 -8 -62 -37
-67 -31 -3 3 10 12 28 20 42 18 39 17 39 11z m-2120 -60 c11 10 20 12 24 6 4
-5 -2 -15 -11 -20 -15 -9 -13 -10 10 -7 24 4 27 3 17 -10 -28 -32 -100 2 -100
48 0 19 2 19 21 -6 20 -25 23 -26 39 -11z m1112 -2 c41 -37 0 -123 -59 -123
-44 0 -43 55 3 109 30 36 32 36 56 14z m229 7 c25 -14 24 -55 -2 -81 -17 -17
-29 -20 -62 -16 -36 5 -63 24 -51 36 3 3 9 -1 14 -9 7 -11 10 -7 10 16 0 48
48 76 91 54z m679 6 c0 -2 -8 -10 -17 -17 -16 -13 -17 -12 -4 4 13 16 21 21
21 13z m-1846 -38 c-4 -6 -10 -5 -15 3 -14 22 -10 33 6 19 8 -7 12 -17 9 -22z
m36 -4 c0 -8 -5 -14 -11 -14 -6 0 -9 6 -6 14 3 7 0 20 -6 27 -10 11 -9 11 6 0
9 -7 17 -20 17 -27z m260 26 c0 -5 -7 -10 -16 -10 -8 0 -12 5 -9 10 3 6 10 10
16 10 5 0 9 -4 9 -10z m691 -12 c11 -21 11 -22 -4 -9 -10 7 -17 17 -17 22 0
15 9 10 21 -13z m1154 4 c-3 -3 -11 0 -18 7 -9 10 -8 11 6 5 10 -3 15 -9 12
-12z m-2229 -21 c-4 -6 -17 -16 -29 -22 l-22 -12 23 25 c12 13 21 27 19 30 -2
3 0 2 6 -2 5 -5 6 -13 3 -19z m664 -10 c-21 -42 -45 -66 -33 -34 6 16 4 16
-17 -2 l-23 -20 11 22 c10 17 69 72 80 73 1 0 -7 -18 -18 -39z m-513 7 c-3 -8
-6 -5 -6 6 -1 11 2 17 5 13 3 -3 4 -12 1 -19z m-1168 -138 c45 -191 58 -242
97 -373 77 -263 114 -345 188 -424 16 -18 25 -33 18 -33 -6 0 -28 -30 -47 -67
-20 -38 -33 -60 -30 -49 27 90 28 107 8 134 -11 15 -31 33 -45 39 -14 7 -32
21 -39 30 -12 15 -12 16 1 8 13 -8 13 -6 -1 15 -28 46 -47 114 -52 190 -2 41
-12 91 -21 110 -9 21 -13 25 -9 10 27 -106 19 -123 -17 -35 -13 31 -24 54 -26
52 -7 -7 19 -83 37 -109 11 -14 19 -40 19 -56 0 -39 26 -141 50 -195 19 -42
18 -87 -2 -87 -5 0 -6 -5 -2 -12 4 -7 3 -8 -5 -4 -6 4 -9 11 -6 16 3 5 1 11
-5 15 -6 4 -10 -4 -10 -18 0 -14 -7 -28 -17 -32 -15 -5 -16 -4 -5 6 6 7 11 22
11 34 -1 16 -2 17 -6 3 -4 -18 -38 -25 -46 -10 -7 11 27 49 49 55 18 5 18 5
-3 12 -24 8 -83 110 -83 144 0 12 -4 21 -10 21 -17 0 -11 -25 20 -93 26 -55
29 -68 19 -90 -13 -30 -49 -34 -41 -5 2 10 -3 44 -13 74 -12 40 -16 72 -11
113 6 56 6 56 -9 23 -22 -51 -55 -93 -67 -86 -7 4 -8 2 -4 -4 3 -6 -3 -26 -15
-44 -20 -31 -21 -29 -3 17 4 11 4 17 -1 13 -4 -4 -20 -42 -36 -85 -20 -55 -28
-70 -28 -50 -1 16 4 37 10 48 7 14 7 24 0 32 -13 16 56 100 75 93 7 -3 16 0
20 6 5 7 2 8 -7 4 -8 -4 -2 2 14 14 24 20 27 28 27 83 0 34 -7 94 -16 132 -22
95 -28 131 -21 124 4 -3 8 -14 10 -25 8 -37 29 -84 38 -84 5 0 2 17 -6 37 -9
21 -18 63 -22 95 -3 32 -9 55 -14 53 -4 -3 -11 -1 -14 5 -4 6 -1 9 7 8 8 -2
12 4 9 17 -9 50 -12 127 -6 143 5 14 7 14 15 2 6 -8 10 -28 11 -45 l1 -30 10
28 c8 22 6 41 -6 80 -9 29 -18 68 -21 87 -5 32 -1 29 11 -10 4 -12 7 -12 13
-1 5 8 11 -12 15 -52 4 -36 13 -89 20 -119 7 -31 10 -83 6 -126 -3 -41 -2 -76
2 -78 5 -3 9 -35 9 -72 2 -55 3 -46 11 48 10 130 8 149 -21 279 -12 52 -21
117 -20 145 1 62 1 61 38 -94z m-101 64 c7 -23 12 -48 12 -55 -1 -24 -28 35
-35 76 -9 51 7 36 23 -21z m3147 16 c10 -11 16 -20 13 -20 -3 0 -13 9 -23 20
-10 11 -16 20 -13 20 3 0 13 -9 23 -20z m-1571 -1 c50 -23 67 -126 30 -176
-26 -34 -120 -92 -110 -68 3 9 6 24 6 32 0 10 6 14 20 10 15 -4 22 1 26 20 4
14 15 41 24 61 15 31 16 38 4 47 -7 5 -15 21 -16 35 -2 14 -10 30 -18 37 -19
16 1 17 34 2z m721 -28 l20 -13 -20 7 c-11 4 -25 8 -32 8 -6 0 -14 9 -17 20
-4 17 -3 17 12 4 9 -8 26 -20 37 -26z m-2342 -26 c-8 -22 -53 -19 -53 3 0 14
2 15 10 2 8 -13 10 -13 10 2 0 9 -6 19 -12 21 -8 3 -5 6 5 6 11 1 16 6 12 14
-4 6 3 2 14 -11 11 -13 17 -30 14 -37z m1364 33 c-3 -8 -6 -5 -6 6 -1 11 2 17
5 13 3 -3 4 -12 1 -19z m112 -62 c-2 -90 -15 -143 -44 -179 -17 -20 -36 -37
-44 -37 -11 0 -9 6 6 23 11 12 21 31 21 42 2 44 -10 115 -19 109 -13 -8 -11 7
6 57 9 24 21 47 28 51 18 12 47 -29 46 -66z m-420 25 c-6 -18 -13 -30 -15 -28
-2 2 1 18 7 36 6 18 13 30 15 28 2 -2 -1 -18 -7 -36z m291 25 c0 -17 -14 -29
-23 -20 -8 8 3 34 14 34 5 0 9 -6 9 -14z m224 -63 c-5 -14 -15 -28 -22 -31 -9
-3 -10 3 -2 23 14 36 13 37 -10 30 -24 -8 -25 -2 -4 20 15 15 18 15 32 1 12
-12 14 -22 6 -43z m913 25 c28 -26 29 -52 3 -78 -22 -22 -79 -27 -98 -8 -17
17 -15 68 5 90 22 24 62 23 90 -4z m-1477 2 c0 -5 -2 -10 -4 -10 -3 0 -8 5
-11 10 -3 6 -1 10 4 10 6 0 11 -4 11 -10z m1240 -20 c0 -5 -4 -10 -10 -10 -5
0 -10 5 -10 10 0 6 5 10 10 10 6 0 10 -4 10 -10z m1050 -95 c11 -23 20 -59 19
-81 l-1 -39 -14 44 c-14 45 -33 75 -42 66 -3 -2 -11 3 -19 13 -13 16 -14 15
-9 -8 3 -14 6 -33 6 -42 0 -9 12 -31 28 -49 l27 -34 -31 23 c-24 16 -35 35
-43 69 -14 58 -20 130 -13 138 10 9 72 -58 92 -100z m-1771 86 c9 -6 10 -11 2
-15 -13 -8 -31 1 -31 15 0 11 11 11 29 0z m471 -11 c-6 -11 -13 -20 -16 -20
-2 0 0 9 6 20 6 11 13 20 16 20 2 0 0 -9 -6 -20z m-1994 -29 c-2 -21 2 -49 9
-61 7 -14 9 -37 5 -60 -6 -35 5 -121 29 -220 13 -54 14 -150 2 -150 -17 0 -28
26 -34 80 -3 30 -8 64 -12 75 -6 17 -5 17 5 5 9 -13 11 -12 6 5 -12 53 -18 65
-28 59 -7 -4 -8 -2 -4 5 4 6 3 17 -3 24 -6 8 -8 37 -4 72 4 42 8 54 14 40 13
-33 11 36 -3 95 -10 43 -9 53 3 61 8 5 15 9 16 9 1 0 0 -17 -1 -39z m1229 29
c3 -6 -1 -7 -9 -4 -18 7 -21 14 -7 14 6 0 13 -4 16 -10z m573 -13 c57 -61 70
-181 27 -261 -34 -64 -33 -105 5 -141 33 -32 48 -84 31 -112 -8 -12 -11 -13
-9 -3 5 35 -15 81 -40 94 -15 8 -36 24 -47 37 -11 12 -15 19 -8 16 14 -9 27 9
13 18 -6 4 -8 11 -5 16 4 5 1 9 -4 9 -18 0 -12 53 10 90 22 35 26 84 14 142
-5 20 -3 33 5 38 9 6 5 13 -15 26 -27 18 -28 18 -46 -4 -10 -13 -15 -30 -12
-39 5 -12 3 -14 -7 -8 -9 5 -11 4 -6 -4 4 -6 11 -9 16 -6 17 11 40 -39 39 -85
l-2 -45 -6 45 c-4 25 -12 54 -19 65 -12 18 -12 18 -5 -5 10 -30 10 -87 1 -158
-9 -71 3 -107 52 -150 22 -20 45 -52 50 -70 5 -20 5 -30 -1 -27 -5 4 -9 12 -9
20 0 7 -22 35 -49 62 -59 60 -69 96 -53 203 9 67 8 80 -9 119 -26 60 -25 106
3 125 31 22 61 20 86 -7z m1022 -2 c0 -2 -13 -3 -30 -3 -30 1 -40 13 -17 21
11 4 47 -9 47 -18z m-608 -2 c24 -21 23 -54 -3 -87 -16 -20 -29 -26 -59 -26
-40 0 -50 11 -50 56 0 31 42 74 71 74 12 0 31 -7 41 -17z m-1035 -35 c10 -1
28 2 41 6 13 4 22 3 22 -3 0 -15 -70 -26 -89 -14 -9 6 -17 19 -19 29 -3 18 -2
18 12 1 8 -10 22 -19 33 -19z m1359 -5 c-11 -11 -17 4 -9 23 7 18 8 18 11 1 2
-10 1 -21 -2 -24z m-1032 11 c30 -30 14 -106 -30 -145 -31 -27 -87 -41 -118
-29 -22 8 -25 12 -14 24 9 9 17 11 25 4 31 -25 103 51 103 108 0 28 3 32 18
27 15 -6 15 -5 3 10 -17 21 -8 22 13 1z m1161 6 c3 -5 1 -10 -4 -10 -6 0 -11
5 -11 10 0 6 2 10 4 10 3 0 8 -4 11 -10z m-897 -29 c-5 -24 -38 -27 -38 -3 0
10 3 21 6 25 11 11 35 -5 32 -22z m222 5 c0 -17 -39 -66 -40 -50 0 6 3 14 8
18 7 8 8 13 11 42 1 18 21 9 21 -10z m-952 -19 c12 -11 22 -26 22 -33 0 -7 4
-14 9 -16 5 -1 11 -31 14 -66 4 -38 2 -60 -3 -57 -6 3 -8 0 -6 -7 15 -49 16
-68 1 -68 -15 0 -19 27 -18 108 1 17 -3 32 -8 32 -5 0 -9 -17 -10 -37 0 -31
-2 -34 -9 -18 -13 30 -12 42 6 59 13 14 14 21 3 53 -7 21 -22 49 -34 62 -23
27 -3 20 33 -12z m2101 -6 c17 -16 31 -35 31 -43 0 -40 -65 -85 -175 -123 -67
-22 -268 -75 -272 -71 -4 4 84 35 192 69 107 33 152 52 193 83 31 24 32 27 17
44 -14 16 -35 17 -203 15 -161 -2 -195 -5 -245 -23 -31 -12 -102 -30 -157 -42
-55 -12 -138 -36 -184 -55 -169 -68 -235 -78 -340 -51 -55 15 -89 12 -116 -8
-13 -10 -13 -9 0 8 29 37 75 48 141 35 98 -19 170 -8 282 46 64 31 122 51 165
57 37 5 110 24 162 41 87 29 110 32 260 38 91 3 177 6 191 7 18 1 38 -8 58
-27z m-3177 -35 c-5 -18 -7 -17 -13 9 -4 17 -7 22 -8 11 0 -11 -4 -17 -7 -13
-3 3 -3 15 1 27 6 20 8 20 20 4 7 -10 10 -27 7 -38z m1044 32 l19 -21 -27 18
c-29 18 -34 25 -20 25 5 0 17 -10 28 -22z m-1506 3 c0 -12 -35 -20 -50 -11 -9
6 -8 9 6 13 32 8 44 7 44 -2z m40 -1 c0 -5 6 -7 13 -5 15 5 69 -64 65 -84 -7
-33 -34 -20 -61 29 -16 27 -30 50 -31 50 -2 0 -2 -13 0 -30 2 -16 1 -30 -1
-30 -10 0 -24 50 -19 65 7 16 34 21 34 5z m-113 -21 c2 -16 -1 -19 -9 -11 -5
5 -7 15 -4 21 10 15 12 14 13 -10z m1574 -15 c9 -11 2 -9 -18 6 -18 13 -33 25
-33 27 0 8 38 -17 51 -33z m-1345 -21 c-3 -6 2 -26 10 -43 9 -16 14 -36 12
-42 -3 -7 -14 9 -26 34 -13 25 -31 53 -42 63 -30 27 -24 34 15 17 20 -9 33
-22 31 -29z m1442 11 c-3 -14 -5 -12 -10 9 -3 19 -2 25 4 19 6 -6 8 -18 6 -28z
m-1633 16 c3 -5 2 -10 -4 -10 -5 0 -13 5 -16 10 -3 6 -2 10 4 10 5 0 13 -4 16
-10z m35 -11 c0 -5 -4 -9 -10 -9 -5 0 -10 7 -10 16 0 8 5 12 10 9 6 -3 10 -10
10 -16z m1417 -9 c-8 -21 -14 -27 -22 -19 -7 8 -6 13 3 16 6 3 12 11 12 19 0
8 4 14 9 14 5 0 4 -13 -2 -30z m200 -2 c-3 -7 -5 -2 -5 12 0 14 2 19 5 13 2
-7 2 -19 0 -25z m559 9 c24 -21 27 -30 24 -73 -8 -142 -4 -177 28 -244 18 -36
32 -77 32 -92 0 -35 -14 -37 -16 -3 -2 34 -24 86 -34 80 -5 -3 -6 3 -4 13 3 9
-2 33 -10 52 l-15 35 -1 -75 c0 -89 -13 -113 -74 -141 -49 -22 -89 -24 -109
-4 -8 8 -18 11 -22 7 -5 -4 -5 -1 -1 6 5 8 13 9 26 2 36 -20 33 -10 -9 27 -37
31 -42 40 -39 69 2 19 0 35 -5 37 -5 1 -7 20 -5 42 3 40 3 39 29 -37 15 -43
23 -78 19 -78 -5 0 -11 6 -13 13 -4 8 -6 8 -6 0 -1 -15 56 -63 75 -63 8 0 14
8 14 18 1 16 1 16 14 -1 13 -16 14 -16 19 4 3 12 11 19 19 17 14 -6 16 50 3
91 -3 11 -2 21 3 21 6 0 15 -17 20 -37 10 -36 10 -35 6 17 -4 53 -7 69 -20
135 -5 29 -5 29 11 10 10 -11 24 -33 32 -50 11 -24 13 -25 7 -5 -4 14 -7 38
-7 53 0 21 -4 27 -15 22 -13 -5 -13 -2 1 18 l15 23 -48 -24 c-85 -42 -172 -39
-155 6 4 12 3 13 -10 2 -9 -7 -18 -11 -20 -8 -3 3 1 11 9 17 11 9 20 10 35 2
24 -13 111 -15 111 -2 0 5 -8 7 -17 5 -27 -6 -76 10 -81 27 -4 11 -2 12 9 2
16 -16 53 -17 44 -2 -5 7 4 8 27 4 25 -5 38 -2 48 10 12 15 11 16 -13 10 -18
-5 -27 -3 -27 5 0 6 5 8 10 5 13 -8 42 14 34 26 -6 11 4 29 16 29 5 0 21 -11
36 -23z m1589 -9 l16 -33 -21 24 c-11 13 -20 27 -20 32 0 18 10 8 25 -23z
m-3855 7 c7 -8 8 -15 2 -15 -5 0 -15 7 -22 15 -7 8 -8 15 -2 15 5 0 15 -7 22
-15z m3926 -56 c-14 -35 -25 -60 -25 -55 -1 14 41 127 46 123 2 -3 -7 -33 -21
-68z m-3971 51 c-3 -5 -11 -10 -16 -10 -6 0 -7 5 -4 10 3 6 11 10 16 10 6 0 7
-4 4 -10z m102 -32 c-3 -7 -5 -2 -5 12 0 14 2 19 5 13 2 -7 2 -19 0 -25z m30
0 c-3 -8 -6 -5 -6 6 -1 11 2 17 5 13 3 -3 4 -12 1 -19z m207 6 c9 -8 16 -19
16 -24 0 -13 -29 -20 -36 -8 -4 7 -3 8 4 4 7 -4 12 -2 12 4 0 6 -7 13 -15 16
-16 7 -21 24 -6 24 5 0 17 -7 25 -16z m-361 -9 c-3 -9 -8 -14 -10 -11 -3 3 -2
9 2 15 9 16 15 13 8 -4z m1764 -7 c-3 -8 -6 -5 -6 6 -1 11 2 17 5 13 3 -3 4
-12 1 -19z m-1573 -3 c3 -8 1 -15 -3 -15 -5 0 -11 7 -15 15 -3 8 -1 15 3 15 5
0 11 -7 15 -15z m26 5 c0 -5 -2 -10 -4 -10 -3 0 -8 5 -11 10 -3 6 -1 10 4 10
6 0 11 -4 11 -10z m1387 -12 c-3 -8 -6 -5 -6 6 -1 11 2 17 5 13 3 -3 4 -12 1
-19z m-86 -17 c49 -31 139 -116 139 -130 0 -5 -97 -8 -221 -7 -159 1 -207 3
-168 9 30 5 123 6 208 3 137 -5 152 -4 140 10 -10 12 -14 12 -20 2 -7 -10 -9
-9 -9 5 0 9 -4 17 -10 17 -5 0 -10 -4 -10 -10 0 -18 -30 -11 -31 8 -1 15 -2
15 -6 0 -5 -21 -80 -19 -94 3 -7 11 -9 10 -9 -6 0 -16 -2 -17 -9 -6 -5 8 -7
21 -3 29 3 10 0 13 -9 10 -8 -3 -20 4 -27 16 -12 20 -12 20 -10 1 2 -11 11
-26 21 -33 9 -7 15 -18 12 -23 -7 -11 -26 6 -43 38 -14 26 -2 66 25 82 33 19
87 12 134 -18z m344 -1 c-10 -11 -23 -20 -28 -20 -6 0 0 11 13 25 27 29 42 25
15 -5z m-1700 10 c3 -6 -1 -7 -9 -4 -18 7 -21 14 -7 14 6 0 13 -4 16 -10z
m135 0 c0 -5 -4 -10 -10 -10 -5 0 -10 -5 -10 -11 0 -6 7 -9 15 -5 8 3 15 1 15
-4 0 -14 -23 -13 -37 1 -9 9 -8 15 0 25 14 16 27 18 27 4z m100 -17 c0 -20 -3
-24 -11 -16 -7 7 -9 19 -6 27 10 24 17 19 17 -11z m3455 11 c27 -18 59 -66 69
-104 4 -14 -5 -4 -20 22 -30 52 -45 59 -19 9 21 -42 11 -39 -20 6 -26 39 -33
38 -14 0 10 -21 9 -21 -10 2 -19 20 -30 81 -16 81 3 0 17 -7 30 -16z m-3868
-16 c-3 -8 -6 -5 -6 6 -1 11 2 17 5 13 3 -3 4 -12 1 -19z m459 -5 c-6 -6 -36
9 -36 18 0 5 9 4 20 -3 10 -7 18 -14 16 -15z m1377 12 c-3 -9 -8 -14 -10 -11
-3 3 -2 9 2 15 9 16 15 13 8 -4z m-1595 -30 c-3 -3 -9 2 -12 12 -6 14 -5 15 5
6 7 -7 10 -15 7 -18z m32 4 c0 -6 -4 -7 -10 -4 -5 3 -10 11 -10 16 0 6 5 7 10
4 6 -3 10 -11 10 -16z m1079 -6 c-1 -10 2 -28 6 -40 5 -15 3 -23 -4 -23 -7 0
-9 5 -6 10 4 6 1 17 -5 25 -7 8 -10 22 -6 30 7 20 15 19 15 -2z m621 12 c0 -2
-12 -11 -27 -19 -18 -10 -22 -15 -12 -16 9 0 29 10 45 22 l29 22 -24 -27 c-26
-28 -46 -33 -71 -17 -12 7 -7 12 20 24 40 18 40 17 40 11z m-1810 -15 c0 -5
-5 -10 -11 -10 -5 0 -7 5 -4 10 3 6 8 10 11 10 2 0 4 -4 4 -10z m375 -14 c28
-12 35 -20 35 -43 0 -16 -7 -39 -16 -51 -29 -43 -145 -89 -239 -97 l-60 -5 60
14 c91 20 139 40 184 75 69 55 49 82 -67 89 -138 7 -492 -63 -551 -109 -13
-10 -26 -17 -30 -15 -3 2 -7 -9 -8 -24 -3 -38 34 -51 154 -56 77 -3 91 -1 87
11 -3 7 -1 22 5 32 9 16 10 15 11 -9 0 -24 4 -28 28 -29 l27 0 -25 -10 c-40
-17 -239 -6 -277 14 -62 33 -36 88 63 132 53 24 232 64 394 89 67 10 193 5
225 -8z m1505 -49 c0 -16 5 -37 10 -48 6 -10 8 -19 6 -19 -11 0 -28 44 -31 83
-3 29 -1 37 5 27 5 -8 10 -28 10 -43z m-256 27 c3 -8 2 -12 -4 -9 -6 3 -10 10
-10 16 0 14 7 11 14 -7z m2114 -44 c32 -16 21 -24 -12 -9 -14 7 -33 24 -42 38
l-17 26 24 -21 c13 -12 35 -27 47 -34z m-2738 -15 c-5 -27 -10 -88 -11 -135
-2 -82 -3 -83 -9 -30 -5 44 -7 31 -8 -62 -1 -74 -6 -118 -12 -118 -13 0 -4
204 11 260 5 19 9 47 9 62 0 24 20 82 26 76 1 -2 -2 -25 -6 -53z m869 -22 c6
-13 20 -23 31 -23 26 0 33 -15 19 -39 -12 -19 -13 -19 -29 2 -30 39 -50 85
-49 114 l1 28 7 -30 c4 -16 13 -40 20 -52z m249 52 c-3 -3 -9 2 -12 12 -6 14
-5 15 5 6 7 -7 10 -15 7 -18z m1056 -127 c46 -246 55 -281 80 -308 13 -14 29
-42 36 -62 12 -38 51 -78 76 -78 8 0 14 -6 14 -14 0 -7 7 -19 15 -26 8 -7 15
-24 15 -39 0 -20 -2 -23 -10 -11 -7 11 -10 3 -11 -30 l-1 -45 -11 30 c-7 17
-18 31 -26 33 -8 2 -11 -3 -8 -13 14 -34 -11 -10 -56 56 -40 58 -47 76 -43
102 l6 32 -11 -28 c-6 -16 -8 -40 -3 -55 4 -15 6 -31 5 -35 -1 -5 3 -6 8 -3
12 8 20 -5 31 -47 9 -29 8 -30 -5 -13 -17 23 -20 14 -4 -15 5 -11 14 -17 19
-14 5 3 14 -4 20 -16 7 -12 8 -19 2 -15 -6 3 -12 1 -14 -6 -2 -6 -21 10 -41
36 -38 50 -80 160 -76 198 4 38 -12 95 -26 95 -8 0 -16 -16 -20 -38 -4 -20
-12 -45 -19 -55 -13 -17 -14 -16 -21 5 -3 12 -2 52 5 89 9 56 8 74 -5 112 -17
49 -32 209 -16 175 5 -11 10 -36 10 -56 1 -25 6 -36 16 -36 10 0 14 6 10 16
-4 9 -11 36 -15 61 -5 25 -13 64 -18 87 -5 23 -5 40 -1 37 5 -3 9 3 10 13 0
10 6 0 14 -22 l13 -40 1 35 c1 28 4 32 12 20 8 -12 10 -9 6 12 -2 15 -1 25 3
23 4 -3 20 -69 34 -147z m434 113 c73 -50 109 -88 117 -126 7 -29 6 -29 -20
10 -38 55 -50 66 -31 28 24 -48 -2 -44 -48 7 -20 22 -36 37 -36 34 0 -15 46
-68 74 -85 17 -10 25 -19 18 -19 -22 0 -59 29 -86 68 -25 36 -60 122 -50 122
3 0 31 -18 62 -39z m196 5 c-3 -15 -8 -25 -11 -23 -2 3 -1 17 3 31 3 15 8 25
11 23 2 -3 1 -17 -3 -31z m-3444 9 c7 -9 10 -18 7 -22 -8 -7 -37 15 -37 28 0
14 16 11 30 -6z m1653 -37 c3 -24 8 -56 12 -73 10 -39 -5 -25 -23 23 -23 62
-26 92 -9 92 10 0 17 -13 20 -42z m380 -18 c-7 -8 -33 32 -33 49 0 9 8 3 19
-14 10 -16 16 -32 14 -35z m-2060 5 c-30 -19 -81 -37 -95 -33 -7 3 -17 -1 -23
-8 -5 -7 -25 -15 -42 -19 -26 -5 -33 -3 -33 9 0 10 6 13 17 9 13 -5 15 -2 11
15 -7 26 11 34 35 14 19 -17 23 -3 5 18 -11 12 -10 12 5 1 9 -7 17 -10 17 -6
0 5 9 0 20 -10 25 -22 26 -9 3 19 -18 21 -18 21 3 3 24 -20 40 -11 21 12 -10
13 -7 13 15 -2 36 -23 41 -22 27 6 -12 22 -12 22 10 3 20 -18 20 -20 4 -31z
m2726 -22 c1 -13 -3 -23 -8 -23 -11 0 -22 70 -14 84 8 12 20 -24 22 -61z
m-1410 -18 c0 -11 -7 0 -15 25 -17 56 -17 64 1 25 8 -16 14 -39 14 -50z m431
14 c0 -15 -4 -30 -8 -33 -5 -3 -7 8 -4 23 2 16 -1 39 -8 52 -11 23 -10 23 4 5
9 -11 16 -32 16 -47z m40 41 c6 -11 8 -20 6 -20 -3 0 -10 9 -16 20 -6 11 -8
20 -6 20 3 0 10 -9 16 -20z m-516 -43 c6 -25 5 -27 -13 -15 -13 8 -16 15 -9
19 6 4 8 15 4 25 -5 12 -4 15 2 9 5 -5 12 -22 16 -38z m-1524 -44 c22 -67 78
-204 128 -313 l25 -55 7 35 c8 38 99 234 106 227 2 -2 -3 -20 -11 -40 -8 -20
-15 -61 -15 -92 0 -33 -4 -55 -11 -55 -7 0 -10 15 -7 39 4 44 -6 46 -17 4 -3
-16 -12 -41 -20 -58 -21 -48 -25 -77 -13 -99 11 -22 86 -111 175 -209 29 -32
53 -64 53 -70 0 -7 -18 8 -41 33 -22 25 -37 38 -33 30 12 -24 48 -74 59 -82 5
-4 7 -10 3 -13 -4 -4 -14 5 -23 19 -23 35 -35 33 -36 -6 0 -18 -3 -26 -6 -18
-3 8 -12 23 -21 33 -8 9 -12 17 -9 17 11 0 -95 135 -112 143 -17 8 -42 52 -80
139 -23 52 -25 62 -11 53 5 -3 5 7 -1 25 -6 16 -14 28 -18 26 -15 -10 -43 57
-48 112 -3 34 -12 65 -22 77 -22 25 -51 102 -51 135 0 20 2 22 10 10 8 -13 10
-12 10 3 0 31 8 18 30 -50z m1235 -40 c-7 -107 -7 -108 24 -166 17 -31 34 -78
38 -102 6 -45 19 -58 29 -31 3 8 12 17 19 20 8 3 2 -12 -13 -33 l-27 -38 -16
51 -17 51 -1 -38 c-1 -55 -17 -80 -41 -67 -10 5 -25 8 -32 5 -16 -6 -38 33
-38 68 0 16 -3 19 -9 8 -5 -8 -8 17 -7 67 0 44 3 78 5 76 9 -9 41 47 41 73
l-1 28 -15 -30 c-8 -16 -12 -22 -9 -12 3 10 5 25 5 33 0 8 7 14 15 14 8 0 15
8 15 18 0 15 -2 15 -11 2 -8 -11 -9 -8 -4 15 4 17 12 37 19 45 7 8 16 23 19
33 14 40 18 11 12 -90z m2208 21 c86 -42 151 -102 140 -130 -4 -12 -3 -15 5
-10 7 4 12 1 12 -10 0 -16 -2 -16 -21 2 -11 10 -32 19 -47 21 -26 3 -26 3 -8
-12 11 -8 25 -15 32 -15 7 0 16 -5 19 -11 11 -17 -66 19 -122 57 -49 34 -76
66 -122 147 -28 50 -27 56 7 25 15 -14 62 -42 105 -64z m-2426 42 c-44 -67
-47 -70 -31 -36 15 32 42 70 50 70 2 0 -7 -15 -19 -34z m1033 28 c0 -8 -19
-13 -24 -6 -3 5 1 9 9 9 8 0 15 -2 15 -3z m1636 -61 c-20 -58 -20 -74 -1 -46
8 12 41 31 73 43 52 20 68 21 191 15 153 -9 154 -11 23 -66 -48 -19 -99 -33
-137 -35 l-60 -4 44 12 c25 7 46 20 49 28 2 10 1 11 -5 4 -4 -6 -25 -14 -46
-17 -31 -5 -38 -3 -33 8 3 9 -1 12 -12 9 -9 -2 6 7 33 20 28 14 45 25 39 25
-15 1 -89 -25 -134 -46 -19 -10 -38 -16 -42 -15 -4 1 -10 -10 -14 -26 -17 -78
-27 -108 -41 -127 -9 -11 -13 -13 -11 -5 62 194 94 287 96 279 2 -5 -3 -30
-12 -56z m-796 -81 c7 -48 16 -112 20 -144 4 -31 11 -61 14 -67 4 -6 2 -11 -3
-11 -16 0 -13 -26 4 -40 9 -7 14 -27 13 -49 l-1 -36 -4 35 c-3 19 -11 42 -18
50 -21 24 -33 86 -39 210 -4 63 -9 133 -11 155 -10 79 13 -12 25 -103z m-3099
78 c-4 -20 -10 -30 -14 -23 -7 11 10 70 18 62 2 -2 0 -20 -4 -39z m31 -6 c-2
-14 -8 -22 -13 -17 -4 4 -5 21 -2 36 3 17 9 24 13 17 4 -6 5 -23 2 -36z m-61
0 c-5 -16 -10 -21 -10 -12 -1 18 10 51 15 45 2 -1 -1 -16 -5 -33z m139 0 c0
-8 -7 -14 -15 -14 -10 0 -15 10 -15 26 0 22 2 25 15 14 8 -7 15 -19 15 -26z
m974 9 c-4 -16 -10 -50 -14 -78 -7 -49 -7 -49 -9 -10 -1 41 15 115 26 115 3 0
2 -12 -3 -27z m-1560 2 c-25 -19 -40 -19 -24 0 7 8 20 15 28 15 13 0 12 -3 -4
-15z m2475 -18 c-18 -34 -21 -34 -15 -2 2 17 5 31 5 33 1 2 6 0 11 -3 7 -4 6
-14 -1 -28z m-2280 -11 c9 -10 11 -25 6 -43 -7 -24 -9 -25 -12 -8 -7 34 -26
65 -40 65 -8 0 -11 5 -8 10 7 12 35 -1 54 -24z m2468 12 c-3 -8 -6 -5 -6 6 -1
11 2 17 5 13 3 -3 4 -12 1 -19z m575 7 c18 -24 -8 -31 -39 -12 -7 5 -19 5 -25
1 -9 -5 -8 -2 1 9 15 18 51 19 63 2z m687 -32 c-5 -21 -9 -60 -9 -88 0 -36 -3
-46 -10 -35 -8 12 -10 12 -10 1 0 -8 -3 -12 -6 -8 -3 3 -1 22 6 41 6 20 10 44
8 53 -2 10 -12 -8 -22 -41 -19 -64 -32 -74 -15 -10 10 34 56 124 64 124 2 0
-1 -17 -6 -37z m-2797 -38 c12 12 29 -34 19 -53 -13 -25 -48 -55 -53 -45 -2 4
-2 44 0 88 4 78 5 79 16 42 6 -22 14 -36 18 -32z m676 12 c-27 -33 -46 -50
-50 -43 -5 7 -8 7 -9 1 -1 -5 -2 -14 -3 -20 -5 -23 -98 -206 -103 -201 -3 3
13 44 36 92 25 52 35 81 25 73 -16 -13 -16 -12 -5 9 7 12 16 20 21 17 6 -3 7
0 5 7 -6 14 35 57 90 96 17 12 31 22 33 22 2 0 -16 -24 -40 -53z m1467 44 c3
-5 2 -12 -3 -15 -5 -3 -9 1 -9 9 0 17 3 19 12 6z m-575 -16 c0 -12 -9 -15 -34
-13 -19 1 -32 6 -30 10 3 5 14 6 24 3 10 -3 21 -1 25 5 9 14 15 12 15 -5z
m625 -5 c-19 -21 -18 -21 15 -50 18 -16 37 -28 41 -27 10 3 7 -16 -5 -29 -7
-8 -18 -4 -36 13 -22 21 -25 21 -31 6 -5 -16 -7 -15 -17 3 -6 12 -8 24 -5 28
3 3 1 6 -5 6 -16 0 19 58 38 64 8 2 17 4 19 5 2 0 -4 -8 -14 -19z m330 -10 c3
-5 -1 -10 -9 -10 -9 0 -16 -4 -16 -10 0 -5 6 -10 14 -10 24 0 30 -22 11 -36
-26 -19 -58 0 -49 29 12 41 36 59 49 37z m-1565 -15 c-7 -8 -17 -15 -23 -15
-6 0 -2 7 9 15 25 19 30 19 14 0z m1040 11 c0 -3 -4 -8 -10 -11 -5 -3 -10 -1
-10 4 0 6 5 11 10 11 6 0 10 -2 10 -4z m-208 -58 c-6 -6 -8 -1 -7 14 3 32 7
36 12 14 3 -10 1 -22 -5 -28z m1531 35 c-7 -2 -19 -2 -25 0 -7 3 -2 5 12 5 14
0 19 -2 13 -5z m-4185 -18 c-2 -3 -20 -7 -39 -10 l-34 -5 35 14 c32 12 50 13
38 1z m2014 -19 c13 -30 3 -69 -12 -46 -7 11 -10 11 -10 2 0 -10 -3 -10 -13
-1 -17 16 -9 69 9 69 8 0 19 -11 26 -24z m-66 -1 c-3 -20 -16 -31 -16 -13 0
13 8 28 16 28 1 0 1 -7 0 -15z m740 -28 c8 3 14 0 14 -7 0 -15 -33 -9 -36 8
-1 7 0 8 2 3 3 -6 12 -7 20 -4z m1544 4 c31 -5 71 -16 90 -24 l35 -14 -91 -21
c-91 -22 -161 -29 -94 -10 50 14 65 32 20 24 l-35 -7 25 16 c15 10 18 14 7 11
-75 -23 -90 -17 -21 8 33 12 35 15 14 15 -14 1 -43 -8 -65 -19 -47 -24 -51
-25 -34 -4 27 33 62 39 149 25z m-411 -22 c58 -13 110 -41 141 -74 23 -26 24
-27 3 -14 -13 8 -23 18 -23 23 0 4 -8 2 -17 -5 -11 -10 -14 -10 -9 -1 8 14 5
15 -18 6 -9 -3 -13 -10 -10 -15 12 -20 -17 -6 -97 46 -90 59 -88 61 30 34z
m-679 -14 c-11 -14 -7 -19 13 -16 4 0 7 -5 7 -13 0 -8 6 -17 13 -20 6 -3 -2
-5 -18 -4 -17 1 -35 -1 -42 -5 -17 -11 -44 3 -41 22 2 9 12 17 23 20 11 2 26
12 33 23 8 11 16 17 19 14 3 -3 0 -12 -7 -21z m284 -95 l-7 -25 -7 25 c-5 14
-8 45 -8 70 l0 45 14 -45 c8 -25 12 -56 8 -70z m-3104 85 c0 -8 -7 -15 -15
-15 -13 0 -14 3 -3 15 16 18 18 18 18 0z m629 -99 c7 -16 9 -31 6 -35 -10 -9
-29 31 -36 74 -8 54 3 82 12 30 4 -22 12 -53 18 -69z m449 74 c-12 -16 -23
-30 -24 -30 -1 0 3 14 9 30 6 17 17 30 24 30 9 0 6 -10 -9 -30z m1969 -20 c3
-8 7 -22 9 -30 1 -8 5 -26 9 -40 3 -14 -3 -5 -14 20 -11 25 -20 59 -19 75 0
19 2 23 5 10 2 -11 7 -27 10 -35z m-2824 20 c3 -11 1 -18 -4 -14 -5 3 -9 12
-9 20 0 20 7 17 13 -6z m3544 4 c-3 -3 -12 -4 -19 -1 -8 3 -5 6 6 6 11 1 17
-2 13 -5z m-2086 -36 c6 -24 4 -27 -14 -25 -12 1 -25 9 -29 17 -5 13 -7 12 -7
-2 -1 -27 -41 -19 -41 8 0 17 7 24 28 27 45 7 55 3 63 -25z m1007 20 c7 -7 12
-21 11 -32 0 -19 -1 -19 -10 2 -5 13 -13 21 -18 17 -10 -6 20 -65 43 -84 10
-8 17 -7 26 4 10 12 9 16 -4 21 -9 3 -16 11 -16 17 0 6 10 1 23 -11 l22 -23
-23 -19 c-31 -26 -65 -13 -73 27 -7 35 -17 53 -29 53 -5 0 -2 -12 6 -27 16
-33 18 -47 4 -38 -5 3 -10 14 -10 24 0 10 -7 24 -15 31 -8 7 -13 16 -10 20 11
18 -42 -4 -67 -28 -19 -18 -34 -23 -53 -20 -22 5 -26 2 -22 -13 3 -11 1 -17
-4 -13 -16 9 -10 50 11 72 24 26 33 27 53 7 13 -13 20 -12 53 5 45 22 85 25
102 8z m724 -23 c-65 -30 -88 -32 -47 -5 l30 21 -55 -6 c-40 -5 -51 -4 -40 4
8 6 49 11 90 11 l75 0 -53 -25z m-510 -22 c22 -20 23 -62 3 -89 -14 -18 -14
-17 -11 17 5 42 -6 64 -28 56 -22 -9 -20 -33 4 -50 19 -13 19 -15 3 -28 -15
-12 -16 -12 -10 3 3 10 2 20 -4 24 -6 3 -15 17 -20 31 -17 46 25 70 63 36z
m667 -9 c28 -12 33 -17 21 -24 -25 -13 -197 -23 -204 -12 -10 17 14 25 31 10
14 -11 15 -10 9 8 -5 17 -1 23 26 32 36 11 64 8 117 -14z m-1239 6 c0 -14 -48
-32 -74 -28 -34 5 -30 26 6 31 61 7 68 7 68 -3z m-780 -3 c0 -2 -19 -21 -42
-42 -23 -22 -36 -31 -28 -20 18 27 70 72 70 62z m2315 -7 c22 -8 25 -13 16
-24 -17 -20 -51 -28 -44 -10 3 8 0 14 -7 14 -6 0 -8 4 -5 10 3 6 -1 7 -10 4
-12 -5 -13 -9 -4 -21 11 -12 9 -12 -13 -3 -19 9 -31 9 -48 0 -12 -6 -24 -9
-27 -6 -6 6 41 26 62 26 8 0 17 5 20 10 8 13 27 13 60 0z m-1805 -3 c0 -2 -10
-12 -21 -23 -22 -19 -22 -19 -10 4 10 18 31 31 31 19z m-1641 -40 c0 -21 -1
-21 -9 -2 -12 28 -12 37 0 30 6 -3 10 -16 9 -28z m474 -16 c24 -41 8 -47 -20
-6 -12 18 -23 36 -23 39 0 14 28 -8 43 -33z m3246 -1 c0 -3 -4 -14 -9 -25 -9
-19 -9 -19 -16 3 -6 20 -16 27 -37 23 -5 -1 -6 3 -2 8 3 6 13 7 22 4 11 -4 14
-3 9 6 -6 9 -3 9 13 -1 12 -7 21 -15 20 -18z m-1544 -1 c5 -13 2 -25 -6 -30
-10 -6 -6 -11 13 -18 31 -12 37 -29 34 -93 -4 -76 -14 -73 -17 5 0 29 -9 33
-40 17 -14 -8 -19 -7 -19 2 0 24 18 41 35 35 10 -4 14 -3 10 4 -4 6 -19 7 -36
4 -15 -4 -36 -2 -45 3 -13 7 -11 11 15 22 17 7 31 17 31 22 0 7 -5 7 -12 1 -7
-5 -26 -10 -43 -11 -24 -2 -27 -1 -15 8 12 9 7 10 -20 6 -19 -3 -29 -3 -21 0
11 5 11 8 0 16 -10 6 -7 7 10 3 16 -5 21 -4 17 4 -4 7 -1 9 7 5 8 -3 18 -1 22
5 3 6 21 11 40 11 26 0 35 -5 40 -21z m587 -49 l-6 -45 -7 45 c-7 50 -1 82 11
59 4 -8 5 -34 2 -59z m1008 55 c0 -2 -7 -5 -15 -9 -9 -3 -15 0 -15 9 0 9 6 12
15 9 8 -4 15 -7 15 -9z m-3346 -23 c10 -19 12 -38 6 -62 -5 -24 -8 -28 -9 -12
-1 12 -5 22 -10 22 -6 0 -9 18 -8 40 1 22 2 40 4 40 1 0 9 -13 17 -28z m2254
-17 c7 -25 12 -60 11 -78 l0 -32 -16 40 c-9 22 -20 42 -24 45 -8 6 1 70 10 70
4 0 12 -20 19 -45z m470 14 c23 -17 42 -39 42 -48 0 -17 -47 -47 -58 -36 -3 3
-1 5 4 5 6 0 18 6 28 13 16 11 14 15 -15 42 -29 27 -31 28 -25 8 4 -13 4 -23
-1 -23 -4 0 -13 16 -19 35 -6 19 -8 35 -4 35 3 0 25 -14 48 -31z m337 21 c3
-5 1 -10 -4 -10 -6 0 -11 5 -11 10 0 6 2 10 4 10 3 0 8 -4 11 -10z m-3815 -21
c0 -6 -4 -7 -10 -4 -5 3 -10 11 -10 16 0 6 5 7 10 4 6 -3 10 -11 10 -16z
m2746 -4 c11 -17 14 -33 9 -52 l-8 -28 -11 27 c-10 23 -14 26 -25 15 -11 -10
-12 -9 -7 1 10 17 -2 51 -12 35 -5 -7 -15 -7 -30 -2 -34 13 -17 29 28 29 31 0
43 -5 56 -25z m524 15 c0 -5 -5 -10 -11 -10 -5 0 -7 5 -4 10 3 6 8 10 11 10 2
0 4 -4 4 -10z m148 -7 c2 -9 -5 -11 -27 -7 -19 4 -37 2 -46 -6 -12 -10 -15 -9
-15 5 0 15 -2 15 -16 4 -14 -11 -13 -14 8 -25 24 -14 12 -19 -16 -8 -19 7 -21
25 -4 42 16 16 110 12 116 -5z m582 -5 c0 -4 -7 -8 -15 -8 -8 0 -15 4 -15 8 0
5 7 9 15 9 8 0 15 -4 15 -9z m-215 -8 c-3 -5 -12 -10 -18 -10 -7 0 -6 4 3 10
19 12 23 12 15 0z m-896 -37 c-12 -21 -35 -52 -51 -69 -20 -21 -27 -36 -22
-50 6 -15 4 -17 -6 -7 -7 6 -20 9 -29 6 -11 -3 -10 1 5 14 12 10 27 29 33 42
13 24 80 101 88 101 3 0 -5 -17 -18 -37z m481 22 c0 -8 -4 -15 -10 -15 -5 0
-10 7 -10 15 0 8 5 15 10 15 6 0 10 -7 10 -15z m363 -2 c-4 -11 -3 -14 5 -9 7
4 12 2 12 -3 0 -6 -4 -11 -9 -11 -14 0 -23 18 -16 30 10 16 15 12 8 -7z
m-1469 -18 c23 -35 19 -45 -5 -15 l-21 25 5 -28 c3 -21 -1 -31 -17 -39 -18
-10 -19 -9 -8 4 17 21 -8 41 -53 42 -28 1 -32 3 -24 18 7 13 22 18 58 18 41 0
51 -4 65 -25z m1166 15 c0 -5 -2 -10 -4 -10 -3 0 -8 5 -11 10 -3 6 -1 10 4 10
6 0 11 -4 11 -10z m576 -1 c3 -6 1 -16 -5 -22 -8 -8 -11 -6 -11 6 0 9 -5 17
-11 17 -5 0 -7 -5 -3 -12 4 -7 3 -8 -5 -4 -6 4 -9 12 -6 17 8 12 32 11 41 -2z
m-2818 -22 c5 -24 -15 -21 -21 4 -3 13 -1 19 6 16 7 -2 13 -11 15 -20z m2462
14 c0 -11 -49 -21 -55 -10 -3 4 7 10 22 12 16 2 29 5 31 6 1 0 2 -3 2 -8z
m-3596 -49 c-4 -20 -11 -44 -16 -52 -6 -10 -8 -4 -4 19 3 18 6 44 6 58 0 14 4
22 10 18 6 -4 8 -22 4 -43z m865 -17 l0 -30 -19 35 c-14 26 -15 38 -7 48 9 12
12 11 18 -5 4 -10 8 -31 8 -48z m994 44 c-8 -8 -13 -7 -18 2 -5 8 -4 10 3 5 7
-4 12 -2 12 5 0 7 3 9 7 6 4 -4 2 -12 -4 -18z m1628 -2 c-10 -9 -11 -8 -5 6 3
10 9 15 12 12 3 -3 0 -11 -7 -18z m-2464 -9 c-3 -8 -6 -5 -6 6 -1 11 2 17 5
13 3 -3 4 -12 1 -19z m2022 -48 c1 -8 -3 -21 -8 -28 -6 -10 -12 0 -20 30 -7
24 -15 50 -18 58 -2 8 7 2 21 -15 14 -16 25 -37 25 -45z m581 65 c0 -7 -57
-35 -72 -35 -7 0 5 9 27 19 48 23 45 22 45 16z m-2234 -42 c-7 -17 -8 -17 -17
0 -12 21 -2 44 13 29 6 -6 8 -19 4 -29z m61 -4 l-4 -24 -8 23 c-6 19 -10 20
-24 10 -10 -8 -9 -5 3 10 23 26 40 16 33 -19z m1913 30 c0 -4 -12 -9 -26 -11
-26 -3 -26 -4 25 -56 37 -38 51 -60 50 -80 0 -24 -1 -25 -9 -7 -5 11 -9 16
-10 10 0 -5 -8 3 -16 18 -9 16 -18 26 -22 23 -3 -4 0 -12 6 -18 7 -7 12 -21
12 -32 0 -18 -1 -18 -19 -2 -17 16 -19 16 -26 -6 -6 -19 -9 -14 -15 27 -4 28
-5 63 -2 78 3 20 -1 32 -14 42 -16 13 -17 14 -1 9 9 -3 17 -2 17 4 0 5 11 10
25 10 14 0 25 -4 25 -9z m-2744 -45 c-10 -13 -21 -22 -27 -18 -6 3 -20 -2 -32
-12 -12 -9 -2 2 23 27 46 45 64 47 36 3z m1207 28 c-4 -16 9 -15 26 1 11 10
13 9 9 -3 -6 -18 -113 -73 -131 -67 -6 3 3 10 20 17 18 7 31 16 28 20 -3 4 5
6 17 3 13 -3 20 -2 16 2 -4 5 -2 15 5 23 10 13 8 14 -18 8 -22 -5 -26 -4 -15
4 19 13 46 8 43 -8z m-1308 -33 c9 -16 12 -29 8 -29 -5 1 -15 16 -24 35 -19
41 -5 36 16 -6z m1005 19 c10 -21 10 -22 -4 -5 -14 18 -15 18 -24 0 -6 -10
-14 -15 -18 -11 -8 8 13 38 27 38 5 0 13 -10 19 -22z m1870 13 c0 -5 -7 -12
-16 -15 -14 -5 -15 -4 -4 9 14 17 20 19 20 6z m-3586 -72 c14 -17 26 -36 26
-42 0 -7 -10 2 -22 18 -13 17 -38 45 -58 64 -35 34 -35 34 -3 12 17 -11 43
-35 57 -52z m1953 65 c-3 -3 -12 -4 -19 -1 -8 3 -5 6 6 6 11 1 17 -2 13 -5z
m483 2 c0 -12 -33 -35 -42 -30 -5 3 1 12 14 19 29 16 28 16 28 11z m1450 -35
c3 -2 -10 -2 -27 1 -28 4 -31 2 -21 -11 10 -13 8 -13 -6 1 -16 14 -16 18 -5
31 12 13 16 13 34 -1 11 -9 22 -19 25 -21z m228 10 c-20 -26 -22 -27 -15 -9 5
15 4 16 -13 6 -14 -9 -17 -19 -13 -40 4 -23 2 -28 -13 -27 -11 0 -14 3 -8 5 6
3 9 15 7 27 -5 29 25 66 49 59 15 -4 16 -7 6 -21z m-1748 -11 c0 -5 -5 -10
-11 -10 -5 0 -7 5 -4 10 3 6 8 10 11 10 2 0 4 -4 4 -10z m1399 -22 c8 -22 7
-28 -4 -28 -9 0 -12 -7 -9 -17 5 -17 5 -17 -6 -1 -6 10 -13 31 -15 46 -4 38
21 38 34 0z m41 2 c0 -16 -2 -30 -5 -30 -8 0 -23 44 -18 53 10 17 23 5 23 -23z
m-4472 -14 c-3 -23 -34 -34 -51 -17 -7 7 -5 16 7 30 22 24 48 16 44 -13z
m2675 4 c-15 -16 -35 -30 -43 -29 -10 0 -8 3 5 9 14 6 15 9 5 10 -8 0 1 9 20
20 46 25 46 25 13 -10z m995 8 c14 -14 16 -42 3 -34 -5 3 -12 -4 -16 -17 -7
-20 -8 -18 -14 13 -10 49 1 64 27 38z m92 -27 c0 -12 2 -13 9 -3 11 18 53 12
59 -8 4 -12 2 -13 -9 -3 -10 10 -16 10 -30 -3 -21 -19 -39 -11 -39 16 0 33
-19 32 -34 -2 -12 -27 -15 -29 -15 -11 -1 31 27 57 45 42 8 -6 14 -19 14 -28z
m-909 7 c11 -21 11 -22 -4 -9 -10 7 -17 17 -17 22 0 15 9 10 21 -13z m1095 -9
c11 -23 13 -34 5 -42 -8 -8 -11 -5 -11 11 0 29 -20 29 -21 0 -1 -21 -2 -20
-11 5 -20 56 11 77 38 26z m-3139 -1 c-3 -8 -6 -5 -6 6 -1 11 2 17 5 13 3 -3
4 -12 1 -19z m168 4 c-3 -3 -11 0 -18 7 -9 10 -8 11 6 5 10 -3 15 -9 12 -12z
m2579 2 c3 -8 2 -12 -4 -9 -6 3 -10 10 -10 16 0 14 7 11 14 -7z m1156 11 c0
-2 -10 -9 -22 -15 -22 -11 -22 -10 -4 4 21 17 26 19 26 11z m-2450 -15 c0 -5
-7 -10 -16 -10 -8 0 -12 5 -9 10 3 6 10 10 16 10 5 0 9 -4 9 -10z m160 0 c0
-5 -8 -10 -17 -10 -15 0 -16 2 -3 10 19 12 20 12 20 0z m84 4 c9 -3 16 -10 16
-15 0 -6 -7 -6 -17 -1 -10 5 -27 6 -38 1 -33 -13 -42 -9 -15 6 29 16 33 17 54
9z m655 -8 c9 -11 10 -20 1 -35 -6 -12 -13 -21 -16 -21 -2 0 -1 8 4 18 10 19
5 42 -9 42 -6 0 -7 -5 -3 -12 4 -7 3 -8 -4 -4 -7 4 -12 1 -13 -6 0 -10 -2 -10
-6 0 -2 6 -10 10 -16 6 -7 -3 -3 2 7 10 25 20 40 20 55 2z m-1749 -3 c-1 -5
-15 -24 -32 -43 -23 -27 -27 -29 -18 -10 19 39 51 72 50 53z m170 -3 c0 -5
-11 -10 -25 -10 -23 0 -25 -4 -27 -47 l-1 -48 -4 43 c-4 43 -4 43 -36 36 -59
-12 -86 -40 -93 -95 -4 -27 -10 -52 -15 -55 -5 -3 -6 15 -3 40 4 26 4 46 1 46
-3 0 -22 -23 -42 -50 -20 -28 -41 -48 -46 -44 -5 3 -10 -12 -10 -33 -1 -21 -4
-51 -8 -68 -6 -28 -7 -27 -14 19 -8 57 -4 64 73 149 54 60 100 92 159 113 43
16 91 18 91 4z m2764 -15 c7 -20 -14 -66 -27 -58 -6 4 -7 -4 -3 -21 4 -15 2
-26 -4 -26 -5 0 -10 -10 -10 -22 0 -21 0 -21 -14 -2 -9 12 -11 23 -5 28 5 6 9
23 9 38 0 15 4 28 9 28 5 0 12 11 15 25 7 28 21 33 30 10z m-4164 -16 c15 -28
9 -63 -12 -67 -25 -5 -44 39 -29 67 15 26 27 27 41 0z m2885 2 c-3 -6 -11 -11
-17 -11 -6 0 -6 6 2 15 14 17 26 13 15 -4z m-1361 -7 c5 -14 4 -15 -9 -4 -17
14 -19 20 -6 20 5 0 12 -7 15 -16z m816 0 c0 -8 -4 -12 -10 -9 -5 3 -10 10
-10 16 0 5 5 9 10 9 6 0 10 -7 10 -16z m510 6 c0 -5 -12 -10 -27 -9 -25 0 -26
1 -8 9 27 12 35 12 35 0z m315 0 c3 -5 1 -10 -4 -10 -6 0 -11 5 -11 10 0 6 2
10 4 10 3 0 8 -4 11 -10z m-1784 -41 c-6 -16 -10 -18 -10 -7 -1 22 12 55 16
42 2 -6 -1 -22 -6 -35z m1566 26 c0 -8 -6 -16 -14 -19 -15 -6 -15 -4 -7 18 8
20 21 21 21 1z m757 7 c3 -5 -14 -13 -37 -19 l-42 -11 24 19 c24 20 46 24 55
11z m86 -29 c0 -21 -3 -24 -9 -14 -5 8 -7 20 -4 28 8 21 13 15 13 -14z m843 3
c-10 -13 -20 -22 -22 -20 -4 4 29 44 36 44 2 0 -4 -11 -14 -24z m-4016 -38
c-2 -13 -4 -5 -4 17 -1 22 1 32 4 23 2 -10 2 -28 0 -40z m1883 41 c0 -5 21
-53 46 -106 40 -84 74 -195 74 -243 0 -8 -11 8 -24 35 -27 55 -33 43 -11 -20
8 -22 17 -60 20 -85 l6 -45 -16 35 c-37 80 -95 245 -105 298 -11 62 -10 142 3
142 4 0 7 -5 7 -11z m621 -6 c13 -16 12 -17 -3 -4 -10 7 -18 15 -18 17 0 8 8
3 21 -13z m-2454 -37 c-17 -24 -38 -52 -45 -62 -7 -10 -3 0 8 24 19 39 53 82
65 82 3 0 -10 -20 -28 -44z m3821 11 c2 -10 -3 -17 -12 -17 -10 0 -16 9 -16
21 0 24 23 21 28 -4z m-3376 1 c-15 -15 -16 -31 0 -22 7 5 8 3 3 -5 -5 -9 -10
-10 -18 -2 -10 10 6 41 21 41 3 0 1 -5 -6 -12z m1591 -113 c27 -65 49 -228 26
-190 -7 11 -14 33 -16 48 -2 16 -7 36 -13 45 -7 13 -8 8 -4 -15 4 -18 3 -54
-1 -80 l-8 -48 -14 59 c-17 76 -26 86 -19 21 4 -37 3 -42 -3 -20 -10 36 -14
266 -5 290 5 13 10 9 19 -17 7 -18 24 -60 38 -93z m-2298 105 c-3 -5 -11 -10
-16 -10 -6 0 -7 5 -4 10 3 6 11 10 16 10 6 0 7 -4 4 -10z m3355 -14 c0 -8 -11
-11 -30 -8 -28 4 -29 6 -13 17 19 14 43 9 43 -9z m-2931 -69 c28 -37 51 -70
51 -73 0 -8 -82 96 -104 131 -27 43 -6 20 53 -58z m2071 69 c0 -3 -4 -8 -10
-11 -5 -3 -10 -1 -10 4 0 6 5 11 10 11 6 0 10 -2 10 -4z m45 -26 c-10 -11 -20
-18 -23 -15 -3 3 3 14 13 25 10 11 20 18 23 15 3 -3 -3 -14 -13 -25z m-3155
-21 c12 -23 20 -43 18 -45 -3 -2 -14 17 -26 41 -27 56 -20 60 8 4z m1078 10
c12 -18 11 -19 -6 -10 -11 6 -22 17 -25 25 -8 21 16 10 31 -15z m2120 -62 c3
-109 -7 -197 -18 -157 -6 22 -8 19 -14 -20 -5 -25 -13 -54 -19 -65 -10 -18
-12 -16 -23 23 -11 38 -11 49 6 95 11 29 29 89 41 135 12 45 22 82 23 82 0 0
2 -42 4 -93z m1377 83 c9 -14 -37 -31 -50 -19 -6 7 -5 13 5 19 20 13 37 12 45
0z m59 -2 c-5 -8 -1 -7 10 2 17 13 18 12 15 -5 -3 -11 -13 -21 -24 -24 -11 -2
-24 -10 -30 -18 -6 -8 -18 -11 -28 -7 -24 9 -15 30 11 27 13 -2 23 5 27 17 4
11 11 20 16 20 6 0 7 -6 3 -12z m48 -10 c-7 -7 -12 -8 -12 -2 0 14 12 26 19
19 2 -3 -1 -11 -7 -17z m188 2 c12 -7 10 -11 -10 -18 -29 -11 -35 -9 -27 13 7
17 16 19 37 5z m-3210 -16 c0 -2 -12 -4 -26 -4 -14 0 -23 4 -20 9 6 8 46 4 46
-5z m2848 4 c7 -7 12 -16 12 -22 0 -5 -7 -1 -16 10 -8 10 -13 14 -10 7 8 -14
-10 -27 -24 -18 -8 5 -7 11 1 21 14 17 21 18 37 2z m-65 -5 c-7 -2 -13 -14
-13 -24 0 -11 -5 -17 -10 -14 -13 8 6 45 23 44 9 0 9 -2 0 -6z m-3203 -23 c0
-5 -2 -10 -4 -10 -3 0 -8 5 -11 10 -3 6 -1 10 4 10 6 0 11 -4 11 -10z m1430
-91 c11 -20 28 -58 38 -85 11 -27 27 -66 36 -87 20 -46 13 -49 -10 -4 -9 17
-20 34 -23 37 -31 24 -126 221 -113 234 6 7 47 -46 72 -95z m2045 91 c3 -5 2
-10 -4 -10 -5 0 -13 5 -16 10 -3 6 -2 10 4 10 5 0 13 -4 16 -10z m-415 -20 c0
-5 -12 -10 -26 -10 -14 0 -23 4 -19 10 3 6 15 10 26 10 10 0 19 -4 19 -10z
m268 -7 c-3 -14 -12 -17 -36 -15 -24 2 -32 -1 -32 -12 0 -9 -7 -16 -15 -16
-21 0 -19 10 7 37 27 29 81 33 76 6z m222 13 c0 -3 -4 -8 -10 -11 -5 -3 -10
-1 -10 4 0 6 5 11 10 11 6 0 10 -2 10 -4z m-3675 -16 c3 -5 1 -10 -4 -10 -6 0
-11 5 -11 10 0 6 2 10 4 10 3 0 8 -4 11 -10z m2875 -5 c-7 -9 -15 -13 -19 -10
-3 3 1 10 9 15 21 14 24 12 10 -5z m427 -14 c1 -11 -7 -27 -18 -37 -10 -9 -19
-12 -19 -6 0 6 5 14 11 18 6 3 9 15 6 25 -3 11 0 19 7 19 6 0 12 -9 13 -19z
m501 -14 c4 -21 -25 -34 -40 -19 -8 8 -8 16 2 27 16 19 34 15 38 -8z m-2289
-72 c17 -10 50 -79 65 -137 8 -29 17 -62 22 -73 4 -11 -7 -1 -25 22 -17 24
-31 47 -31 52 0 5 -7 12 -16 15 -12 5 -15 2 -10 -9 15 -39 37 -127 34 -131
-10 -10 -88 264 -87 306 l0 45 19 -41 c10 -23 23 -45 29 -49z m2147 56 c-12
-19 -24 -12 -19 10 4 13 9 17 15 11 6 -6 7 -15 4 -21z m-4395 -14 c-27 -70
-52 -208 -60 -329 l-9 -133 2 150 c3 138 6 158 35 248 18 55 35 97 37 94 3 -2
0 -16 -5 -30z m669 1 c11 -18 20 -44 19 -58 0 -19 -4 -14 -14 18 -7 23 -19 49
-25 57 -7 8 -10 15 -6 15 3 0 15 -15 26 -32z m3520 3 c0 -17 -3 -18 -24 -8
-16 8 -21 14 -13 19 21 13 37 9 37 -11z m-80 -11 c-8 -5 -17 -7 -19 -4 -3 3 1
9 9 14 8 5 17 7 19 4 3 -3 -1 -9 -9 -14z m119 -31 c-7 -4 -17 -5 -22 -2 -5 3
-3 9 4 14 7 4 17 5 22 2 5 -3 3 -9 -4 -14z m-4505 -206 c32 -63 27 -70 -8 -10
-23 41 -67 178 -65 208 0 8 11 -22 23 -66 13 -44 35 -104 50 -132z m1012 172
c18 -28 24 -79 9 -83 -5 -1 -12 8 -13 20 -2 13 -9 29 -15 37 -10 12 -9 13 2 7
8 -6 7 0 -4 18 -10 15 -13 26 -6 26 6 0 18 -11 27 -25z m1405 -8 c21 -14 34
-32 35 -45 1 -13 5 -26 9 -30 5 -4 5 1 2 11 -4 11 -3 16 4 12 5 -4 9 -14 8
-23 -1 -10 3 -30 9 -45 24 -58 21 -80 -3 -27 -14 30 -43 75 -64 100 -63 76
-64 90 0 47z m-1964 -19 c-3 -8 -6 -5 -6 6 -1 11 2 17 5 13 3 -3 4 -12 1 -19z
m1850 -1 c32 12 143 -82 142 -121 0 -11 3 -34 7 -51 6 -26 1 -23 -43 30 -27
33 -74 82 -104 109 -30 27 -45 44 -34 39 11 -6 25 -8 32 -6z m688 -38 c-18
-65 -25 -73 -18 -17 5 37 18 68 28 68 2 0 -3 -23 -10 -51z m-758 -14 c-20 -14
-42 -23 -47 -20 -6 4 -9 1 -8 -5 4 -18 -40 -47 -121 -80 -40 -17 -97 -47 -125
-68 -44 -32 -48 -33 -31 -11 11 15 39 37 62 49 24 12 40 27 36 33 -4 6 0 8 11
4 10 -4 15 -3 11 3 -3 5 7 17 22 26 15 10 48 30 72 46 24 15 48 25 52 22 5 -3
9 0 9 7 0 7 10 9 30 6 16 -4 32 -2 35 3 3 6 11 10 18 10 6 0 -5 -11 -26 -25z
m-1902 -72 c-13 -27 -26 -66 -30 -88 -4 -22 -9 -35 -12 -29 -2 6 0 30 6 53 12
54 -5 43 -24 -17 -12 -36 -14 -39 -10 -13 7 47 29 87 46 83 8 -2 11 0 6 4 -5
6 29 54 38 54 1 0 -8 -21 -20 -47z m2944 -14 c-6 -30 -16 -58 -21 -64 -7 -7
-8 -2 -4 15 5 21 3 20 -9 -5 -8 -16 -14 -36 -15 -42 0 -7 -5 -13 -10 -13 -12
0 -3 74 13 105 11 24 49 66 54 61 2 -2 -2 -27 -8 -57z m-3235 36 c3 -8 1 -15
-4 -15 -6 0 -10 7 -10 15 0 8 2 15 4 15 2 0 6 -7 10 -15z m4696 5 c0 -5 -7
-10 -15 -10 -8 0 -15 5 -15 10 0 6 7 10 15 10 8 0 15 -4 15 -10z m-3790 -10
c0 -5 -5 -10 -11 -10 -5 0 -7 5 -4 10 3 6 8 10 11 10 2 0 4 -4 4 -10z m1309
-1 c25 -9 30 -14 19 -21 -10 -7 -8 -8 5 -4 20 7 109 -46 142 -84 21 -25 11
-21 -37 12 -26 18 -27 18 -21 1 3 -10 13 -27 22 -37 12 -15 7 -13 -24 6 -22
14 -50 28 -62 32 -13 4 -23 12 -23 17 0 6 -4 8 -8 5 -5 -3 -22 8 -38 25 -16
17 -24 30 -19 29 6 -1 19 -2 30 -1 16 1 17 3 6 10 -8 6 -24 6 -38 0 -22 -8
-31 0 -16 14 9 10 25 9 62 -4z m2568 -11 c-3 -8 -6 -5 -6 6 -1 11 2 17 5 13 3
-3 4 -12 1 -19z m-3780 -20 c-3 -7 -5 -2 -5 12 0 14 2 19 5 13 2 -7 2 -19 0
-25z m-977 -43 c7 -25 10 -48 7 -51 -3 -3 -11 13 -17 36 -6 23 -14 48 -17 57
-4 10 -2 14 4 10 6 -4 16 -27 23 -52z m3247 23 c-3 -8 -6 -5 -6 6 -1 11 2 17
5 13 3 -3 4 -12 1 -19z m-3323 -79 c10 -18 15 -29 9 -26 -5 3 -24 30 -41 59
-21 35 -24 44 -9 26 12 -15 31 -42 41 -59z m1041 12 c7 -28 10 -49 5 -46 -4 3
-11 21 -14 41 -4 19 -10 43 -13 52 -3 9 -3 14 1 11 4 -4 13 -30 21 -58z m1045
50 c0 -5 -27 -30 -60 -55 -33 -25 -60 -44 -60 -42 0 20 20 43 64 72 57 38 56
38 56 25z m-2199 -10 c5 9 8 -16 7 -61 -1 -72 -1 -73 -8 -25 l-7 50 -3 -60
c-2 -45 -4 -53 -9 -31 -7 32 -1 149 7 127 4 -11 6 -11 13 0z m4898 -68 c-12
-38 -27 -70 -33 -70 -8 0 -6 12 6 36 10 19 18 41 18 47 0 19 20 67 25 62 3 -3
-4 -36 -16 -75z m-1613 -33 c-18 -57 -21 -21 -4 52 11 45 13 48 16 23 1 -16
-4 -50 -12 -75z m624 56 c0 -2 -9 -6 -20 -9 -11 -3 -18 -1 -14 4 5 9 34 13 34
5z m-1986 -72 c30 -54 32 -61 10 -43 -25 21 -56 89 -40 89 2 0 16 -21 30 -46z
m3006 -40 c-18 -21 -24 -10 -8 15 7 12 14 17 16 11 2 -6 -2 -17 -8 -26z
m-4210 -4 c0 -5 -2 -10 -4 -10 -3 0 -8 5 -11 10 -3 6 -1 10 4 10 6 0 11 -4 11
-10z"/>
<path d="M2075 4490 c2 -26 11 -34 18 -16 3 8 0 19 -7 25 -10 8 -12 6 -11 -9z"/>
<path d="M4160 3971 c0 -5 5 -13 10 -16 6 -3 10 -2 10 4 0 5 -4 13 -10 16 -5
3 -10 2 -10 -4z"/>
<path d="M1401 3954 c0 -11 3 -14 6 -6 3 7 2 16 -1 19 -3 4 -6 -2 -5 -13z"/>
<path d="M2665 3630 c-11 -18 15 -50 42 -50 21 0 24 2 13 15 -7 8 -19 15 -26
15 -8 0 -11 6 -8 15 7 16 -11 21 -21 5z"/>
<path d="M2730 3630 c0 -5 5 -10 11 -10 5 0 7 5 4 10 -3 6 -8 10 -11 10 -2 0
-4 -4 -4 -10z"/>
<path d="M2886 3605 c-3 -9 0 -15 9 -15 9 0 12 6 9 15 -4 8 -7 15 -9 15 -2 0
-5 -7 -9 -15z"/>
<path d="M2674 3561 c4 -6 2 -11 -3 -11 -15 0 -14 -27 2 -33 16 -5 47 3 47 13
0 4 -12 15 -26 25 -15 9 -23 12 -20 6z"/>
<path d="M2925 3540 c3 -5 8 -10 11 -10 2 0 4 5 4 10 0 6 -5 10 -11 10 -5 0
-7 -4 -4 -10z"/>
<path d="M2740 3521 c0 -12 6 -21 15 -21 8 0 15 3 15 6 0 3 -7 12 -15 20 -13
14 -15 13 -15 -5z"/>
<path d="M2780 3499 c0 -5 4 -9 9 -9 5 0 17 -3 25 -6 11 -4 15 -2 11 8 -6 15
-45 22 -45 7z"/>
<path d="M2880 3420 c0 -12 -7 -20 -16 -20 -10 0 -14 6 -10 15 4 11 -2 15 -25
15 -27 0 -29 -2 -19 -20 6 -11 21 -20 35 -20 13 0 30 -6 37 -13 15 -14 60 -36
102 -48 l28 -8 -23 23 c-13 12 -27 21 -31 19 -3 -2 -18 2 -32 8 -19 9 -26 20
-26 41 0 15 -4 28 -10 28 -5 0 -10 -9 -10 -20z"/>
<path d="M2965 3430 c3 -5 11 -10 16 -10 6 0 7 5 4 10 -3 6 -11 10 -16 10 -6
0 -7 -4 -4 -10z"/>
<path d="M3005 3401 c-3 -5 -1 -12 5 -16 5 -3 10 1 10 9 0 18 -6 21 -15 7z"/>
<path d="M3190 3354 c0 -8 5 -12 10 -9 6 3 10 10 10 16 0 5 -4 9 -10 9 -5 0
-10 -7 -10 -16z"/>
<path d="M3091 3350 c-1 -17 17 -40 31 -40 4 0 8 5 8 10 0 6 -6 10 -14 10 -8
0 -17 8 -19 18 -4 13 -5 13 -6 2z"/>
<path d="M3125 3350 c-3 -5 -2 -10 4 -10 5 0 17 -3 25 -6 12 -5 15 -2 10 10
-7 18 -29 21 -39 6z"/>
<path d="M3252 3309 c2 -7 10 -15 17 -17 8 -3 12 1 9 9 -2 7 -10 15 -17 17 -8
3 -12 -1 -9 -9z"/>
<path d="M3209 3288 c12 -11 25 -18 28 -15 9 9 -5 24 -28 30 l-21 6 21 -21z"/>
<path d="M3593 3673 c9 -2 25 -2 35 0 9 3 1 5 -18 5 -19 0 -27 -2 -17 -5z"/>
<path d="M1026 3395 c-19 -14 -16 -45 5 -45 6 0 8 7 5 16 -4 9 -1 23 5 30 15
18 9 17 -15 -1z"/>
<path d="M1070 3395 c10 -12 10 -18 0 -30 -10 -12 -10 -15 3 -15 22 0 29 27
11 45 -20 19 -30 20 -14 0z"/>
<path d="M1050 3380 c0 -5 5 -10 11 -10 5 0 7 5 4 10 -3 6 -8 10 -11 10 -2 0
-4 -4 -4 -10z"/>
<path d="M978 3342 c-9 -2 -19 -10 -22 -19 -5 -11 -2 -13 11 -8 31 13 72 12
77 -2 8 -21 22 -15 23 10 0 12 -1 16 -4 9 -3 -8 -9 -10 -16 -4 -16 12 -48 19
-69 14z"/>
<path d="M1145 3330 c3 -5 8 -10 11 -10 2 0 4 5 4 10 0 6 -5 10 -11 10 -5 0
-7 -4 -4 -10z"/>
<path d="M1184 3315 c-4 -9 -2 -21 5 -28 8 -8 11 -7 11 4 1 10 5 9 15 -5 15
-19 15 -19 15 2 0 28 -38 50 -46 27z"/>
<path d="M1145 3270 c-4 -6 5 -10 20 -10 15 0 24 4 20 10 -3 6 -12 10 -20 10
-8 0 -17 -4 -20 -10z"/>
<path d="M1041 3241 c-7 -5 -10 -14 -7 -20 5 -8 11 -7 22 3 24 24 14 35 -15
17z"/>
<path d="M1236 3236 c3 -9 11 -16 16 -16 13 0 5 23 -10 28 -7 2 -10 -2 -6 -12z"/>
<path d="M1115 3230 c3 -5 8 -10 11 -10 2 0 4 5 4 10 0 6 -5 10 -11 10 -5 0
-7 -4 -4 -10z"/>
<path d="M1160 3230 c0 -5 7 -7 15 -4 8 4 15 8 15 10 0 2 -7 4 -15 4 -8 0 -15
-4 -15 -10z"/>
<path d="M4480 3209 c0 -5 5 -7 10 -4 6 3 10 8 10 11 0 2 -4 4 -10 4 -5 0 -10
-5 -10 -11z"/>
<path d="M4357 3183 c-10 -9 -9 -23 1 -23 5 0 9 7 9 15 0 17 -1 18 -10 8z"/>
<path d="M2658 3253 c7 -3 16 -2 19 1 4 3 -2 6 -13 5 -11 0 -14 -3 -6 -6z"/>
<path d="M3841 3124 c0 -11 3 -14 6 -6 3 7 2 16 -1 19 -3 4 -6 -2 -5 -13z"/>
<path d="M3670 3029 c0 -5 5 -7 10 -4 6 3 10 8 10 11 0 2 -4 4 -10 4 -5 0 -10
-5 -10 -11z"/>
<path d="M3786 2933 c-6 -14 -5 -15 5 -6 7 7 10 15 7 18 -3 3 -9 -2 -12 -12z"/>
<path d="M3851 2853 c0 -13 2 -14 6 -4 5 11 7 11 14 0 7 -11 9 -10 9 4 0 9 -7
17 -15 17 -8 0 -15 -8 -14 -17z"/>
<path d="M3982 2710 c0 -14 2 -19 5 -12 2 6 2 18 0 25 -3 6 -5 1 -5 -13z"/>
<path d="M3965 2570 c-3 -5 -1 -10 4 -10 6 0 11 5 11 10 0 6 -2 10 -4 10 -3 0
-8 -4 -11 -10z"/>
<path d="M4430 2900 c0 -5 5 -10 10 -10 6 0 10 5 10 10 0 6 -4 10 -10 10 -5 0
-10 -4 -10 -10z"/>
<path d="M4370 2810 c0 -5 5 -10 10 -10 6 0 10 5 10 10 0 6 -4 10 -10 10 -5 0
-10 -4 -10 -10z"/>
<path d="M4620 2770 c0 -5 5 -10 10 -10 6 0 10 5 10 10 0 6 -4 10 -10 10 -5 0
-10 -4 -10 -10z"/>
<path d="M4710 2690 c-12 -8 -12 -10 3 -16 9 -3 17 -14 18 -23 0 -9 3 -11 5
-5 3 6 1 20 -3 32 -6 15 -12 19 -23 12z"/>
<path d="M3491 2971 c-8 -5 -9 -11 -3 -15 13 -8 42 3 42 15 0 11 -21 11 -39 0z"/>
<path d="M1270 2690 c0 -5 5 -10 11 -10 5 0 7 5 4 10 -3 6 -8 10 -11 10 -2 0
-4 -4 -4 -10z"/>
<path d="M1320 2690 c0 -13 18 -22 24 -11 3 5 -1 11 -9 15 -8 3 -15 1 -15 -4z"/>
<path d="M1195 2680 c-3 -5 0 -10 7 -10 7 -1 1 -8 -14 -16 -16 -8 -28 -18 -28
-22 0 -10 22 -32 32 -32 6 0 28 63 28 83 0 10 -18 9 -25 -3z"/>
<path d="M1416 2642 c-3 -5 1 -9 9 -9 8 0 15 4 15 9 0 4 -4 8 -9 8 -6 0 -12
-4 -15 -8z"/>
<path d="M1223 2623 c-7 -2 -13 -11 -13 -20 0 -20 34 -12 38 10 3 17 -3 20
-25 10z"/>
<path d="M1271 2604 c0 -11 3 -14 6 -6 3 7 2 16 -1 19 -3 4 -6 -2 -5 -13z"/>
<path d="M1460 2610 c0 -5 5 -10 10 -10 6 0 10 5 10 10 0 6 -4 10 -10 10 -5 0
-10 -4 -10 -10z"/>
<path d="M1318 2593 c-23 -6 -23 -9 6 -39 15 -17 26 -22 30 -15 4 6 1 11 -6
11 -9 0 -9 3 2 10 13 8 12 10 -2 10 -21 0 -24 16 -5 23 15 7 -2 6 -25 0z"/>
<path d="M1441 2563 c0 -6 -4 -20 -7 -30 -5 -14 -4 -15 5 -7 7 7 11 20 8 30
-3 11 -5 14 -6 7z"/>
<path d="M1500 2555 c0 -8 2 -15 4 -15 2 0 6 7 10 15 3 8 1 15 -4 15 -6 0 -10
-7 -10 -15z"/>
<path d="M1320 2510 c0 -5 6 -10 14 -10 8 0 18 5 21 10 3 6 -3 10 -14 10 -12
0 -21 -4 -21 -10z"/>
<path d="M1470 2510 c0 -5 5 -10 11 -10 5 0 7 5 4 10 -3 6 -8 10 -11 10 -2 0
-4 -4 -4 -10z"/>
<path d="M1407 2503 c-10 -9 -9 -23 1 -23 5 0 9 7 9 15 0 17 -1 18 -10 8z"/>
<path d="M1275 2490 c-3 -6 1 -13 10 -16 19 -8 30 0 20 15 -8 14 -22 14 -30 1z"/>
<path d="M1430 2479 c0 -5 5 -7 10 -4 6 3 10 8 10 11 0 2 -4 4 -10 4 -5 0 -10
-5 -10 -11z"/>
<path d="M1640 2480 c0 -5 3 -10 8 -11 29 -3 57 -11 69 -20 9 -8 13 -8 13 0 0
6 -16 18 -36 26 -43 18 -54 19 -54 5z"/>
<path d="M1254 2449 c-9 -16 2 -22 21 -11 15 8 16 10 1 15 -8 3 -18 2 -22 -4z"/>
<path d="M1566 2444 c-9 -8 -16 -21 -16 -27 0 -7 5 -4 11 5 5 10 17 22 27 27
9 6 12 11 5 11 -6 0 -19 -7 -27 -16z"/>
<path d="M1628 2450 c12 -5 22 -15 22 -21 0 -7 3 -9 6 -6 10 10 -16 37 -35 36
-11 0 -9 -3 7 -9z"/>
<path d="M1450 2434 c0 -12 4 -12 20 -4 16 9 20 8 20 -5 0 -8 5 -15 10 -15 12
0 13 11 2 25 -11 17 -52 16 -52 -1z"/>
<path d="M1390 2415 c0 -27 9 -32 28 -13 18 18 14 38 -8 38 -15 0 -20 -7 -20
-25z"/>
<path d="M1520 2429 c0 -5 5 -7 10 -4 6 3 10 8 10 11 0 2 -4 4 -10 4 -5 0 -10
-5 -10 -11z"/>
<path d="M1680 2430 c0 -5 5 -10 11 -10 5 0 7 5 4 10 -3 6 -8 10 -11 10 -2 0
-4 -4 -4 -10z"/>
<path d="M1316 2415 c-8 -8 -22 -15 -30 -15 -9 0 -16 -4 -16 -10 0 -5 20 -10
44 -10 48 0 74 18 54 38 -16 16 -34 15 -52 -3z"/>
<path d="M1825 2410 c4 -6 11 -8 16 -5 14 9 11 15 -7 15 -8 0 -12 -5 -9 -10z"/>
<path d="M1562 2384 c10 -10 20 -16 22 -13 3 3 -5 11 -17 18 -21 13 -21 12 -5
-5z"/>
<path d="M1645 2389 c-4 -6 -16 -14 -28 -18 -16 -6 -17 -9 -5 -14 10 -3 25 4
39 19 12 13 17 24 11 24 -6 0 -14 -5 -17 -11z"/>
<path d="M1685 2390 c-3 -5 1 -10 9 -10 9 0 19 0 23 -1 4 0 9 4 11 10 5 14
-35 14 -43 1z"/>
<path d="M1892 2374 c9 -9 21 -13 27 -9 16 10 3 25 -22 25 -20 0 -20 -1 -5
-16z"/>
<path d="M1334 2361 c-12 -12 -1 -22 23 -19 35 4 42 26 8 24 -15 0 -29 -3 -31
-5z"/>
<path d="M1945 2360 c-3 -5 1 -10 9 -10 9 0 16 5 16 10 0 6 -4 10 -9 10 -6 0
-13 -4 -16 -10z"/>
<path d="M1385 2340 c-3 -4 2 -13 11 -21 12 -10 18 -10 30 3 14 14 13 16 -10
20 -15 3 -29 2 -31 -2z"/>
<path d="M1880 2336 c0 -21 20 -30 33 -17 9 9 7 10 -7 5 -16 -6 -18 -4 -13 9
3 9 2 17 -3 17 -6 0 -10 -6 -10 -14z"/>
<path d="M1285 2309 c-4 -6 -4 -13 -1 -16 3 -4 6 -1 6 5 0 6 8 13 18 15 15 4
15 5 0 6 -9 0 -20 -4 -23 -10z"/>
<path d="M1987 2313 c-4 -3 -7 -12 -7 -20 0 -18 47 -16 54 3 3 8 2 12 -3 9 -5
-3 -12 -1 -16 5 -7 12 -19 13 -28 3z m23 -13 c0 -5 -2 -10 -4 -10 -3 0 -8 5
-11 10 -3 6 -1 10 4 10 6 0 11 -4 11 -10z"/>
<path d="M2090 2281 c0 -6 4 -13 10 -16 6 -3 7 1 4 9 -7 18 -14 21 -14 7z"/>
<path d="M4395 2356 c-8 -53 -4 -78 13 -84 11 -3 12 0 4 14 -5 11 -8 40 -6 67
5 59 -3 62 -11 3z"/>
<path d="M4480 2164 c0 -6 7 -19 15 -30 8 -10 14 -14 14 -9 0 6 -6 19 -14 29
-8 11 -15 15 -15 10z"/>
<path d="M2896 2535 c-3 -8 -1 -15 4 -15 6 0 10 7 10 15 0 8 -2 15 -4 15 -2 0
-6 -7 -10 -15z"/>
<path d="M4640 2250 c8 -5 22 -9 30 -9 10 0 8 3 -5 9 -27 12 -43 12 -25 0z"/>
<path d="M1600 2315 c0 -5 5 -17 10 -25 5 -8 10 -10 10 -5 0 6 -5 17 -10 25
-5 8 -10 11 -10 5z"/>
<path d="M3254 2238 l-19 -23 23 19 c12 11 22 21 22 23 0 8 -8 2 -26 -19z"/>
<path d="M3701 2087 c2 -1 13 -9 24 -17 19 -14 19 -14 6 3 -7 9 -18 17 -24 17
-6 0 -8 -1 -6 -3z"/>
<path d="M3874 2004 c-18 -14 -18 -15 4 -4 12 6 22 13 22 15 0 8 -5 6 -26 -11z"/>
<path d="M3870 1950 c0 -5 15 -17 33 -26 26 -13 42 -14 78 -6 l44 10 -55 1
c-33 1 -65 7 -78 17 -13 9 -22 11 -22 4z"/>
<path d="M4167 1873 c-4 -3 -7 -17 -7 -30 0 -31 66 -97 100 -101 18 -2 14 3
-17 17 -24 11 -48 32 -57 50 -20 37 -20 36 0 55 12 13 13 16 1 16 -7 0 -17 -3
-20 -7z"/>
<path d="M4061 1843 c7 -12 15 -20 18 -17 3 2 -3 12 -13 22 -17 16 -18 16 -5
-5z"/>
<path d="M2385 2080 c3 -5 10 -10 16 -10 5 0 9 5 9 10 0 6 -7 10 -16 10 -8 0
-12 -4 -9 -10z"/>
<path d="M2627 1679 c4 -13 8 -18 11 -10 2 7 -1 18 -6 23 -8 8 -9 4 -5 -13z"/>
<path d="M2596 1675 c-3 -8 -1 -15 4 -15 6 0 10 7 10 15 0 8 -2 15 -4 15 -2 0
-6 -7 -10 -15z"/>
<path d="M2602 1620 c0 -14 2 -19 5 -12 2 6 2 18 0 25 -3 6 -5 1 -5 -13z"/>
<path d="M3464 1905 c-18 -13 -18 -14 3 -9 15 4 23 1 26 -13 4 -15 5 -14 6 4
1 29 -12 36 -35 18z"/>
<path d="M3120 1889 c0 -5 5 -7 10 -4 6 3 10 8 10 11 0 2 -4 4 -10 4 -5 0 -10
-5 -10 -11z"/>
<path d="M1421 1554 c0 -11 3 -14 6 -6 3 7 2 16 -1 19 -3 4 -6 -2 -5 -13z"/>
<path d="M1505 1250 c9 -17 15 -55 15 -94 0 -36 5 -68 10 -71 20 -12 11 113
-10 155 -11 22 -23 40 -25 40 -3 0 1 -13 10 -30z"/>
<path d="M1607 1143 c11 -30 43 -79 43 -66 0 12 -39 83 -46 83 -2 0 0 -8 3
-17z"/>
<path d="M1302 1810 c0 -14 2 -19 5 -12 2 6 2 18 0 25 -3 6 -5 1 -5 -13z"/>
<path d="M2756 1807 c3 -10 9 -15 12 -12 3 3 0 11 -7 18 -10 9 -11 8 -5 -6z"/>
<path d="M2753 1758 c-6 -8 -7 -33 -2 -63 l7 -50 -1 45 c0 25 3 52 7 59 11 17
1 25 -11 9z"/>
<path d="M3143 1603 c2 -12 6 -26 10 -29 11 -11 8 19 -3 36 -8 12 -9 10 -7 -7z"/>
<path d="M3115 1466 c-9 -14 -15 -31 -13 -38 3 -7 12 3 21 21 21 41 15 53 -8
17z"/>
<path d="M3474 1698 c-4 -7 -3 -8 5 -4 17 11 41 -12 34 -32 -4 -14 -3 -14 5
-3 7 10 7 21 1 33 -11 20 -34 24 -45 6z"/>
<path d="M3460 1671 c0 -6 4 -13 10 -16 6 -3 7 1 4 9 -7 18 -14 21 -14 7z"/>
<path d="M3398 1453 c6 -2 18 -2 25 0 6 3 1 5 -13 5 -14 0 -19 -2 -12 -5z"/>
<path d="M902 1581 c7 -11 16 -17 20 -15 5 3 2 12 -6 20 -21 20 -28 17 -14 -5z"/>
<path d="M2976 1577 c3 -10 9 -15 12 -12 3 3 0 11 -7 18 -10 9 -11 8 -5 -6z"/>
<path d="M3954 1265 c3 -22 7 -56 11 -75 6 -34 6 -34 -10 -15 -17 20 -17 19
-9 -5 4 -14 11 -41 15 -60 6 -32 7 -33 8 -7 0 16 5 36 10 45 6 11 2 42 -10 87
-13 48 -18 58 -15 30z"/>
<path d="M3978 1043 c5 -21 7 -23 10 -9 2 10 0 22 -6 28 -6 6 -7 0 -4 -19z"/>
<path d="M4180 806 c0 -2 8 -10 18 -17 15 -13 16 -12 3 4 -13 16 -21 21 -21
13z"/>
<path d="M1000 1363 c0 -6 8 -17 18 -24 16 -13 16 -13 2 6 -8 11 -16 22 -17
24 -2 2 -3 0 -3 -6z"/>
<path d="M1050 1360 c0 -5 5 -10 11 -10 5 0 7 5 4 10 -3 6 -8 10 -11 10 -2 0
-4 -4 -4 -10z"/>
<path d="M1014 921 c3 -4 10 -21 16 -36 6 -15 13 -25 16 -22 6 6 -23 67 -32
67 -3 0 -3 -4 0 -9z"/>
<path d="M1155 720 c22 -45 29 -52 20 -20 -4 14 -14 32 -22 40 -12 12 -11 7 2
-20z"/>
<path d="M2071 1102 c0 -18 8 -49 18 -70 20 -39 61 -82 61 -64 0 6 -5 14 -10
17 -15 9 -54 86 -61 120 l-6 30 -2 -33z"/>
<path d="M2136 1057 c3 -10 9 -15 12 -12 3 3 0 11 -7 18 -10 9 -11 8 -5 -6z"/>
<path d="M4316 1245 c14 -19 28 -35 31 -35 9 0 -32 60 -44 65 -8 2 -2 -11 13
-30z"/>
<path d="M4365 1230 c3 -5 8 -10 11 -10 2 0 4 5 4 10 0 6 -5 10 -11 10 -5 0
-7 -4 -4 -10z"/>
<path d="M4380 1198 c0 -19 26 -42 34 -30 3 5 -3 17 -14 27 -17 15 -20 16 -20
3z"/>
<path d="M4450 1185 c13 -14 26 -25 28 -25 3 0 -5 11 -18 25 -13 14 -26 25
-28 25 -3 0 5 -11 18 -25z"/>
<path d="M1329 1173 c-20 -56 -20 -58 -11 -48 11 12 33 75 26 75 -2 0 -9 -12
-15 -27z"/>
<path d="M4300 1106 c0 -2 7 -7 16 -10 8 -3 12 -2 9 4 -6 10 -25 14 -25 6z"/>
<path d="M3430 1066 c0 -9 30 -14 35 -6 4 6 -3 10 -14 10 -12 0 -21 -2 -21 -4z"/>
<path d="M3284 1039 c-3 -6 -1 -16 5 -22 8 -8 11 -6 11 7 0 12 5 16 16 12 8
-3 12 -2 9 4 -8 13 -32 13 -41 -1z"/>
<path d="M4255 1000 c-3 -6 1 -7 9 -4 18 7 21 14 7 14 -6 0 -13 -4 -16 -10z"/>
<path d="M4645 990 c3 -5 11 -10 16 -10 6 0 7 5 4 10 -3 6 -11 10 -16 10 -6 0
-7 -4 -4 -10z"/>
<path d="M2800 445 c0 -5 5 -17 10 -25 5 -8 10 -10 10 -5 0 6 -5 17 -10 25 -5
8 -10 11 -10 5z"/>
<path d="M2238 249 c-21 -11 -38 -22 -38 -24 0 -6 49 15 75 32 30 20 5 15 -37
-8z"/>
<path d="M4940 1989 c0 -5 5 -7 10 -4 6 3 10 8 10 11 0 2 -4 4 -10 4 -5 0 -10
-5 -10 -11z"/>
<path d="M2941 17 c-13 -21 -12 -21 5 -5 10 10 16 20 13 22 -3 3 -11 -5 -18
-17z"/>
</g>
</svg>
