<?xml version="1.0" standalone="no"?>
<!DOCTYPE svg PUBLIC "-//W3C//DTD SVG 20010904//EN"
 "http://www.w3.org/TR/2001/REC-SVG-20010904/DTD/svg10.dtd">
<svg version="1.0" xmlns="http://www.w3.org/2000/svg"
 width="500.000000pt" height="500.000000pt" viewBox="0 0 500.000000 500.000000"
 preserveAspectRatio="xMidYMid meet">

<g transform="translate(0.000000,500.000000) scale(0.100000,-0.100000)"
fill="#000000" stroke="none">
<path d="M2435 4084 c-11 -1 -69 -8 -130 -14 -279 -31 -588 -175 -814 -380
-96 -88 -271 -282 -271 -301 0 -5 84 -7 186 -6 l186 3 141 143 142 143 172 -4
173 -5 2 155 c2 113 6 156 16 160 9 3 12 -35 12 -167 l0 -171 -187 0 -187 0
-121 -125 c-66 -69 -119 -128 -116 -130 13 -14 42 -1 64 26 13 17 30 30 36 28
9 -3 5 -13 -9 -32 -20 -26 -20 -27 -3 -33 40 -12 135 -59 145 -71 23 -28 28
-7 28 124 l0 137 -44 -43 c-39 -38 -43 -46 -30 -58 18 -18 18 -24 0 -49 -19
-25 -50 -8 -54 30 -3 21 10 40 66 96 l69 70 186 0 187 0 2 187 c2 138 6 187
16 191 9 3 12 -39 12 -187 0 -163 2 -191 15 -191 13 0 15 28 15 190 0 162 2
190 15 190 13 0 15 -35 15 -253 l0 -253 63 -62 c50 -50 66 -60 85 -55 22 5 19
10 -47 74 l-71 69 0 245 c0 157 4 245 10 245 6 0 10 -88 10 -243 l0 -244 69
-64 70 -64 123 0 c68 0 134 -2 148 -4 14 -2 98 -3 188 -3 l162 2 0 30 0 30
-215 0 c-139 0 -215 4 -215 10 0 7 76 9 223 8 l222 -3 3 -47 3 -48 -145 0
c-142 0 -170 -6 -123 -27 12 -6 45 -31 73 -56 l51 -46 29 30 c61 64 127 97
248 124 l29 6 -54 55 -53 54 -266 0 -266 0 -84 85 c-46 47 -80 88 -76 92 4 4
41 -28 84 -70 l77 -77 264 0 263 0 81 -75 82 -75 177 0 c161 0 208 7 177 25
-5 4 -8 14 -5 22 3 8 2 12 -3 9 -5 -3 -41 34 -79 83 -67 85 -228 233 -323 298
-129 88 -314 175 -464 218 -85 25 -359 60 -377 49 -4 -3 -8 -104 -8 -225 l0
-221 70 -76 c70 -77 86 -114 54 -126 -25 -10 -33 -7 -44 14 -8 14 -8 26 1 41
10 19 4 28 -50 83 l-61 61 -2 224 c-2 140 -7 225 -13 226 -5 1 -19 1 -30 -1z
m155 -215 l0 -122 43 -42 c35 -35 47 -42 70 -38 22 4 27 2 27 -15 0 -12 -5
-24 -11 -27 -14 -9 -80 38 -118 85 -31 39 -31 39 -31 159 0 74 4 121 10 121 6
0 10 -47 10 -121z m80 35 l0 -86 78 -81 c42 -45 94 -97 116 -114 36 -32 42
-33 122 -33 l84 0 0 57 c0 55 -2 59 -47 105 -26 26 -44 50 -41 54 4 3 31 -21
62 -53 55 -58 56 -58 56 -120 l0 -63 -108 0 -108 0 -122 122 -122 123 0 87 c0
72 3 88 15 88 12 0 15 -16 15 -86z m60 16 c0 -33 -4 -60 -10 -60 -6 0 -10 27
-10 60 0 33 4 60 10 60 6 0 10 -27 10 -60z m60 -29 l0 -78 69 -72 c62 -64 72
-71 107 -71 l39 0 -93 93 -92 92 0 53 c0 28 5 52 10 52 6 0 10 -20 10 -44 0
-42 4 -48 90 -136 50 -51 90 -100 90 -111 0 -16 -8 -19 -54 -19 l-54 0 -74 80
-73 79 3 81 c4 103 22 105 22 1z m-600 -61 l0 -130 -167 0 -166 0 -148 -145
-148 -145 -86 0 c-65 0 -86 3 -83 13 3 8 31 13 84 15 l79 3 146 146 147 146
155 -7 c122 -5 156 -4 160 6 2 7 2 61 -1 121 -4 95 -3 107 12 107 14 0 16 -16
16 -130z m-72 -65 c-2 -2 -69 -5 -150 -7 l-147 -3 -108 -107 c-117 -115 -179
-168 -198 -168 -6 0 -20 9 -29 19 -14 15 -15 24 -6 40 13 25 55 28 64 4 5 -13
34 10 134 110 l127 127 143 0 142 0 0 79 c0 55 4 81 13 84 9 3 13 -20 15 -86
1 -49 1 -91 0 -92z m872 120 c20 -25 8 -50 -25 -50 -21 0 -31 5 -33 18 -4 21
14 47 33 47 7 0 18 -7 25 -15z m-965 -46 c0 -7 -8 -15 -17 -17 -18 -3 -25 18
-11 32 10 10 28 1 28 -15z m1182 -85 c3 -9 2 -24 -3 -33 -6 -9 -8 -40 -6 -68
l4 -53 53 0 54 0 78 -85 78 -85 88 0 c51 0 87 -4 87 -10 0 -6 -36 -10 -87 -10
l-88 0 -82 81 -83 81 -62 2 -63 1 -3 62 c-2 38 -8 66 -17 73 -16 13 -20 42 -8
53 13 13 54 7 60 -9z m101 -43 c8 -4 12 -19 10 -32 -4 -29 -45 -34 -61 -7 -19
30 19 60 51 39z m203 -157 c17 -21 0 -49 -32 -49 -18 0 -25 6 -27 24 -6 38 34
55 59 25z m-998 -16 c6 -19 -3 -38 -18 -38 -17 0 -38 27 -30 40 9 14 42 13 48
-2z"/>
<path d="M1500 3525 c0 -8 7 -15 15 -15 8 0 15 7 15 15 0 8 -7 15 -15 15 -8 0
-15 -7 -15 -15z"/>
<path d="M2956 3873 c-11 -11 -6 -23 9 -23 8 0 15 4 15 9 0 13 -16 22 -24 14z"/>
<path d="M3165 3750 c-4 -6 -3 -16 3 -22 6 -6 12 -6 17 2 4 6 3 16 -3 22 -6 6
-12 6 -17 -2z"/>
<path d="M3275 3691 c-7 -12 12 -24 25 -16 11 7 4 25 -10 25 -5 0 -11 -4 -15
-9z"/>
<path d="M3470 3535 c0 -8 7 -15 15 -15 8 0 15 7 15 15 0 8 -7 15 -15 15 -8 0
-15 -7 -15 -15z"/>
<path d="M1930 3405 l0 -186 -53 40 c-29 22 -79 53 -112 68 l-60 28 -288 3
-289 3 4 -128 c5 -184 -1 -1207 -7 -1201 -7 7 -12 104 -14 251 l-1 127 -30 0
c-16 0 -30 5 -30 10 0 6 14 10 30 10 29 0 30 2 30 45 l0 45 -104 0 c-58 0
-107 -3 -109 -7 -2 -5 -2 -27 1 -50 4 -42 5 -43 42 -43 l37 0 7 -72 c4 -40 14
-101 21 -134 22 -97 24 -114 14 -114 -5 0 -9 6 -9 13 0 8 -4 7 -10 -3 -8 -12
-12 -13 -19 -2 -14 23 -23 -34 -11 -76 5 -20 14 -56 20 -79 10 -41 12 -42 58
-46 26 -2 1 -4 -55 -3 -55 1 -99 -2 -96 -6 2 -5 35 -8 73 -8 l68 0 16 -40 c18
-46 20 -70 6 -70 -5 0 -10 -6 -10 -14 0 -11 -37 -25 -65 -26 -3 0 -19 -7 -36
-16 -19 -10 -41 -13 -58 -9 -21 5 -24 4 -13 -6 14 -15 16 -49 3 -49 -5 0 -17
7 -25 16 -15 14 -16 14 -16 -1 0 -21 29 -31 49 -17 17 13 168 92 174 92 2 0
26 -33 52 -72 27 -40 74 -100 105 -133 30 -33 73 -81 94 -108 21 -26 65 -66
99 -89 34 -23 96 -67 138 -99 82 -62 226 -152 318 -199 58 -29 317 -120 343
-120 7 0 30 -5 51 -11 l37 -10 0 -59 c0 -33 -4 -60 -10 -60 -17 0 -24 -51 -9
-61 22 -14 55 -10 70 7 11 14 10 21 -4 46 -9 16 -17 50 -17 74 l0 44 69 0 c54
0 70 -4 75 -16 12 -30 6 -220 -8 -274 -16 -61 -9 -80 30 -80 32 0 54 40 35 65
-14 17 -22 148 -15 229 l7 76 64 0 64 0 -2 -52 c-2 -29 -9 -59 -16 -66 -22
-22 -16 -51 12 -58 53 -13 79 20 51 66 -14 24 -24 120 -12 120 2 0 62 11 131
25 159 32 404 122 417 153 1 5 42 30 89 55 47 26 94 55 103 66 17 18 56 18 56
0 0 -15 62 -79 76 -79 24 0 15 22 -24 60 -54 51 -57 71 -16 100 19 12 34 27
34 32 0 5 4 6 10 3 6 -3 7 1 4 9 -4 11 0 16 14 16 11 0 48 30 88 74 114 122
156 176 228 291 38 61 86 137 107 171 40 62 49 107 29 145 -6 10 -7 19 -2 19
4 0 8 8 8 18 1 9 10 62 22 117 11 55 25 136 30 180 5 44 17 97 27 119 l16 38
91 -3 c77 -3 92 -1 102 13 16 26 -4 41 -38 28 -15 -5 -63 -10 -106 -10 -65 0
-81 3 -88 18 -5 9 -12 64 -16 122 -3 58 -13 137 -22 175 -9 39 -17 102 -19
140 -1 39 -7 82 -13 96 -6 15 -8 29 -6 32 3 3 -2 17 -11 31 -10 14 -15 26 -11
26 3 0 -8 14 -24 30 -16 17 -37 45 -46 63 -16 30 -79 130 -97 152 -4 6 -15 19
-23 30 -9 11 -13 15 -10 8 4 -6 2 -14 -4 -18 -5 -3 -10 -15 -10 -26 0 -13 4
-18 12 -13 8 5 9 2 5 -9 -5 -14 0 -17 23 -17 17 0 30 -4 30 -10 0 -6 -76 -10
-207 -11 -230 0 -273 -3 -353 -26 -49 -13 -143 -68 -212 -124 l-27 -22 -53 48
c-29 26 -82 62 -118 79 -55 26 -80 31 -161 34 -70 3 -112 0 -155 -13 -67 -19
-161 -71 -175 -97 -5 -10 -18 -22 -29 -28 -18 -10 -19 -6 -14 161 3 94 2 179
-1 190 -6 18 -19 19 -211 19 l-204 0 0 -185z m298 -12 l-3 -78 -78 3 c-50 2
-83 -1 -93 -9 -12 -10 -14 1 -14 75 l0 86 95 0 96 0 -3 -77z m1511 -141 c12
-22 -3 -42 -31 -42 -24 0 -34 26 -18 45 17 20 37 19 49 -3z m-2102 -13 c100
-14 131 -29 201 -98 83 -81 92 -116 92 -347 0 -178 -1 -186 -25 -235 -16 -31
-42 -62 -70 -81 -25 -18 -45 -36 -45 -42 0 -5 43 -116 95 -247 52 -130 95
-242 95 -248 0 -6 -4 -11 -10 -11 -5 0 -10 5 -10 10 0 6 -41 10 -104 10 l-104
0 -97 245 c-96 241 -97 245 -126 245 l-29 0 0 74 c0 110 -5 106 116 106 l103
0 5 148 c6 195 6 195 46 239 l35 38 -37 -34 -36 -33 -29 22 c-34 25 -116 36
-194 26 l-54 -7 3 -116 4 -116 -95 -91 c-51 -50 -83 -82 -69 -71 13 11 52 46
85 78 57 54 77 67 77 50 0 -5 -43 -46 -95 -93 l-95 -85 0 -128 0 -129 58 48
c31 26 72 61 90 78 17 16 32 26 32 20 0 -5 -40 -43 -90 -83 l-90 -74 0 -174
c0 -137 3 -173 13 -167 6 4 26 16 42 27 l30 19 -23 -21 -23 -20 23 -6 c13 -2
48 -6 78 -8 35 -2 15 -4 -53 -7 l-107 -5 0 360 c0 198 -2 482 -5 630 -2 149
-1 280 2 293 5 22 8 22 158 22 85 0 189 -5 232 -11z m1172 -16 c98 -26 182
-134 193 -247 3 -28 -3 -33 -80 -76 -45 -26 -88 -52 -94 -58 -21 -21 -23 -14
-22 60 1 62 -2 75 -21 94 -44 44 -168 40 -210 -6 -14 -15 -19 -37 -20 -77 0
-31 -5 -58 -11 -60 -5 -2 -8 -19 -6 -38 2 -19 8 -32 13 -29 5 3 9 1 9 -3 0 -5
-43 -46 -95 -91 l-95 -83 0 -65 0 -65 83 68 c106 86 107 87 107 77 0 -5 -15
-19 -33 -32 -17 -12 -54 -42 -81 -66 l-50 -44 33 -41 c18 -22 28 -41 22 -41
-6 0 -26 -13 -44 -30 -33 -29 -35 -33 -36 -102 0 -40 5 -97 13 -125 16 -61 5
-71 -17 -15 -13 32 -16 110 -18 453 l-3 414 28 62 c72 158 237 221 435 166z
m748 1 c29 -8 58 -23 66 -34 8 -11 17 -17 21 -12 5 4 7 0 5 -9 -2 -9 -39 -46
-82 -82 -73 -60 -82 -64 -117 -60 -73 10 -106 -4 -173 -70 -34 -35 -90 -85
-124 -111 -62 -48 -69 -57 -57 -69 7 -7 74 44 136 102 21 19 40 32 44 29 6 -7
-54 -64 -113 -107 -45 -33 -68 -59 -60 -67 7 -7 45 23 120 93 26 24 52 43 58
41 6 -2 -32 -39 -84 -82 -74 -62 -93 -84 -90 -100 3 -15 -1 -13 -14 9 -15 25
-18 52 -18 165 1 131 1 137 32 195 53 102 130 161 236 180 78 14 134 11 214
-11z m-1327 -165 l0 -116 -44 -41 c-24 -22 -41 -44 -38 -47 4 -4 2 -5 -3 -3
-6 2 -29 -13 -51 -32 -38 -33 -41 -39 -43 -94 l-3 -59 29 22 c15 13 53 47 85
77 31 30 58 54 60 54 3 0 6 -22 7 -48 1 -44 -2 -51 -41 -88 -35 -33 -71 -62
-137 -111 -2 -2 -2 -6 2 -9 6 -7 38 15 118 84 27 23 53 42 57 42 8 0 -60 -64
-132 -124 -26 -21 -45 -41 -41 -44 3 -3 16 5 30 18 l26 24 27 -28 27 -27 -60
-54 -60 -54 29 -30 c16 -17 34 -28 40 -24 6 3 -5 -12 -26 -33 l-36 -39 -2
-124 -1 -123 68 58 c37 33 70 61 73 64 3 3 14 11 25 19 11 7 -23 -27 -75 -77
-52 -49 -92 -93 -88 -97 6 -7 138 93 138 104 0 4 10 12 22 20 17 11 15 5 -9
-25 -38 -48 -120 -125 -150 -142 l-23 -12 0 614 c0 566 1 615 17 618 9 2 54 3
100 3 l83 0 0 -116z m1460 26 c-11 -12 -18 -24 -14 -27 3 -3 0 -9 -7 -14 -8
-4 -10 -3 -5 4 4 7 3 12 -3 12 -5 0 -14 -6 -18 -13 -4 -7 -27 -27 -49 -45 -36
-27 -43 -30 -54 -17 -6 8 -9 19 -5 24 3 7 0 8 -9 5 -31 -12 -15 6 61 70 l78
65 22 -21 23 -22 -20 -21z m-15 -65 c3 -5 1 -10 -4 -10 -6 0 -11 5 -11 10 0 6
2 10 4 10 3 0 8 -4 11 -10z m69 -50 c-23 -23 -190 -117 -194 -110 -3 5 -3 28
-1 52 l5 43 6 -37 5 -38 90 55 c80 48 116 62 89 35z m253 14 c-3 -3 -12 -4
-19 -1 -8 3 -5 6 6 6 11 1 17 -2 13 -5z m-524 -235 c97 -19 159 -37 181 -51
34 -23 86 -91 86 -114 0 -6 -40 -46 -90 -89 -84 -72 -103 -95 -81 -95 5 0 39
28 77 63 38 34 78 68 89 76 11 7 4 -1 -15 -19 -19 -18 -63 -59 -97 -91 l-63
-59 1 -69 c1 -37 -4 -78 -11 -90 -15 -30 -68 -51 -126 -51 -42 0 -52 -5 -122
-65 -41 -36 -80 -65 -86 -65 -6 0 25 34 68 75 l79 75 59 0 c50 0 62 4 90 29
l33 29 3 156 4 155 -24 5 c-12 3 -67 12 -122 20 -54 9 -100 17 -102 19 -2 2
31 32 73 67 42 35 70 66 64 68 -7 2 -20 -2 -29 -10 -9 -8 -45 -38 -80 -68 -34
-29 -65 -51 -68 -48 -2 3 29 34 71 69 l75 64 -51 16 c-28 9 -56 22 -62 29 -10
10 -8 11 8 6 11 -4 86 -21 168 -37z m-468 -29 c0 -20 -6 -26 -28 -28 -29 -4
-44 16 -33 44 4 10 15 14 33 12 22 -2 28 -8 28 -28z m-1599 -89 l-38 -39 23
-16 c13 -9 18 -16 12 -16 -13 0 -43 27 -43 40 0 9 67 70 77 70 4 0 -10 -17
-31 -39z m1567 -68 c-57 -2 -149 -2 -205 0 -57 1 -11 3 102 3 113 0 159 -2
103 -3z m1337 -28 c0 -8 -4 -15 -10 -15 -5 0 -10 7 -10 15 0 8 5 15 10 15 6 0
10 -7 10 -15z m-2870 -29 c0 -2 -28 -27 -62 -56 l-63 -52 60 56 c60 55 65 60
65 52z m1698 -39 c-4 -33 -52 -31 -56 2 -2 13 2 27 9 32 20 12 51 -9 47 -34z
m-128 -47 c0 -5 -16 -10 -35 -10 -28 0 -47 -10 -94 -52 -54 -49 -59 -57 -60
-96 -2 -76 -72 -117 -164 -94 l-42 10 57 1 c118 2 135 25 137 184 l1 67 100 0
c60 0 100 -4 100 -10z m275 1 c-3 -6 -29 -23 -58 -40 -85 -50 -82 -44 -45 -81
24 -24 29 -35 19 -38 -8 -3 -23 7 -33 22 -23 30 -39 33 -60 9 -13 -15 -14 -28
-7 -72 4 -29 11 -56 13 -59 6 -5 79 51 130 100 17 15 34 28 40 28 15 0 -62
-77 -111 -111 -24 -17 -43 -35 -43 -40 0 -13 42 17 108 76 29 26 52 42 52 37
0 -5 -34 -40 -75 -77 -45 -40 -75 -75 -75 -86 0 -11 -4 -18 -9 -14 -18 10 -49
109 -56 175 l-7 65 104 57 c102 57 125 67 113 49z m-552 -18 l-52 -4 -4 -57
-3 -57 -2 63 -2 62 58 -2 57 -2 -52 -3z m-1423 -7 c0 -2 -8 -10 -17 -17 -16
-13 -17 -12 -4 4 13 16 21 21 21 13z m1160 -9 c0 -2 -12 -14 -27 -28 l-28 -24
24 28 c23 25 31 32 31 24z m1235 -82 c-27 -25 -90 -78 -140 -119 -49 -40 -101
-85 -115 -99 -14 -15 -29 -27 -34 -27 -15 0 53 67 119 118 33 26 93 75 132
109 83 72 114 86 38 18z m-1575 2 c0 -2 -15 -16 -32 -33 l-33 -29 29 33 c28
30 36 37 36 29z m-7 -115 c15 -16 14 -20 -8 -47 -13 -17 -27 -27 -31 -22 -4 4
1 14 12 21 16 13 17 18 7 35 -22 36 -8 44 20 13z m1592 -58 c-40 -95 -134
-166 -240 -179 -60 -7 -42 9 22 20 23 3 62 19 86 35 47 29 121 114 132 151 4
11 9 18 11 16 3 -3 -2 -22 -11 -43z m-735 -3 c-6 -12 -9 -21 -6 -21 14 0 -83
-93 -118 -114 -52 -30 -147 -50 -195 -41 l-36 8 30 9 c48 15 85 18 85 8 0 -6
11 -8 28 -4 74 18 163 85 197 148 11 19 21 34 23 31 2 -2 -1 -13 -8 -24z
m-740 -174 c0 -9 -14 -11 -47 -7 l-48 4 45 7 c25 3 46 7 48 7 1 1 2 -4 2 -11z
m-825 -267 c0 -18 -6 -26 -23 -28 -24 -4 -38 18 -28 44 3 9 15 14 28 12 17 -2
23 -10 23 -28z m1695 17 c0 -2 -15 -16 -32 -33 l-33 -29 29 33 c28 30 36 37
36 29z m84 -48 c-47 -45 -54 -57 -54 -90 0 -22 -4 -39 -10 -39 -5 0 -10 17
-10 39 0 33 7 45 54 90 30 28 59 51 65 51 5 0 -15 -23 -45 -51z m-578 -13 c21
-43 6 -82 -36 -91 -57 -13 -101 35 -80 89 20 53 92 54 116 2z m-319 22 c5 -7
10 -32 11 -55 1 -49 -15 -63 -72 -63 l-36 0 0 65 0 65 44 0 c24 0 48 -6 53
-12z m93 -37 c0 -49 1 -50 33 -53 46 -4 40 -22 -10 -26 l-43 -3 0 65 c0 37 4
66 10 66 6 0 10 -22 10 -49z m393 42 c4 -3 2 -12 -4 -19 -8 -10 -16 -11 -31
-3 -25 13 -48 -4 -48 -37 0 -26 30 -47 54 -38 20 8 21 24 1 24 -8 0 -15 5 -15
10 0 6 11 10 25 10 21 0 25 -5 25 -29 0 -22 -6 -30 -25 -35 -73 -18 -121 43
-79 102 11 16 25 22 53 22 21 0 41 -3 44 -7z m510 -20 c-12 -2 -40 -24 -62
-48 -48 -53 -55 -41 -9 16 25 31 37 39 62 38 23 -1 25 -3 9 -6z m398 -52
c-116 -162 -410 -386 -607 -462 -104 -41 -222 -79 -237 -78 -7 0 31 15 84 33
265 92 520 262 724 484 53 58 67 67 36 23z m-1551 4 c0 -9 -9 -15 -25 -15 -16
0 -25 6 -25 15 0 9 9 15 25 15 16 0 25 -6 25 -15z m740 0 c0 -8 -9 -15 -20
-15 -11 0 -20 7 -20 15 0 8 9 15 20 15 11 0 20 -7 20 -15z m132 -35 c-4 -49
-4 -50 -130 -167 -70 -65 -118 -106 -107 -93 24 31 71 77 158 156 61 56 67 66
67 101 0 32 6 53 14 53 1 0 -1 -22 -2 -50z m361 10 c-4 -5 -31 -10 -60 -12
-40 -2 -49 0 -41 9 6 7 31 12 60 11 27 0 46 -4 41 -8z m-1616 -16 c-3 -3 -12
-4 -19 -1 -8 3 -5 6 6 6 11 1 17 -2 13 -5z m161 -1 c-21 -2 -55 -2 -75 0 -21
2 -4 4 37 4 41 0 58 -2 38 -4z m1168 -4 c3 -6 2 -15 -2 -19 -12 -12 -38 5 -30
19 9 14 23 14 32 0z m-1163 -56 c-7 -2 -19 -2 -25 0 -7 3 -2 5 12 5 14 0 19
-2 13 -5z m1204 -25 c-3 -7 -5 -2 -5 12 0 14 2 19 5 13 2 -7 2 -19 0 -25z
m310 2 l3 -25 -11 25 c-10 24 -11 24 -25 6 -11 -15 -14 -16 -14 -5 0 38 44 37
47 -1z m-368 -3 c12 -15 -3 -37 -26 -37 -7 0 -13 -3 -13 -7 0 -5 -51 -55 -113
-113 -123 -114 -110 -92 20 35 45 44 87 92 92 108 12 30 23 34 40 14z m-259
-60 c0 -2 -12 -14 -27 -28 l-28 -24 24 28 c23 25 31 32 31 24z m-957 -88 c14
-22 2 -49 -22 -49 -26 0 -42 29 -29 53 11 21 36 19 51 -4z m1217 11 c0 -6 -14
-17 -30 -24 -17 -7 -28 -15 -25 -17 3 -3 -9 -19 -26 -35 -30 -28 -31 -28 -19
-4 24 45 65 90 83 90 9 0 17 -5 17 -10z m70 -33 c0 -2 -10 -12 -22 -23 l-23
-19 19 23 c18 21 26 27 26 19z m-853 -153 c-3 -3 -12 -4 -19 -1 -8 3 -5 6 6 6
11 1 17 -2 13 -5z m70 0 c-3 -3 -12 -4 -19 -1 -8 3 -5 6 6 6 11 1 17 -2 13 -5z
m150 0 c-3 -3 -12 -4 -19 -1 -8 3 -5 6 6 6 11 1 17 -2 13 -5z m320 -100 c-3
-3 -12 -4 -19 -1 -8 3 -5 6 6 6 11 1 17 -2 13 -5z m-62 -14 c-16 -4 -46 -8
-65 -7 l-35 0 40 7 c22 4 51 7 65 7 22 1 22 0 -5 -7z m-377 -17 c-10 -2 -26
-2 -35 0 -10 3 -2 5 17 5 19 0 27 -2 18 -5z m250 0 c-16 -2 -40 -2 -55 0 -16
2 -3 4 27 4 30 0 43 -2 28 -4z"/>
<path d="M3700 3235 c0 -8 5 -15 10 -15 6 0 10 7 10 15 0 8 -4 15 -10 15 -5 0
-10 -7 -10 -15z"/>
<path d="M1829 3063 l-24 -28 28 24 c25 23 32 31 24 31 -2 0 -14 -12 -28 -27z"/>
<path d="M1357 2828 c-2 -7 0 -21 5 -31 9 -18 11 -18 29 -1 14 13 16 20 8 31
-14 16 -36 17 -42 1z"/>
<path d="M1740 2377 c-14 -12 -42 -36 -62 -52 -23 -19 -34 -35 -30 -42 5 -8
28 6 70 43 57 51 74 75 55 74 -5 0 -19 -11 -33 -23z"/>
<path d="M1720 2310 c-35 -32 -62 -62 -58 -65 9 -9 53 23 97 68 57 60 29 58
-39 -3z"/>
<path d="M1734 2274 l-61 -55 27 -67 c15 -37 34 -87 44 -112 26 -72 26 -72
120 -77 47 -3 86 -3 86 0 0 2 -11 29 -23 58 -13 30 -27 63 -31 73 -6 18 -11
15 -50 -23 -28 -28 -49 -41 -57 -36 -9 6 3 22 40 54 l52 46 -22 53 -22 53 -43
-42 c-24 -24 -46 -40 -49 -37 -4 3 15 26 40 50 l47 44 -15 37 c-9 20 -17 37
-19 36 -2 0 -31 -25 -64 -55z"/>
<path d="M2840 3144 c-18 -21 9 -49 39 -39 23 7 24 24 1 42 -20 16 -25 16 -40
-3z"/>
<path d="M2484 2797 c-3 -9 -2 -22 3 -31 7 -12 11 -12 25 -2 17 12 17 14 -2
31 -17 16 -20 16 -26 2z"/>
<path d="M2150 2734 c-36 -30 -74 -64 -85 -76 l-20 -21 30 21 c32 22 153 131
145 131 -3 0 -34 -25 -70 -55z"/>
<path d="M3605 3073 c-36 -33 -44 -44 -20 -25 38 28 93 83 84 82 -2 -1 -31
-26 -64 -57z"/>
<path d="M2966 2733 c-11 -11 -6 -23 9 -23 8 0 15 4 15 9 0 13 -16 22 -24 14z"/>
<path d="M3097 2484 c-8 -8 1 -24 14 -24 5 0 9 7 9 15 0 15 -12 20 -23 9z"/>
<path d="M1374 1699 c-3 -6 -2 -15 4 -21 13 -13 32 -2 32 18 0 16 -26 19 -36
3z"/>
<path d="M2536 1644 c-9 -8 -16 -22 -16 -29 0 -17 27 -45 44 -45 19 0 36 22
36 45 0 41 -36 58 -64 29z"/>
<path d="M2225 1650 c-4 -7 -3 -16 3 -22 14 -14 47 -6 47 12 0 18 -40 26 -50
10z"/>
<path d="M2230 1585 c0 -9 9 -15 25 -15 16 0 25 6 25 15 0 9 -9 15 -25 15 -16
0 -25 -6 -25 -15z"/>
<path d="M1810 1310 c0 -15 5 -20 18 -18 9 2 17 10 17 18 0 8 -8 16 -17 18
-13 2 -18 -3 -18 -18z"/>
<path d="M950 3479 c0 -5 5 -7 10 -4 6 3 10 8 10 11 0 2 -4 4 -10 4 -5 0 -10
-5 -10 -11z"/>
<path d="M2605 3480 c-4 -6 -3 -16 3 -22 6 -6 12 -6 17 2 4 6 3 16 -3 22 -6 6
-12 6 -17 -2z"/>
<path d="M1792 3439 c2 -6 8 -10 13 -10 5 0 11 4 13 10 2 6 -4 11 -13 11 -9 0
-15 -5 -13 -11z"/>
<path d="M2370 3367 c0 -51 4 -87 10 -87 6 0 10 4 10 10 0 5 18 20 40 32 22
13 40 25 40 28 0 3 -22 28 -50 55 l-50 49 0 -87z"/>
<path d="M4090 3314 c0 -9 5 -14 12 -12 18 6 21 28 4 28 -9 0 -16 -7 -16 -16z"/>
<path d="M1042 3219 c2 -6 18 -17 36 -25 31 -13 32 -12 32 11 0 22 -4 25 -36
25 -21 0 -34 -4 -32 -11z"/>
<path d="M4200 3100 c0 -5 5 -10 10 -10 6 0 10 5 10 10 0 6 -4 10 -10 10 -5 0
-10 -4 -10 -10z"/>
<path d="M1041 2942 c-29 -54 -80 -360 -62 -377 2 -3 33 -5 68 -5 l63 0 0 178
0 178 -30 22 c-28 21 -30 21 -39 4z"/>
<path d="M4226 2941 c-4 -5 -2 -12 3 -15 5 -4 12 -2 15 3 4 5 2 12 -3 15 -5 4
-12 2 -15 -3z"/>
<path d="M4190 2720 c-12 -7 -12 -12 -2 -22 9 -9 15 -9 24 0 16 16 -2 34 -22
22z"/>
<path d="M4177 2387 c-3 -8 -1 -20 4 -28 8 -12 12 -11 24 5 8 10 12 23 9 27
-8 14 -31 11 -37 -4z"/>
<path d="M4190 2070 c0 -5 5 -10 10 -10 6 0 10 5 10 10 0 6 -4 10 -10 10 -5 0
-10 -4 -10 -10z"/>
<path d="M775 2060 c-3 -5 -1 -10 4 -10 6 0 11 5 11 10 0 6 -2 10 -4 10 -3 0
-8 -4 -11 -10z"/>
<path d="M865 1905 c0 -13 3 -21 8 -18 4 2 7 10 7 18 0 8 -3 16 -7 18 -5 3 -8
-5 -8 -18z"/>
<path d="M4093 1694 c-4 -11 1 -22 12 -31 16 -11 21 -11 33 1 8 8 12 22 9 30
-8 21 -46 21 -54 0z"/>
<path d="M1081 1423 c-1 -6 4 -15 10 -19 13 -8 36 13 25 23 -4 4 -11 1 -15 -6
-7 -11 -10 -11 -14 0 -3 9 -6 10 -6 2z"/>
<path d="M3880 1414 c0 -9 5 -14 12 -12 18 6 21 28 4 28 -9 0 -16 -7 -16 -16z"/>
<path d="M1268 1233 c-18 -21 -13 -43 10 -42 11 0 12 2 5 6 -22 8 -14 23 10
20 14 -1 22 3 22 13 0 22 -29 24 -47 3z"/>
<path d="M1456 1188 c-36 -42 -43 -54 -30 -56 18 -4 93 73 94 96 0 24 -19 12
-64 -40z"/>
<path d="M3700 1220 c-13 -8 -12 -10 3 -10 9 0 17 5 17 10 0 12 -1 12 -20 0z"/>
<path d="M1355 1070 c-3 -5 -1 -10 4 -10 6 0 11 5 11 10 0 6 -2 10 -4 10 -3 0
-8 -4 -11 -10z"/>
<path d="M1647 960 c3 -11 9 -20 14 -20 5 0 9 9 9 20 0 11 -6 20 -14 20 -9 0
-12 -7 -9 -20z"/>
<path d="M3342 953 c2 -10 10 -18 18 -18 8 0 16 8 18 18 2 12 -3 17 -18 17
-15 0 -20 -5 -18 -17z"/>
<path d="M1825 900 c-7 -12 2 -30 16 -30 12 0 12 27 0 35 -5 3 -12 1 -16 -5z"/>
<path d="M3175 880 c-3 -5 -1 -10 4 -10 6 0 11 5 11 10 0 6 -2 10 -4 10 -3 0
-8 -4 -11 -10z"/>
<path d="M2000 831 c12 -8 13 -14 3 -30 -11 -17 -10 -19 3 -14 19 7 15 45 -6
50 -13 4 -13 3 0 -6z"/>
<path d="M1971 804 c0 -11 3 -14 6 -6 3 7 2 16 -1 19 -3 4 -6 -2 -5 -13z"/>
<path d="M3020 808 c0 -12 18 -18 34 -12 25 9 19 22 -9 20 -14 0 -25 -4 -25
-8z"/>
</g>
</svg>
