<svg xmlns="http://www.w3.org/2000/svg" xmlns:v="https://svgstorm.com"
viewBox = "0 0 270 270"
width="270"
height="270">
<g fill="None" fill-opacity="0.0" stroke="#000000" stroke-opacity="0.00" stroke-width="0.3"><path d="
M 0.00 270.00 
L 270.00 270.00
L 270.00 0.00
L 0.00 0.00
L 0.00 270.00
M 154.00 82.00 
C 159.87 90.82 165.67 101.74 172.00 110.00
C 175.75 114.89 178.42 120.08 182.00 125.00
C 185.93 129.05 188.98 134.12 192.00 139.00
C 194.20 142.56 195.91 146.58 198.00 150.00
C 198.76 150.84 199.24 152.08 200.00 153.00
C 200.22 153.26 200.79 153.70 201.00 154.00
C 203.52 155.89 204.27 158.78 205.00 160.00
C 210.93 167.98 216.24 176.42 221.00 185.00
C 210.33 185.00 199.67 185.00 189.00 185.00
C 186.67 185.00 184.33 185.00 182.00 185.00
C 177.29 185.45 171.39 186.00 166.00 186.00
C 149.00 186.00 132.00 186.00 115.00 186.00
C 99.43 186.00 82.77 186.43 68.00 185.00
C 64.00 185.00 60.00 185.00 56.00 185.00
C 57.59 181.92 58.89 178.77 61.00 176.00
C 59.39 174.46 63.11 173.14 64.00 172.00
C 66.15 167.81 68.96 164.38 72.00 161.00
C 73.12 153.37 80.05 147.28 83.75 140.75 C 87.46 134.23 91.66 127.19 96.00 121.00
C 97.27 118.50 97.45 118.80 99.00 117.00
C 111.63 96.92 124.97 77.41 137.00 57.00
C 144.60 63.84 148.54 73.57 154.00 82.00 Z"/>
</g>
<g fill="None" fill-opacity="0.0" stroke="#D4CBB0" stroke-opacity="0.95" stroke-width="0.3"><path d="
M 99.00 117.00 
C 98.08 118.47 96.87 119.76 96.00 121.00
C 91.66 127.19 87.46 134.23 83.75 140.75 C 80.05 147.28 73.12 153.37 72.00 161.00
C 72.22 160.75 73.00 161.00 73.00 161.00
C 73.80 160.27 74.41 158.86 75.00 158.00
C 84.46 144.34 93.29 130.32 103.00 117.00
C 106.90 109.92 111.60 103.48 116.00 97.00
C 122.01 88.15 126.93 72.96 135.00 66.00
C 138.02 63.39 142.30 68.98 143.92 73.08 C 145.53 77.18 150.46 81.52 153.00 85.00
C 153.05 83.77 153.98 83.11 154.00 82.00
C 148.54 73.57 144.60 63.84 137.00 57.00
C 124.97 77.41 111.63 96.92 99.00 117.00 Z"/>
</g>
<g fill="None" fill-opacity="0.0" stroke="#231619" stroke-opacity="1.00" stroke-width="0.3"><path d="
M 135.00 66.00 
C 135.98 65.49 135.78 69.02 137.00 71.00
C 138.95 74.17 141.59 79.16 144.00 82.00
C 144.60 82.71 145.41 83.23 146.00 84.00
C 147.83 86.39 149.21 89.44 151.00 92.00
C 151.81 93.15 153.03 94.82 154.00 96.00
C 155.52 97.85 156.83 98.75 158.00 101.00
C 161.61 105.31 164.83 108.60 167.00 114.00
C 167.78 115.94 167.96 118.07 169.00 120.00
C 169.67 121.23 171.20 123.88 172.00 125.00
C 182.37 139.52 192.11 154.97 202.00 170.00
C 202.35 170.09 202.73 170.87 203.00 171.00
C 204.39 171.69 205.54 169.96 206.00 170.00
C 199.33 161.48 194.50 150.46 189.00 141.00
C 188.53 140.19 188.34 140.11 188.00 139.00
C 187.17 137.65 185.28 136.98 185.00 135.00
C 183.25 134.76 183.41 133.16 183.00 132.00
C 179.55 127.01 175.28 122.02 172.00 117.00
C 170.41 115.50 170.15 116.38 169.00 114.00
C 168.51 112.98 167.81 112.60 168.00 111.00
C 168.06 110.51 168.00 110.00 168.00 110.00
C 164.87 102.03 157.94 91.78 153.00 85.00
C 150.46 81.52 145.53 77.18 143.92 73.08 C 142.30 68.98 138.02 63.39 135.00 66.00 Z"/>
</g>
<g fill="None" fill-opacity="0.0" stroke="#241619" stroke-opacity="0.73" stroke-width="0.3"><path d="
M 116.00 97.00 
C 118.29 95.19 121.85 93.44 124.00 91.00
C 127.16 85.56 136.02 77.34 137.00 71.00
C 135.78 69.02 135.98 65.49 135.00 66.00
C 126.93 72.96 122.01 88.15 116.00 97.00 Z"/>
</g>
<g fill="None" fill-opacity="0.0" stroke="#D8D3B1" stroke-opacity="1.00" stroke-width="0.3"><path d="
M 124.00 91.00 
C 120.92 96.30 111.56 105.79 112.00 112.00
C 112.34 111.77 113.00 112.00 113.00 112.00
C 113.50 112.00 114.74 112.25 115.00 112.00
C 122.20 99.87 129.84 88.13 137.00 76.00
C 138.90 77.99 140.38 80.66 142.00 83.00
C 142.13 82.70 143.68 82.00 144.00 82.00
C 141.59 79.16 138.95 74.17 137.00 71.00
C 136.02 77.34 127.16 85.56 124.00 91.00 Z"/>
</g>
<g fill="None" fill-opacity="0.0" stroke="#211416" stroke-opacity="1.00" stroke-width="0.3"><path d="
M 115.00 112.00 
C 109.40 121.44 103.50 130.54 98.00 140.00
C 96.63 143.53 95.64 147.49 94.00 151.00
C 95.09 150.03 96.47 148.93 98.00 149.00
C 97.19 152.50 95.02 155.53 94.00 159.00
C 98.00 159.00 102.00 159.00 106.00 159.00
C 108.67 159.00 113.20 159.89 115.00 158.00
C 113.37 157.52 112.27 154.86 111.00 154.00
C 108.90 153.25 100.32 149.73 102.79 146.77 C 105.26 143.81 110.94 151.26 112.00 153.00
C 121.23 159.20 134.82 160.42 146.00 160.00 C 157.18 159.58 164.43 149.03 175.00 147.00
C 171.49 152.89 164.40 154.66 160.00 159.00
C 167.00 159.00 174.00 159.00 181.00 159.00
C 181.50 159.00 182.51 159.08 183.00 159.00
C 182.68 159.21 181.96 156.27 182.00 156.00
C 180.88 153.81 177.80 151.99 178.00 149.00
C 180.28 149.17 181.48 152.35 183.00 154.00
C 183.40 153.80 184.00 154.00 184.00 154.00
C 184.04 153.96 186.07 151.75 186.00 152.00
C 179.52 143.29 171.79 132.73 167.00 123.00
C 166.24 121.46 166.00 119.56 165.00 118.00
C 164.20 116.75 162.74 115.99 162.00 115.00
C 162.11 115.89 161.72 117.15 162.00 118.00
C 162.58 119.74 164.88 120.73 164.00 123.00
C 161.38 122.14 158.00 121.77 156.00 120.00
C 146.76 117.31 127.86 115.20 119.00 120.00
C 117.88 121.13 117.97 122.06 116.00 122.00
C 111.78 121.87 118.54 112.11 121.00 111.00
C 122.54 100.51 134.61 87.58 145.00 95.00
C 148.63 97.59 149.76 101.38 152.00 105.00
C 153.21 106.96 155.14 108.62 156.00 111.00
C 156.67 110.85 159.43 111.67 160.00 112.00
C 156.73 107.44 155.02 101.72 152.00 97.00
C 151.46 96.16 150.63 94.96 150.00 94.00
C 148.28 91.39 145.89 88.64 144.00 86.00
C 143.36 85.10 142.63 84.08 142.00 83.00
C 140.38 80.66 138.90 77.99 137.00 76.00
C 129.84 88.13 122.20 99.87 115.00 112.00
M 158.00 125.00 
C 166.14 129.79 170.80 131.59 176.00 140.00
C 177.34 140.98 178.85 143.25 179.00 145.00
C 177.43 144.04 175.75 142.68 175.00 141.00
C 174.75 141.25 174.00 141.00 174.00 141.00
C 171.77 141.98 171.61 145.80 168.00 145.00
C 167.29 145.43 164.85 145.00 164.00 145.00
C 160.09 146.01 155.11 151.18 151.00 153.00
C 142.55 156.73 132.53 155.00 124.00 153.00
C 123.53 152.89 122.39 152.79 122.00 153.00
C 120.63 153.71 118.98 154.47 117.00 154.00
C 117.00 152.67 117.00 151.33 117.00 150.00
C 116.56 149.84 116.00 150.00 116.00 150.00
C 112.00 154.06 106.40 147.28 106.00 143.00
C 105.95 142.50 106.00 142.00 106.00 142.00
C 105.80 140.03 106.18 138.68 107.00 137.00
C 106.20 137.80 104.87 138.36 104.00 139.00
C 102.66 139.98 101.42 141.23 100.00 142.00
C 102.98 132.63 112.64 124.99 122.00 123.00
C 119.58 126.58 114.38 127.42 112.00 131.00
C 112.28 130.84 116.61 130.59 118.00 130.00
C 122.42 126.78 127.83 124.77 133.00 123.00
C 133.80 122.23 133.72 122.16 135.00 122.00
C 139.25 119.03 138.13 120.13 144.07 120.93 C 150.02 121.72 152.31 119.26 158.00 125.00 Z"/>
</g>
<g fill="None" fill-opacity="0.0" stroke="#CCBBB6" stroke-opacity="1.00" stroke-width="0.3"><path d="
M 142.00 83.00 
C 142.63 84.08 143.36 85.10 144.00 86.00
C 144.28 84.78 145.86 85.41 146.00 84.00
C 145.41 83.23 144.60 82.71 144.00 82.00
C 143.68 82.00 142.13 82.70 142.00 83.00 Z"/>
</g>
<g fill="None" fill-opacity="0.0" stroke="#74C1C0" stroke-opacity="0.91" stroke-width="0.3"><path d="
M 153.00 85.00 
C 157.94 91.78 164.87 102.03 168.00 110.00
C 167.95 110.06 169.95 110.97 170.00 111.00
C 170.33 110.98 170.99 109.45 172.00 110.00
C 165.67 101.74 159.87 90.82 154.00 82.00
C 153.98 83.11 153.05 83.77 153.00 85.00 Z"/>
</g>
<g fill="None" fill-opacity="0.0" stroke="#AF8A85" stroke-opacity="1.00" stroke-width="0.3"><path d="
M 144.00 86.00 
C 145.89 88.64 148.28 91.39 150.00 94.00
C 150.08 93.17 150.98 92.91 151.00 92.00
C 149.21 89.44 147.83 86.39 146.00 84.00
C 145.86 85.41 144.28 84.78 144.00 86.00 Z"/>
</g>
<g fill="None" fill-opacity="0.0" stroke="#1E1718" stroke-opacity="1.00" stroke-width="0.3"><path d="
M 116.00 97.00 
C 111.60 103.48 106.90 109.92 103.00 117.00
C 99.36 123.60 94.75 132.45 90.25 138.25 C 85.74 144.04 82.90 154.87 76.00 158.00
C 76.82 162.58 73.19 163.20 71.00 166.00
C 69.43 169.59 67.24 172.82 65.00 176.00
C 65.09 176.99 64.93 178.01 65.00 179.00
C 84.33 179.00 103.67 179.00 123.00 179.00
C 139.33 179.00 155.67 179.00 172.00 179.00
C 185.67 179.00 199.33 179.00 213.00 179.00
C 211.52 176.58 210.49 173.49 208.00 172.00
C 208.74 178.31 193.31 175.32 191.00 175.00
C 190.17 175.42 187.95 175.00 187.00 175.00
C 176.67 175.00 166.33 175.00 156.00 175.00
C 149.42 175.00 142.17 175.78 136.00 174.00
C 129.44 174.77 122.86 175.00 116.00 175.00
C 112.90 175.00 109.36 174.23 107.00 174.00
C 103.33 174.00 99.67 174.00 96.00 174.00
C 94.33 174.00 92.67 174.00 91.00 174.00
C 86.63 174.46 81.08 175.46 76.00 175.00
C 74.57 175.56 71.47 175.19 72.00 173.00
C 71.74 169.37 73.91 167.05 77.00 166.00
C 77.09 165.65 77.65 165.11 78.00 165.00
C 80.31 161.49 83.03 157.46 85.00 154.00
C 91.29 142.95 97.91 131.77 105.00 121.00
C 105.69 119.96 106.07 119.71 107.00 119.00
C 108.98 116.73 109.41 113.77 112.00 112.00
C 111.56 105.79 120.92 96.30 124.00 91.00
C 121.85 93.44 118.29 95.19 116.00 97.00 Z"/>
</g>
<g fill="None" fill-opacity="0.0" stroke="#9A998D" stroke-opacity="1.00" stroke-width="0.3"><path d="
M 150.00 94.00 
C 150.63 94.96 151.46 96.16 152.00 97.00
C 152.23 97.00 153.09 95.87 154.00 96.00
C 153.03 94.82 151.81 93.15 151.00 92.00
C 150.98 92.91 150.08 93.17 150.00 94.00 Z"/>
</g>
<g fill="None" fill-opacity="0.0" stroke="#D4CEB7" stroke-opacity="1.00" stroke-width="0.3"><path d="
M 121.00 111.00 
C 121.41 110.81 122.00 111.00 122.00 111.00
C 123.62 108.52 126.27 108.07 128.00 106.00
C 130.60 100.51 132.07 97.10 139.00 97.00
C 140.19 96.98 141.86 97.31 143.00 97.00
C 143.82 96.77 144.69 95.07 145.00 95.00
C 134.61 87.58 122.54 100.51 121.00 111.00 Z"/>
</g>
<g fill="None" fill-opacity="0.0" stroke="#64B3BA" stroke-opacity="1.00" stroke-width="0.3"><path d="
M 143.00 97.00 
C 142.84 97.52 144.65 100.45 145.00 101.00
C 146.91 103.50 150.10 103.56 152.00 105.00
C 149.76 101.38 148.63 97.59 145.00 95.00
C 144.69 95.07 143.82 96.77 143.00 97.00 Z"/>
</g>
<g fill="None" fill-opacity="0.0" stroke="#7BC0BB" stroke-opacity="1.00" stroke-width="0.3"><path d="
M 152.00 97.00 
C 155.02 101.72 156.73 107.44 160.00 112.00
C 161.00 113.40 161.75 112.89 162.00 115.00
C 162.74 115.99 164.20 116.75 165.00 118.00
C 166.19 119.04 167.99 119.23 169.00 120.00
C 167.96 118.07 167.78 115.94 167.00 114.00
C 164.38 109.54 160.50 105.78 158.00 101.00
C 156.83 98.75 155.52 97.85 154.00 96.00
C 153.09 95.87 152.23 97.00 152.00 97.00 Z"/>
</g>
<g fill="None" fill-opacity="0.0" stroke="#1F0D15" stroke-opacity="1.00" stroke-width="0.3"><path d="
M 128.00 106.00 
C 126.51 109.15 125.12 113.26 123.00 116.00
C 126.92 114.27 133.61 114.61 138.00 115.00 C 142.39 115.39 150.15 113.94 154.00 116.00
C 153.42 114.64 152.79 111.44 151.00 109.00
C 150.13 107.81 148.94 106.29 148.00 105.00
C 146.43 103.21 140.91 97.47 139.00 97.00
C 132.07 97.10 130.60 100.51 128.00 106.00 Z"/>
</g>
<g fill="None" fill-opacity="0.0" stroke="#222A2D" stroke-opacity="1.00" stroke-width="0.3"><path d="
M 148.00 105.00 
C 147.02 103.65 145.87 102.37 145.00 101.00
C 144.65 100.45 142.84 97.52 143.00 97.00
C 141.86 97.31 140.19 96.98 139.00 97.00
C 140.91 97.47 146.43 103.21 148.00 105.00 Z"/>
</g>
<g fill="None" fill-opacity="0.0" stroke="#4D728A" stroke-opacity="1.00" stroke-width="0.3"><path d="
M 148.00 105.00 
C 148.94 106.29 150.13 107.81 151.00 109.00
C 152.38 110.20 154.50 110.89 156.00 112.00
C 155.77 111.84 156.00 111.00 156.00 111.00
C 155.14 108.62 153.21 106.96 152.00 105.00
C 150.10 103.56 146.91 103.50 145.00 101.00
C 145.87 102.37 147.02 103.65 148.00 105.00 Z"/>
</g>
<g fill="None" fill-opacity="0.0" stroke="#254446" stroke-opacity="1.00" stroke-width="0.3"><path d="
M 167.00 114.00 
C 164.83 108.60 161.61 105.31 158.00 101.00
C 160.50 105.78 164.38 109.54 167.00 114.00 Z"/>
</g>
<g fill="None" fill-opacity="0.0" stroke="#75564E" stroke-opacity="1.00" stroke-width="0.3"><path d="
M 122.00 111.00 
C 120.86 115.08 116.37 117.64 116.00 122.00
C 117.97 122.06 117.88 121.13 119.00 120.00
C 120.27 118.71 122.02 117.27 123.00 116.00
C 125.12 113.26 126.51 109.15 128.00 106.00
C 126.27 108.07 123.62 108.52 122.00 111.00 Z"/>
</g>
<g fill="None" fill-opacity="0.0" stroke="#5B4269" stroke-opacity="1.00" stroke-width="0.3"><path d="
M 154.00 116.00 
C 154.11 116.26 155.90 119.88 156.00 120.00
C 158.00 121.77 161.38 122.14 164.00 123.00
C 164.88 120.73 162.58 119.74 162.00 118.00
C 160.62 115.82 158.20 113.54 156.00 112.00
C 154.50 110.89 152.38 110.20 151.00 109.00
C 152.79 111.44 153.42 114.64 154.00 116.00 Z"/>
</g>
<g fill="None" fill-opacity="0.0" stroke="#526A93" stroke-opacity="1.00" stroke-width="0.3"><path d="
M 168.00 111.00 
C 170.71 112.89 172.77 116.10 176.00 117.00
C 175.84 116.56 176.00 116.00 176.00 116.00
C 173.86 114.50 171.97 112.31 170.00 111.00
C 169.95 110.97 167.95 110.06 168.00 110.00
C 168.00 110.00 168.06 110.51 168.00 111.00 Z"/>
</g>
<g fill="None" fill-opacity="0.0" stroke="#75ACCA" stroke-opacity="1.00" stroke-width="0.3"><path d="
M 170.00 111.00 
C 171.97 112.31 173.86 114.50 176.00 116.00
C 175.64 115.27 172.15 110.08 172.00 110.00
C 170.99 109.45 170.33 110.98 170.00 111.00 Z"/>
</g>
<g fill="None" fill-opacity="0.0" stroke="#6895AF" stroke-opacity="0.66" stroke-width="0.3"><path d="
M 176.00 116.00 
C 176.00 116.00 175.84 116.56 176.00 117.00
C 176.48 118.36 177.31 119.74 178.00 121.00
C 178.97 122.42 180.80 123.77 182.00 125.00
C 178.42 120.08 175.75 114.89 172.00 110.00
C 172.15 110.08 175.64 115.27 176.00 116.00 Z"/>
</g>
<g fill="None" fill-opacity="0.0" stroke="#A88E89" stroke-opacity="1.00" stroke-width="0.3"><path d="
M 116.00 122.00 
C 116.37 117.64 120.86 115.08 122.00 111.00
C 122.00 111.00 121.41 110.81 121.00 111.00
C 118.54 112.11 111.78 121.87 116.00 122.00 Z"/>
</g>
<g fill="None" fill-opacity="0.0" stroke="#232444" stroke-opacity="1.00" stroke-width="0.3"><path d="
M 156.00 112.00 
C 158.20 113.54 160.62 115.82 162.00 118.00
C 161.72 117.15 162.11 115.89 162.00 115.00
C 161.75 112.89 161.00 113.40 160.00 112.00
C 159.43 111.67 156.67 110.85 156.00 111.00
C 156.00 111.00 155.77 111.84 156.00 112.00 Z"/>
</g>
<g fill="None" fill-opacity="0.0" stroke="#57436E" stroke-opacity="1.00" stroke-width="0.3"><path d="
M 169.00 114.00 
C 169.12 114.12 171.03 115.52 172.00 117.00
C 175.28 122.02 179.55 127.01 183.00 132.00
C 182.56 130.77 182.49 129.25 182.00 128.00
C 181.03 125.50 179.27 123.33 178.00 121.00
C 177.31 119.74 176.48 118.36 176.00 117.00
C 172.77 116.10 170.71 112.89 168.00 111.00
C 167.81 112.60 168.51 112.98 169.00 114.00 Z"/>
</g>
<g fill="None" fill-opacity="0.0" stroke="#C7AEA4" stroke-opacity="1.00" stroke-width="0.3"><path d="
M 107.00 119.00 
C 109.30 117.24 112.68 115.02 113.00 112.00
C 113.00 112.00 112.34 111.77 112.00 112.00
C 109.41 113.77 108.98 116.73 107.00 119.00 Z"/>
</g>
<g fill="None" fill-opacity="0.0" stroke="#93695B" stroke-opacity="1.00" stroke-width="0.3"><path d="
M 107.00 119.00 
C 106.07 119.71 105.69 119.96 105.00 121.00
C 102.02 132.07 93.07 144.17 85.00 154.00
C 83.03 157.46 80.31 161.49 78.00 165.00
C 78.26 164.92 80.84 164.83 81.00 165.00
C 85.21 156.40 93.25 148.17 98.00 140.00
C 103.50 130.54 109.40 121.44 115.00 112.00
C 114.74 112.25 113.50 112.00 113.00 112.00
C 112.68 115.02 109.30 117.24 107.00 119.00 Z"/>
</g>
<g fill="None" fill-opacity="0.0" stroke="#24173F" stroke-opacity="1.00" stroke-width="0.3"><path d="
M 169.00 114.00 
C 170.15 116.38 170.41 115.50 172.00 117.00
C 171.03 115.52 169.12 114.12 169.00 114.00 Z"/>
</g>
<g fill="None" fill-opacity="0.0" stroke="#DBD5C7" stroke-opacity="1.00" stroke-width="0.3"><path d="
M 123.00 116.00 
C 122.02 117.27 120.27 118.71 119.00 120.00
C 127.86 115.20 146.76 117.31 156.00 120.00
C 155.90 119.88 154.11 116.26 154.00 116.00
C 150.15 113.94 142.39 115.39 138.00 115.00 C 133.61 114.61 126.92 114.27 123.00 116.00 Z"/>
</g>
<g fill="None" fill-opacity="0.0" stroke="#372A25" stroke-opacity="0.55" stroke-width="0.3"><path d="
M 96.00 121.00 
C 96.87 119.76 98.08 118.47 99.00 117.00
C 97.45 118.80 97.27 118.50 96.00 121.00 Z"/>
</g>
<g fill="None" fill-opacity="0.0" stroke="#8A6C5D" stroke-opacity="1.00" stroke-width="0.3"><path d="
M 75.00 158.00 
C 75.27 157.75 76.00 158.00 76.00 158.00
C 82.90 154.87 85.74 144.04 90.25 138.25 C 94.75 132.45 99.36 123.60 103.00 117.00
C 93.29 130.32 84.46 144.34 75.00 158.00 Z"/>
</g>
<g fill="None" fill-opacity="0.0" stroke="#A88C88" stroke-opacity="1.00" stroke-width="0.3"><path d="
M 167.00 123.00 
C 168.52 124.78 170.39 124.07 172.00 125.00
C 171.20 123.88 169.67 121.23 169.00 120.00
C 167.99 119.23 166.19 119.04 165.00 118.00
C 166.00 119.56 166.24 121.46 167.00 123.00 Z"/>
</g>
<g fill="None" fill-opacity="0.0" stroke="#192931" stroke-opacity="1.00" stroke-width="0.3"><path d="
M 135.00 122.00 
C 138.52 121.57 141.82 122.11 145.00 123.00
C 155.39 125.90 164.16 133.73 171.00 142.00
C 170.45 143.01 169.02 143.44 168.00 144.00
C 167.85 144.05 168.00 145.00 168.00 145.00
C 171.61 145.80 171.77 141.98 174.00 141.00
C 172.83 140.31 171.94 139.01 171.00 138.00
C 166.74 133.45 162.27 129.32 158.00 125.00
C 152.31 119.26 150.02 121.72 144.07 120.93 C 138.13 120.13 139.25 119.03 135.00 122.00 Z"/>
</g>
<g fill="None" fill-opacity="0.0" stroke="#AF9286" stroke-opacity="1.00" stroke-width="0.3"><path d="
M 85.00 154.00 
C 93.07 144.17 102.02 132.07 105.00 121.00
C 97.91 131.77 91.29 142.95 85.00 154.00 Z"/>
</g>
<g fill="None" fill-opacity="0.0" stroke="#6199B5" stroke-opacity="0.85" stroke-width="0.3"><path d="
M 182.00 128.00 
C 183.62 130.36 184.70 132.34 186.00 135.00
C 187.26 135.98 187.58 137.64 188.00 139.00
C 188.34 140.11 188.53 140.19 189.00 141.00
C 188.96 140.69 189.69 140.20 190.00 140.00
C 190.52 139.67 190.93 138.53 192.00 139.00
C 188.98 134.12 185.93 129.05 182.00 125.00
C 180.80 123.77 178.97 122.42 178.00 121.00
C 179.27 123.33 181.03 125.50 182.00 128.00 Z"/>
</g>
<g fill="None" fill-opacity="0.0" stroke="#B8D7D2" stroke-opacity="1.00" stroke-width="0.3"><path d="
M 133.00 123.00 
C 132.25 123.73 131.73 125.38 131.00 126.00
C 138.72 122.59 149.97 125.32 152.00 135.00
C 152.80 138.80 151.68 143.32 149.00 146.00
C 150.43 145.88 152.09 147.50 154.00 147.00
C 154.32 146.80 154.79 146.04 155.00 146.00
C 153.70 145.79 152.31 146.16 151.00 146.00
C 156.77 138.06 150.83 128.84 145.00 123.00
C 141.82 122.11 138.52 121.57 135.00 122.00
C 133.72 122.16 133.80 122.23 133.00 123.00 Z"/>
</g>
<g fill="None" fill-opacity="0.0" stroke="#D5D2BB" stroke-opacity="1.00" stroke-width="0.3"><path d="
M 104.00 139.00 
C 105.59 137.54 107.51 135.49 109.00 134.00
C 109.84 132.92 111.01 131.98 112.00 131.00
C 114.38 127.42 119.58 126.58 122.00 123.00
C 112.64 124.99 102.98 132.63 100.00 142.00
C 101.42 141.23 102.66 139.98 104.00 139.00 Z"/>
</g>
<g fill="None" fill-opacity="0.0" stroke="#60D4C2" stroke-opacity="1.00" stroke-width="0.3"><path d="
M 118.00 130.00 
C 113.60 133.20 109.84 138.32 106.00 142.00
C 106.00 142.00 105.95 142.50 106.00 143.00
C 109.63 144.94 113.24 147.12 116.00 150.00
C 116.00 150.00 116.56 149.84 117.00 150.00
C 118.90 150.69 120.20 152.27 122.00 153.00
C 122.39 152.79 123.53 152.89 124.00 153.00
C 125.59 152.22 129.27 150.33 129.00 148.00
C 122.18 143.53 121.91 131.31 129.00 127.00
C 129.69 126.58 130.28 126.32 131.00 126.00
C 131.73 125.38 132.25 123.73 133.00 123.00
C 127.83 124.77 122.42 126.78 118.00 130.00 Z"/>
</g>
<g fill="None" fill-opacity="0.0" stroke="#63D8C4" stroke-opacity="1.00" stroke-width="0.3"><path d="
M 155.00 146.00 
C 157.49 145.59 159.59 145.56 162.00 145.00
C 163.63 144.64 165.69 143.45 168.00 144.00
C 169.02 143.44 170.45 143.01 171.00 142.00
C 164.16 133.73 155.39 125.90 145.00 123.00
C 150.83 128.84 156.77 138.06 151.00 146.00
C 152.31 146.16 153.70 145.79 155.00 146.00 Z"/>
</g>
<g fill="None" fill-opacity="0.0" stroke="#8A6160" stroke-opacity="1.00" stroke-width="0.3"><path d="
M 186.00 152.00 
C 188.64 155.54 191.51 159.14 194.00 163.00
C 194.69 164.07 196.41 168.58 197.00 169.00
C 198.50 169.08 199.07 169.76 200.00 170.00
C 200.46 169.86 201.53 169.88 202.00 170.00
C 192.11 154.97 182.37 139.52 172.00 125.00
C 170.39 124.07 168.52 124.78 167.00 123.00
C 171.79 132.73 179.52 143.29 186.00 152.00 Z"/>
</g>
<g fill="None" fill-opacity="0.0" stroke="#22121C" stroke-opacity="1.00" stroke-width="0.3"><path d="
M 131.00 126.00 
C 130.28 126.32 129.69 126.58 129.00 127.00
C 125.66 130.66 124.97 137.10 126.00 141.00
C 126.16 140.13 131.76 145.53 134.23 146.77 C 136.70 148.01 145.08 148.22 148.00 146.00
C 145.56 142.26 148.69 137.10 152.00 135.00
C 149.97 125.32 138.72 122.59 131.00 126.00 Z"/>
</g>
<g fill="None" fill-opacity="0.0" stroke="#77BBB1" stroke-opacity="1.00" stroke-width="0.3"><path d="
M 171.00 138.00 
C 171.87 138.64 173.90 139.29 175.00 140.00
C 175.35 140.23 176.00 140.00 176.00 140.00
C 170.80 131.59 166.14 129.79 158.00 125.00
C 162.27 129.32 166.74 133.45 171.00 138.00 Z"/>
</g>
<g fill="None" fill-opacity="0.0" stroke="#BFE1DD" stroke-opacity="1.00" stroke-width="0.3"><path d="
M 129.00 148.00 
C 128.88 146.98 127.43 145.92 127.00 145.00
C 126.47 143.86 126.33 142.26 126.00 141.00
C 124.97 137.10 125.66 130.66 129.00 127.00
C 121.91 131.31 122.18 143.53 129.00 148.00 Z"/>
</g>
<g fill="None" fill-opacity="0.0" stroke="#506091" stroke-opacity="1.00" stroke-width="0.3"><path d="
M 183.00 132.00 
C 183.41 133.16 183.25 134.76 185.00 135.00
C 185.49 135.07 186.00 135.00 186.00 135.00
C 184.70 132.34 183.62 130.36 182.00 128.00
C 182.49 129.25 182.56 130.77 183.00 132.00 Z"/>
</g>
<g fill="None" fill-opacity="0.0" stroke="#1A2726" stroke-opacity="1.00" stroke-width="0.3"><path d="
M 112.00 131.00 
C 111.01 131.98 109.84 132.92 109.00 134.00
C 108.33 134.86 107.72 136.28 107.00 137.00
C 106.18 138.68 105.80 140.03 106.00 142.00
C 109.84 138.32 113.60 133.20 118.00 130.00
C 116.61 130.59 112.28 130.84 112.00 131.00 Z"/>
</g>
<g fill="None" fill-opacity="0.0" stroke="#6C655F" stroke-opacity="1.00" stroke-width="0.3"><path d="
M 104.00 139.00 
C 104.87 138.36 106.20 137.80 107.00 137.00
C 107.72 136.28 108.33 134.86 109.00 134.00
C 107.51 135.49 105.59 137.54 104.00 139.00 Z"/>
</g>
<g fill="None" fill-opacity="0.0" stroke="#211C1D" stroke-opacity="1.00" stroke-width="0.3"><path d="
M 126.00 141.00 
C 126.33 142.26 126.47 143.86 127.00 145.00
C 131.25 152.36 143.79 151.21 149.00 146.00
C 151.68 143.32 152.80 138.80 152.00 135.00
C 148.69 137.10 145.56 142.26 148.00 146.00
C 145.08 148.22 136.70 148.01 134.23 146.77 C 131.76 145.53 126.16 140.13 126.00 141.00 Z"/>
</g>
<g fill="None" fill-opacity="0.0" stroke="#8C89A4" stroke-opacity="1.00" stroke-width="0.3"><path d="
M 188.00 139.00 
C 187.58 137.64 187.26 135.98 186.00 135.00
C 186.00 135.00 185.49 135.07 185.00 135.00
C 185.28 136.98 187.17 137.65 188.00 139.00 Z"/>
</g>
<g fill="None" fill-opacity="0.0" stroke="#4C7575" stroke-opacity="1.00" stroke-width="0.3"><path d="
M 174.00 141.00 
C 174.00 141.00 174.75 141.25 175.00 141.00
C 174.80 140.60 175.00 140.00 175.00 140.00
C 173.90 139.29 171.87 138.64 171.00 138.00
C 171.94 139.01 172.83 140.31 174.00 141.00 Z"/>
</g>
<g fill="None" fill-opacity="0.0" stroke="#65C2B9" stroke-opacity="0.82" stroke-width="0.3"><path d="
M 190.00 140.00 
C 192.27 140.84 196.18 147.99 198.00 150.00
C 195.91 146.58 194.20 142.56 192.00 139.00
C 190.93 138.53 190.52 139.67 190.00 140.00 Z"/>
</g>
<g fill="None" fill-opacity="0.0" stroke="#371918" stroke-opacity="1.00" stroke-width="0.3"><path d="
M 81.00 165.00 
C 80.80 165.40 81.00 166.00 81.00 166.00
C 84.31 166.30 87.07 165.27 90.00 165.00
C 90.24 164.80 90.00 164.00 90.00 164.00
C 89.00 163.98 88.00 164.01 87.00 164.00
C 87.85 159.01 92.06 155.54 94.00 151.00
C 95.64 147.49 96.63 143.53 98.00 140.00
C 93.25 148.17 85.21 156.40 81.00 165.00 Z"/>
</g>
<g fill="None" fill-opacity="0.0" stroke="#B9B6BE" stroke-opacity="1.00" stroke-width="0.3"><path d="
M 175.00 141.00 
C 175.75 142.68 177.43 144.04 179.00 145.00
C 178.85 143.25 177.34 140.98 176.00 140.00
C 176.00 140.00 175.35 140.23 175.00 140.00
C 175.00 140.00 174.80 140.60 175.00 141.00 Z"/>
</g>
<g fill="None" fill-opacity="0.0" stroke="#BFE3E3" stroke-opacity="0.99" stroke-width="0.3"><path d="
M 189.00 141.00 
C 194.50 150.46 199.33 161.48 206.00 170.00
C 206.45 170.58 207.50 171.43 208.00 172.00
C 210.49 173.49 211.52 176.58 213.00 179.00
C 199.33 179.00 185.67 179.00 172.00 179.00
C 172.04 179.00 172.00 180.00 172.00 180.00
C 172.71 179.57 175.15 180.00 176.00 180.00
C 189.00 180.00 202.00 180.00 215.00 180.00
C 210.13 170.94 202.75 162.90 200.00 153.00
C 199.24 152.08 198.76 150.84 198.00 150.00
C 196.18 147.99 192.27 140.84 190.00 140.00
C 189.69 140.20 188.96 140.69 189.00 141.00 Z"/>
</g>
<g fill="None" fill-opacity="0.0" stroke="#142222" stroke-opacity="1.00" stroke-width="0.3"><path d="
M 116.00 150.00 
C 113.24 147.12 109.63 144.94 106.00 143.00
C 106.40 147.28 112.00 154.06 116.00 150.00 Z"/>
</g>
<g fill="None" fill-opacity="0.0" stroke="#ABCBB2" stroke-opacity="1.00" stroke-width="0.3"><path d="
M 162.00 145.00 
C 162.47 144.89 163.50 145.00 164.00 145.00
C 164.85 145.00 167.29 145.43 168.00 145.00
C 168.00 145.00 167.85 144.05 168.00 144.00
C 165.69 143.45 163.63 144.64 162.00 145.00 Z"/>
</g>
<g fill="None" fill-opacity="0.0" stroke="#DBCCAF" stroke-opacity="1.00" stroke-width="0.3"><path d="
M 129.00 148.00 
C 129.27 150.33 125.59 152.22 124.00 153.00
C 132.53 155.00 142.55 156.73 151.00 153.00
C 150.60 152.96 148.27 151.65 148.00 151.00
C 148.85 148.14 152.62 148.90 154.00 147.00
C 152.09 147.50 150.43 145.88 149.00 146.00
C 143.79 151.21 131.25 152.36 127.00 145.00
C 127.43 145.92 128.88 146.98 129.00 148.00 Z"/>
</g>
<g fill="None" fill-opacity="0.0" stroke="#DBAA8C" stroke-opacity="1.00" stroke-width="0.3"><path d="
M 155.00 146.00 
C 154.79 146.04 154.32 146.80 154.00 147.00
C 152.62 148.90 148.85 148.14 148.00 151.00
C 148.27 151.65 150.60 152.96 151.00 153.00
C 155.11 151.18 160.09 146.01 164.00 145.00
C 163.50 145.00 162.47 144.89 162.00 145.00
C 159.59 145.56 157.49 145.59 155.00 146.00 Z"/>
</g>
<g fill="None" fill-opacity="0.0" stroke="#C2AFA8" stroke-opacity="1.00" stroke-width="0.3"><path d="
M 111.00 154.00 
C 111.59 154.21 112.49 154.70 113.00 155.00
C 112.49 154.45 112.36 153.59 112.00 153.00
C 110.94 151.26 105.26 143.81 102.79 146.77 C 100.32 149.73 108.90 153.25 111.00 154.00 Z"/>
</g>
<g fill="None" fill-opacity="0.0" stroke="#CED5C5" stroke-opacity="1.00" stroke-width="0.3"><path d="
M 112.00 153.00 
C 112.36 153.59 112.49 154.45 113.00 155.00
C 114.42 155.84 116.20 156.74 115.00 158.00
C 113.20 159.89 108.67 159.00 106.00 159.00
C 106.19 159.08 106.04 160.50 106.00 161.00
C 105.95 161.69 104.85 163.50 105.00 164.00
C 105.50 164.00 106.00 164.00 106.00 164.00
C 108.00 164.00 110.00 164.00 112.00 164.00
C 111.75 163.75 112.00 163.00 112.00 163.00
C 114.20 158.94 125.42 158.68 129.00 161.00
C 130.11 161.72 131.35 162.36 131.00 164.00
C 128.67 164.00 126.33 164.00 124.00 164.00
C 124.01 164.00 124.00 165.00 124.00 165.00
C 137.33 165.00 150.67 165.00 164.00 165.00
C 163.96 165.00 164.00 164.00 164.00 164.00
C 162.67 163.97 161.33 164.02 160.00 164.00
C 163.62 157.39 175.17 161.97 181.00 159.00
C 174.00 159.00 167.00 159.00 160.00 159.00
C 164.40 154.66 171.49 152.89 175.00 147.00
C 164.43 149.03 157.18 159.58 146.00 160.00 C 134.82 160.42 121.23 159.20 112.00 153.00 Z"/>
</g>
<g fill="None" fill-opacity="0.0" stroke="#9F736C" stroke-opacity="1.00" stroke-width="0.3"><path d="
M 94.00 151.00 
C 92.06 155.54 87.85 159.01 87.00 164.00
C 88.00 164.01 89.00 163.98 90.00 164.00
C 91.30 163.55 93.61 164.00 95.00 164.00
C 93.81 163.60 93.21 159.90 91.00 161.00
C 90.48 160.03 92.42 157.04 93.00 159.00
C 93.47 159.12 94.00 159.00 94.00 159.00
C 95.02 155.53 97.19 152.50 98.00 149.00
C 96.47 148.93 95.09 150.03 94.00 151.00 Z"/>
</g>
<g fill="None" fill-opacity="0.0" stroke="#C6B2A7" stroke-opacity="1.00" stroke-width="0.3"><path d="
M 182.00 156.00 
C 182.01 155.90 183.03 153.99 183.00 154.00
C 181.48 152.35 180.28 149.17 178.00 149.00
C 177.80 151.99 180.88 153.81 182.00 156.00 Z"/>
</g>
<g fill="None" fill-opacity="0.0" stroke="#192830" stroke-opacity="1.00" stroke-width="0.3"><path d="
M 122.00 153.00 
C 120.20 152.27 118.90 150.69 117.00 150.00
C 117.00 151.33 117.00 152.67 117.00 154.00
C 118.98 154.47 120.63 153.71 122.00 153.00 Z"/>
</g>
<g fill="None" fill-opacity="0.0" stroke="#31172B" stroke-opacity="1.00" stroke-width="0.3"><path d="
M 184.00 154.00 
C 184.02 154.29 187.14 155.41 187.00 158.00
C 187.23 158.16 187.00 159.50 187.00 160.00
C 187.26 160.61 189.96 162.85 189.00 164.00
C 190.61 163.58 192.09 162.40 194.00 163.00
C 191.51 159.14 188.64 155.54 186.00 152.00
C 186.07 151.75 184.04 153.96 184.00 154.00 Z"/>
</g>
<g fill="None" fill-opacity="0.0" stroke="#61CDC2" stroke-opacity="0.94" stroke-width="0.3"><path d="
M 176.00 180.00 
C 177.18 180.38 178.66 183.59 180.00 184.00
C 183.10 184.00 186.64 184.77 189.00 185.00
C 199.67 185.00 210.33 185.00 221.00 185.00
C 216.24 176.42 210.93 167.98 205.00 160.00
C 203.54 158.04 202.39 155.97 201.00 154.00
C 200.79 153.70 200.22 153.26 200.00 153.00
C 202.75 162.90 210.13 170.94 215.00 180.00
C 202.00 180.00 189.00 180.00 176.00 180.00 Z"/>
</g>
<g fill="None" fill-opacity="0.0" stroke="#6C5A55" stroke-opacity="1.00" stroke-width="0.3"><path d="
M 115.00 158.00 
C 116.20 156.74 114.42 155.84 113.00 155.00
C 112.49 154.70 111.59 154.21 111.00 154.00
C 112.27 154.86 113.37 157.52 115.00 158.00 Z"/>
</g>
<g fill="None" fill-opacity="0.0" stroke="#51907F" stroke-opacity="1.00" stroke-width="0.3"><path d="
M 182.00 156.00 
C 181.96 156.27 182.68 159.21 183.00 159.00
C 184.14 158.80 184.65 158.01 186.00 158.00
C 185.58 156.79 185.13 154.87 184.00 154.00
C 184.00 154.00 183.40 153.80 183.00 154.00
C 183.03 153.99 182.01 155.90 182.00 156.00 Z"/>
</g>
<g fill="None" fill-opacity="0.0" stroke="#243946" stroke-opacity="1.00" stroke-width="0.3"><path d="
M 186.00 158.00 
C 186.50 158.00 187.00 158.00 187.00 158.00
C 187.14 155.41 184.02 154.29 184.00 154.00
C 185.13 154.87 185.58 156.79 186.00 158.00 Z"/>
</g>
<g fill="None" fill-opacity="0.0" stroke="#052234" stroke-opacity="0.15" stroke-width="0.3"><path d="
M 205.00 160.00 
C 204.27 158.78 203.52 155.89 201.00 154.00
C 202.39 155.97 203.54 158.04 205.00 160.00 Z"/>
</g>
<g fill="None" fill-opacity="0.0" stroke="#699C97" stroke-opacity="1.00" stroke-width="0.3"><path d="
M 73.00 161.00 
C 72.00 162.66 71.73 164.33 71.00 166.00
C 73.19 163.20 76.82 162.58 76.00 158.00
C 76.00 158.00 75.27 157.75 75.00 158.00
C 74.41 158.86 73.80 160.27 73.00 161.00 Z"/>
</g>
<g fill="None" fill-opacity="0.0" stroke="#DBAF91" stroke-opacity="1.00" stroke-width="0.3"><path d="
M 95.00 164.00 
C 98.33 164.00 101.67 164.00 105.00 164.00
C 104.85 163.50 105.95 161.69 106.00 161.00
C 103.53 162.10 94.23 161.61 93.00 159.00
C 92.42 157.04 90.48 160.03 91.00 161.00
C 93.21 159.90 93.81 163.60 95.00 164.00 Z"/>
</g>
<g fill="None" fill-opacity="0.0" stroke="#84E0CB" stroke-opacity="1.00" stroke-width="0.3"><path d="
M 183.00 159.00 
C 182.51 159.08 181.50 159.00 181.00 159.00
C 175.17 161.97 163.62 157.39 160.00 164.00
C 161.33 164.02 162.67 163.97 164.00 164.00
C 169.24 163.53 174.74 164.00 180.00 164.00
C 180.50 164.00 181.00 164.00 181.00 164.00
C 182.13 161.24 184.33 160.96 187.00 161.00
C 187.25 160.70 187.00 160.00 187.00 160.00
C 187.00 159.50 187.23 158.16 187.00 158.00
C 187.00 158.00 186.50 158.00 186.00 158.00
C 184.65 158.01 184.14 158.80 183.00 159.00 Z"/>
</g>
<g fill="None" fill-opacity="0.0" stroke="#FCEBD7" stroke-opacity="1.00" stroke-width="0.3"><path d="
M 106.00 161.00 
C 106.04 160.50 106.19 159.08 106.00 159.00
C 102.00 159.00 98.00 159.00 94.00 159.00
C 94.00 159.00 93.47 159.12 93.00 159.00
C 94.23 161.61 103.53 162.10 106.00 161.00 Z"/>
</g>
<g fill="None" fill-opacity="0.0" stroke="#88DABE" stroke-opacity="1.00" stroke-width="0.3"><path d="
M 112.00 163.00 
C 115.41 162.01 126.29 160.23 129.00 161.00
C 125.42 158.68 114.20 158.94 112.00 163.00 Z"/>
</g>
<g fill="None" fill-opacity="0.0" stroke="#686CAA" stroke-opacity="1.00" stroke-width="0.3"><path d="
M 187.00 161.00 
C 186.32 161.83 183.90 163.63 183.00 164.00
C 184.33 164.00 185.67 164.00 187.00 164.00
C 187.50 164.00 188.53 164.12 189.00 164.00
C 189.96 162.85 187.26 160.61 187.00 160.00
C 187.00 160.00 187.25 160.70 187.00 161.00 Z"/>
</g>
<g fill="None" fill-opacity="0.0" stroke="#67D5C4" stroke-opacity="1.00" stroke-width="0.3"><path d="
M 64.00 172.00 
C 63.35 173.27 62.86 174.88 62.00 176.00
C 60.91 178.74 61.18 181.75 59.00 184.00
C 78.67 184.00 98.33 184.00 118.00 184.00
C 118.50 184.00 119.00 184.00 119.00 184.00
C 119.50 183.54 120.50 181.17 121.00 181.00
C 101.88 178.36 81.55 180.90 62.00 180.00
C 62.99 178.67 63.05 176.43 65.00 176.00
C 67.24 172.82 69.43 169.59 71.00 166.00
C 71.73 164.33 72.00 162.66 73.00 161.00
C 73.00 161.00 72.22 160.75 72.00 161.00
C 68.96 164.38 66.15 167.81 64.00 172.00 Z"/>
</g>
<g fill="None" fill-opacity="0.0" stroke="#BDF8EF" stroke-opacity="1.00" stroke-width="0.3"><path d="
M 112.00 163.00 
C 112.00 163.00 111.75 163.75 112.00 164.00
C 112.50 164.00 113.00 164.00 113.00 164.00
C 116.66 164.00 120.34 164.07 124.00 164.00
C 126.33 164.00 128.67 164.00 131.00 164.00
C 131.35 162.36 130.11 161.72 129.00 161.00
C 126.29 160.23 115.41 162.01 112.00 163.00 Z"/>
</g>
<g fill="None" fill-opacity="0.0" stroke="#71ABC8" stroke-opacity="1.00" stroke-width="0.3"><path d="
M 181.00 164.00 
C 181.50 164.00 182.50 164.00 183.00 164.00
C 183.90 163.63 186.32 161.83 187.00 161.00
C 184.33 160.96 182.13 161.24 181.00 164.00 Z"/>
</g>
<g fill="None" fill-opacity="0.0" stroke="#14090F" stroke-opacity="1.00" stroke-width="0.3"><path d="
M 189.00 164.00 
C 188.53 164.12 187.50 164.00 187.00 164.00
C 184.83 164.92 182.73 164.95 180.00 165.00
C 174.67 165.11 169.33 165.00 164.00 165.00
C 150.67 165.00 137.33 165.00 124.00 165.00
C 120.33 165.00 116.67 165.00 113.00 165.00
C 110.67 165.00 108.33 165.00 106.00 165.00
C 100.75 165.00 95.23 164.51 90.00 165.00
C 87.07 165.27 84.31 166.30 81.00 166.00
C 80.37 166.90 79.90 167.85 80.00 169.00
C 85.33 169.00 90.67 169.00 96.00 169.00
C 109.33 169.00 122.67 169.00 136.00 169.00
C 138.67 169.00 141.33 169.00 144.00 169.00
C 147.67 169.00 151.33 169.00 155.00 169.00
C 161.00 169.00 167.00 169.00 173.00 169.00
C 178.00 169.00 183.00 169.00 188.00 169.00
C 190.00 169.00 192.00 169.00 194.00 169.00
C 194.99 169.00 196.01 168.95 197.00 169.00
C 196.41 168.58 194.69 164.07 194.00 163.00
C 192.09 162.40 190.61 163.58 189.00 164.00 Z"/>
</g>
<g fill="None" fill-opacity="0.0" stroke="#6D4C45" stroke-opacity="1.00" stroke-width="0.3"><path d="
M 90.00 165.00 
C 95.23 164.51 100.75 165.00 106.00 165.00
C 105.93 164.99 106.00 164.00 106.00 164.00
C 106.00 164.00 105.50 164.00 105.00 164.00
C 101.67 164.00 98.33 164.00 95.00 164.00
C 93.61 164.00 91.30 163.55 90.00 164.00
C 90.00 164.00 90.24 164.80 90.00 165.00 Z"/>
</g>
<g fill="None" fill-opacity="0.0" stroke="#968784" stroke-opacity="1.00" stroke-width="0.3"><path d="
M 106.00 165.00 
C 108.33 165.00 110.67 165.00 113.00 165.00
C 113.07 164.99 113.00 164.00 113.00 164.00
C 113.00 164.00 112.50 164.00 112.00 164.00
C 110.00 164.00 108.00 164.00 106.00 164.00
C 106.00 164.00 105.93 164.99 106.00 165.00 Z"/>
</g>
<g fill="None" fill-opacity="0.0" stroke="#6C8280" stroke-opacity="1.00" stroke-width="0.3"><path d="
M 113.00 165.00 
C 116.67 165.00 120.33 165.00 124.00 165.00
C 124.00 165.00 124.01 164.00 124.00 164.00
C 120.34 164.07 116.66 164.00 113.00 164.00
C 113.00 164.00 113.07 164.99 113.00 165.00 Z"/>
</g>
<g fill="None" fill-opacity="0.0" stroke="#426866" stroke-opacity="1.00" stroke-width="0.3"><path d="
M 164.00 165.00 
C 169.33 165.00 174.67 165.11 180.00 165.00
C 180.04 165.00 180.00 164.00 180.00 164.00
C 174.74 164.00 169.24 163.53 164.00 164.00
C 164.00 164.00 163.96 165.00 164.00 165.00 Z"/>
</g>
<g fill="None" fill-opacity="0.0" stroke="#423250" stroke-opacity="1.00" stroke-width="0.3"><path d="
M 180.00 165.00 
C 182.73 164.95 184.83 164.92 187.00 164.00
C 185.67 164.00 184.33 164.00 183.00 164.00
C 182.50 164.00 181.50 164.00 181.00 164.00
C 181.00 164.00 180.50 164.00 180.00 164.00
C 180.00 164.00 180.04 165.00 180.00 165.00 Z"/>
</g>
<g fill="None" fill-opacity="0.0" stroke="#AEE4DF" stroke-opacity="1.00" stroke-width="0.3"><path d="
M 77.00 166.00 
C 76.88 166.47 77.24 167.70 77.00 168.00
C 77.36 171.25 82.36 172.02 85.00 171.00 C 87.64 169.98 95.04 172.85 97.00 171.00
C 96.69 170.76 96.22 169.10 96.00 169.00
C 90.67 169.00 85.33 169.00 80.00 169.00
C 79.90 167.85 80.37 166.90 81.00 166.00
C 81.00 166.00 80.80 165.40 81.00 165.00
C 80.84 164.83 78.26 164.92 78.00 165.00
C 77.65 165.11 77.09 165.65 77.00 166.00 Z"/>
</g>
<g fill="None" fill-opacity="0.0" stroke="#142926" stroke-opacity="1.00" stroke-width="0.3"><path d="
M 72.00 173.00 
C 72.03 172.89 73.00 173.00 73.00 173.00
C 74.17 170.81 75.58 169.77 77.00 168.00
C 77.24 167.70 76.88 166.47 77.00 166.00
C 73.91 167.05 71.74 169.37 72.00 173.00 Z"/>
</g>
<g fill="None" fill-opacity="0.0" stroke="#58C1AD" stroke-opacity="1.00" stroke-width="0.3"><path d="
M 73.00 173.00 
C 74.17 173.43 74.70 173.80 76.00 174.00
C 80.74 174.73 86.19 174.00 91.00 174.00
C 92.67 174.00 94.33 174.00 96.00 174.00
C 96.24 173.83 96.39 171.30 97.00 171.00
C 95.04 172.85 87.64 169.98 85.00 171.00 C 82.36 172.02 77.36 171.25 77.00 168.00
C 75.58 169.77 74.17 170.81 73.00 173.00 Z"/>
</g>
<g fill="None" fill-opacity="0.0" stroke="#F9E5DA" stroke-opacity="1.00" stroke-width="0.3"><path d="
M 97.00 171.00 
C 101.64 174.58 108.34 170.37 114.00 171.00 C 119.66 171.63 128.09 171.00 134.00 171.00
C 134.50 171.00 135.50 171.00 136.00 171.00
C 135.75 170.75 136.19 169.08 136.00 169.00
C 122.67 169.00 109.33 169.00 96.00 169.00
C 96.22 169.10 96.69 170.76 97.00 171.00 Z"/>
</g>
<g fill="None" fill-opacity="0.0" stroke="#D4F0EC" stroke-opacity="1.00" stroke-width="0.3"><path d="
M 136.00 171.00 
C 136.50 171.00 137.53 171.11 138.00 171.00
C 139.79 170.58 142.60 169.20 144.00 169.00
C 141.33 169.00 138.67 169.00 136.00 169.00
C 136.19 169.08 135.75 170.75 136.00 171.00 Z"/>
</g>
<g fill="None" fill-opacity="0.0" stroke="#7AD1BB" stroke-opacity="1.00" stroke-width="0.3"><path d="
M 138.00 171.00 
C 138.25 171.25 138.25 172.75 138.00 173.00
C 144.33 173.00 150.45 174.46 156.00 175.00
C 166.33 175.00 176.67 175.00 187.00 175.00
C 188.40 174.56 190.25 171.70 192.00 171.00
C 191.14 170.77 188.81 169.16 188.00 169.00
C 183.00 169.00 178.00 169.00 173.00 169.00
C 167.33 169.55 160.60 169.54 155.00 169.00
C 151.33 169.00 147.67 169.00 144.00 169.00
C 142.60 169.20 139.79 170.58 138.00 171.00 Z"/>
</g>
<g fill="None" fill-opacity="0.0" stroke="#C7EBE4" stroke-opacity="1.00" stroke-width="0.3"><path d="
M 173.00 169.00 
C 167.00 169.00 161.00 169.00 155.00 169.00
C 160.60 169.54 167.33 169.55 173.00 169.00 Z"/>
</g>
<g fill="None" fill-opacity="0.0" stroke="#DAF3F0" stroke-opacity="1.00" stroke-width="0.3"><path d="
M 192.00 171.00 
C 192.43 170.83 193.75 171.25 194.00 171.00
C 194.25 170.75 193.76 169.31 194.00 169.00
C 192.00 169.00 190.00 169.00 188.00 169.00
C 188.81 169.16 191.14 170.77 192.00 171.00 Z"/>
</g>
<g fill="None" fill-opacity="0.0" stroke="#DCC8DB" stroke-opacity="1.00" stroke-width="0.3"><path d="
M 194.00 171.00 
C 195.21 170.34 198.46 170.48 200.00 170.00
C 199.07 169.76 198.50 169.08 197.00 169.00
C 196.01 168.95 194.99 169.00 194.00 169.00
C 193.76 169.31 194.25 170.75 194.00 171.00 Z"/>
</g>
<g fill="None" fill-opacity="0.0" stroke="#63437B" stroke-opacity="1.00" stroke-width="0.3"><path d="
M 194.00 171.00 
C 193.21 171.43 192.59 173.39 192.00 174.00
C 196.25 173.39 200.73 174.46 205.00 174.00
C 204.70 172.75 203.17 172.29 203.00 171.00
C 202.73 170.87 202.35 170.09 202.00 170.00
C 201.53 169.88 200.46 169.86 200.00 170.00
C 198.46 170.48 195.21 170.34 194.00 171.00 Z"/>
</g>
<g fill="None" fill-opacity="0.0" stroke="#392440" stroke-opacity="1.00" stroke-width="0.3"><path d="
M 203.00 171.00 
C 203.17 172.29 204.70 172.75 205.00 174.00
C 200.73 174.46 196.25 173.39 192.00 174.00
C 191.75 174.25 191.27 174.87 191.00 175.00
C 193.31 175.32 208.74 178.31 208.00 172.00
C 207.50 171.43 206.45 170.58 206.00 170.00
C 205.54 169.96 204.39 171.69 203.00 171.00 Z"/>
</g>
<g fill="None" fill-opacity="0.0" stroke="#DE9483" stroke-opacity="1.00" stroke-width="0.3"><path d="
M 96.00 174.00 
C 99.67 174.00 103.33 174.00 107.00 174.00
C 110.10 174.00 113.64 174.77 116.00 175.00
C 122.86 175.00 129.44 174.77 136.00 174.00
C 135.87 173.96 136.00 173.00 136.00 173.00
C 135.86 172.85 133.97 170.99 134.00 171.00
C 128.09 171.00 119.66 171.63 114.00 171.00 C 108.34 170.37 101.64 174.58 97.00 171.00
C 96.39 171.30 96.24 173.83 96.00 174.00 Z"/>
</g>
<g fill="None" fill-opacity="0.0" stroke="#B4AD89" stroke-opacity="1.00" stroke-width="0.3"><path d="
M 136.00 173.00 
C 136.16 172.77 137.50 173.00 138.00 173.00
C 138.25 172.75 138.25 171.25 138.00 171.00
C 137.53 171.11 136.50 171.00 136.00 171.00
C 135.50 171.00 134.50 171.00 134.00 171.00
C 133.97 170.99 135.86 172.85 136.00 173.00 Z"/>
</g>
<g fill="None" fill-opacity="0.0" stroke="#6188AC" stroke-opacity="1.00" stroke-width="0.3"><path d="
M 187.00 175.00 
C 187.95 175.00 190.17 175.42 191.00 175.00
C 191.27 174.87 191.75 174.25 192.00 174.00
C 192.59 173.39 193.21 171.43 194.00 171.00
C 193.75 171.25 192.43 170.83 192.00 171.00
C 190.25 171.70 188.40 174.56 187.00 175.00 Z"/>
</g>
<g fill="None" fill-opacity="0.0" stroke="#132E2C" stroke-opacity="0.45" stroke-width="0.3"><path d="
M 61.00 176.00 
C 61.22 175.75 62.00 176.00 62.00 176.00
C 62.86 174.88 63.35 173.27 64.00 172.00
C 63.11 173.14 59.39 174.46 61.00 176.00 Z"/>
</g>
<g fill="None" fill-opacity="0.0" stroke="#475063" stroke-opacity="1.00" stroke-width="0.3"><path d="
M 76.00 175.00 
C 75.96 175.00 76.00 174.00 76.00 174.00
C 74.70 173.80 74.17 173.43 73.00 173.00
C 73.00 173.00 72.03 172.89 72.00 173.00
C 71.47 175.19 74.57 175.56 76.00 175.00 Z"/>
</g>
<g fill="None" fill-opacity="0.0" stroke="#D3D9CD" stroke-opacity="1.00" stroke-width="0.3"><path d="
M 136.00 174.00 
C 142.17 175.78 149.42 175.00 156.00 175.00
C 150.45 174.46 144.33 173.00 138.00 173.00
C 137.50 173.00 136.16 172.77 136.00 173.00
C 136.00 173.00 135.87 173.96 136.00 174.00 Z"/>
</g>
<g fill="None" fill-opacity="0.0" stroke="#3F6D72" stroke-opacity="1.00" stroke-width="0.3"><path d="
M 76.00 175.00 
C 81.08 175.46 86.63 174.46 91.00 174.00
C 86.19 174.00 80.74 174.73 76.00 174.00
C 76.00 174.00 75.96 175.00 76.00 175.00 Z"/>
</g>
<g fill="None" fill-opacity="0.0" stroke="#81605A" stroke-opacity="1.00" stroke-width="0.3"><path d="
M 116.00 175.00 
C 113.64 174.77 110.10 174.00 107.00 174.00
C 109.36 174.23 112.90 175.00 116.00 175.00 Z"/>
</g>
<g fill="None" fill-opacity="0.0" stroke="#60A9A5" stroke-opacity="0.87" stroke-width="0.3"><path d="
M 68.00 185.00 
C 83.67 185.00 99.33 185.00 115.00 185.00
C 116.00 185.00 117.00 185.00 118.00 185.00
C 118.25 184.73 118.00 184.00 118.00 184.00
C 98.33 184.00 78.67 184.00 59.00 184.00
C 61.18 181.75 60.91 178.74 62.00 176.00
C 62.00 176.00 61.22 175.75 61.00 176.00
C 58.89 178.77 57.59 181.92 56.00 185.00
C 60.00 185.00 64.00 185.00 68.00 185.00 Z"/>
</g>
<g fill="None" fill-opacity="0.0" stroke="#D2F5F1" stroke-opacity="1.00" stroke-width="0.3"><path d="
M 121.00 181.00 
C 121.34 181.05 123.78 181.22 124.00 181.00
C 123.64 180.77 123.24 179.11 123.00 179.00
C 103.67 179.00 84.33 179.00 65.00 179.00
C 64.93 178.01 65.09 176.99 65.00 176.00
C 63.05 176.43 62.99 178.67 62.00 180.00
C 81.55 180.90 101.88 178.36 121.00 181.00 Z"/>
</g>
<g fill="None" fill-opacity="0.0" stroke="#F5E5D7" stroke-opacity="1.00" stroke-width="0.3"><path d="
M 124.00 181.00 
C 131.47 185.81 148.48 181.00 157.00 181.00
C 158.33 181.00 159.67 181.00 161.00 181.00
C 161.50 181.00 162.00 181.00 162.00 181.00
C 164.55 179.11 168.72 180.29 172.00 180.00
C 172.00 180.00 172.04 179.00 172.00 179.00
C 155.67 179.00 139.33 179.00 123.00 179.00
C 123.24 179.11 123.64 180.77 124.00 181.00 Z"/>
</g>
<g fill="None" fill-opacity="0.0" stroke="#BEBBDC" stroke-opacity="1.00" stroke-width="0.3"><path d="
M 162.00 181.00 
C 165.00 181.00 168.00 181.00 171.00 181.00
C 171.50 181.00 172.00 181.00 172.00 181.00
C 172.25 180.75 172.00 180.00 172.00 180.00
C 168.72 180.29 164.55 179.11 162.00 181.00 Z"/>
</g>
<g fill="None" fill-opacity="0.0" stroke="#4A9BB3" stroke-opacity="1.00" stroke-width="0.3"><path d="
M 172.00 181.00 
C 174.90 180.85 173.79 183.49 175.00 184.00
C 176.67 184.00 178.33 184.00 180.00 184.00
C 178.66 183.59 177.18 180.38 176.00 180.00
C 175.15 180.00 172.71 179.57 172.00 180.00
C 172.00 180.00 172.25 180.75 172.00 181.00 Z"/>
</g>
<g fill="None" fill-opacity="0.0" stroke="#99A685" stroke-opacity="1.00" stroke-width="0.3"><path d="
M 119.00 184.00 
C 120.41 183.45 122.94 181.18 124.00 181.00
C 123.78 181.22 121.34 181.05 121.00 181.00
C 120.50 181.17 119.50 183.54 119.00 184.00 Z"/>
</g>
<g fill="None" fill-opacity="0.0" stroke="#AA7C6D" stroke-opacity="0.91" stroke-width="0.3"><path d="
M 119.00 184.00 
C 119.00 184.00 118.50 184.00 118.00 184.00
C 118.00 184.00 118.25 184.73 118.00 185.00
C 131.67 185.00 145.33 185.00 159.00 185.00
C 158.85 184.95 159.00 184.00 159.00 184.00
C 158.82 183.51 157.33 181.16 157.00 181.00
C 148.48 181.00 131.47 185.81 124.00 181.00
C 122.94 181.18 120.41 183.45 119.00 184.00 Z"/>
</g>
<g fill="None" fill-opacity="0.0" stroke="#8B6C7E" stroke-opacity="1.00" stroke-width="0.3"><path d="
M 159.00 184.00 
C 159.71 183.57 162.15 184.00 163.00 184.00
C 162.51 183.55 161.02 181.68 161.00 181.00
C 159.67 181.00 158.33 181.00 157.00 181.00
C 157.33 181.16 158.82 183.51 159.00 184.00 Z"/>
</g>
<g fill="None" fill-opacity="0.0" stroke="#635497" stroke-opacity="1.00" stroke-width="0.3"><path d="
M 163.00 184.00 
C 163.50 184.00 164.00 184.00 164.00 184.00
C 166.63 184.00 169.38 183.76 172.00 184.00
C 171.45 183.75 170.69 181.52 171.00 181.00
C 168.00 181.00 165.00 181.00 162.00 181.00
C 162.00 181.00 161.50 181.00 161.00 181.00
C 161.02 181.68 162.51 183.55 163.00 184.00 Z"/>
</g>
<g fill="None" fill-opacity="0.0" stroke="#447095" stroke-opacity="1.00" stroke-width="0.3"><path d="
M 172.00 184.00 
C 172.24 183.74 174.61 184.00 175.00 184.00
C 173.79 183.49 174.90 180.85 172.00 181.00
C 172.00 181.00 171.50 181.00 171.00 181.00
C 170.69 181.52 171.45 183.75 172.00 184.00 Z"/>
</g>
<g fill="None" fill-opacity="0.0" stroke="#896A7A" stroke-opacity="0.76" stroke-width="0.3"><path d="
M 159.00 185.00 
C 160.67 185.00 162.33 185.00 164.00 185.00
C 163.77 184.66 164.00 184.00 164.00 184.00
C 164.00 184.00 163.50 184.00 163.00 184.00
C 162.15 184.00 159.71 183.57 159.00 184.00
C 159.00 184.00 158.85 184.95 159.00 185.00 Z"/>
</g>
<g fill="None" fill-opacity="0.0" stroke="#635495" stroke-opacity="0.77" stroke-width="0.3"><path d="
M 164.00 185.00 
C 164.50 185.00 165.50 185.00 166.00 185.00
C 168.00 185.00 170.00 185.00 172.00 185.00
C 172.10 184.98 172.00 184.00 172.00 184.00
C 169.38 183.76 166.63 184.00 164.00 184.00
C 164.00 184.00 163.77 184.66 164.00 185.00 Z"/>
</g>
<g fill="None" fill-opacity="0.0" stroke="#416989" stroke-opacity="0.76" stroke-width="0.3"><path d="
M 172.00 185.00 
C 175.33 185.00 178.67 185.00 182.00 185.00
C 184.33 185.00 186.67 185.00 189.00 185.00
C 186.64 184.77 183.10 184.00 180.00 184.00
C 178.33 184.00 176.67 184.00 175.00 184.00
C 174.61 184.00 172.24 183.74 172.00 184.00
C 172.00 184.00 172.10 184.98 172.00 185.00 Z"/>
</g>
<g fill="None" fill-opacity="0.0" stroke="#001A22" stroke-opacity="0.12" stroke-width="0.3"><path d="
M 115.00 186.00 
C 114.96 186.00 115.00 185.00 115.00 185.00
C 99.33 185.00 83.67 185.00 68.00 185.00
C 82.77 186.43 99.43 186.00 115.00 186.00 Z"/>
</g>
<g fill="None" fill-opacity="0.0" stroke="#1C0C15" stroke-opacity="0.18" stroke-width="0.3"><path d="
M 115.00 186.00 
C 132.00 186.00 149.00 186.00 166.00 186.00
C 165.96 186.00 166.00 185.00 166.00 185.00
C 165.50 185.00 164.50 185.00 164.00 185.00
C 162.33 185.00 160.67 185.00 159.00 185.00
C 145.33 185.00 131.67 185.00 118.00 185.00
C 117.00 185.00 116.00 185.00 115.00 185.00
C 115.00 185.00 114.96 186.00 115.00 186.00 Z"/>
</g>
<g fill="None" fill-opacity="0.0" stroke="#201535" stroke-opacity="0.08" stroke-width="0.3"><path d="
M 166.00 186.00 
C 171.39 186.00 177.29 185.45 182.00 185.00
C 178.67 185.00 175.33 185.00 172.00 185.00
C 170.00 185.00 168.00 185.00 166.00 185.00
C 166.00 185.00 165.96 186.00 166.00 186.00 Z"/>
</g>
<g fill="#000000" fill-opacity="0.00" stroke="None">
<path d="
M 0.00 270.00 
L 270.00 270.00
L 270.00 0.00
L 0.00 0.00
L 0.00 270.00
M 154.00 82.00 
C 159.87 90.82 165.67 101.74 172.00 110.00
C 175.75 114.89 178.42 120.08 182.00 125.00
C 185.93 129.05 188.98 134.12 192.00 139.00
C 194.20 142.56 195.91 146.58 198.00 150.00
C 198.76 150.84 199.24 152.08 200.00 153.00
C 200.22 153.26 200.79 153.70 201.00 154.00
C 203.52 155.89 204.27 158.78 205.00 160.00
C 210.93 167.98 216.24 176.42 221.00 185.00
C 210.33 185.00 199.67 185.00 189.00 185.00
C 186.67 185.00 184.33 185.00 182.00 185.00
C 177.29 185.45 171.39 186.00 166.00 186.00
C 149.00 186.00 132.00 186.00 115.00 186.00
C 99.43 186.00 82.77 186.43 68.00 185.00
C 64.00 185.00 60.00 185.00 56.00 185.00
C 57.59 181.92 58.89 178.77 61.00 176.00
C 59.39 174.46 63.11 173.14 64.00 172.00
C 66.15 167.81 68.96 164.38 72.00 161.00
C 73.12 153.37 80.05 147.28 83.75 140.75 C 87.46 134.23 91.66 127.19 96.00 121.00
C 97.27 118.50 97.45 118.80 99.00 117.00
C 111.63 96.92 124.97 77.41 137.00 57.00
C 144.60 63.84 148.54 73.57 154.00 82.00 Z"/>
</g>
<g fill="#D4CBB0" fill-opacity="0.95" stroke="None">
<path d="
M 99.00 117.00 
C 98.08 118.47 96.87 119.76 96.00 121.00
C 91.66 127.19 87.46 134.23 83.75 140.75 C 80.05 147.28 73.12 153.37 72.00 161.00
C 72.22 160.75 73.00 161.00 73.00 161.00
C 73.80 160.27 74.41 158.86 75.00 158.00
C 84.46 144.34 93.29 130.32 103.00 117.00
C 106.90 109.92 111.60 103.48 116.00 97.00
C 122.01 88.15 126.93 72.96 135.00 66.00
C 138.02 63.39 142.30 68.98 143.92 73.08 C 145.53 77.18 150.46 81.52 153.00 85.00
C 153.05 83.77 153.98 83.11 154.00 82.00
C 148.54 73.57 144.60 63.84 137.00 57.00
C 124.97 77.41 111.63 96.92 99.00 117.00 Z"/>
</g>
<g fill="#231619" fill-opacity="1.00" stroke="None">
<path d="
M 135.00 66.00 
C 135.98 65.49 135.78 69.02 137.00 71.00
C 138.95 74.17 141.59 79.16 144.00 82.00
C 144.60 82.71 145.41 83.23 146.00 84.00
C 147.83 86.39 149.21 89.44 151.00 92.00
C 151.81 93.15 153.03 94.82 154.00 96.00
C 155.52 97.85 156.83 98.75 158.00 101.00
C 161.61 105.31 164.83 108.60 167.00 114.00
C 167.78 115.94 167.96 118.07 169.00 120.00
C 169.67 121.23 171.20 123.88 172.00 125.00
C 182.37 139.52 192.11 154.97 202.00 170.00
C 202.35 170.09 202.73 170.87 203.00 171.00
C 204.39 171.69 205.54 169.96 206.00 170.00
C 199.33 161.48 194.50 150.46 189.00 141.00
C 188.53 140.19 188.34 140.11 188.00 139.00
C 187.17 137.65 185.28 136.98 185.00 135.00
C 183.25 134.76 183.41 133.16 183.00 132.00
C 179.55 127.01 175.28 122.02 172.00 117.00
C 170.41 115.50 170.15 116.38 169.00 114.00
C 168.51 112.98 167.81 112.60 168.00 111.00
C 168.06 110.51 168.00 110.00 168.00 110.00
C 164.87 102.03 157.94 91.78 153.00 85.00
C 150.46 81.52 145.53 77.18 143.92 73.08 C 142.30 68.98 138.02 63.39 135.00 66.00 Z"/>
</g>
<g fill="#241619" fill-opacity="0.73" stroke="None">
<path d="
M 116.00 97.00 
C 118.29 95.19 121.85 93.44 124.00 91.00
C 127.16 85.56 136.02 77.34 137.00 71.00
C 135.78 69.02 135.98 65.49 135.00 66.00
C 126.93 72.96 122.01 88.15 116.00 97.00 Z"/>
</g>
<g fill="#D8D3B1" fill-opacity="1.00" stroke="None">
<path d="
M 124.00 91.00 
C 120.92 96.30 111.56 105.79 112.00 112.00
C 112.34 111.77 113.00 112.00 113.00 112.00
C 113.50 112.00 114.74 112.25 115.00 112.00
C 122.20 99.87 129.84 88.13 137.00 76.00
C 138.90 77.99 140.38 80.66 142.00 83.00
C 142.13 82.70 143.68 82.00 144.00 82.00
C 141.59 79.16 138.95 74.17 137.00 71.00
C 136.02 77.34 127.16 85.56 124.00 91.00 Z"/>
</g>
<g fill="#211416" fill-opacity="1.00" stroke="None">
<path d="
M 115.00 112.00 
C 109.40 121.44 103.50 130.54 98.00 140.00
C 96.63 143.53 95.64 147.49 94.00 151.00
C 95.09 150.03 96.47 148.93 98.00 149.00
C 97.19 152.50 95.02 155.53 94.00 159.00
C 98.00 159.00 102.00 159.00 106.00 159.00
C 108.67 159.00 113.20 159.89 115.00 158.00
C 113.37 157.52 112.27 154.86 111.00 154.00
C 108.90 153.25 100.32 149.73 102.79 146.77 C 105.26 143.81 110.94 151.26 112.00 153.00
C 121.23 159.20 134.82 160.42 146.00 160.00 C 157.18 159.58 164.43 149.03 175.00 147.00
C 171.49 152.89 164.40 154.66 160.00 159.00
C 167.00 159.00 174.00 159.00 181.00 159.00
C 181.50 159.00 182.51 159.08 183.00 159.00
C 182.68 159.21 181.96 156.27 182.00 156.00
C 180.88 153.81 177.80 151.99 178.00 149.00
C 180.28 149.17 181.48 152.35 183.00 154.00
C 183.40 153.80 184.00 154.00 184.00 154.00
C 184.04 153.96 186.07 151.75 186.00 152.00
C 179.52 143.29 171.79 132.73 167.00 123.00
C 166.24 121.46 166.00 119.56 165.00 118.00
C 164.20 116.75 162.74 115.99 162.00 115.00
C 162.11 115.89 161.72 117.15 162.00 118.00
C 162.58 119.74 164.88 120.73 164.00 123.00
C 161.38 122.14 158.00 121.77 156.00 120.00
C 146.76 117.31 127.86 115.20 119.00 120.00
C 117.88 121.13 117.97 122.06 116.00 122.00
C 111.78 121.87 118.54 112.11 121.00 111.00
C 122.54 100.51 134.61 87.58 145.00 95.00
C 148.63 97.59 149.76 101.38 152.00 105.00
C 153.21 106.96 155.14 108.62 156.00 111.00
C 156.67 110.85 159.43 111.67 160.00 112.00
C 156.73 107.44 155.02 101.72 152.00 97.00
C 151.46 96.16 150.63 94.96 150.00 94.00
C 148.28 91.39 145.89 88.64 144.00 86.00
C 143.36 85.10 142.63 84.08 142.00 83.00
C 140.38 80.66 138.90 77.99 137.00 76.00
C 129.84 88.13 122.20 99.87 115.00 112.00
M 158.00 125.00 
C 166.14 129.79 170.80 131.59 176.00 140.00
C 177.34 140.98 178.85 143.25 179.00 145.00
C 177.43 144.04 175.75 142.68 175.00 141.00
C 174.75 141.25 174.00 141.00 174.00 141.00
C 171.77 141.98 171.61 145.80 168.00 145.00
C 167.29 145.43 164.85 145.00 164.00 145.00
C 160.09 146.01 155.11 151.18 151.00 153.00
C 142.55 156.73 132.53 155.00 124.00 153.00
C 123.53 152.89 122.39 152.79 122.00 153.00
C 120.63 153.71 118.98 154.47 117.00 154.00
C 117.00 152.67 117.00 151.33 117.00 150.00
C 116.56 149.84 116.00 150.00 116.00 150.00
C 112.00 154.06 106.40 147.28 106.00 143.00
C 105.95 142.50 106.00 142.00 106.00 142.00
C 105.80 140.03 106.18 138.68 107.00 137.00
C 106.20 137.80 104.87 138.36 104.00 139.00
C 102.66 139.98 101.42 141.23 100.00 142.00
C 102.98 132.63 112.64 124.99 122.00 123.00
C 119.58 126.58 114.38 127.42 112.00 131.00
C 112.28 130.84 116.61 130.59 118.00 130.00
C 122.42 126.78 127.83 124.77 133.00 123.00
C 133.80 122.23 133.72 122.16 135.00 122.00
C 139.25 119.03 138.13 120.13 144.07 120.93 C 150.02 121.72 152.31 119.26 158.00 125.00 Z"/>
</g>
<g fill="#CCBBB6" fill-opacity="1.00" stroke="None">
<path d="
M 142.00 83.00 
C 142.63 84.08 143.36 85.10 144.00 86.00
C 144.28 84.78 145.86 85.41 146.00 84.00
C 145.41 83.23 144.60 82.71 144.00 82.00
C 143.68 82.00 142.13 82.70 142.00 83.00 Z"/>
</g>
<g fill="#74C1C0" fill-opacity="0.91" stroke="None">
<path d="
M 153.00 85.00 
C 157.94 91.78 164.87 102.03 168.00 110.00
C 167.95 110.06 169.95 110.97 170.00 111.00
C 170.33 110.98 170.99 109.45 172.00 110.00
C 165.67 101.74 159.87 90.82 154.00 82.00
C 153.98 83.11 153.05 83.77 153.00 85.00 Z"/>
</g>
<g fill="#AF8A85" fill-opacity="1.00" stroke="None">
<path d="
M 144.00 86.00 
C 145.89 88.64 148.28 91.39 150.00 94.00
C 150.08 93.17 150.98 92.91 151.00 92.00
C 149.21 89.44 147.83 86.39 146.00 84.00
C 145.86 85.41 144.28 84.78 144.00 86.00 Z"/>
</g>
<g fill="#1E1718" fill-opacity="1.00" stroke="None">
<path d="
M 116.00 97.00 
C 111.60 103.48 106.90 109.92 103.00 117.00
C 99.36 123.60 94.75 132.45 90.25 138.25 C 85.74 144.04 82.90 154.87 76.00 158.00
C 76.82 162.58 73.19 163.20 71.00 166.00
C 69.43 169.59 67.24 172.82 65.00 176.00
C 65.09 176.99 64.93 178.01 65.00 179.00
C 84.33 179.00 103.67 179.00 123.00 179.00
C 139.33 179.00 155.67 179.00 172.00 179.00
C 185.67 179.00 199.33 179.00 213.00 179.00
C 211.52 176.58 210.49 173.49 208.00 172.00
C 208.74 178.31 193.31 175.32 191.00 175.00
C 190.17 175.42 187.95 175.00 187.00 175.00
C 176.67 175.00 166.33 175.00 156.00 175.00
C 149.42 175.00 142.17 175.78 136.00 174.00
C 129.44 174.77 122.86 175.00 116.00 175.00
C 112.90 175.00 109.36 174.23 107.00 174.00
C 103.33 174.00 99.67 174.00 96.00 174.00
C 94.33 174.00 92.67 174.00 91.00 174.00
C 86.63 174.46 81.08 175.46 76.00 175.00
C 74.57 175.56 71.47 175.19 72.00 173.00
C 71.74 169.37 73.91 167.05 77.00 166.00
C 77.09 165.65 77.65 165.11 78.00 165.00
C 80.31 161.49 83.03 157.46 85.00 154.00
C 91.29 142.95 97.91 131.77 105.00 121.00
C 105.69 119.96 106.07 119.71 107.00 119.00
C 108.98 116.73 109.41 113.77 112.00 112.00
C 111.56 105.79 120.92 96.30 124.00 91.00
C 121.85 93.44 118.29 95.19 116.00 97.00 Z"/>
</g>
<g fill="#9A998D" fill-opacity="1.00" stroke="None">
<path d="
M 150.00 94.00 
C 150.63 94.96 151.46 96.16 152.00 97.00
C 152.23 97.00 153.09 95.87 154.00 96.00
C 153.03 94.82 151.81 93.15 151.00 92.00
C 150.98 92.91 150.08 93.17 150.00 94.00 Z"/>
</g>
<g fill="#D4CEB7" fill-opacity="1.00" stroke="None">
<path d="
M 121.00 111.00 
C 121.41 110.81 122.00 111.00 122.00 111.00
C 123.62 108.52 126.27 108.07 128.00 106.00
C 130.60 100.51 132.07 97.10 139.00 97.00
C 140.19 96.98 141.86 97.31 143.00 97.00
C 143.82 96.77 144.69 95.07 145.00 95.00
C 134.61 87.58 122.54 100.51 121.00 111.00 Z"/>
</g>
<g fill="#64B3BA" fill-opacity="1.00" stroke="None">
<path d="
M 143.00 97.00 
C 142.84 97.52 144.65 100.45 145.00 101.00
C 146.91 103.50 150.10 103.56 152.00 105.00
C 149.76 101.38 148.63 97.59 145.00 95.00
C 144.69 95.07 143.82 96.77 143.00 97.00 Z"/>
</g>
<g fill="#7BC0BB" fill-opacity="1.00" stroke="None">
<path d="
M 152.00 97.00 
C 155.02 101.72 156.73 107.44 160.00 112.00
C 161.00 113.40 161.75 112.89 162.00 115.00
C 162.74 115.99 164.20 116.75 165.00 118.00
C 166.19 119.04 167.99 119.23 169.00 120.00
C 167.96 118.07 167.78 115.94 167.00 114.00
C 164.38 109.54 160.50 105.78 158.00 101.00
C 156.83 98.75 155.52 97.85 154.00 96.00
C 153.09 95.87 152.23 97.00 152.00 97.00 Z"/>
</g>
<g fill="#1F0D15" fill-opacity="1.00" stroke="None">
<path d="
M 128.00 106.00 
C 126.51 109.15 125.12 113.26 123.00 116.00
C 126.92 114.27 133.61 114.61 138.00 115.00 C 142.39 115.39 150.15 113.94 154.00 116.00
C 153.42 114.64 152.79 111.44 151.00 109.00
C 150.13 107.81 148.94 106.29 148.00 105.00
C 146.43 103.21 140.91 97.47 139.00 97.00
C 132.07 97.10 130.60 100.51 128.00 106.00 Z"/>
</g>
<g fill="#222A2D" fill-opacity="1.00" stroke="None">
<path d="
M 148.00 105.00 
C 147.02 103.65 145.87 102.37 145.00 101.00
C 144.65 100.45 142.84 97.52 143.00 97.00
C 141.86 97.31 140.19 96.98 139.00 97.00
C 140.91 97.47 146.43 103.21 148.00 105.00 Z"/>
</g>
<g fill="#4D728A" fill-opacity="1.00" stroke="None">
<path d="
M 148.00 105.00 
C 148.94 106.29 150.13 107.81 151.00 109.00
C 152.38 110.20 154.50 110.89 156.00 112.00
C 155.77 111.84 156.00 111.00 156.00 111.00
C 155.14 108.62 153.21 106.96 152.00 105.00
C 150.10 103.56 146.91 103.50 145.00 101.00
C 145.87 102.37 147.02 103.65 148.00 105.00 Z"/>
</g>
<g fill="#254446" fill-opacity="1.00" stroke="None">
<path d="
M 167.00 114.00 
C 164.83 108.60 161.61 105.31 158.00 101.00
C 160.50 105.78 164.38 109.54 167.00 114.00 Z"/>
</g>
<g fill="#75564E" fill-opacity="1.00" stroke="None">
<path d="
M 122.00 111.00 
C 120.86 115.08 116.37 117.64 116.00 122.00
C 117.97 122.06 117.88 121.13 119.00 120.00
C 120.27 118.71 122.02 117.27 123.00 116.00
C 125.12 113.26 126.51 109.15 128.00 106.00
C 126.27 108.07 123.62 108.52 122.00 111.00 Z"/>
</g>
<g fill="#5B4269" fill-opacity="1.00" stroke="None">
<path d="
M 154.00 116.00 
C 154.11 116.26 155.90 119.88 156.00 120.00
C 158.00 121.77 161.38 122.14 164.00 123.00
C 164.88 120.73 162.58 119.74 162.00 118.00
C 160.62 115.82 158.20 113.54 156.00 112.00
C 154.50 110.89 152.38 110.20 151.00 109.00
C 152.79 111.44 153.42 114.64 154.00 116.00 Z"/>
</g>
<g fill="#526A93" fill-opacity="1.00" stroke="None">
<path d="
M 168.00 111.00 
C 170.71 112.89 172.77 116.10 176.00 117.00
C 175.84 116.56 176.00 116.00 176.00 116.00
C 173.86 114.50 171.97 112.31 170.00 111.00
C 169.95 110.97 167.95 110.06 168.00 110.00
C 168.00 110.00 168.06 110.51 168.00 111.00 Z"/>
</g>
<g fill="#75ACCA" fill-opacity="1.00" stroke="None">
<path d="
M 170.00 111.00 
C 171.97 112.31 173.86 114.50 176.00 116.00
C 175.64 115.27 172.15 110.08 172.00 110.00
C 170.99 109.45 170.33 110.98 170.00 111.00 Z"/>
</g>
<g fill="#6895AF" fill-opacity="0.66" stroke="None">
<path d="
M 176.00 116.00 
C 176.00 116.00 175.84 116.56 176.00 117.00
C 176.48 118.36 177.31 119.74 178.00 121.00
C 178.97 122.42 180.80 123.77 182.00 125.00
C 178.42 120.08 175.75 114.89 172.00 110.00
C 172.15 110.08 175.64 115.27 176.00 116.00 Z"/>
</g>
<g fill="#A88E89" fill-opacity="1.00" stroke="None">
<path d="
M 116.00 122.00 
C 116.37 117.64 120.86 115.08 122.00 111.00
C 122.00 111.00 121.41 110.81 121.00 111.00
C 118.54 112.11 111.78 121.87 116.00 122.00 Z"/>
</g>
<g fill="#232444" fill-opacity="1.00" stroke="None">
<path d="
M 156.00 112.00 
C 158.20 113.54 160.62 115.82 162.00 118.00
C 161.72 117.15 162.11 115.89 162.00 115.00
C 161.75 112.89 161.00 113.40 160.00 112.00
C 159.43 111.67 156.67 110.85 156.00 111.00
C 156.00 111.00 155.77 111.84 156.00 112.00 Z"/>
</g>
<g fill="#57436E" fill-opacity="1.00" stroke="None">
<path d="
M 169.00 114.00 
C 169.12 114.12 171.03 115.52 172.00 117.00
C 175.28 122.02 179.55 127.01 183.00 132.00
C 182.56 130.77 182.49 129.25 182.00 128.00
C 181.03 125.50 179.27 123.33 178.00 121.00
C 177.31 119.74 176.48 118.36 176.00 117.00
C 172.77 116.10 170.71 112.89 168.00 111.00
C 167.81 112.60 168.51 112.98 169.00 114.00 Z"/>
</g>
<g fill="#C7AEA4" fill-opacity="1.00" stroke="None">
<path d="
M 107.00 119.00 
C 109.30 117.24 112.68 115.02 113.00 112.00
C 113.00 112.00 112.34 111.77 112.00 112.00
C 109.41 113.77 108.98 116.73 107.00 119.00 Z"/>
</g>
<g fill="#93695B" fill-opacity="1.00" stroke="None">
<path d="
M 107.00 119.00 
C 106.07 119.71 105.69 119.96 105.00 121.00
C 102.02 132.07 93.07 144.17 85.00 154.00
C 83.03 157.46 80.31 161.49 78.00 165.00
C 78.26 164.92 80.84 164.83 81.00 165.00
C 85.21 156.40 93.25 148.17 98.00 140.00
C 103.50 130.54 109.40 121.44 115.00 112.00
C 114.74 112.25 113.50 112.00 113.00 112.00
C 112.68 115.02 109.30 117.24 107.00 119.00 Z"/>
</g>
<g fill="#24173F" fill-opacity="1.00" stroke="None">
<path d="
M 169.00 114.00 
C 170.15 116.38 170.41 115.50 172.00 117.00
C 171.03 115.52 169.12 114.12 169.00 114.00 Z"/>
</g>
<g fill="#DBD5C7" fill-opacity="1.00" stroke="None">
<path d="
M 123.00 116.00 
C 122.02 117.27 120.27 118.71 119.00 120.00
C 127.86 115.20 146.76 117.31 156.00 120.00
C 155.90 119.88 154.11 116.26 154.00 116.00
C 150.15 113.94 142.39 115.39 138.00 115.00 C 133.61 114.61 126.92 114.27 123.00 116.00 Z"/>
</g>
<g fill="#372A25" fill-opacity="0.55" stroke="None">
<path d="
M 96.00 121.00 
C 96.87 119.76 98.08 118.47 99.00 117.00
C 97.45 118.80 97.27 118.50 96.00 121.00 Z"/>
</g>
<g fill="#8A6C5D" fill-opacity="1.00" stroke="None">
<path d="
M 75.00 158.00 
C 75.27 157.75 76.00 158.00 76.00 158.00
C 82.90 154.87 85.74 144.04 90.25 138.25 C 94.75 132.45 99.36 123.60 103.00 117.00
C 93.29 130.32 84.46 144.34 75.00 158.00 Z"/>
</g>
<g fill="#A88C88" fill-opacity="1.00" stroke="None">
<path d="
M 167.00 123.00 
C 168.52 124.78 170.39 124.07 172.00 125.00
C 171.20 123.88 169.67 121.23 169.00 120.00
C 167.99 119.23 166.19 119.04 165.00 118.00
C 166.00 119.56 166.24 121.46 167.00 123.00 Z"/>
</g>
<g fill="#192931" fill-opacity="1.00" stroke="None">
<path d="
M 135.00 122.00 
C 138.52 121.57 141.82 122.11 145.00 123.00
C 155.39 125.90 164.16 133.73 171.00 142.00
C 170.45 143.01 169.02 143.44 168.00 144.00
C 167.85 144.05 168.00 145.00 168.00 145.00
C 171.61 145.80 171.77 141.98 174.00 141.00
C 172.83 140.31 171.94 139.01 171.00 138.00
C 166.74 133.45 162.27 129.32 158.00 125.00
C 152.31 119.26 150.02 121.72 144.07 120.93 C 138.13 120.13 139.25 119.03 135.00 122.00 Z"/>
</g>
<g fill="#AF9286" fill-opacity="1.00" stroke="None">
<path d="
M 85.00 154.00 
C 93.07 144.17 102.02 132.07 105.00 121.00
C 97.91 131.77 91.29 142.95 85.00 154.00 Z"/>
</g>
<g fill="#6199B5" fill-opacity="0.85" stroke="None">
<path d="
M 182.00 128.00 
C 183.62 130.36 184.70 132.34 186.00 135.00
C 187.26 135.98 187.58 137.64 188.00 139.00
C 188.34 140.11 188.53 140.19 189.00 141.00
C 188.96 140.69 189.69 140.20 190.00 140.00
C 190.52 139.67 190.93 138.53 192.00 139.00
C 188.98 134.12 185.93 129.05 182.00 125.00
C 180.80 123.77 178.97 122.42 178.00 121.00
C 179.27 123.33 181.03 125.50 182.00 128.00 Z"/>
</g>
<g fill="#B8D7D2" fill-opacity="1.00" stroke="None">
<path d="
M 133.00 123.00 
C 132.25 123.73 131.73 125.38 131.00 126.00
C 138.72 122.59 149.97 125.32 152.00 135.00
C 152.80 138.80 151.68 143.32 149.00 146.00
C 150.43 145.88 152.09 147.50 154.00 147.00
C 154.32 146.80 154.79 146.04 155.00 146.00
C 153.70 145.79 152.31 146.16 151.00 146.00
C 156.77 138.06 150.83 128.84 145.00 123.00
C 141.82 122.11 138.52 121.57 135.00 122.00
C 133.72 122.16 133.80 122.23 133.00 123.00 Z"/>
</g>
<g fill="#D5D2BB" fill-opacity="1.00" stroke="None">
<path d="
M 104.00 139.00 
C 105.59 137.54 107.51 135.49 109.00 134.00
C 109.84 132.92 111.01 131.98 112.00 131.00
C 114.38 127.42 119.58 126.58 122.00 123.00
C 112.64 124.99 102.98 132.63 100.00 142.00
C 101.42 141.23 102.66 139.98 104.00 139.00 Z"/>
</g>
<g fill="#60D4C2" fill-opacity="1.00" stroke="None">
<path d="
M 118.00 130.00 
C 113.60 133.20 109.84 138.32 106.00 142.00
C 106.00 142.00 105.95 142.50 106.00 143.00
C 109.63 144.94 113.24 147.12 116.00 150.00
C 116.00 150.00 116.56 149.84 117.00 150.00
C 118.90 150.69 120.20 152.27 122.00 153.00
C 122.39 152.79 123.53 152.89 124.00 153.00
C 125.59 152.22 129.27 150.33 129.00 148.00
C 122.18 143.53 121.91 131.31 129.00 127.00
C 129.69 126.58 130.28 126.32 131.00 126.00
C 131.73 125.38 132.25 123.73 133.00 123.00
C 127.83 124.77 122.42 126.78 118.00 130.00 Z"/>
</g>
<g fill="#63D8C4" fill-opacity="1.00" stroke="None">
<path d="
M 155.00 146.00 
C 157.49 145.59 159.59 145.56 162.00 145.00
C 163.63 144.64 165.69 143.45 168.00 144.00
C 169.02 143.44 170.45 143.01 171.00 142.00
C 164.16 133.73 155.39 125.90 145.00 123.00
C 150.83 128.84 156.77 138.06 151.00 146.00
C 152.31 146.16 153.70 145.79 155.00 146.00 Z"/>
</g>
<g fill="#8A6160" fill-opacity="1.00" stroke="None">
<path d="
M 186.00 152.00 
C 188.64 155.54 191.51 159.14 194.00 163.00
C 194.69 164.07 196.41 168.58 197.00 169.00
C 198.50 169.08 199.07 169.76 200.00 170.00
C 200.46 169.86 201.53 169.88 202.00 170.00
C 192.11 154.97 182.37 139.52 172.00 125.00
C 170.39 124.07 168.52 124.78 167.00 123.00
C 171.79 132.73 179.52 143.29 186.00 152.00 Z"/>
</g>
<g fill="#22121C" fill-opacity="1.00" stroke="None">
<path d="
M 131.00 126.00 
C 130.28 126.32 129.69 126.58 129.00 127.00
C 125.66 130.66 124.97 137.10 126.00 141.00
C 126.16 140.13 131.76 145.53 134.23 146.77 C 136.70 148.01 145.08 148.22 148.00 146.00
C 145.56 142.26 148.69 137.10 152.00 135.00
C 149.97 125.32 138.72 122.59 131.00 126.00 Z"/>
</g>
<g fill="#77BBB1" fill-opacity="1.00" stroke="None">
<path d="
M 171.00 138.00 
C 171.87 138.64 173.90 139.29 175.00 140.00
C 175.35 140.23 176.00 140.00 176.00 140.00
C 170.80 131.59 166.14 129.79 158.00 125.00
C 162.27 129.32 166.74 133.45 171.00 138.00 Z"/>
</g>
<g fill="#BFE1DD" fill-opacity="1.00" stroke="None">
<path d="
M 129.00 148.00 
C 128.88 146.98 127.43 145.92 127.00 145.00
C 126.47 143.86 126.33 142.26 126.00 141.00
C 124.97 137.10 125.66 130.66 129.00 127.00
C 121.91 131.31 122.18 143.53 129.00 148.00 Z"/>
</g>
<g fill="#506091" fill-opacity="1.00" stroke="None">
<path d="
M 183.00 132.00 
C 183.41 133.16 183.25 134.76 185.00 135.00
C 185.49 135.07 186.00 135.00 186.00 135.00
C 184.70 132.34 183.62 130.36 182.00 128.00
C 182.49 129.25 182.56 130.77 183.00 132.00 Z"/>
</g>
<g fill="#1A2726" fill-opacity="1.00" stroke="None">
<path d="
M 112.00 131.00 
C 111.01 131.98 109.84 132.92 109.00 134.00
C 108.33 134.86 107.72 136.28 107.00 137.00
C 106.18 138.68 105.80 140.03 106.00 142.00
C 109.84 138.32 113.60 133.20 118.00 130.00
C 116.61 130.59 112.28 130.84 112.00 131.00 Z"/>
</g>
<g fill="#6C655F" fill-opacity="1.00" stroke="None">
<path d="
M 104.00 139.00 
C 104.87 138.36 106.20 137.80 107.00 137.00
C 107.72 136.28 108.33 134.86 109.00 134.00
C 107.51 135.49 105.59 137.54 104.00 139.00 Z"/>
</g>
<g fill="#211C1D" fill-opacity="1.00" stroke="None">
<path d="
M 126.00 141.00 
C 126.33 142.26 126.47 143.86 127.00 145.00
C 131.25 152.36 143.79 151.21 149.00 146.00
C 151.68 143.32 152.80 138.80 152.00 135.00
C 148.69 137.10 145.56 142.26 148.00 146.00
C 145.08 148.22 136.70 148.01 134.23 146.77 C 131.76 145.53 126.16 140.13 126.00 141.00 Z"/>
</g>
<g fill="#8C89A4" fill-opacity="1.00" stroke="None">
<path d="
M 188.00 139.00 
C 187.58 137.64 187.26 135.98 186.00 135.00
C 186.00 135.00 185.49 135.07 185.00 135.00
C 185.28 136.98 187.17 137.65 188.00 139.00 Z"/>
</g>
<g fill="#4C7575" fill-opacity="1.00" stroke="None">
<path d="
M 174.00 141.00 
C 174.00 141.00 174.75 141.25 175.00 141.00
C 174.80 140.60 175.00 140.00 175.00 140.00
C 173.90 139.29 171.87 138.64 171.00 138.00
C 171.94 139.01 172.83 140.31 174.00 141.00 Z"/>
</g>
<g fill="#65C2B9" fill-opacity="0.82" stroke="None">
<path d="
M 190.00 140.00 
C 192.27 140.84 196.18 147.99 198.00 150.00
C 195.91 146.58 194.20 142.56 192.00 139.00
C 190.93 138.53 190.52 139.67 190.00 140.00 Z"/>
</g>
<g fill="#371918" fill-opacity="1.00" stroke="None">
<path d="
M 81.00 165.00 
C 80.80 165.40 81.00 166.00 81.00 166.00
C 84.31 166.30 87.07 165.27 90.00 165.00
C 90.24 164.80 90.00 164.00 90.00 164.00
C 89.00 163.98 88.00 164.01 87.00 164.00
C 87.85 159.01 92.06 155.54 94.00 151.00
C 95.64 147.49 96.63 143.53 98.00 140.00
C 93.25 148.17 85.21 156.40 81.00 165.00 Z"/>
</g>
<g fill="#B9B6BE" fill-opacity="1.00" stroke="None">
<path d="
M 175.00 141.00 
C 175.75 142.68 177.43 144.04 179.00 145.00
C 178.85 143.25 177.34 140.98 176.00 140.00
C 176.00 140.00 175.35 140.23 175.00 140.00
C 175.00 140.00 174.80 140.60 175.00 141.00 Z"/>
</g>
<g fill="#BFE3E3" fill-opacity="0.99" stroke="None">
<path d="
M 189.00 141.00 
C 194.50 150.46 199.33 161.48 206.00 170.00
C 206.45 170.58 207.50 171.43 208.00 172.00
C 210.49 173.49 211.52 176.58 213.00 179.00
C 199.33 179.00 185.67 179.00 172.00 179.00
C 172.04 179.00 172.00 180.00 172.00 180.00
C 172.71 179.57 175.15 180.00 176.00 180.00
C 189.00 180.00 202.00 180.00 215.00 180.00
C 210.13 170.94 202.75 162.90 200.00 153.00
C 199.24 152.08 198.76 150.84 198.00 150.00
C 196.18 147.99 192.27 140.84 190.00 140.00
C 189.69 140.20 188.96 140.69 189.00 141.00 Z"/>
</g>
<g fill="#142222" fill-opacity="1.00" stroke="None">
<path d="
M 116.00 150.00 
C 113.24 147.12 109.63 144.94 106.00 143.00
C 106.40 147.28 112.00 154.06 116.00 150.00 Z"/>
</g>
<g fill="#ABCBB2" fill-opacity="1.00" stroke="None">
<path d="
M 162.00 145.00 
C 162.47 144.89 163.50 145.00 164.00 145.00
C 164.85 145.00 167.29 145.43 168.00 145.00
C 168.00 145.00 167.85 144.05 168.00 144.00
C 165.69 143.45 163.63 144.64 162.00 145.00 Z"/>
</g>
<g fill="#DBCCAF" fill-opacity="1.00" stroke="None">
<path d="
M 129.00 148.00 
C 129.27 150.33 125.59 152.22 124.00 153.00
C 132.53 155.00 142.55 156.73 151.00 153.00
C 150.60 152.96 148.27 151.65 148.00 151.00
C 148.85 148.14 152.62 148.90 154.00 147.00
C 152.09 147.50 150.43 145.88 149.00 146.00
C 143.79 151.21 131.25 152.36 127.00 145.00
C 127.43 145.92 128.88 146.98 129.00 148.00 Z"/>
</g>
<g fill="#DBAA8C" fill-opacity="1.00" stroke="None">
<path d="
M 155.00 146.00 
C 154.79 146.04 154.32 146.80 154.00 147.00
C 152.62 148.90 148.85 148.14 148.00 151.00
C 148.27 151.65 150.60 152.96 151.00 153.00
C 155.11 151.18 160.09 146.01 164.00 145.00
C 163.50 145.00 162.47 144.89 162.00 145.00
C 159.59 145.56 157.49 145.59 155.00 146.00 Z"/>
</g>
<g fill="#C2AFA8" fill-opacity="1.00" stroke="None">
<path d="
M 111.00 154.00 
C 111.59 154.21 112.49 154.70 113.00 155.00
C 112.49 154.45 112.36 153.59 112.00 153.00
C 110.94 151.26 105.26 143.81 102.79 146.77 C 100.32 149.73 108.90 153.25 111.00 154.00 Z"/>
</g>
<g fill="#CED5C5" fill-opacity="1.00" stroke="None">
<path d="
M 112.00 153.00 
C 112.36 153.59 112.49 154.45 113.00 155.00
C 114.42 155.84 116.20 156.74 115.00 158.00
C 113.20 159.89 108.67 159.00 106.00 159.00
C 106.19 159.08 106.04 160.50 106.00 161.00
C 105.95 161.69 104.85 163.50 105.00 164.00
C 105.50 164.00 106.00 164.00 106.00 164.00
C 108.00 164.00 110.00 164.00 112.00 164.00
C 111.75 163.75 112.00 163.00 112.00 163.00
C 114.20 158.94 125.42 158.68 129.00 161.00
C 130.11 161.72 131.35 162.36 131.00 164.00
C 128.67 164.00 126.33 164.00 124.00 164.00
C 124.01 164.00 124.00 165.00 124.00 165.00
C 137.33 165.00 150.67 165.00 164.00 165.00
C 163.96 165.00 164.00 164.00 164.00 164.00
C 162.67 163.97 161.33 164.02 160.00 164.00
C 163.62 157.39 175.17 161.97 181.00 159.00
C 174.00 159.00 167.00 159.00 160.00 159.00
C 164.40 154.66 171.49 152.89 175.00 147.00
C 164.43 149.03 157.18 159.58 146.00 160.00 C 134.82 160.42 121.23 159.20 112.00 153.00 Z"/>
</g>
<g fill="#9F736C" fill-opacity="1.00" stroke="None">
<path d="
M 94.00 151.00 
C 92.06 155.54 87.85 159.01 87.00 164.00
C 88.00 164.01 89.00 163.98 90.00 164.00
C 91.30 163.55 93.61 164.00 95.00 164.00
C 93.81 163.60 93.21 159.90 91.00 161.00
C 90.48 160.03 92.42 157.04 93.00 159.00
C 93.47 159.12 94.00 159.00 94.00 159.00
C 95.02 155.53 97.19 152.50 98.00 149.00
C 96.47 148.93 95.09 150.03 94.00 151.00 Z"/>
</g>
<g fill="#C6B2A7" fill-opacity="1.00" stroke="None">
<path d="
M 182.00 156.00 
C 182.01 155.90 183.03 153.99 183.00 154.00
C 181.48 152.35 180.28 149.17 178.00 149.00
C 177.80 151.99 180.88 153.81 182.00 156.00 Z"/>
</g>
<g fill="#192830" fill-opacity="1.00" stroke="None">
<path d="
M 122.00 153.00 
C 120.20 152.27 118.90 150.69 117.00 150.00
C 117.00 151.33 117.00 152.67 117.00 154.00
C 118.98 154.47 120.63 153.71 122.00 153.00 Z"/>
</g>
<g fill="#31172B" fill-opacity="1.00" stroke="None">
<path d="
M 184.00 154.00 
C 184.02 154.29 187.14 155.41 187.00 158.00
C 187.23 158.16 187.00 159.50 187.00 160.00
C 187.26 160.61 189.96 162.85 189.00 164.00
C 190.61 163.58 192.09 162.40 194.00 163.00
C 191.51 159.14 188.64 155.54 186.00 152.00
C 186.07 151.75 184.04 153.96 184.00 154.00 Z"/>
</g>
<g fill="#61CDC2" fill-opacity="0.94" stroke="None">
<path d="
M 176.00 180.00 
C 177.18 180.38 178.66 183.59 180.00 184.00
C 183.10 184.00 186.64 184.77 189.00 185.00
C 199.67 185.00 210.33 185.00 221.00 185.00
C 216.24 176.42 210.93 167.98 205.00 160.00
C 203.54 158.04 202.39 155.97 201.00 154.00
C 200.79 153.70 200.22 153.26 200.00 153.00
C 202.75 162.90 210.13 170.94 215.00 180.00
C 202.00 180.00 189.00 180.00 176.00 180.00 Z"/>
</g>
<g fill="#6C5A55" fill-opacity="1.00" stroke="None">
<path d="
M 115.00 158.00 
C 116.20 156.74 114.42 155.84 113.00 155.00
C 112.49 154.70 111.59 154.21 111.00 154.00
C 112.27 154.86 113.37 157.52 115.00 158.00 Z"/>
</g>
<g fill="#51907F" fill-opacity="1.00" stroke="None">
<path d="
M 182.00 156.00 
C 181.96 156.27 182.68 159.21 183.00 159.00
C 184.14 158.80 184.65 158.01 186.00 158.00
C 185.58 156.79 185.13 154.87 184.00 154.00
C 184.00 154.00 183.40 153.80 183.00 154.00
C 183.03 153.99 182.01 155.90 182.00 156.00 Z"/>
</g>
<g fill="#243946" fill-opacity="1.00" stroke="None">
<path d="
M 186.00 158.00 
C 186.50 158.00 187.00 158.00 187.00 158.00
C 187.14 155.41 184.02 154.29 184.00 154.00
C 185.13 154.87 185.58 156.79 186.00 158.00 Z"/>
</g>
<g fill="#052234" fill-opacity="0.15" stroke="None">
<path d="
M 205.00 160.00 
C 204.27 158.78 203.52 155.89 201.00 154.00
C 202.39 155.97 203.54 158.04 205.00 160.00 Z"/>
</g>
<g fill="#699C97" fill-opacity="1.00" stroke="None">
<path d="
M 73.00 161.00 
C 72.00 162.66 71.73 164.33 71.00 166.00
C 73.19 163.20 76.82 162.58 76.00 158.00
C 76.00 158.00 75.27 157.75 75.00 158.00
C 74.41 158.86 73.80 160.27 73.00 161.00 Z"/>
</g>
<g fill="#DBAF91" fill-opacity="1.00" stroke="None">
<path d="
M 95.00 164.00 
C 98.33 164.00 101.67 164.00 105.00 164.00
C 104.85 163.50 105.95 161.69 106.00 161.00
C 103.53 162.10 94.23 161.61 93.00 159.00
C 92.42 157.04 90.48 160.03 91.00 161.00
C 93.21 159.90 93.81 163.60 95.00 164.00 Z"/>
</g>
<g fill="#84E0CB" fill-opacity="1.00" stroke="None">
<path d="
M 183.00 159.00 
C 182.51 159.08 181.50 159.00 181.00 159.00
C 175.17 161.97 163.62 157.39 160.00 164.00
C 161.33 164.02 162.67 163.97 164.00 164.00
C 169.24 163.53 174.74 164.00 180.00 164.00
C 180.50 164.00 181.00 164.00 181.00 164.00
C 182.13 161.24 184.33 160.96 187.00 161.00
C 187.25 160.70 187.00 160.00 187.00 160.00
C 187.00 159.50 187.23 158.16 187.00 158.00
C 187.00 158.00 186.50 158.00 186.00 158.00
C 184.65 158.01 184.14 158.80 183.00 159.00 Z"/>
</g>
<g fill="#FCEBD7" fill-opacity="1.00" stroke="None">
<path d="
M 106.00 161.00 
C 106.04 160.50 106.19 159.08 106.00 159.00
C 102.00 159.00 98.00 159.00 94.00 159.00
C 94.00 159.00 93.47 159.12 93.00 159.00
C 94.23 161.61 103.53 162.10 106.00 161.00 Z"/>
</g>
<g fill="#88DABE" fill-opacity="1.00" stroke="None">
<path d="
M 112.00 163.00 
C 115.41 162.01 126.29 160.23 129.00 161.00
C 125.42 158.68 114.20 158.94 112.00 163.00 Z"/>
</g>
<g fill="#686CAA" fill-opacity="1.00" stroke="None">
<path d="
M 187.00 161.00 
C 186.32 161.83 183.90 163.63 183.00 164.00
C 184.33 164.00 185.67 164.00 187.00 164.00
C 187.50 164.00 188.53 164.12 189.00 164.00
C 189.96 162.85 187.26 160.61 187.00 160.00
C 187.00 160.00 187.25 160.70 187.00 161.00 Z"/>
</g>
<g fill="#67D5C4" fill-opacity="1.00" stroke="None">
<path d="
M 64.00 172.00 
C 63.35 173.27 62.86 174.88 62.00 176.00
C 60.91 178.74 61.18 181.75 59.00 184.00
C 78.67 184.00 98.33 184.00 118.00 184.00
C 118.50 184.00 119.00 184.00 119.00 184.00
C 119.50 183.54 120.50 181.17 121.00 181.00
C 101.88 178.36 81.55 180.90 62.00 180.00
C 62.99 178.67 63.05 176.43 65.00 176.00
C 67.24 172.82 69.43 169.59 71.00 166.00
C 71.73 164.33 72.00 162.66 73.00 161.00
C 73.00 161.00 72.22 160.75 72.00 161.00
C 68.96 164.38 66.15 167.81 64.00 172.00 Z"/>
</g>
<g fill="#BDF8EF" fill-opacity="1.00" stroke="None">
<path d="
M 112.00 163.00 
C 112.00 163.00 111.75 163.75 112.00 164.00
C 112.50 164.00 113.00 164.00 113.00 164.00
C 116.66 164.00 120.34 164.07 124.00 164.00
C 126.33 164.00 128.67 164.00 131.00 164.00
C 131.35 162.36 130.11 161.72 129.00 161.00
C 126.29 160.23 115.41 162.01 112.00 163.00 Z"/>
</g>
<g fill="#71ABC8" fill-opacity="1.00" stroke="None">
<path d="
M 181.00 164.00 
C 181.50 164.00 182.50 164.00 183.00 164.00
C 183.90 163.63 186.32 161.83 187.00 161.00
C 184.33 160.96 182.13 161.24 181.00 164.00 Z"/>
</g>
<g fill="#14090F" fill-opacity="1.00" stroke="None">
<path d="
M 189.00 164.00 
C 188.53 164.12 187.50 164.00 187.00 164.00
C 184.83 164.92 182.73 164.95 180.00 165.00
C 174.67 165.11 169.33 165.00 164.00 165.00
C 150.67 165.00 137.33 165.00 124.00 165.00
C 120.33 165.00 116.67 165.00 113.00 165.00
C 110.67 165.00 108.33 165.00 106.00 165.00
C 100.75 165.00 95.23 164.51 90.00 165.00
C 87.07 165.27 84.31 166.30 81.00 166.00
C 80.37 166.90 79.90 167.85 80.00 169.00
C 85.33 169.00 90.67 169.00 96.00 169.00
C 109.33 169.00 122.67 169.00 136.00 169.00
C 138.67 169.00 141.33 169.00 144.00 169.00
C 147.67 169.00 151.33 169.00 155.00 169.00
C 161.00 169.00 167.00 169.00 173.00 169.00
C 178.00 169.00 183.00 169.00 188.00 169.00
C 190.00 169.00 192.00 169.00 194.00 169.00
C 194.99 169.00 196.01 168.95 197.00 169.00
C 196.41 168.58 194.69 164.07 194.00 163.00
C 192.09 162.40 190.61 163.58 189.00 164.00 Z"/>
</g>
<g fill="#6D4C45" fill-opacity="1.00" stroke="None">
<path d="
M 90.00 165.00 
C 95.23 164.51 100.75 165.00 106.00 165.00
C 105.93 164.99 106.00 164.00 106.00 164.00
C 106.00 164.00 105.50 164.00 105.00 164.00
C 101.67 164.00 98.33 164.00 95.00 164.00
C 93.61 164.00 91.30 163.55 90.00 164.00
C 90.00 164.00 90.24 164.80 90.00 165.00 Z"/>
</g>
<g fill="#968784" fill-opacity="1.00" stroke="None">
<path d="
M 106.00 165.00 
C 108.33 165.00 110.67 165.00 113.00 165.00
C 113.07 164.99 113.00 164.00 113.00 164.00
C 113.00 164.00 112.50 164.00 112.00 164.00
C 110.00 164.00 108.00 164.00 106.00 164.00
C 106.00 164.00 105.93 164.99 106.00 165.00 Z"/>
</g>
<g fill="#6C8280" fill-opacity="1.00" stroke="None">
<path d="
M 113.00 165.00 
C 116.67 165.00 120.33 165.00 124.00 165.00
C 124.00 165.00 124.01 164.00 124.00 164.00
C 120.34 164.07 116.66 164.00 113.00 164.00
C 113.00 164.00 113.07 164.99 113.00 165.00 Z"/>
</g>
<g fill="#426866" fill-opacity="1.00" stroke="None">
<path d="
M 164.00 165.00 
C 169.33 165.00 174.67 165.11 180.00 165.00
C 180.04 165.00 180.00 164.00 180.00 164.00
C 174.74 164.00 169.24 163.53 164.00 164.00
C 164.00 164.00 163.96 165.00 164.00 165.00 Z"/>
</g>
<g fill="#423250" fill-opacity="1.00" stroke="None">
<path d="
M 180.00 165.00 
C 182.73 164.95 184.83 164.92 187.00 164.00
C 185.67 164.00 184.33 164.00 183.00 164.00
C 182.50 164.00 181.50 164.00 181.00 164.00
C 181.00 164.00 180.50 164.00 180.00 164.00
C 180.00 164.00 180.04 165.00 180.00 165.00 Z"/>
</g>
<g fill="#AEE4DF" fill-opacity="1.00" stroke="None">
<path d="
M 77.00 166.00 
C 76.88 166.47 77.24 167.70 77.00 168.00
C 77.36 171.25 82.36 172.02 85.00 171.00 C 87.64 169.98 95.04 172.85 97.00 171.00
C 96.69 170.76 96.22 169.10 96.00 169.00
C 90.67 169.00 85.33 169.00 80.00 169.00
C 79.90 167.85 80.37 166.90 81.00 166.00
C 81.00 166.00 80.80 165.40 81.00 165.00
C 80.84 164.83 78.26 164.92 78.00 165.00
C 77.65 165.11 77.09 165.65 77.00 166.00 Z"/>
</g>
<g fill="#142926" fill-opacity="1.00" stroke="None">
<path d="
M 72.00 173.00 
C 72.03 172.89 73.00 173.00 73.00 173.00
C 74.17 170.81 75.58 169.77 77.00 168.00
C 77.24 167.70 76.88 166.47 77.00 166.00
C 73.91 167.05 71.74 169.37 72.00 173.00 Z"/>
</g>
<g fill="#58C1AD" fill-opacity="1.00" stroke="None">
<path d="
M 73.00 173.00 
C 74.17 173.43 74.70 173.80 76.00 174.00
C 80.74 174.73 86.19 174.00 91.00 174.00
C 92.67 174.00 94.33 174.00 96.00 174.00
C 96.24 173.83 96.39 171.30 97.00 171.00
C 95.04 172.85 87.64 169.98 85.00 171.00 C 82.36 172.02 77.36 171.25 77.00 168.00
C 75.58 169.77 74.17 170.81 73.00 173.00 Z"/>
</g>
<g fill="#F9E5DA" fill-opacity="1.00" stroke="None">
<path d="
M 97.00 171.00 
C 101.64 174.58 108.34 170.37 114.00 171.00 C 119.66 171.63 128.09 171.00 134.00 171.00
C 134.50 171.00 135.50 171.00 136.00 171.00
C 135.75 170.75 136.19 169.08 136.00 169.00
C 122.67 169.00 109.33 169.00 96.00 169.00
C 96.22 169.10 96.69 170.76 97.00 171.00 Z"/>
</g>
<g fill="#D4F0EC" fill-opacity="1.00" stroke="None">
<path d="
M 136.00 171.00 
C 136.50 171.00 137.53 171.11 138.00 171.00
C 139.79 170.58 142.60 169.20 144.00 169.00
C 141.33 169.00 138.67 169.00 136.00 169.00
C 136.19 169.08 135.75 170.75 136.00 171.00 Z"/>
</g>
<g fill="#7AD1BB" fill-opacity="1.00" stroke="None">
<path d="
M 138.00 171.00 
C 138.25 171.25 138.25 172.75 138.00 173.00
C 144.33 173.00 150.45 174.46 156.00 175.00
C 166.33 175.00 176.67 175.00 187.00 175.00
C 188.40 174.56 190.25 171.70 192.00 171.00
C 191.14 170.77 188.81 169.16 188.00 169.00
C 183.00 169.00 178.00 169.00 173.00 169.00
C 167.33 169.55 160.60 169.54 155.00 169.00
C 151.33 169.00 147.67 169.00 144.00 169.00
C 142.60 169.20 139.79 170.58 138.00 171.00 Z"/>
</g>
<g fill="#C7EBE4" fill-opacity="1.00" stroke="None">
<path d="
M 173.00 169.00 
C 167.00 169.00 161.00 169.00 155.00 169.00
C 160.60 169.54 167.33 169.55 173.00 169.00 Z"/>
</g>
<g fill="#DAF3F0" fill-opacity="1.00" stroke="None">
<path d="
M 192.00 171.00 
C 192.43 170.83 193.75 171.25 194.00 171.00
C 194.25 170.75 193.76 169.31 194.00 169.00
C 192.00 169.00 190.00 169.00 188.00 169.00
C 188.81 169.16 191.14 170.77 192.00 171.00 Z"/>
</g>
<g fill="#DCC8DB" fill-opacity="1.00" stroke="None">
<path d="
M 194.00 171.00 
C 195.21 170.34 198.46 170.48 200.00 170.00
C 199.07 169.76 198.50 169.08 197.00 169.00
C 196.01 168.95 194.99 169.00 194.00 169.00
C 193.76 169.31 194.25 170.75 194.00 171.00 Z"/>
</g>
<g fill="#63437B" fill-opacity="1.00" stroke="None">
<path d="
M 194.00 171.00 
C 193.21 171.43 192.59 173.39 192.00 174.00
C 196.25 173.39 200.73 174.46 205.00 174.00
C 204.70 172.75 203.17 172.29 203.00 171.00
C 202.73 170.87 202.35 170.09 202.00 170.00
C 201.53 169.88 200.46 169.86 200.00 170.00
C 198.46 170.48 195.21 170.34 194.00 171.00 Z"/>
</g>
<g fill="#392440" fill-opacity="1.00" stroke="None">
<path d="
M 203.00 171.00 
C 203.17 172.29 204.70 172.75 205.00 174.00
C 200.73 174.46 196.25 173.39 192.00 174.00
C 191.75 174.25 191.27 174.87 191.00 175.00
C 193.31 175.32 208.74 178.31 208.00 172.00
C 207.50 171.43 206.45 170.58 206.00 170.00
C 205.54 169.96 204.39 171.69 203.00 171.00 Z"/>
</g>
<g fill="#DE9483" fill-opacity="1.00" stroke="None">
<path d="
M 96.00 174.00 
C 99.67 174.00 103.33 174.00 107.00 174.00
C 110.10 174.00 113.64 174.77 116.00 175.00
C 122.86 175.00 129.44 174.77 136.00 174.00
C 135.87 173.96 136.00 173.00 136.00 173.00
C 135.86 172.85 133.97 170.99 134.00 171.00
C 128.09 171.00 119.66 171.63 114.00 171.00 C 108.34 170.37 101.64 174.58 97.00 171.00
C 96.39 171.30 96.24 173.83 96.00 174.00 Z"/>
</g>
<g fill="#B4AD89" fill-opacity="1.00" stroke="None">
<path d="
M 136.00 173.00 
C 136.16 172.77 137.50 173.00 138.00 173.00
C 138.25 172.75 138.25 171.25 138.00 171.00
C 137.53 171.11 136.50 171.00 136.00 171.00
C 135.50 171.00 134.50 171.00 134.00 171.00
C 133.97 170.99 135.86 172.85 136.00 173.00 Z"/>
</g>
<g fill="#6188AC" fill-opacity="1.00" stroke="None">
<path d="
M 187.00 175.00 
C 187.95 175.00 190.17 175.42 191.00 175.00
C 191.27 174.87 191.75 174.25 192.00 174.00
C 192.59 173.39 193.21 171.43 194.00 171.00
C 193.75 171.25 192.43 170.83 192.00 171.00
C 190.25 171.70 188.40 174.56 187.00 175.00 Z"/>
</g>
<g fill="#132E2C" fill-opacity="0.45" stroke="None">
<path d="
M 61.00 176.00 
C 61.22 175.75 62.00 176.00 62.00 176.00
C 62.86 174.88 63.35 173.27 64.00 172.00
C 63.11 173.14 59.39 174.46 61.00 176.00 Z"/>
</g>
<g fill="#475063" fill-opacity="1.00" stroke="None">
<path d="
M 76.00 175.00 
C 75.96 175.00 76.00 174.00 76.00 174.00
C 74.70 173.80 74.17 173.43 73.00 173.00
C 73.00 173.00 72.03 172.89 72.00 173.00
C 71.47 175.19 74.57 175.56 76.00 175.00 Z"/>
</g>
<g fill="#D3D9CD" fill-opacity="1.00" stroke="None">
<path d="
M 136.00 174.00 
C 142.17 175.78 149.42 175.00 156.00 175.00
C 150.45 174.46 144.33 173.00 138.00 173.00
C 137.50 173.00 136.16 172.77 136.00 173.00
C 136.00 173.00 135.87 173.96 136.00 174.00 Z"/>
</g>
<g fill="#3F6D72" fill-opacity="1.00" stroke="None">
<path d="
M 76.00 175.00 
C 81.08 175.46 86.63 174.46 91.00 174.00
C 86.19 174.00 80.74 174.73 76.00 174.00
C 76.00 174.00 75.96 175.00 76.00 175.00 Z"/>
</g>
<g fill="#81605A" fill-opacity="1.00" stroke="None">
<path d="
M 116.00 175.00 
C 113.64 174.77 110.10 174.00 107.00 174.00
C 109.36 174.23 112.90 175.00 116.00 175.00 Z"/>
</g>
<g fill="#60A9A5" fill-opacity="0.87" stroke="None">
<path d="
M 68.00 185.00 
C 83.67 185.00 99.33 185.00 115.00 185.00
C 116.00 185.00 117.00 185.00 118.00 185.00
C 118.25 184.73 118.00 184.00 118.00 184.00
C 98.33 184.00 78.67 184.00 59.00 184.00
C 61.18 181.75 60.91 178.74 62.00 176.00
C 62.00 176.00 61.22 175.75 61.00 176.00
C 58.89 178.77 57.59 181.92 56.00 185.00
C 60.00 185.00 64.00 185.00 68.00 185.00 Z"/>
</g>
<g fill="#D2F5F1" fill-opacity="1.00" stroke="None">
<path d="
M 121.00 181.00 
C 121.34 181.05 123.78 181.22 124.00 181.00
C 123.64 180.77 123.24 179.11 123.00 179.00
C 103.67 179.00 84.33 179.00 65.00 179.00
C 64.93 178.01 65.09 176.99 65.00 176.00
C 63.05 176.43 62.99 178.67 62.00 180.00
C 81.55 180.90 101.88 178.36 121.00 181.00 Z"/>
</g>
<g fill="#F5E5D7" fill-opacity="1.00" stroke="None">
<path d="
M 124.00 181.00 
C 131.47 185.81 148.48 181.00 157.00 181.00
C 158.33 181.00 159.67 181.00 161.00 181.00
C 161.50 181.00 162.00 181.00 162.00 181.00
C 164.55 179.11 168.72 180.29 172.00 180.00
C 172.00 180.00 172.04 179.00 172.00 179.00
C 155.67 179.00 139.33 179.00 123.00 179.00
C 123.24 179.11 123.64 180.77 124.00 181.00 Z"/>
</g>
<g fill="#BEBBDC" fill-opacity="1.00" stroke="None">
<path d="
M 162.00 181.00 
C 165.00 181.00 168.00 181.00 171.00 181.00
C 171.50 181.00 172.00 181.00 172.00 181.00
C 172.25 180.75 172.00 180.00 172.00 180.00
C 168.72 180.29 164.55 179.11 162.00 181.00 Z"/>
</g>
<g fill="#4A9BB3" fill-opacity="1.00" stroke="None">
<path d="
M 172.00 181.00 
C 174.90 180.85 173.79 183.49 175.00 184.00
C 176.67 184.00 178.33 184.00 180.00 184.00
C 178.66 183.59 177.18 180.38 176.00 180.00
C 175.15 180.00 172.71 179.57 172.00 180.00
C 172.00 180.00 172.25 180.75 172.00 181.00 Z"/>
</g>
<g fill="#99A685" fill-opacity="1.00" stroke="None">
<path d="
M 119.00 184.00 
C 120.41 183.45 122.94 181.18 124.00 181.00
C 123.78 181.22 121.34 181.05 121.00 181.00
C 120.50 181.17 119.50 183.54 119.00 184.00 Z"/>
</g>
<g fill="#AA7C6D" fill-opacity="0.91" stroke="None">
<path d="
M 119.00 184.00 
C 119.00 184.00 118.50 184.00 118.00 184.00
C 118.00 184.00 118.25 184.73 118.00 185.00
C 131.67 185.00 145.33 185.00 159.00 185.00
C 158.85 184.95 159.00 184.00 159.00 184.00
C 158.82 183.51 157.33 181.16 157.00 181.00
C 148.48 181.00 131.47 185.81 124.00 181.00
C 122.94 181.18 120.41 183.45 119.00 184.00 Z"/>
</g>
<g fill="#8B6C7E" fill-opacity="1.00" stroke="None">
<path d="
M 159.00 184.00 
C 159.71 183.57 162.15 184.00 163.00 184.00
C 162.51 183.55 161.02 181.68 161.00 181.00
C 159.67 181.00 158.33 181.00 157.00 181.00
C 157.33 181.16 158.82 183.51 159.00 184.00 Z"/>
</g>
<g fill="#635497" fill-opacity="1.00" stroke="None">
<path d="
M 163.00 184.00 
C 163.50 184.00 164.00 184.00 164.00 184.00
C 166.63 184.00 169.38 183.76 172.00 184.00
C 171.45 183.75 170.69 181.52 171.00 181.00
C 168.00 181.00 165.00 181.00 162.00 181.00
C 162.00 181.00 161.50 181.00 161.00 181.00
C 161.02 181.68 162.51 183.55 163.00 184.00 Z"/>
</g>
<g fill="#447095" fill-opacity="1.00" stroke="None">
<path d="
M 172.00 184.00 
C 172.24 183.74 174.61 184.00 175.00 184.00
C 173.79 183.49 174.90 180.85 172.00 181.00
C 172.00 181.00 171.50 181.00 171.00 181.00
C 170.69 181.52 171.45 183.75 172.00 184.00 Z"/>
</g>
<g fill="#896A7A" fill-opacity="0.76" stroke="None">
<path d="
M 159.00 185.00 
C 160.67 185.00 162.33 185.00 164.00 185.00
C 163.77 184.66 164.00 184.00 164.00 184.00
C 164.00 184.00 163.50 184.00 163.00 184.00
C 162.15 184.00 159.71 183.57 159.00 184.00
C 159.00 184.00 158.85 184.95 159.00 185.00 Z"/>
</g>
<g fill="#635495" fill-opacity="0.77" stroke="None">
<path d="
M 164.00 185.00 
C 164.50 185.00 165.50 185.00 166.00 185.00
C 168.00 185.00 170.00 185.00 172.00 185.00
C 172.10 184.98 172.00 184.00 172.00 184.00
C 169.38 183.76 166.63 184.00 164.00 184.00
C 164.00 184.00 163.77 184.66 164.00 185.00 Z"/>
</g>
<g fill="#416989" fill-opacity="0.76" stroke="None">
<path d="
M 172.00 185.00 
C 175.33 185.00 178.67 185.00 182.00 185.00
C 184.33 185.00 186.67 185.00 189.00 185.00
C 186.64 184.77 183.10 184.00 180.00 184.00
C 178.33 184.00 176.67 184.00 175.00 184.00
C 174.61 184.00 172.24 183.74 172.00 184.00
C 172.00 184.00 172.10 184.98 172.00 185.00 Z"/>
</g>
<g fill="#001A22" fill-opacity="0.12" stroke="None">
<path d="
M 115.00 186.00 
C 114.96 186.00 115.00 185.00 115.00 185.00
C 99.33 185.00 83.67 185.00 68.00 185.00
C 82.77 186.43 99.43 186.00 115.00 186.00 Z"/>
</g>
<g fill="#1C0C15" fill-opacity="0.18" stroke="None">
<path d="
M 115.00 186.00 
C 132.00 186.00 149.00 186.00 166.00 186.00
C 165.96 186.00 166.00 185.00 166.00 185.00
C 165.50 185.00 164.50 185.00 164.00 185.00
C 162.33 185.00 160.67 185.00 159.00 185.00
C 145.33 185.00 131.67 185.00 118.00 185.00
C 117.00 185.00 116.00 185.00 115.00 185.00
C 115.00 185.00 114.96 186.00 115.00 186.00 Z"/>
</g>
<g fill="#201535" fill-opacity="0.08" stroke="None">
<path d="
M 166.00 186.00 
C 171.39 186.00 177.29 185.45 182.00 185.00
C 178.67 185.00 175.33 185.00 172.00 185.00
C 170.00 185.00 168.00 185.00 166.00 185.00
C 166.00 185.00 165.96 186.00 166.00 186.00 Z"/>
</g>
</svg>