<svg xmlns="http://www.w3.org/2000/svg" xmlns:v="https://svgstorm.com"
viewBox = "0 0 270 270"
width="270"
height="270">
<g fill="None" fill-opacity="0.0" stroke="#000000" stroke-opacity="0.00" stroke-width="0.3"><path d="
M 0.00 270.00 
L 270.00 270.00
L 270.00 0.00
L 0.00 0.00
L 0.00 270.00
M 148.00 66.00 
C 149.19 67.92 150.77 69.93 152.00 72.00
C 156.77 80.03 162.81 88.32 166.00 97.00
C 166.73 98.13 167.34 98.69 168.00 100.00
C 172.69 109.30 179.29 117.86 183.77 127.23 C 188.25 136.60 195.07 145.31 199.31 154.69 C 203.54 164.08 213.57 171.95 216.00 182.00
C 216.64 184.65 216.93 183.86 215.00 185.00
C 212.28 186.61 204.61 186.93 202.00 185.00
C 201.50 185.00 201.00 185.00 201.00 185.00
C 167.00 185.00 133.00 185.00 99.00 185.00
C 94.54 185.00 88.28 185.26 84.00 185.00 C 79.72 184.74 72.61 185.70 69.00 185.00 C 65.39 184.30 56.33 187.07 55.00 184.00
C 54.40 182.62 55.53 181.16 56.00 180.00
C 57.92 175.21 61.43 171.15 64.00 167.00
C 66.73 161.53 69.79 156.18 73.00 151.00
C 82.76 135.24 91.77 119.05 101.00 103.00
C 102.23 100.86 103.83 98.87 105.00 97.00
C 105.59 95.77 106.37 95.02 107.00 94.00
C 107.78 92.75 108.28 90.47 109.00 89.00
C 110.10 86.75 110.84 84.35 113.00 83.00
C 113.17 82.57 113.00 82.00 113.00 82.00
C 115.11 76.62 120.32 65.21 125.00 62.00
C 124.94 59.91 126.21 60.26 127.00 59.00
C 127.64 57.33 128.18 55.68 129.00 54.00
C 129.83 52.31 132.04 46.35 134.00 46.00
C 138.24 45.24 146.22 62.11 148.00 66.00
M 141.00 197.00 
C 142.78 200.31 142.22 203.31 139.00 205.00
C 136.62 206.25 135.31 205.98 133.00 205.00
C 133.01 205.01 127.92 203.08 130.00 202.00
C 126.90 195.59 137.44 190.38 141.00 197.00 Z"/>
</g>
<g fill="None" fill-opacity="0.0" stroke="#D1D9DA" stroke-opacity="0.24" stroke-width="0.3"><path d="
M 129.00 54.00 
C 130.51 51.55 133.67 49.25 134.00 46.00
C 132.04 46.35 129.83 52.31 129.00 54.00 Z"/>
</g>
<g fill="None" fill-opacity="0.0" stroke="#0E3238" stroke-opacity="0.95" stroke-width="0.3"><path d="
M 129.00 54.00 
C 128.18 55.68 127.64 57.33 127.00 59.00
C 126.42 60.51 125.70 61.81 125.00 63.00
C 121.83 68.10 117.93 78.92 113.00 82.00
C 113.00 82.00 113.17 82.57 113.00 83.00
C 112.03 85.46 110.20 87.05 109.00 89.00
C 108.28 90.47 107.78 92.75 107.00 94.00
C 111.15 93.23 109.88 100.90 110.00 103.00
C 111.59 101.99 112.85 100.47 115.00 101.00
C 115.53 100.28 116.59 99.56 117.00 99.00
C 117.81 97.90 118.24 95.38 119.00 94.00
C 119.37 93.32 119.65 92.67 120.00 92.00
C 121.37 89.31 122.63 86.68 124.00 84.00
C 126.30 79.50 129.37 71.18 136.00 75.00
C 133.66 82.74 132.51 96.13 144.00 96.00
C 144.56 92.61 148.97 90.84 152.00 90.00
C 154.07 95.06 157.94 98.95 160.00 104.00
C 160.80 105.85 161.45 108.02 162.00 110.00
C 158.88 109.43 156.24 107.32 153.00 107.00
C 151.77 106.57 149.90 105.21 149.00 105.00
C 145.91 104.27 142.18 105.29 139.00 105.00
C 132.09 108.59 122.48 108.81 116.00 113.00
C 119.29 116.30 123.10 110.87 127.00 112.00
C 127.28 118.93 137.45 114.87 142.07 116.93 C 146.69 118.98 150.51 121.79 152.00 127.00
C 154.93 122.22 160.70 131.97 161.32 136.68 C 161.94 141.39 162.84 151.73 159.69 156.69 C 156.55 161.66 153.02 166.17 147.00 168.00
C 141.18 169.77 134.36 168.57 129.00 168.00
C 127.68 168.08 125.24 168.43 124.00 168.00
C 123.93 168.19 122.07 169.99 122.00 170.00
C 125.06 171.41 127.84 172.00 131.00 173.00
C 133.74 172.75 137.28 172.61 140.00 173.00
C 140.62 172.89 143.00 172.27 144.00 172.00
C 144.43 171.89 146.31 171.25 147.00 171.00
C 148.48 170.46 150.26 168.68 152.00 168.00
C 152.43 167.83 153.00 168.00 153.00 168.00
C 156.51 162.97 162.22 159.09 165.00 154.00
C 166.28 151.03 166.89 148.39 167.00 145.00
C 167.06 143.34 167.00 141.66 167.00 140.00
C 167.00 138.67 167.06 137.33 167.00 136.00
C 166.10 131.30 162.10 126.52 160.00 122.00
C 161.82 121.45 162.47 123.75 164.00 124.00
C 164.98 124.64 166.11 125.33 167.00 126.00
C 170.45 128.61 172.87 131.41 175.00 135.00
C 181.38 145.74 189.53 156.39 194.00 168.00
C 195.03 169.85 197.69 171.43 198.00 174.00
C 180.62 176.91 161.12 173.56 143.00 175.00
C 139.32 175.29 135.68 176.58 131.99 176.99 C 128.31 177.40 124.97 174.53 122.00 174.00
C 105.67 174.00 89.33 174.00 73.00 174.00
C 74.44 172.08 74.50 168.96 77.00 168.00
C 79.17 163.03 81.91 157.24 85.00 153.00
C 84.08 149.91 79.61 152.51 78.00 153.00
C 76.47 150.57 75.56 148.13 73.00 151.00
C 69.79 156.18 66.73 161.53 64.00 167.00
C 62.17 170.66 60.28 175.63 58.00 179.00
C 62.43 181.16 59.17 183.37 67.00 183.00 C 74.84 182.63 85.24 183.23 93.00 183.00 C 100.76 182.77 99.90 182.88 106.00 183.00 C 112.10 183.12 114.29 182.51 120.00 183.00
C 118.79 182.70 116.01 181.93 115.00 181.00
C 127.74 178.55 139.54 180.87 152.00 183.00
C 168.22 183.00 185.58 182.51 201.00 184.00
C 202.86 183.61 205.10 184.08 207.00 184.00
C 209.22 183.90 215.47 181.37 216.00 182.00
C 213.57 171.95 203.54 164.08 199.31 154.69 C 195.07 145.31 188.25 136.60 183.77 127.23 C 179.29 117.86 172.69 109.30 168.00 100.00
C 166.85 98.58 166.87 99.37 166.00 97.00
C 162.81 88.32 156.77 80.03 152.00 72.00
C 150.74 70.33 149.18 68.59 148.00 66.00
C 146.22 62.11 138.24 45.24 134.00 46.00
C 133.67 49.25 130.51 51.55 129.00 54.00 Z"/>
</g>
<g fill="None" fill-opacity="0.0" stroke="#809498" stroke-opacity="0.42" stroke-width="0.3"><path d="
M 125.00 62.00 
C 125.01 62.50 125.00 63.00 125.00 63.00
C 125.70 61.81 126.42 60.51 127.00 59.00
C 126.21 60.26 124.94 59.91 125.00 62.00 Z"/>
</g>
<g fill="None" fill-opacity="0.0" stroke="#D2DADA" stroke-opacity="0.26" stroke-width="0.3"><path d="
M 113.00 82.00 
C 117.93 78.92 121.83 68.10 125.00 63.00
C 125.00 63.00 125.01 62.50 125.00 62.00
C 120.32 65.21 115.11 76.62 113.00 82.00 Z"/>
</g>
<g fill="None" fill-opacity="0.0" stroke="#6E8386" stroke-opacity="0.24" stroke-width="0.3"><path d="
M 152.00 72.00 
C 150.77 69.93 149.19 67.92 148.00 66.00
C 149.18 68.59 150.74 70.33 152.00 72.00 Z"/>
</g>
<g fill="None" fill-opacity="0.0" stroke="#23535E" stroke-opacity="1.00" stroke-width="0.3"><path d="
M 124.00 84.00 
C 125.30 82.33 128.04 80.39 130.00 80.00
C 129.13 86.09 130.76 91.74 135.00 96.00
C 138.23 98.40 143.20 98.26 147.00 99.00
C 145.54 102.66 152.05 101.47 149.00 105.00
C 149.90 105.21 151.77 106.57 153.00 107.00
C 152.55 104.69 155.53 103.93 156.00 102.00
C 157.46 102.55 158.18 104.40 160.00 104.00
C 157.94 98.95 154.07 95.06 152.00 90.00
C 148.97 90.84 144.56 92.61 144.00 96.00
C 132.51 96.13 133.66 82.74 136.00 75.00
C 129.37 71.18 126.30 79.50 124.00 84.00 Z"/>
</g>
<g fill="None" fill-opacity="0.0" stroke="#277B82" stroke-opacity="1.00" stroke-width="0.3"><path d="
M 124.00 84.00 
C 122.63 86.68 121.37 89.31 120.00 92.00
C 124.37 86.73 131.39 96.48 135.00 99.00
C 134.58 98.42 135.21 96.70 135.00 96.00
C 130.76 91.74 129.13 86.09 130.00 80.00
C 128.04 80.39 125.30 82.33 124.00 84.00 Z"/>
</g>
<g fill="None" fill-opacity="0.0" stroke="#DDE2E2" stroke-opacity="0.26" stroke-width="0.3"><path d="
M 109.00 89.00 
C 110.20 87.05 112.03 85.46 113.00 83.00
C 110.84 84.35 110.10 86.75 109.00 89.00 Z"/>
</g>
<g fill="None" fill-opacity="0.0" stroke="#45928B" stroke-opacity="1.00" stroke-width="0.3"><path d="
M 120.00 92.00 
C 119.65 92.67 119.37 93.32 119.00 94.00
C 120.47 95.16 126.27 93.80 127.75 96.25 C 129.23 98.70 132.76 99.30 135.00 100.00
C 134.78 99.62 135.00 99.00 135.00 99.00
C 131.39 96.48 124.37 86.73 120.00 92.00 Z"/>
</g>
<g fill="None" fill-opacity="0.0" stroke="#304443" stroke-opacity="0.95" stroke-width="0.3"><path d="
M 105.00 97.00 
C 103.84 99.41 102.40 101.04 101.00 103.00
C 91.77 119.05 82.76 135.24 73.00 151.00
C 75.56 148.13 76.47 150.57 78.00 153.00
C 79.61 152.51 84.08 149.91 85.00 153.00
C 89.48 146.86 93.54 140.24 98.00 134.00
C 99.74 131.57 107.92 126.89 105.00 132.00
C 104.78 132.38 105.00 133.00 105.00 133.00
C 104.29 137.30 104.00 141.42 104.00 146.00
C 104.00 146.50 104.00 147.00 104.00 147.00
C 104.88 149.02 105.17 151.67 106.00 154.00
C 106.16 154.44 106.00 155.00 106.00 155.00
C 108.35 156.47 109.45 159.70 111.00 162.00
C 113.29 165.40 114.52 166.09 118.00 168.00
C 119.46 168.80 120.58 169.34 122.00 170.00
C 122.07 169.99 123.93 168.19 124.00 168.00
C 124.17 167.56 124.00 167.00 124.00 167.00
C 121.40 166.07 119.98 164.76 118.00 163.00
C 113.68 159.16 111.27 156.14 109.00 151.00
C 107.84 148.36 107.25 146.98 107.00 144.00
C 106.81 141.78 106.81 139.22 107.00 137.00
C 107.32 133.20 108.28 132.77 110.00 130.00
C 110.67 128.92 111.21 127.22 112.00 126.00
C 112.23 125.65 112.00 125.00 112.00 125.00
C 114.14 120.28 123.39 118.06 128.00 118.00
C 131.56 117.95 133.81 118.87 137.00 120.00
C 142.61 122.00 147.80 125.55 146.00 133.00
C 148.70 134.69 151.52 136.62 152.00 140.00
C 145.42 142.31 151.25 150.51 144.00 153.00
C 145.15 152.63 148.22 152.96 149.00 154.00
C 149.81 147.49 155.14 142.13 154.00 135.00
C 148.48 135.77 152.73 129.80 152.00 127.00
C 150.51 121.79 146.69 118.98 142.07 116.93 C 137.45 114.87 127.28 118.93 127.00 112.00
C 123.10 110.87 119.29 116.30 116.00 113.00
C 122.48 108.81 132.09 108.59 139.00 105.00
C 139.20 104.89 139.00 104.00 139.00 104.00
C 135.93 103.67 132.86 104.30 130.00 105.00
C 127.21 105.68 123.73 106.11 121.00 107.00
C 116.84 108.35 112.68 112.21 108.00 113.00
C 108.40 109.47 111.40 107.02 113.00 104.00
C 113.67 103.03 114.32 101.91 115.00 101.00
C 112.85 100.47 111.59 101.99 110.00 103.00
C 109.88 100.90 111.15 93.23 107.00 94.00
C 106.37 95.02 105.59 95.77 105.00 97.00 Z"/>
</g>
<g fill="None" fill-opacity="0.0" stroke="#6EA894" stroke-opacity="1.00" stroke-width="0.3"><path d="
M 117.00 99.00 
C 119.48 98.02 124.70 97.71 128.00 99.00
C 127.32 101.47 128.78 103.18 130.00 105.00
C 132.86 104.30 135.93 103.67 139.00 104.00
C 139.49 104.05 140.00 104.00 140.00 104.00
C 138.45 102.93 135.94 101.64 135.00 100.00
C 132.76 99.30 129.23 98.70 127.75 96.25 C 126.27 93.80 120.47 95.16 119.00 94.00
C 118.24 95.38 117.81 97.90 117.00 99.00 Z"/>
</g>
<g fill="None" fill-opacity="0.0" stroke="#4E5C67" stroke-opacity="1.00" stroke-width="0.3"><path d="
M 135.00 99.00 
C 138.16 99.01 139.72 102.53 143.00 102.00
C 143.64 104.03 141.31 104.06 140.00 104.00
C 140.00 104.00 139.49 104.05 139.00 104.00
C 139.00 104.00 139.20 104.89 139.00 105.00
C 142.18 105.29 145.91 104.27 149.00 105.00
C 152.05 101.47 145.54 102.66 147.00 99.00
C 143.20 98.26 138.23 98.40 135.00 96.00
C 135.21 96.70 134.58 98.42 135.00 99.00 Z"/>
</g>
<g fill="None" fill-opacity="0.0" stroke="#D8DCDB" stroke-opacity="0.13" stroke-width="0.3"><path d="
M 101.00 103.00 
C 102.40 101.04 103.84 99.41 105.00 97.00
C 103.83 98.87 102.23 100.86 101.00 103.00 Z"/>
</g>
<g fill="None" fill-opacity="0.0" stroke="#5B7378" stroke-opacity="0.31" stroke-width="0.3"><path d="
M 168.00 100.00 
C 167.34 98.69 166.73 98.13 166.00 97.00
C 166.87 99.37 166.85 98.58 168.00 100.00 Z"/>
</g>
<g fill="None" fill-opacity="0.0" stroke="#83C4A1" stroke-opacity="1.00" stroke-width="0.3"><path d="
M 117.00 99.00 
C 116.59 99.56 115.53 100.28 115.00 101.00
C 114.32 101.91 113.67 103.03 113.00 104.00
C 116.52 102.73 118.55 106.55 121.00 107.00
C 123.73 106.11 127.21 105.68 130.00 105.00
C 128.78 103.18 127.32 101.47 128.00 99.00
C 124.70 97.71 119.48 98.02 117.00 99.00 Z"/>
</g>
<g fill="None" fill-opacity="0.0" stroke="#717D7E" stroke-opacity="1.00" stroke-width="0.3"><path d="
M 135.00 100.00 
C 135.94 101.64 138.45 102.93 140.00 104.00
C 141.31 104.06 143.64 104.03 143.00 102.00
C 139.72 102.53 138.16 99.01 135.00 99.00
C 135.00 99.00 134.78 99.62 135.00 100.00 Z"/>
</g>
<g fill="None" fill-opacity="0.0" stroke="#357C80" stroke-opacity="1.00" stroke-width="0.3"><path d="
M 153.00 107.00 
C 156.24 107.32 158.88 109.43 162.00 110.00
C 161.45 108.02 160.80 105.85 160.00 104.00
C 158.18 104.40 157.46 102.55 156.00 102.00
C 155.53 103.93 152.55 104.69 153.00 107.00 Z"/>
</g>
<g fill="None" fill-opacity="0.0" stroke="#B6CAAD" stroke-opacity="1.00" stroke-width="0.3"><path d="
M 121.00 107.00 
C 118.55 106.55 116.52 102.73 113.00 104.00
C 111.40 107.02 108.40 109.47 108.00 113.00
C 112.68 112.21 116.84 108.35 121.00 107.00 Z"/>
</g>
<g fill="None" fill-opacity="0.0" stroke="#6C5D5B" stroke-opacity="1.00" stroke-width="0.3"><path d="
M 112.00 125.00 
C 116.29 122.53 123.49 118.57 128.00 118.00
C 123.39 118.06 114.14 120.28 112.00 125.00 Z"/>
</g>
<g fill="None" fill-opacity="0.0" stroke="#9C7069" stroke-opacity="1.00" stroke-width="0.3"><path d="
M 112.00 125.00 
C 112.00 125.00 112.23 125.65 112.00 126.00
C 121.12 124.66 130.08 115.13 137.30 125.70 C 144.53 136.27 135.38 142.06 135.00 153.00
C 136.23 153.16 137.82 152.64 139.00 153.00
C 140.97 142.47 148.94 128.87 137.00 120.00
C 133.81 118.87 131.56 117.95 128.00 118.00
C 123.49 118.57 116.29 122.53 112.00 125.00 Z"/>
</g>
<g fill="None" fill-opacity="0.0" stroke="#C38B7A" stroke-opacity="1.00" stroke-width="0.3"><path d="
M 112.00 126.00 
C 111.21 127.22 110.67 128.92 110.00 130.00
C 114.33 123.21 128.33 118.91 134.70 125.30 C 141.06 131.69 136.95 146.42 127.00 148.00
C 127.65 150.71 130.71 150.41 132.00 152.00
C 133.15 152.56 133.69 152.83 135.00 153.00
C 135.38 142.06 144.53 136.27 137.30 125.70 C 130.08 115.13 121.12 124.66 112.00 126.00 Z"/>
</g>
<g fill="None" fill-opacity="0.0" stroke="#6B5857" stroke-opacity="1.00" stroke-width="0.3"><path d="
M 139.00 153.00 
C 139.35 153.11 139.75 153.91 140.00 154.00
C 141.15 153.68 142.93 153.55 144.00 153.00
C 151.25 150.51 145.42 142.31 152.00 140.00
C 151.52 136.62 148.70 134.69 146.00 133.00
C 147.80 125.55 142.61 122.00 137.00 120.00
C 148.94 128.87 140.97 142.47 139.00 153.00 Z"/>
</g>
<g fill="None" fill-opacity="0.0" stroke="#E6B397" stroke-opacity="1.00" stroke-width="0.3"><path d="
M 110.00 130.00 
C 109.70 130.47 107.14 136.45 107.00 137.00
C 106.81 139.22 106.81 141.78 107.00 144.00
C 107.45 140.09 109.59 133.04 114.25 130.25 C 118.90 127.46 125.55 124.58 131.22 126.78 C 136.89 128.97 133.11 140.17 129.25 141.25 C 125.38 142.33 116.41 151.04 122.00 154.00
C 123.26 154.00 125.87 153.49 127.00 154.00
C 128.37 153.75 130.07 151.80 132.00 152.00
C 130.71 150.41 127.65 150.71 127.00 148.00
C 136.95 146.42 141.06 131.69 134.70 125.30 C 128.33 118.91 114.33 123.21 110.00 130.00 Z"/>
</g>
<g fill="None" fill-opacity="0.0" stroke="#CAD3D3" stroke-opacity="0.38" stroke-width="0.3"><path d="
M 167.00 136.00 
C 166.90 133.72 166.73 131.14 166.00 129.00
C 165.81 128.44 164.31 124.45 164.00 124.00
C 162.47 123.75 161.82 121.45 160.00 122.00
C 162.10 126.52 166.10 131.30 167.00 136.00 Z"/>
</g>
<g fill="None" fill-opacity="0.0" stroke="#DFE3E4" stroke-opacity="0.15" stroke-width="0.3"><path d="
M 166.00 129.00 
C 164.10 127.67 168.16 128.48 169.00 129.00
C 168.26 128.19 167.73 126.73 167.00 126.00
C 166.11 125.33 164.98 124.64 164.00 124.00
C 164.31 124.45 165.81 128.44 166.00 129.00 Z"/>
</g>
<g fill="None" fill-opacity="0.0" stroke="#154A4F" stroke-opacity="1.00" stroke-width="0.3"><path d="
M 152.00 127.00 
C 152.73 129.80 148.48 135.77 154.00 135.00
C 155.14 142.13 149.81 147.49 149.00 154.00
C 148.48 158.16 149.36 162.09 150.00 166.00
C 148.51 165.72 146.62 166.02 147.00 168.00
C 153.02 166.17 156.55 161.66 159.69 156.69 C 162.84 151.73 161.94 141.39 161.32 136.68 C 160.70 131.97 154.93 122.22 152.00 127.00 Z"/>
</g>
<g fill="None" fill-opacity="0.0" stroke="#F2D6B1" stroke-opacity="1.00" stroke-width="0.3"><path d="
M 107.00 144.00 
C 107.25 146.98 107.84 148.36 109.00 151.00
C 109.84 152.25 112.75 152.74 112.00 155.00
C 114.90 153.10 118.70 154.38 122.00 154.00
C 116.41 151.04 125.38 142.33 129.25 141.25 C 133.11 140.17 136.89 128.97 131.22 126.78 C 125.55 124.58 118.90 127.46 114.25 130.25 C 109.59 133.04 107.45 140.09 107.00 144.00 Z"/>
</g>
<g fill="None" fill-opacity="0.0" stroke="#49666C" stroke-opacity="0.48" stroke-width="0.3"><path d="
M 169.00 129.00 
C 170.90 131.07 173.41 132.86 175.00 135.00
C 172.87 131.41 170.45 128.61 167.00 126.00
C 167.73 126.73 168.26 128.19 169.00 129.00 Z"/>
</g>
<g fill="None" fill-opacity="0.0" stroke="#000000" stroke-opacity="0.00" stroke-width="0.3"><path d="
M 166.00 129.00 
C 166.73 131.14 166.90 133.72 167.00 136.00
C 167.06 137.33 167.00 138.67 167.00 140.00
C 167.23 141.83 167.27 143.19 167.00 145.00
C 166.89 148.39 166.28 151.03 165.00 154.00
C 162.32 160.21 158.23 164.01 153.00 168.00
C 153.00 168.00 152.43 167.83 152.00 168.00
C 150.94 169.69 147.56 170.05 147.00 171.00
C 146.28 170.81 146.08 173.66 148.04 172.97 C 150.01 172.28 151.12 172.96 153.00 173.00
C 167.33 173.29 181.67 172.79 196.00 173.00
C 196.06 171.11 194.58 169.71 194.00 168.00
C 189.53 156.39 181.38 145.74 175.00 135.00
C 173.41 132.86 170.90 131.07 169.00 129.00
C 168.16 128.48 164.10 127.67 166.00 129.00 Z"/>
</g>
<g fill="None" fill-opacity="0.0" stroke="#BFC9C9" stroke-opacity="0.34" stroke-width="0.3"><path d="
M 98.00 134.00 
C 99.80 132.02 102.84 129.78 105.00 132.00
C 107.92 126.89 99.74 131.57 98.00 134.00 Z"/>
</g>
<g fill="None" fill-opacity="0.0" stroke="#A19883" stroke-opacity="1.00" stroke-width="0.3"><path d="
M 107.00 137.00 
C 107.14 136.45 109.70 130.47 110.00 130.00
C 108.28 132.77 107.32 133.20 107.00 137.00 Z"/>
</g>
<g fill="None" fill-opacity="0.0" stroke="#000000" stroke-opacity="0.00" stroke-width="0.3"><path d="
M 98.00 134.00 
C 93.54 140.24 89.48 146.86 85.00 153.00
C 81.91 157.24 79.17 163.03 77.00 168.00
C 76.25 169.72 74.59 171.25 76.00 173.00
C 90.99 170.52 108.18 175.46 123.00 172.00
C 121.67 170.66 118.57 170.53 118.00 168.00
C 114.52 166.09 113.29 165.40 111.00 162.00
C 108.96 159.59 107.23 158.13 106.00 155.00
C 106.00 155.00 106.16 154.44 106.00 154.00
C 103.92 152.41 103.83 149.59 104.00 147.00
C 104.00 147.00 104.00 146.50 104.00 146.00
C 101.72 142.92 102.73 135.80 105.00 133.00
C 105.00 133.00 104.78 132.38 105.00 132.00
C 102.84 129.78 99.80 132.02 98.00 134.00 Z"/>
</g>
<g fill="None" fill-opacity="0.0" stroke="#C6D1CE" stroke-opacity="0.17" stroke-width="0.3"><path d="
M 104.00 146.00 
C 104.00 141.42 104.29 137.30 105.00 133.00
C 102.73 135.80 101.72 142.92 104.00 146.00 Z"/>
</g>
<g fill="None" fill-opacity="0.0" stroke="#E2E7E7" stroke-opacity="0.09" stroke-width="0.3"><path d="
M 167.00 145.00 
C 167.27 143.19 167.23 141.83 167.00 140.00
C 167.00 141.66 167.06 143.34 167.00 145.00 Z"/>
</g>
<g fill="None" fill-opacity="0.0" stroke="#AFB7B7" stroke-opacity="0.38" stroke-width="0.3"><path d="
M 106.00 154.00 
C 105.17 151.67 104.88 149.02 104.00 147.00
C 103.83 149.59 103.92 152.41 106.00 154.00 Z"/>
</g>
<g fill="None" fill-opacity="0.0" stroke="#B2B996" stroke-opacity="1.00" stroke-width="0.3"><path d="
M 118.00 163.00 
C 116.73 159.35 125.23 158.95 128.00 156.00
C 128.25 155.73 128.00 155.00 128.00 155.00
C 127.88 154.74 127.26 154.12 127.00 154.00
C 125.87 153.49 123.26 154.00 122.00 154.00
C 118.70 154.38 114.90 153.10 112.00 155.00
C 112.75 152.74 109.84 152.25 109.00 151.00
C 111.27 156.14 113.68 159.16 118.00 163.00 Z"/>
</g>
<g fill="None" fill-opacity="0.0" stroke="#A29587" stroke-opacity="1.00" stroke-width="0.3"><path d="
M 127.00 154.00 
C 127.26 154.12 127.88 154.74 128.00 155.00
C 132.00 155.58 136.74 154.92 140.00 154.00
C 139.75 153.91 139.35 153.11 139.00 153.00
C 137.82 152.64 136.23 153.16 135.00 153.00
C 133.69 152.83 133.15 152.56 132.00 152.00
C 130.07 151.80 128.37 153.75 127.00 154.00 Z"/>
</g>
<g fill="None" fill-opacity="0.0" stroke="#798376" stroke-opacity="1.00" stroke-width="0.3"><path d="
M 140.00 154.00 
C 136.74 154.92 132.00 155.58 128.00 155.00
C 128.00 155.00 128.25 155.73 128.00 156.00
C 128.51 156.41 129.35 156.42 130.00 157.00
C 132.26 157.64 138.89 156.86 141.00 156.00
C 141.32 155.69 143.91 153.03 144.00 153.00
C 142.93 153.55 141.15 153.68 140.00 154.00 Z"/>
</g>
<g fill="None" fill-opacity="0.0" stroke="#2A6863" stroke-opacity="1.00" stroke-width="0.3"><path d="
M 141.00 156.00 
C 135.82 161.09 138.49 167.44 129.00 168.00
C 134.36 168.57 141.18 169.77 147.00 168.00
C 146.62 166.02 148.51 165.72 150.00 166.00
C 149.36 162.09 148.48 158.16 149.00 154.00
C 148.22 152.96 145.15 152.63 144.00 153.00
C 143.91 153.03 141.32 155.69 141.00 156.00 Z"/>
</g>
<g fill="None" fill-opacity="0.0" stroke="#A5B3B5" stroke-opacity="0.26" stroke-width="0.3"><path d="
M 153.00 168.00 
C 158.23 164.01 162.32 160.21 165.00 154.00
C 162.22 159.09 156.51 162.97 153.00 168.00 Z"/>
</g>
<g fill="None" fill-opacity="0.0" stroke="#A6AFAF" stroke-opacity="0.42" stroke-width="0.3"><path d="
M 111.00 162.00 
C 109.45 159.70 108.35 156.47 106.00 155.00
C 107.23 158.13 108.96 159.59 111.00 162.00 Z"/>
</g>
<g fill="None" fill-opacity="0.0" stroke="#71A187" stroke-opacity="1.00" stroke-width="0.3"><path d="
M 118.00 163.00 
C 119.98 164.76 121.40 166.07 124.00 167.00
C 127.43 165.77 130.52 163.44 134.00 162.00
C 134.61 158.98 130.50 159.43 130.00 157.00
C 129.35 156.42 128.51 156.41 128.00 156.00
C 125.23 158.95 116.73 159.35 118.00 163.00 Z"/>
</g>
<g fill="None" fill-opacity="0.0" stroke="#518878" stroke-opacity="1.00" stroke-width="0.3"><path d="
M 130.00 157.00 
C 130.50 159.43 134.61 158.98 134.00 162.00
C 130.52 163.44 127.43 165.77 124.00 167.00
C 124.00 167.00 124.17 167.56 124.00 168.00
C 125.24 168.43 127.68 168.08 129.00 168.00
C 138.49 167.44 135.82 161.09 141.00 156.00
C 138.89 156.86 132.26 157.64 130.00 157.00 Z"/>
</g>
<g fill="None" fill-opacity="0.0" stroke="#CACFCF" stroke-opacity="0.21" stroke-width="0.3"><path d="
M 56.00 180.00 
C 56.35 179.64 57.79 179.31 58.00 179.00
C 60.28 175.63 62.17 170.66 64.00 167.00
C 61.43 171.15 57.92 175.21 56.00 180.00 Z"/>
</g>
<g fill="None" fill-opacity="0.0" stroke="#E8EEEE" stroke-opacity="0.32" stroke-width="0.3"><path d="
M 122.00 174.00 
C 125.00 174.00 128.00 174.00 131.00 174.00
C 130.96 174.00 131.00 173.00 131.00 173.00
C 127.84 172.00 125.06 171.41 122.00 170.00
C 120.58 169.34 119.46 168.80 118.00 168.00
C 118.57 170.53 121.67 170.66 123.00 172.00
C 108.18 175.46 90.99 170.52 76.00 173.00
C 74.59 171.25 76.25 169.72 77.00 168.00
C 74.50 168.96 74.44 172.08 73.00 174.00
C 89.33 174.00 105.67 174.00 122.00 174.00 Z"/>
</g>
<g fill="None" fill-opacity="0.0" stroke="#A2B0B1" stroke-opacity="0.33" stroke-width="0.3"><path d="
M 147.00 171.00 
C 147.56 170.05 150.94 169.69 152.00 168.00
C 150.26 168.68 148.48 170.46 147.00 171.00 Z"/>
</g>
<g fill="None" fill-opacity="0.0" stroke="#EBEDED" stroke-opacity="0.15" stroke-width="0.3"><path d="
M 153.00 173.00 
C 152.99 173.00 153.00 174.00 153.00 174.00
C 168.00 174.00 183.00 174.00 198.00 174.00
C 197.69 171.43 195.03 169.85 194.00 168.00
C 194.58 169.71 196.06 171.11 196.00 173.00
C 181.67 172.79 167.33 173.29 153.00 173.00 Z"/>
</g>
<g fill="None" fill-opacity="0.0" stroke="#E2E7E8" stroke-opacity="0.28" stroke-width="0.3"><path d="
M 144.00 172.00 
C 144.46 172.14 145.61 173.86 146.00 174.00
C 148.33 174.00 150.67 174.00 153.00 174.00
C 153.00 174.00 152.99 173.00 153.00 173.00
C 151.12 172.96 150.01 172.28 148.04 172.97 C 146.08 173.66 146.28 170.81 147.00 171.00
C 146.31 171.25 144.43 171.89 144.00 172.00 Z"/>
</g>
<g fill="None" fill-opacity="0.0" stroke="#D4DCDD" stroke-opacity="0.55" stroke-width="0.3"><path d="
M 140.00 173.00 
C 140.35 173.05 140.74 173.89 141.00 174.00
C 141.50 174.00 142.70 173.75 143.00 174.00
C 143.35 174.29 145.52 174.00 146.00 174.00
C 145.61 173.86 144.46 172.14 144.00 172.00
C 143.00 172.27 140.62 172.89 140.00 173.00 Z"/>
</g>
<g fill="None" fill-opacity="0.0" stroke="#E5EBEB" stroke-opacity="0.76" stroke-width="0.3"><path d="
M 131.00 174.00 
C 134.33 174.00 137.67 174.00 141.00 174.00
C 140.74 173.89 140.35 173.05 140.00 173.00
C 137.28 172.61 133.74 172.75 131.00 173.00
C 131.00 173.00 130.96 174.00 131.00 174.00 Z"/>
</g>
<g fill="None" fill-opacity="0.0" stroke="#09282B" stroke-opacity="0.60" stroke-width="0.3"><path d="
M 143.00 175.00 
C 143.13 174.96 143.00 174.00 143.00 174.00
C 142.70 173.75 141.50 174.00 141.00 174.00
C 137.67 174.00 134.33 174.00 131.00 174.00
C 128.00 174.00 125.00 174.00 122.00 174.00
C 124.97 174.53 128.31 177.40 131.99 176.99 C 135.68 176.58 139.32 175.29 143.00 175.00 Z"/>
</g>
<g fill="None" fill-opacity="0.0" stroke="#0A282B" stroke-opacity="0.73" stroke-width="0.3"><path d="
M 143.00 175.00 
C 161.12 173.56 180.62 176.91 198.00 174.00
C 183.00 174.00 168.00 174.00 153.00 174.00
C 150.67 174.00 148.33 174.00 146.00 174.00
C 145.52 174.00 143.35 174.29 143.00 174.00
C 143.00 174.00 143.13 174.96 143.00 175.00 Z"/>
</g>
<g fill="None" fill-opacity="0.0" stroke="#010B0E" stroke-opacity="0.78" stroke-width="0.3"><path d="
M 56.00 180.00 
C 55.53 181.16 54.40 182.62 55.00 184.00
C 69.67 184.00 84.33 184.00 99.00 184.00
C 107.00 184.00 115.00 184.00 123.00 184.00
C 122.26 183.84 121.26 183.11 120.00 183.00
C 114.29 182.51 112.10 183.12 106.00 183.00 C 99.90 182.88 100.76 182.77 93.00 183.00 C 85.24 183.23 74.84 182.63 67.00 183.00 C 59.17 183.37 62.43 181.16 58.00 179.00
C 57.79 179.31 56.35 179.64 56.00 180.00 Z"/>
</g>
<g fill="None" fill-opacity="0.0" stroke="#0F2628" stroke-opacity="0.75" stroke-width="0.3"><path d="
M 120.00 183.00 
C 121.26 183.11 122.26 183.84 123.00 184.00
C 132.67 184.00 142.33 184.00 152.00 184.00
C 151.96 184.00 152.00 183.00 152.00 183.00
C 139.54 180.87 127.74 178.55 115.00 181.00
C 116.01 181.93 118.79 182.70 120.00 183.00 Z"/>
</g>
<g fill="None" fill-opacity="0.0" stroke="#111E20" stroke-opacity="0.73" stroke-width="0.3"><path d="
M 207.00 184.00 
C 206.99 184.00 207.00 185.00 207.00 185.00
C 209.21 185.00 212.94 185.74 215.00 185.00
C 216.93 183.86 216.64 184.65 216.00 182.00
C 215.47 181.37 209.22 183.90 207.00 184.00 Z"/>
</g>
<g fill="None" fill-opacity="0.0" stroke="#0F1B1D" stroke-opacity="1.00" stroke-width="0.3"><path d="
M 152.00 184.00 
C 168.11 184.00 184.97 182.55 201.00 184.00
C 185.58 182.51 168.22 183.00 152.00 183.00
C 152.00 183.00 151.96 184.00 152.00 184.00 Z"/>
</g>
<g fill="None" fill-opacity="0.0" stroke="#717B7F" stroke-opacity="0.27" stroke-width="0.3"><path d="
M 99.00 185.00 
C 98.96 185.00 99.00 184.00 99.00 184.00
C 84.33 184.00 69.67 184.00 55.00 184.00
C 56.33 187.07 65.39 184.30 69.00 185.00 C 72.61 185.70 79.72 184.74 84.00 185.00 C 88.28 185.26 94.54 185.00 99.00 185.00 Z"/>
</g>
<g fill="None" fill-opacity="0.0" stroke="#6D777C" stroke-opacity="0.45" stroke-width="0.3"><path d="
M 99.00 185.00 
C 133.00 185.00 167.00 185.00 201.00 185.00
C 200.75 184.75 201.00 184.00 201.00 184.00
C 184.97 182.55 168.11 184.00 152.00 184.00
C 142.33 184.00 132.67 184.00 123.00 184.00
C 115.00 184.00 107.00 184.00 99.00 184.00
C 99.00 184.00 98.96 185.00 99.00 185.00 Z"/>
</g>
<g fill="None" fill-opacity="0.0" stroke="#3C4548" stroke-opacity="0.67" stroke-width="0.3"><path d="
M 201.00 185.00 
C 201.00 185.00 201.50 185.00 202.00 185.00
C 203.67 185.00 205.33 185.00 207.00 185.00
C 207.00 185.00 206.99 184.00 207.00 184.00
C 205.10 184.08 202.86 183.61 201.00 184.00
C 201.00 184.00 200.75 184.75 201.00 185.00 Z"/>
</g>
<g fill="None" fill-opacity="0.0" stroke="#798287" stroke-opacity="0.20" stroke-width="0.3"><path d="
M 215.00 185.00 
C 212.94 185.74 209.21 185.00 207.00 185.00
C 205.33 185.00 203.67 185.00 202.00 185.00
C 204.61 186.93 212.28 186.61 215.00 185.00 Z"/>
</g>
<g fill="None" fill-opacity="0.0" stroke="#6C4C4B" stroke-opacity="0.79" stroke-width="0.3"><path d="
M 130.00 202.00 
C 130.25 202.51 131.67 202.67 132.00 203.00
C 132.22 197.98 140.43 200.61 141.00 197.00
C 137.44 190.38 126.90 195.59 130.00 202.00 Z"/>
</g>
<g fill="None" fill-opacity="0.0" stroke="#AE816E" stroke-opacity="0.85" stroke-width="0.3"><path d="
M 132.00 203.00 
C 132.29 203.29 132.77 204.87 133.00 205.00
C 133.82 205.46 138.07 205.27 139.00 205.00
C 142.22 203.31 142.78 200.31 141.00 197.00
C 140.43 200.61 132.22 197.98 132.00 203.00 Z"/>
</g>
<g fill="None" fill-opacity="0.0" stroke="#C3AA9B" stroke-opacity="0.35" stroke-width="0.3"><path d="
M 133.00 205.00 
C 132.77 204.87 132.29 203.29 132.00 203.00
C 131.67 202.67 130.25 202.51 130.00 202.00
C 127.92 203.08 133.01 205.01 133.00 205.00 Z"/>
</g>
<g fill="None" fill-opacity="0.0" stroke="#CCBFB3" stroke-opacity="0.16" stroke-width="0.3"><path d="
M 139.00 205.00 
C 138.07 205.27 133.82 205.46 133.00 205.00
C 135.31 205.98 136.62 206.25 139.00 205.00 Z"/>
</g>
<g fill="#000000" fill-opacity="0.00" stroke="None">
<path d="
M 0.00 270.00 
L 270.00 270.00
L 270.00 0.00
L 0.00 0.00
L 0.00 270.00
M 148.00 66.00 
C 149.19 67.92 150.77 69.93 152.00 72.00
C 156.77 80.03 162.81 88.32 166.00 97.00
C 166.73 98.13 167.34 98.69 168.00 100.00
C 172.69 109.30 179.29 117.86 183.77 127.23 C 188.25 136.60 195.07 145.31 199.31 154.69 C 203.54 164.08 213.57 171.95 216.00 182.00
C 216.64 184.65 216.93 183.86 215.00 185.00
C 212.28 186.61 204.61 186.93 202.00 185.00
C 201.50 185.00 201.00 185.00 201.00 185.00
C 167.00 185.00 133.00 185.00 99.00 185.00
C 94.54 185.00 88.28 185.26 84.00 185.00 C 79.72 184.74 72.61 185.70 69.00 185.00 C 65.39 184.30 56.33 187.07 55.00 184.00
C 54.40 182.62 55.53 181.16 56.00 180.00
C 57.92 175.21 61.43 171.15 64.00 167.00
C 66.73 161.53 69.79 156.18 73.00 151.00
C 82.76 135.24 91.77 119.05 101.00 103.00
C 102.23 100.86 103.83 98.87 105.00 97.00
C 105.59 95.77 106.37 95.02 107.00 94.00
C 107.78 92.75 108.28 90.47 109.00 89.00
C 110.10 86.75 110.84 84.35 113.00 83.00
C 113.17 82.57 113.00 82.00 113.00 82.00
C 115.11 76.62 120.32 65.21 125.00 62.00
C 124.94 59.91 126.21 60.26 127.00 59.00
C 127.64 57.33 128.18 55.68 129.00 54.00
C 129.83 52.31 132.04 46.35 134.00 46.00
C 138.24 45.24 146.22 62.11 148.00 66.00
M 141.00 197.00 
C 142.78 200.31 142.22 203.31 139.00 205.00
C 136.62 206.25 135.31 205.98 133.00 205.00
C 133.01 205.01 127.92 203.08 130.00 202.00
C 126.90 195.59 137.44 190.38 141.00 197.00 Z"/>
</g>
<g fill="#D1D9DA" fill-opacity="0.24" stroke="None">
<path d="
M 129.00 54.00 
C 130.51 51.55 133.67 49.25 134.00 46.00
C 132.04 46.35 129.83 52.31 129.00 54.00 Z"/>
</g>
<g fill="#0E3238" fill-opacity="0.95" stroke="None">
<path d="
M 129.00 54.00 
C 128.18 55.68 127.64 57.33 127.00 59.00
C 126.42 60.51 125.70 61.81 125.00 63.00
C 121.83 68.10 117.93 78.92 113.00 82.00
C 113.00 82.00 113.17 82.57 113.00 83.00
C 112.03 85.46 110.20 87.05 109.00 89.00
C 108.28 90.47 107.78 92.75 107.00 94.00
C 111.15 93.23 109.88 100.90 110.00 103.00
C 111.59 101.99 112.85 100.47 115.00 101.00
C 115.53 100.28 116.59 99.56 117.00 99.00
C 117.81 97.90 118.24 95.38 119.00 94.00
C 119.37 93.32 119.65 92.67 120.00 92.00
C 121.37 89.31 122.63 86.68 124.00 84.00
C 126.30 79.50 129.37 71.18 136.00 75.00
C 133.66 82.74 132.51 96.13 144.00 96.00
C 144.56 92.61 148.97 90.84 152.00 90.00
C 154.07 95.06 157.94 98.95 160.00 104.00
C 160.80 105.85 161.45 108.02 162.00 110.00
C 158.88 109.43 156.24 107.32 153.00 107.00
C 151.77 106.57 149.90 105.21 149.00 105.00
C 145.91 104.27 142.18 105.29 139.00 105.00
C 132.09 108.59 122.48 108.81 116.00 113.00
C 119.29 116.30 123.10 110.87 127.00 112.00
C 127.28 118.93 137.45 114.87 142.07 116.93 C 146.69 118.98 150.51 121.79 152.00 127.00
C 154.93 122.22 160.70 131.97 161.32 136.68 C 161.94 141.39 162.84 151.73 159.69 156.69 C 156.55 161.66 153.02 166.17 147.00 168.00
C 141.18 169.77 134.36 168.57 129.00 168.00
C 127.68 168.08 125.24 168.43 124.00 168.00
C 123.93 168.19 122.07 169.99 122.00 170.00
C 125.06 171.41 127.84 172.00 131.00 173.00
C 133.74 172.75 137.28 172.61 140.00 173.00
C 140.62 172.89 143.00 172.27 144.00 172.00
C 144.43 171.89 146.31 171.25 147.00 171.00
C 148.48 170.46 150.26 168.68 152.00 168.00
C 152.43 167.83 153.00 168.00 153.00 168.00
C 156.51 162.97 162.22 159.09 165.00 154.00
C 166.28 151.03 166.89 148.39 167.00 145.00
C 167.06 143.34 167.00 141.66 167.00 140.00
C 167.00 138.67 167.06 137.33 167.00 136.00
C 166.10 131.30 162.10 126.52 160.00 122.00
C 161.82 121.45 162.47 123.75 164.00 124.00
C 164.98 124.64 166.11 125.33 167.00 126.00
C 170.45 128.61 172.87 131.41 175.00 135.00
C 181.38 145.74 189.53 156.39 194.00 168.00
C 195.03 169.85 197.69 171.43 198.00 174.00
C 180.62 176.91 161.12 173.56 143.00 175.00
C 139.32 175.29 135.68 176.58 131.99 176.99 C 128.31 177.40 124.97 174.53 122.00 174.00
C 105.67 174.00 89.33 174.00 73.00 174.00
C 74.44 172.08 74.50 168.96 77.00 168.00
C 79.17 163.03 81.91 157.24 85.00 153.00
C 84.08 149.91 79.61 152.51 78.00 153.00
C 76.47 150.57 75.56 148.13 73.00 151.00
C 69.79 156.18 66.73 161.53 64.00 167.00
C 62.17 170.66 60.28 175.63 58.00 179.00
C 62.43 181.16 59.17 183.37 67.00 183.00 C 74.84 182.63 85.24 183.23 93.00 183.00 C 100.76 182.77 99.90 182.88 106.00 183.00 C 112.10 183.12 114.29 182.51 120.00 183.00
C 118.79 182.70 116.01 181.93 115.00 181.00
C 127.74 178.55 139.54 180.87 152.00 183.00
C 168.22 183.00 185.58 182.51 201.00 184.00
C 202.86 183.61 205.10 184.08 207.00 184.00
C 209.22 183.90 215.47 181.37 216.00 182.00
C 213.57 171.95 203.54 164.08 199.31 154.69 C 195.07 145.31 188.25 136.60 183.77 127.23 C 179.29 117.86 172.69 109.30 168.00 100.00
C 166.85 98.58 166.87 99.37 166.00 97.00
C 162.81 88.32 156.77 80.03 152.00 72.00
C 150.74 70.33 149.18 68.59 148.00 66.00
C 146.22 62.11 138.24 45.24 134.00 46.00
C 133.67 49.25 130.51 51.55 129.00 54.00 Z"/>
</g>
<g fill="#809498" fill-opacity="0.42" stroke="None">
<path d="
M 125.00 62.00 
C 125.01 62.50 125.00 63.00 125.00 63.00
C 125.70 61.81 126.42 60.51 127.00 59.00
C 126.21 60.26 124.94 59.91 125.00 62.00 Z"/>
</g>
<g fill="#D2DADA" fill-opacity="0.26" stroke="None">
<path d="
M 113.00 82.00 
C 117.93 78.92 121.83 68.10 125.00 63.00
C 125.00 63.00 125.01 62.50 125.00 62.00
C 120.32 65.21 115.11 76.62 113.00 82.00 Z"/>
</g>
<g fill="#6E8386" fill-opacity="0.24" stroke="None">
<path d="
M 152.00 72.00 
C 150.77 69.93 149.19 67.92 148.00 66.00
C 149.18 68.59 150.74 70.33 152.00 72.00 Z"/>
</g>
<g fill="#23535E" fill-opacity="1.00" stroke="None">
<path d="
M 124.00 84.00 
C 125.30 82.33 128.04 80.39 130.00 80.00
C 129.13 86.09 130.76 91.74 135.00 96.00
C 138.23 98.40 143.20 98.26 147.00 99.00
C 145.54 102.66 152.05 101.47 149.00 105.00
C 149.90 105.21 151.77 106.57 153.00 107.00
C 152.55 104.69 155.53 103.93 156.00 102.00
C 157.46 102.55 158.18 104.40 160.00 104.00
C 157.94 98.95 154.07 95.06 152.00 90.00
C 148.97 90.84 144.56 92.61 144.00 96.00
C 132.51 96.13 133.66 82.74 136.00 75.00
C 129.37 71.18 126.30 79.50 124.00 84.00 Z"/>
</g>
<g fill="#277B82" fill-opacity="1.00" stroke="None">
<path d="
M 124.00 84.00 
C 122.63 86.68 121.37 89.31 120.00 92.00
C 124.37 86.73 131.39 96.48 135.00 99.00
C 134.58 98.42 135.21 96.70 135.00 96.00
C 130.76 91.74 129.13 86.09 130.00 80.00
C 128.04 80.39 125.30 82.33 124.00 84.00 Z"/>
</g>
<g fill="#DDE2E2" fill-opacity="0.26" stroke="None">
<path d="
M 109.00 89.00 
C 110.20 87.05 112.03 85.46 113.00 83.00
C 110.84 84.35 110.10 86.75 109.00 89.00 Z"/>
</g>
<g fill="#45928B" fill-opacity="1.00" stroke="None">
<path d="
M 120.00 92.00 
C 119.65 92.67 119.37 93.32 119.00 94.00
C 120.47 95.16 126.27 93.80 127.75 96.25 C 129.23 98.70 132.76 99.30 135.00 100.00
C 134.78 99.62 135.00 99.00 135.00 99.00
C 131.39 96.48 124.37 86.73 120.00 92.00 Z"/>
</g>
<g fill="#304443" fill-opacity="0.95" stroke="None">
<path d="
M 105.00 97.00 
C 103.84 99.41 102.40 101.04 101.00 103.00
C 91.77 119.05 82.76 135.24 73.00 151.00
C 75.56 148.13 76.47 150.57 78.00 153.00
C 79.61 152.51 84.08 149.91 85.00 153.00
C 89.48 146.86 93.54 140.24 98.00 134.00
C 99.74 131.57 107.92 126.89 105.00 132.00
C 104.78 132.38 105.00 133.00 105.00 133.00
C 104.29 137.30 104.00 141.42 104.00 146.00
C 104.00 146.50 104.00 147.00 104.00 147.00
C 104.88 149.02 105.17 151.67 106.00 154.00
C 106.16 154.44 106.00 155.00 106.00 155.00
C 108.35 156.47 109.45 159.70 111.00 162.00
C 113.29 165.40 114.52 166.09 118.00 168.00
C 119.46 168.80 120.58 169.34 122.00 170.00
C 122.07 169.99 123.93 168.19 124.00 168.00
C 124.17 167.56 124.00 167.00 124.00 167.00
C 121.40 166.07 119.98 164.76 118.00 163.00
C 113.68 159.16 111.27 156.14 109.00 151.00
C 107.84 148.36 107.25 146.98 107.00 144.00
C 106.81 141.78 106.81 139.22 107.00 137.00
C 107.32 133.20 108.28 132.77 110.00 130.00
C 110.67 128.92 111.21 127.22 112.00 126.00
C 112.23 125.65 112.00 125.00 112.00 125.00
C 114.14 120.28 123.39 118.06 128.00 118.00
C 131.56 117.95 133.81 118.87 137.00 120.00
C 142.61 122.00 147.80 125.55 146.00 133.00
C 148.70 134.69 151.52 136.62 152.00 140.00
C 145.42 142.31 151.25 150.51 144.00 153.00
C 145.15 152.63 148.22 152.96 149.00 154.00
C 149.81 147.49 155.14 142.13 154.00 135.00
C 148.48 135.77 152.73 129.80 152.00 127.00
C 150.51 121.79 146.69 118.98 142.07 116.93 C 137.45 114.87 127.28 118.93 127.00 112.00
C 123.10 110.87 119.29 116.30 116.00 113.00
C 122.48 108.81 132.09 108.59 139.00 105.00
C 139.20 104.89 139.00 104.00 139.00 104.00
C 135.93 103.67 132.86 104.30 130.00 105.00
C 127.21 105.68 123.73 106.11 121.00 107.00
C 116.84 108.35 112.68 112.21 108.00 113.00
C 108.40 109.47 111.40 107.02 113.00 104.00
C 113.67 103.03 114.32 101.91 115.00 101.00
C 112.85 100.47 111.59 101.99 110.00 103.00
C 109.88 100.90 111.15 93.23 107.00 94.00
C 106.37 95.02 105.59 95.77 105.00 97.00 Z"/>
</g>
<g fill="#6EA894" fill-opacity="1.00" stroke="None">
<path d="
M 117.00 99.00 
C 119.48 98.02 124.70 97.71 128.00 99.00
C 127.32 101.47 128.78 103.18 130.00 105.00
C 132.86 104.30 135.93 103.67 139.00 104.00
C 139.49 104.05 140.00 104.00 140.00 104.00
C 138.45 102.93 135.94 101.64 135.00 100.00
C 132.76 99.30 129.23 98.70 127.75 96.25 C 126.27 93.80 120.47 95.16 119.00 94.00
C 118.24 95.38 117.81 97.90 117.00 99.00 Z"/>
</g>
<g fill="#4E5C67" fill-opacity="1.00" stroke="None">
<path d="
M 135.00 99.00 
C 138.16 99.01 139.72 102.53 143.00 102.00
C 143.64 104.03 141.31 104.06 140.00 104.00
C 140.00 104.00 139.49 104.05 139.00 104.00
C 139.00 104.00 139.20 104.89 139.00 105.00
C 142.18 105.29 145.91 104.27 149.00 105.00
C 152.05 101.47 145.54 102.66 147.00 99.00
C 143.20 98.26 138.23 98.40 135.00 96.00
C 135.21 96.70 134.58 98.42 135.00 99.00 Z"/>
</g>
<g fill="#D8DCDB" fill-opacity="0.13" stroke="None">
<path d="
M 101.00 103.00 
C 102.40 101.04 103.84 99.41 105.00 97.00
C 103.83 98.87 102.23 100.86 101.00 103.00 Z"/>
</g>
<g fill="#5B7378" fill-opacity="0.31" stroke="None">
<path d="
M 168.00 100.00 
C 167.34 98.69 166.73 98.13 166.00 97.00
C 166.87 99.37 166.85 98.58 168.00 100.00 Z"/>
</g>
<g fill="#83C4A1" fill-opacity="1.00" stroke="None">
<path d="
M 117.00 99.00 
C 116.59 99.56 115.53 100.28 115.00 101.00
C 114.32 101.91 113.67 103.03 113.00 104.00
C 116.52 102.73 118.55 106.55 121.00 107.00
C 123.73 106.11 127.21 105.68 130.00 105.00
C 128.78 103.18 127.32 101.47 128.00 99.00
C 124.70 97.71 119.48 98.02 117.00 99.00 Z"/>
</g>
<g fill="#717D7E" fill-opacity="1.00" stroke="None">
<path d="
M 135.00 100.00 
C 135.94 101.64 138.45 102.93 140.00 104.00
C 141.31 104.06 143.64 104.03 143.00 102.00
C 139.72 102.53 138.16 99.01 135.00 99.00
C 135.00 99.00 134.78 99.62 135.00 100.00 Z"/>
</g>
<g fill="#357C80" fill-opacity="1.00" stroke="None">
<path d="
M 153.00 107.00 
C 156.24 107.32 158.88 109.43 162.00 110.00
C 161.45 108.02 160.80 105.85 160.00 104.00
C 158.18 104.40 157.46 102.55 156.00 102.00
C 155.53 103.93 152.55 104.69 153.00 107.00 Z"/>
</g>
<g fill="#B6CAAD" fill-opacity="1.00" stroke="None">
<path d="
M 121.00 107.00 
C 118.55 106.55 116.52 102.73 113.00 104.00
C 111.40 107.02 108.40 109.47 108.00 113.00
C 112.68 112.21 116.84 108.35 121.00 107.00 Z"/>
</g>
<g fill="#6C5D5B" fill-opacity="1.00" stroke="None">
<path d="
M 112.00 125.00 
C 116.29 122.53 123.49 118.57 128.00 118.00
C 123.39 118.06 114.14 120.28 112.00 125.00 Z"/>
</g>
<g fill="#9C7069" fill-opacity="1.00" stroke="None">
<path d="
M 112.00 125.00 
C 112.00 125.00 112.23 125.65 112.00 126.00
C 121.12 124.66 130.08 115.13 137.30 125.70 C 144.53 136.27 135.38 142.06 135.00 153.00
C 136.23 153.16 137.82 152.64 139.00 153.00
C 140.97 142.47 148.94 128.87 137.00 120.00
C 133.81 118.87 131.56 117.95 128.00 118.00
C 123.49 118.57 116.29 122.53 112.00 125.00 Z"/>
</g>
<g fill="#C38B7A" fill-opacity="1.00" stroke="None">
<path d="
M 112.00 126.00 
C 111.21 127.22 110.67 128.92 110.00 130.00
C 114.33 123.21 128.33 118.91 134.70 125.30 C 141.06 131.69 136.95 146.42 127.00 148.00
C 127.65 150.71 130.71 150.41 132.00 152.00
C 133.15 152.56 133.69 152.83 135.00 153.00
C 135.38 142.06 144.53 136.27 137.30 125.70 C 130.08 115.13 121.12 124.66 112.00 126.00 Z"/>
</g>
<g fill="#6B5857" fill-opacity="1.00" stroke="None">
<path d="
M 139.00 153.00 
C 139.35 153.11 139.75 153.91 140.00 154.00
C 141.15 153.68 142.93 153.55 144.00 153.00
C 151.25 150.51 145.42 142.31 152.00 140.00
C 151.52 136.62 148.70 134.69 146.00 133.00
C 147.80 125.55 142.61 122.00 137.00 120.00
C 148.94 128.87 140.97 142.47 139.00 153.00 Z"/>
</g>
<g fill="#E6B397" fill-opacity="1.00" stroke="None">
<path d="
M 110.00 130.00 
C 109.70 130.47 107.14 136.45 107.00 137.00
C 106.81 139.22 106.81 141.78 107.00 144.00
C 107.45 140.09 109.59 133.04 114.25 130.25 C 118.90 127.46 125.55 124.58 131.22 126.78 C 136.89 128.97 133.11 140.17 129.25 141.25 C 125.38 142.33 116.41 151.04 122.00 154.00
C 123.26 154.00 125.87 153.49 127.00 154.00
C 128.37 153.75 130.07 151.80 132.00 152.00
C 130.71 150.41 127.65 150.71 127.00 148.00
C 136.95 146.42 141.06 131.69 134.70 125.30 C 128.33 118.91 114.33 123.21 110.00 130.00 Z"/>
</g>
<g fill="#CAD3D3" fill-opacity="0.38" stroke="None">
<path d="
M 167.00 136.00 
C 166.90 133.72 166.73 131.14 166.00 129.00
C 165.81 128.44 164.31 124.45 164.00 124.00
C 162.47 123.75 161.82 121.45 160.00 122.00
C 162.10 126.52 166.10 131.30 167.00 136.00 Z"/>
</g>
<g fill="#DFE3E4" fill-opacity="0.15" stroke="None">
<path d="
M 166.00 129.00 
C 164.10 127.67 168.16 128.48 169.00 129.00
C 168.26 128.19 167.73 126.73 167.00 126.00
C 166.11 125.33 164.98 124.64 164.00 124.00
C 164.31 124.45 165.81 128.44 166.00 129.00 Z"/>
</g>
<g fill="#154A4F" fill-opacity="1.00" stroke="None">
<path d="
M 152.00 127.00 
C 152.73 129.80 148.48 135.77 154.00 135.00
C 155.14 142.13 149.81 147.49 149.00 154.00
C 148.48 158.16 149.36 162.09 150.00 166.00
C 148.51 165.72 146.62 166.02 147.00 168.00
C 153.02 166.17 156.55 161.66 159.69 156.69 C 162.84 151.73 161.94 141.39 161.32 136.68 C 160.70 131.97 154.93 122.22 152.00 127.00 Z"/>
</g>
<g fill="#F2D6B1" fill-opacity="1.00" stroke="None">
<path d="
M 107.00 144.00 
C 107.25 146.98 107.84 148.36 109.00 151.00
C 109.84 152.25 112.75 152.74 112.00 155.00
C 114.90 153.10 118.70 154.38 122.00 154.00
C 116.41 151.04 125.38 142.33 129.25 141.25 C 133.11 140.17 136.89 128.97 131.22 126.78 C 125.55 124.58 118.90 127.46 114.25 130.25 C 109.59 133.04 107.45 140.09 107.00 144.00 Z"/>
</g>
<g fill="#49666C" fill-opacity="0.48" stroke="None">
<path d="
M 169.00 129.00 
C 170.90 131.07 173.41 132.86 175.00 135.00
C 172.87 131.41 170.45 128.61 167.00 126.00
C 167.73 126.73 168.26 128.19 169.00 129.00 Z"/>
</g>
<g fill="#000000" fill-opacity="0.00" stroke="None">
<path d="
M 166.00 129.00 
C 166.73 131.14 166.90 133.72 167.00 136.00
C 167.06 137.33 167.00 138.67 167.00 140.00
C 167.23 141.83 167.27 143.19 167.00 145.00
C 166.89 148.39 166.28 151.03 165.00 154.00
C 162.32 160.21 158.23 164.01 153.00 168.00
C 153.00 168.00 152.43 167.83 152.00 168.00
C 150.94 169.69 147.56 170.05 147.00 171.00
C 146.28 170.81 146.08 173.66 148.04 172.97 C 150.01 172.28 151.12 172.96 153.00 173.00
C 167.33 173.29 181.67 172.79 196.00 173.00
C 196.06 171.11 194.58 169.71 194.00 168.00
C 189.53 156.39 181.38 145.74 175.00 135.00
C 173.41 132.86 170.90 131.07 169.00 129.00
C 168.16 128.48 164.10 127.67 166.00 129.00 Z"/>
</g>
<g fill="#BFC9C9" fill-opacity="0.34" stroke="None">
<path d="
M 98.00 134.00 
C 99.80 132.02 102.84 129.78 105.00 132.00
C 107.92 126.89 99.74 131.57 98.00 134.00 Z"/>
</g>
<g fill="#A19883" fill-opacity="1.00" stroke="None">
<path d="
M 107.00 137.00 
C 107.14 136.45 109.70 130.47 110.00 130.00
C 108.28 132.77 107.32 133.20 107.00 137.00 Z"/>
</g>
<g fill="#000000" fill-opacity="0.00" stroke="None">
<path d="
M 98.00 134.00 
C 93.54 140.24 89.48 146.86 85.00 153.00
C 81.91 157.24 79.17 163.03 77.00 168.00
C 76.25 169.72 74.59 171.25 76.00 173.00
C 90.99 170.52 108.18 175.46 123.00 172.00
C 121.67 170.66 118.57 170.53 118.00 168.00
C 114.52 166.09 113.29 165.40 111.00 162.00
C 108.96 159.59 107.23 158.13 106.00 155.00
C 106.00 155.00 106.16 154.44 106.00 154.00
C 103.92 152.41 103.83 149.59 104.00 147.00
C 104.00 147.00 104.00 146.50 104.00 146.00
C 101.72 142.92 102.73 135.80 105.00 133.00
C 105.00 133.00 104.78 132.38 105.00 132.00
C 102.84 129.78 99.80 132.02 98.00 134.00 Z"/>
</g>
<g fill="#C6D1CE" fill-opacity="0.17" stroke="None">
<path d="
M 104.00 146.00 
C 104.00 141.42 104.29 137.30 105.00 133.00
C 102.73 135.80 101.72 142.92 104.00 146.00 Z"/>
</g>
<g fill="#E2E7E7" fill-opacity="0.09" stroke="None">
<path d="
M 167.00 145.00 
C 167.27 143.19 167.23 141.83 167.00 140.00
C 167.00 141.66 167.06 143.34 167.00 145.00 Z"/>
</g>
<g fill="#AFB7B7" fill-opacity="0.38" stroke="None">
<path d="
M 106.00 154.00 
C 105.17 151.67 104.88 149.02 104.00 147.00
C 103.83 149.59 103.92 152.41 106.00 154.00 Z"/>
</g>
<g fill="#B2B996" fill-opacity="1.00" stroke="None">
<path d="
M 118.00 163.00 
C 116.73 159.35 125.23 158.95 128.00 156.00
C 128.25 155.73 128.00 155.00 128.00 155.00
C 127.88 154.74 127.26 154.12 127.00 154.00
C 125.87 153.49 123.26 154.00 122.00 154.00
C 118.70 154.38 114.90 153.10 112.00 155.00
C 112.75 152.74 109.84 152.25 109.00 151.00
C 111.27 156.14 113.68 159.16 118.00 163.00 Z"/>
</g>
<g fill="#A29587" fill-opacity="1.00" stroke="None">
<path d="
M 127.00 154.00 
C 127.26 154.12 127.88 154.74 128.00 155.00
C 132.00 155.58 136.74 154.92 140.00 154.00
C 139.75 153.91 139.35 153.11 139.00 153.00
C 137.82 152.64 136.23 153.16 135.00 153.00
C 133.69 152.83 133.15 152.56 132.00 152.00
C 130.07 151.80 128.37 153.75 127.00 154.00 Z"/>
</g>
<g fill="#798376" fill-opacity="1.00" stroke="None">
<path d="
M 140.00 154.00 
C 136.74 154.92 132.00 155.58 128.00 155.00
C 128.00 155.00 128.25 155.73 128.00 156.00
C 128.51 156.41 129.35 156.42 130.00 157.00
C 132.26 157.64 138.89 156.86 141.00 156.00
C 141.32 155.69 143.91 153.03 144.00 153.00
C 142.93 153.55 141.15 153.68 140.00 154.00 Z"/>
</g>
<g fill="#2A6863" fill-opacity="1.00" stroke="None">
<path d="
M 141.00 156.00 
C 135.82 161.09 138.49 167.44 129.00 168.00
C 134.36 168.57 141.18 169.77 147.00 168.00
C 146.62 166.02 148.51 165.72 150.00 166.00
C 149.36 162.09 148.48 158.16 149.00 154.00
C 148.22 152.96 145.15 152.63 144.00 153.00
C 143.91 153.03 141.32 155.69 141.00 156.00 Z"/>
</g>
<g fill="#A5B3B5" fill-opacity="0.26" stroke="None">
<path d="
M 153.00 168.00 
C 158.23 164.01 162.32 160.21 165.00 154.00
C 162.22 159.09 156.51 162.97 153.00 168.00 Z"/>
</g>
<g fill="#A6AFAF" fill-opacity="0.42" stroke="None">
<path d="
M 111.00 162.00 
C 109.45 159.70 108.35 156.47 106.00 155.00
C 107.23 158.13 108.96 159.59 111.00 162.00 Z"/>
</g>
<g fill="#71A187" fill-opacity="1.00" stroke="None">
<path d="
M 118.00 163.00 
C 119.98 164.76 121.40 166.07 124.00 167.00
C 127.43 165.77 130.52 163.44 134.00 162.00
C 134.61 158.98 130.50 159.43 130.00 157.00
C 129.35 156.42 128.51 156.41 128.00 156.00
C 125.23 158.95 116.73 159.35 118.00 163.00 Z"/>
</g>
<g fill="#518878" fill-opacity="1.00" stroke="None">
<path d="
M 130.00 157.00 
C 130.50 159.43 134.61 158.98 134.00 162.00
C 130.52 163.44 127.43 165.77 124.00 167.00
C 124.00 167.00 124.17 167.56 124.00 168.00
C 125.24 168.43 127.68 168.08 129.00 168.00
C 138.49 167.44 135.82 161.09 141.00 156.00
C 138.89 156.86 132.26 157.64 130.00 157.00 Z"/>
</g>
<g fill="#CACFCF" fill-opacity="0.21" stroke="None">
<path d="
M 56.00 180.00 
C 56.35 179.64 57.79 179.31 58.00 179.00
C 60.28 175.63 62.17 170.66 64.00 167.00
C 61.43 171.15 57.92 175.21 56.00 180.00 Z"/>
</g>
<g fill="#E8EEEE" fill-opacity="0.32" stroke="None">
<path d="
M 122.00 174.00 
C 125.00 174.00 128.00 174.00 131.00 174.00
C 130.96 174.00 131.00 173.00 131.00 173.00
C 127.84 172.00 125.06 171.41 122.00 170.00
C 120.58 169.34 119.46 168.80 118.00 168.00
C 118.57 170.53 121.67 170.66 123.00 172.00
C 108.18 175.46 90.99 170.52 76.00 173.00
C 74.59 171.25 76.25 169.72 77.00 168.00
C 74.50 168.96 74.44 172.08 73.00 174.00
C 89.33 174.00 105.67 174.00 122.00 174.00 Z"/>
</g>
<g fill="#A2B0B1" fill-opacity="0.33" stroke="None">
<path d="
M 147.00 171.00 
C 147.56 170.05 150.94 169.69 152.00 168.00
C 150.26 168.68 148.48 170.46 147.00 171.00 Z"/>
</g>
<g fill="#EBEDED" fill-opacity="0.15" stroke="None">
<path d="
M 153.00 173.00 
C 152.99 173.00 153.00 174.00 153.00 174.00
C 168.00 174.00 183.00 174.00 198.00 174.00
C 197.69 171.43 195.03 169.85 194.00 168.00
C 194.58 169.71 196.06 171.11 196.00 173.00
C 181.67 172.79 167.33 173.29 153.00 173.00 Z"/>
</g>
<g fill="#E2E7E8" fill-opacity="0.28" stroke="None">
<path d="
M 144.00 172.00 
C 144.46 172.14 145.61 173.86 146.00 174.00
C 148.33 174.00 150.67 174.00 153.00 174.00
C 153.00 174.00 152.99 173.00 153.00 173.00
C 151.12 172.96 150.01 172.28 148.04 172.97 C 146.08 173.66 146.28 170.81 147.00 171.00
C 146.31 171.25 144.43 171.89 144.00 172.00 Z"/>
</g>
<g fill="#D4DCDD" fill-opacity="0.55" stroke="None">
<path d="
M 140.00 173.00 
C 140.35 173.05 140.74 173.89 141.00 174.00
C 141.50 174.00 142.70 173.75 143.00 174.00
C 143.35 174.29 145.52 174.00 146.00 174.00
C 145.61 173.86 144.46 172.14 144.00 172.00
C 143.00 172.27 140.62 172.89 140.00 173.00 Z"/>
</g>
<g fill="#E5EBEB" fill-opacity="0.76" stroke="None">
<path d="
M 131.00 174.00 
C 134.33 174.00 137.67 174.00 141.00 174.00
C 140.74 173.89 140.35 173.05 140.00 173.00
C 137.28 172.61 133.74 172.75 131.00 173.00
C 131.00 173.00 130.96 174.00 131.00 174.00 Z"/>
</g>
<g fill="#09282B" fill-opacity="0.60" stroke="None">
<path d="
M 143.00 175.00 
C 143.13 174.96 143.00 174.00 143.00 174.00
C 142.70 173.75 141.50 174.00 141.00 174.00
C 137.67 174.00 134.33 174.00 131.00 174.00
C 128.00 174.00 125.00 174.00 122.00 174.00
C 124.97 174.53 128.31 177.40 131.99 176.99 C 135.68 176.58 139.32 175.29 143.00 175.00 Z"/>
</g>
<g fill="#0A282B" fill-opacity="0.73" stroke="None">
<path d="
M 143.00 175.00 
C 161.12 173.56 180.62 176.91 198.00 174.00
C 183.00 174.00 168.00 174.00 153.00 174.00
C 150.67 174.00 148.33 174.00 146.00 174.00
C 145.52 174.00 143.35 174.29 143.00 174.00
C 143.00 174.00 143.13 174.96 143.00 175.00 Z"/>
</g>
<g fill="#010B0E" fill-opacity="0.78" stroke="None">
<path d="
M 56.00 180.00 
C 55.53 181.16 54.40 182.62 55.00 184.00
C 69.67 184.00 84.33 184.00 99.00 184.00
C 107.00 184.00 115.00 184.00 123.00 184.00
C 122.26 183.84 121.26 183.11 120.00 183.00
C 114.29 182.51 112.10 183.12 106.00 183.00 C 99.90 182.88 100.76 182.77 93.00 183.00 C 85.24 183.23 74.84 182.63 67.00 183.00 C 59.17 183.37 62.43 181.16 58.00 179.00
C 57.79 179.31 56.35 179.64 56.00 180.00 Z"/>
</g>
<g fill="#0F2628" fill-opacity="0.75" stroke="None">
<path d="
M 120.00 183.00 
C 121.26 183.11 122.26 183.84 123.00 184.00
C 132.67 184.00 142.33 184.00 152.00 184.00
C 151.96 184.00 152.00 183.00 152.00 183.00
C 139.54 180.87 127.74 178.55 115.00 181.00
C 116.01 181.93 118.79 182.70 120.00 183.00 Z"/>
</g>
<g fill="#111E20" fill-opacity="0.73" stroke="None">
<path d="
M 207.00 184.00 
C 206.99 184.00 207.00 185.00 207.00 185.00
C 209.21 185.00 212.94 185.74 215.00 185.00
C 216.93 183.86 216.64 184.65 216.00 182.00
C 215.47 181.37 209.22 183.90 207.00 184.00 Z"/>
</g>
<g fill="#0F1B1D" fill-opacity="1.00" stroke="None">
<path d="
M 152.00 184.00 
C 168.11 184.00 184.97 182.55 201.00 184.00
C 185.58 182.51 168.22 183.00 152.00 183.00
C 152.00 183.00 151.96 184.00 152.00 184.00 Z"/>
</g>
<g fill="#717B7F" fill-opacity="0.27" stroke="None">
<path d="
M 99.00 185.00 
C 98.96 185.00 99.00 184.00 99.00 184.00
C 84.33 184.00 69.67 184.00 55.00 184.00
C 56.33 187.07 65.39 184.30 69.00 185.00 C 72.61 185.70 79.72 184.74 84.00 185.00 C 88.28 185.26 94.54 185.00 99.00 185.00 Z"/>
</g>
<g fill="#6D777C" fill-opacity="0.45" stroke="None">
<path d="
M 99.00 185.00 
C 133.00 185.00 167.00 185.00 201.00 185.00
C 200.75 184.75 201.00 184.00 201.00 184.00
C 184.97 182.55 168.11 184.00 152.00 184.00
C 142.33 184.00 132.67 184.00 123.00 184.00
C 115.00 184.00 107.00 184.00 99.00 184.00
C 99.00 184.00 98.96 185.00 99.00 185.00 Z"/>
</g>
<g fill="#3C4548" fill-opacity="0.67" stroke="None">
<path d="
M 201.00 185.00 
C 201.00 185.00 201.50 185.00 202.00 185.00
C 203.67 185.00 205.33 185.00 207.00 185.00
C 207.00 185.00 206.99 184.00 207.00 184.00
C 205.10 184.08 202.86 183.61 201.00 184.00
C 201.00 184.00 200.75 184.75 201.00 185.00 Z"/>
</g>
<g fill="#798287" fill-opacity="0.20" stroke="None">
<path d="
M 215.00 185.00 
C 212.94 185.74 209.21 185.00 207.00 185.00
C 205.33 185.00 203.67 185.00 202.00 185.00
C 204.61 186.93 212.28 186.61 215.00 185.00 Z"/>
</g>
<g fill="#6C4C4B" fill-opacity="0.79" stroke="None">
<path d="
M 130.00 202.00 
C 130.25 202.51 131.67 202.67 132.00 203.00
C 132.22 197.98 140.43 200.61 141.00 197.00
C 137.44 190.38 126.90 195.59 130.00 202.00 Z"/>
</g>
<g fill="#AE816E" fill-opacity="0.85" stroke="None">
<path d="
M 132.00 203.00 
C 132.29 203.29 132.77 204.87 133.00 205.00
C 133.82 205.46 138.07 205.27 139.00 205.00
C 142.22 203.31 142.78 200.31 141.00 197.00
C 140.43 200.61 132.22 197.98 132.00 203.00 Z"/>
</g>
<g fill="#C3AA9B" fill-opacity="0.35" stroke="None">
<path d="
M 133.00 205.00 
C 132.77 204.87 132.29 203.29 132.00 203.00
C 131.67 202.67 130.25 202.51 130.00 202.00
C 127.92 203.08 133.01 205.01 133.00 205.00 Z"/>
</g>
<g fill="#CCBFB3" fill-opacity="0.16" stroke="None">
<path d="
M 139.00 205.00 
C 138.07 205.27 133.82 205.46 133.00 205.00
C 135.31 205.98 136.62 206.25 139.00 205.00 Z"/>
</g>
</svg>