<svg xmlns="http://www.w3.org/2000/svg" xmlns:v="https://svgstorm.com"
viewBox = "0 0 270 270"
width="270"
height="270">
<g fill="None" fill-opacity="0.0" stroke="#000000" stroke-opacity="0.00" stroke-width="0.3"><path d="
M 0.00 270.00 
L 270.00 270.00
L 270.00 0.00
L 0.00 0.00
L 0.00 270.00
M 210.00 67.00 
C 215.27 69.64 209.99 82.58 203.78 78.22 C 197.57 73.87 202.66 63.32 210.00 67.00
M 142.00 69.00 
C 157.00 92.51 169.27 119.51 189.00 139.00
C 191.63 133.14 194.64 125.28 200.00 122.00
C 201.45 131.89 186.96 142.39 195.25 151.75 C 203.54 161.12 204.24 169.76 212.00 179.00
C 200.63 178.37 187.16 179.84 176.00 179.00 C 164.84 178.16 164.10 190.35 158.70 197.70 C 153.29 205.04 148.59 212.79 145.00 221.00
C 137.74 215.47 134.79 205.91 128.23 198.77 C 121.67 191.63 121.12 178.20 109.00 179.00 C 96.88 179.80 81.42 178.40 69.00 179.00
C 76.07 165.42 89.25 154.25 89.00 138.00
C 85.00 133.97 80.42 128.86 80.00 123.00
C 87.16 124.55 89.05 134.10 94.00 139.00
C 111.61 117.06 123.78 89.59 142.00 69.00 Z"/>
</g>
<g fill="None" fill-opacity="0.0" stroke="#C1C1C1" stroke-opacity="0.35" stroke-width="0.3"><path d="
M 210.00 67.00 
C 202.66 63.32 197.57 73.87 203.78 78.22 C 209.99 82.58 215.27 69.64 210.00 67.00
M 207.00 77.00 
C 205.16 75.85 202.23 68.34 206.70 69.36 C 211.16 70.38 208.37 76.03 207.00 77.00 Z"/>
</g>
<g fill="None" fill-opacity="0.0" stroke="#C8C8C8" stroke-opacity="0.97" stroke-width="0.3"><path d="
M 142.00 69.00 
C 123.78 89.59 111.61 117.06 94.00 139.00
C 89.05 134.10 87.16 124.55 80.00 123.00
C 80.42 128.86 85.00 133.97 89.00 138.00
C 89.25 154.25 76.07 165.42 69.00 179.00
C 81.42 178.40 96.88 179.80 109.00 179.00 C 121.12 178.20 121.67 191.63 128.23 198.77 C 134.79 205.91 137.74 215.47 145.00 221.00
C 148.59 212.79 153.29 205.04 158.70 197.70 C 164.10 190.35 164.84 178.16 176.00 179.00 C 187.16 179.84 200.63 178.37 212.00 179.00
C 204.24 169.76 203.54 161.12 195.25 151.75 C 186.96 142.39 201.45 131.89 200.00 122.00
C 194.64 125.28 191.63 133.14 189.00 139.00
C 169.27 119.51 157.00 92.51 142.00 69.00
M 165.00 171.00 
C 157.64 173.23 149.09 170.18 141.00 171.00 C 132.91 171.82 124.25 173.24 117.00 170.00
C 107.36 165.70 106.38 152.94 99.00 146.00
C 111.54 124.53 126.98 104.36 140.00 83.00
C 157.04 101.18 168.55 125.69 184.00 146.00
C 176.97 153.63 174.84 167.15 165.00 171.00
M 105.00 170.00 
C 102.25 171.73 84.35 172.90 83.00 169.00
C 81.17 163.70 93.23 157.70 94.00 153.00
C 96.43 155.08 100.69 158.25 101.75 161.25 C 102.82 164.24 108.00 169.12 105.00 170.00
M 197.00 168.00 
C 197.71 173.20 185.62 170.75 182.00 170.00
C 180.40 169.67 178.61 170.25 177.00 170.00
C 180.85 164.74 182.82 156.67 189.00 154.00
C 190.76 159.06 194.70 163.17 197.00 168.00
M 155.00 195.00 
C 154.10 196.52 152.85 197.74 152.00 199.00
C 151.07 200.40 149.94 202.59 149.00 204.00
C 147.09 206.87 145.58 209.95 144.00 213.00
C 134.85 203.94 127.96 190.53 121.00 179.00
C 135.33 179.00 149.67 179.00 164.00 179.00
C 161.52 184.67 157.89 189.58 155.00 195.00 Z"/>
</g>
<g fill="None" fill-opacity="0.0" stroke="#CBCBCB" stroke-opacity="0.64" stroke-width="0.3"><path d="
M 207.00 77.00 
C 208.37 76.03 211.16 70.38 206.70 69.36 C 202.23 68.34 205.16 75.85 207.00 77.00 Z"/>
</g>
<g fill="None" fill-opacity="0.0" stroke="#2A2A2A" stroke-opacity="1.00" stroke-width="0.3"><path d="
M 117.00 170.00 
C 124.31 171.49 133.46 170.24 141.00 170.00 C 148.54 169.76 157.97 171.54 165.00 171.00
C 174.84 167.15 176.97 153.63 184.00 146.00
C 168.55 125.69 157.04 101.18 140.00 83.00
C 126.98 104.36 111.54 124.53 99.00 146.00
C 106.38 152.94 107.36 165.70 117.00 170.00
M 143.00 92.00 
C 144.55 92.70 143.20 99.00 140.30 97.64 C 137.40 96.29 140.50 90.86 143.00 92.00
M 148.00 119.00 
C 160.16 121.52 161.38 128.11 172.25 135.75 C 183.11 143.40 177.04 151.91 166.92 156.92 C 156.79 161.93 147.36 171.17 135.00 167.00 C 122.64 162.83 118.35 160.92 107.75 153.25 C 97.16 145.57 110.19 136.95 116.75 129.75 C 123.31 122.55 136.81 116.68 148.00 119.00 Z"/>
</g>
<g fill="None" fill-opacity="0.0" stroke="#C3C3C3" stroke-opacity="1.00" stroke-width="0.3"><path d="
M 143.00 92.00 
C 140.50 90.86 137.40 96.29 140.30 97.64 C 143.20 99.00 144.55 92.70 143.00 92.00 Z"/>
</g>
<g fill="None" fill-opacity="0.0" stroke="#C0C0C0" stroke-opacity="1.00" stroke-width="0.3"><path d="
M 148.00 119.00 
C 136.81 116.68 123.31 122.55 116.75 129.75 C 110.19 136.95 97.16 145.57 107.75 153.25 C 118.35 160.92 122.64 162.83 135.00 167.00 C 147.36 171.17 156.79 161.93 166.92 156.92 C 177.04 151.91 183.11 143.40 172.25 135.75 C 161.38 128.11 160.16 121.52 148.00 119.00
M 143.00 124.00 
C 157.56 124.72 169.64 136.76 178.00 148.00
C 157.58 167.18 126.43 166.95 106.00 148.00
C 112.60 136.81 122.52 125.61 136.00 124.00
C 138.69 123.40 140.42 123.58 143.00 124.00 Z"/>
</g>
<g fill="None" fill-opacity="0.0" stroke="#6A6A6A" stroke-opacity="1.00" stroke-width="0.3"><path d="
M 136.00 124.00 
C 138.24 123.79 140.75 123.89 143.00 124.00
C 140.42 123.58 138.69 123.40 136.00 124.00 Z"/>
</g>
<g fill="None" fill-opacity="0.0" stroke="#2A2A2A" stroke-opacity="1.00" stroke-width="0.3"><path d="
M 143.00 124.00 
C 140.75 123.89 138.24 123.79 136.00 124.00
C 122.52 125.61 112.60 136.81 106.00 148.00
C 126.43 166.95 157.58 167.18 178.00 148.00
C 169.64 136.76 157.56 124.72 143.00 124.00
M 145.00 125.00 
C 163.65 127.88 158.35 159.37 139.33 155.67 C 120.31 151.97 126.03 122.07 145.00 125.00 Z"/>
</g>
<g fill="None" fill-opacity="0.0" stroke="#C4C4C4" stroke-opacity="1.00" stroke-width="0.3"><path d="
M 145.00 125.00 
C 126.03 122.07 120.31 151.97 139.33 155.67 C 158.35 159.37 163.65 127.88 145.00 125.00
M 145.00 131.00 
C 154.94 132.27 149.42 150.86 140.00 147.00 C 130.58 143.14 136.66 129.93 145.00 131.00 Z"/>
</g>
<g fill="None" fill-opacity="0.0" stroke="#2B2B2B" stroke-opacity="1.00" stroke-width="0.3"><path d="
M 145.00 131.00 
C 136.66 129.93 130.58 143.14 140.00 147.00 C 149.42 150.86 154.94 132.27 145.00 131.00 Z"/>
</g>
<g fill="None" fill-opacity="0.0" stroke="#272727" stroke-opacity="1.00" stroke-width="0.3"><path d="
M 83.00 169.00 
C 89.42 168.62 98.47 172.39 105.00 170.00
C 108.00 169.12 102.82 164.24 101.75 161.25 C 100.69 158.25 96.43 155.08 94.00 153.00
C 93.23 157.70 81.17 163.70 83.00 169.00 Z"/>
</g>
<g fill="None" fill-opacity="0.0" stroke="#282828" stroke-opacity="1.00" stroke-width="0.3"><path d="
M 182.00 170.00 
C 186.91 170.41 193.21 170.69 197.00 168.00
C 194.70 163.17 190.76 159.06 189.00 154.00
C 182.82 156.67 180.85 164.74 177.00 170.00
C 178.61 170.25 180.40 169.67 182.00 170.00 Z"/>
</g>
<g fill="None" fill-opacity="0.0" stroke="#7A7A7A" stroke-opacity="1.00" stroke-width="0.3"><path d="
M 182.00 170.00 
C 185.62 170.75 197.71 173.20 197.00 168.00
C 193.21 170.69 186.91 170.41 182.00 170.00 Z"/>
</g>
<g fill="None" fill-opacity="0.0" stroke="#797979" stroke-opacity="1.00" stroke-width="0.3"><path d="
M 105.00 170.00 
C 98.47 172.39 89.42 168.62 83.00 169.00
C 84.35 172.90 102.25 171.73 105.00 170.00 Z"/>
</g>
<g fill="None" fill-opacity="0.0" stroke="#828282" stroke-opacity="1.00" stroke-width="0.3"><path d="
M 165.00 171.00 
C 157.97 171.54 148.54 169.76 141.00 170.00 C 133.46 170.24 124.31 171.49 117.00 170.00
C 124.25 173.24 132.91 171.82 141.00 171.00 C 149.09 170.18 157.64 173.23 165.00 171.00 Z"/>
</g>
<g fill="None" fill-opacity="0.0" stroke="#000000" stroke-opacity="0.07" stroke-width="0.3"><path d="
M 149.00 204.00 
C 149.16 202.71 144.94 199.79 145.00 197.00
C 147.97 196.99 151.94 195.26 154.00 195.00
C 154.36 195.22 155.00 195.00 155.00 195.00
C 157.89 189.58 161.52 184.67 164.00 179.00
C 149.67 179.00 135.33 179.00 121.00 179.00
C 127.96 190.53 134.85 203.94 144.00 213.00
C 145.58 209.95 147.09 206.87 149.00 204.00 Z"/>
</g>
<g fill="None" fill-opacity="0.0" stroke="#2D2D2D" stroke-opacity="0.20" stroke-width="0.3"><path d="
M 149.00 204.00 
C 149.94 202.59 151.07 200.40 152.00 199.00
C 152.28 198.32 152.37 196.26 154.00 195.00
C 151.94 195.26 147.97 196.99 145.00 197.00
C 144.94 199.79 149.16 202.71 149.00 204.00 Z"/>
</g>
<g fill="None" fill-opacity="0.0" stroke="#373737" stroke-opacity="0.53" stroke-width="0.3"><path d="
M 152.00 199.00 
C 152.85 197.74 154.10 196.52 155.00 195.00
C 155.00 195.00 154.36 195.22 154.00 195.00
C 152.37 196.26 152.28 198.32 152.00 199.00 Z"/>
</g>
<g fill="#000000" fill-opacity="0.00" stroke="None">
<path d="
M 0.00 270.00 
L 270.00 270.00
L 270.00 0.00
L 0.00 0.00
L 0.00 270.00
M 210.00 67.00 
C 215.27 69.64 209.99 82.58 203.78 78.22 C 197.57 73.87 202.66 63.32 210.00 67.00
M 142.00 69.00 
C 157.00 92.51 169.27 119.51 189.00 139.00
C 191.63 133.14 194.64 125.28 200.00 122.00
C 201.45 131.89 186.96 142.39 195.25 151.75 C 203.54 161.12 204.24 169.76 212.00 179.00
C 200.63 178.37 187.16 179.84 176.00 179.00 C 164.84 178.16 164.10 190.35 158.70 197.70 C 153.29 205.04 148.59 212.79 145.00 221.00
C 137.74 215.47 134.79 205.91 128.23 198.77 C 121.67 191.63 121.12 178.20 109.00 179.00 C 96.88 179.80 81.42 178.40 69.00 179.00
C 76.07 165.42 89.25 154.25 89.00 138.00
C 85.00 133.97 80.42 128.86 80.00 123.00
C 87.16 124.55 89.05 134.10 94.00 139.00
C 111.61 117.06 123.78 89.59 142.00 69.00 Z"/>
</g>
<g fill="#C1C1C1" fill-opacity="0.35" stroke="None">
<path d="
M 210.00 67.00 
C 202.66 63.32 197.57 73.87 203.78 78.22 C 209.99 82.58 215.27 69.64 210.00 67.00
M 207.00 77.00 
C 205.16 75.85 202.23 68.34 206.70 69.36 C 211.16 70.38 208.37 76.03 207.00 77.00 Z"/>
</g>
<g fill="#C8C8C8" fill-opacity="0.97" stroke="None">
<path d="
M 142.00 69.00 
C 123.78 89.59 111.61 117.06 94.00 139.00
C 89.05 134.10 87.16 124.55 80.00 123.00
C 80.42 128.86 85.00 133.97 89.00 138.00
C 89.25 154.25 76.07 165.42 69.00 179.00
C 81.42 178.40 96.88 179.80 109.00 179.00 C 121.12 178.20 121.67 191.63 128.23 198.77 C 134.79 205.91 137.74 215.47 145.00 221.00
C 148.59 212.79 153.29 205.04 158.70 197.70 C 164.10 190.35 164.84 178.16 176.00 179.00 C 187.16 179.84 200.63 178.37 212.00 179.00
C 204.24 169.76 203.54 161.12 195.25 151.75 C 186.96 142.39 201.45 131.89 200.00 122.00
C 194.64 125.28 191.63 133.14 189.00 139.00
C 169.27 119.51 157.00 92.51 142.00 69.00
M 165.00 171.00 
C 157.64 173.23 149.09 170.18 141.00 171.00 C 132.91 171.82 124.25 173.24 117.00 170.00
C 107.36 165.70 106.38 152.94 99.00 146.00
C 111.54 124.53 126.98 104.36 140.00 83.00
C 157.04 101.18 168.55 125.69 184.00 146.00
C 176.97 153.63 174.84 167.15 165.00 171.00
M 105.00 170.00 
C 102.25 171.73 84.35 172.90 83.00 169.00
C 81.17 163.70 93.23 157.70 94.00 153.00
C 96.43 155.08 100.69 158.25 101.75 161.25 C 102.82 164.24 108.00 169.12 105.00 170.00
M 197.00 168.00 
C 197.71 173.20 185.62 170.75 182.00 170.00
C 180.40 169.67 178.61 170.25 177.00 170.00
C 180.85 164.74 182.82 156.67 189.00 154.00
C 190.76 159.06 194.70 163.17 197.00 168.00
M 155.00 195.00 
C 154.10 196.52 152.85 197.74 152.00 199.00
C 151.07 200.40 149.94 202.59 149.00 204.00
C 147.09 206.87 145.58 209.95 144.00 213.00
C 134.85 203.94 127.96 190.53 121.00 179.00
C 135.33 179.00 149.67 179.00 164.00 179.00
C 161.52 184.67 157.89 189.58 155.00 195.00 Z"/>
</g>
<g fill="#CBCBCB" fill-opacity="0.64" stroke="None">
<path d="
M 207.00 77.00 
C 208.37 76.03 211.16 70.38 206.70 69.36 C 202.23 68.34 205.16 75.85 207.00 77.00 Z"/>
</g>
<g fill="#2A2A2A" fill-opacity="1.00" stroke="None">
<path d="
M 117.00 170.00 
C 124.31 171.49 133.46 170.24 141.00 170.00 C 148.54 169.76 157.97 171.54 165.00 171.00
C 174.84 167.15 176.97 153.63 184.00 146.00
C 168.55 125.69 157.04 101.18 140.00 83.00
C 126.98 104.36 111.54 124.53 99.00 146.00
C 106.38 152.94 107.36 165.70 117.00 170.00
M 143.00 92.00 
C 144.55 92.70 143.20 99.00 140.30 97.64 C 137.40 96.29 140.50 90.86 143.00 92.00
M 148.00 119.00 
C 160.16 121.52 161.38 128.11 172.25 135.75 C 183.11 143.40 177.04 151.91 166.92 156.92 C 156.79 161.93 147.36 171.17 135.00 167.00 C 122.64 162.83 118.35 160.92 107.75 153.25 C 97.16 145.57 110.19 136.95 116.75 129.75 C 123.31 122.55 136.81 116.68 148.00 119.00 Z"/>
</g>
<g fill="#C3C3C3" fill-opacity="1.00" stroke="None">
<path d="
M 143.00 92.00 
C 140.50 90.86 137.40 96.29 140.30 97.64 C 143.20 99.00 144.55 92.70 143.00 92.00 Z"/>
</g>
<g fill="#C0C0C0" fill-opacity="1.00" stroke="None">
<path d="
M 148.00 119.00 
C 136.81 116.68 123.31 122.55 116.75 129.75 C 110.19 136.95 97.16 145.57 107.75 153.25 C 118.35 160.92 122.64 162.83 135.00 167.00 C 147.36 171.17 156.79 161.93 166.92 156.92 C 177.04 151.91 183.11 143.40 172.25 135.75 C 161.38 128.11 160.16 121.52 148.00 119.00
M 143.00 124.00 
C 157.56 124.72 169.64 136.76 178.00 148.00
C 157.58 167.18 126.43 166.95 106.00 148.00
C 112.60 136.81 122.52 125.61 136.00 124.00
C 138.69 123.40 140.42 123.58 143.00 124.00 Z"/>
</g>
<g fill="#6A6A6A" fill-opacity="1.00" stroke="None">
<path d="
M 136.00 124.00 
C 138.24 123.79 140.75 123.89 143.00 124.00
C 140.42 123.58 138.69 123.40 136.00 124.00 Z"/>
</g>
<g fill="#2A2A2A" fill-opacity="1.00" stroke="None">
<path d="
M 143.00 124.00 
C 140.75 123.89 138.24 123.79 136.00 124.00
C 122.52 125.61 112.60 136.81 106.00 148.00
C 126.43 166.95 157.58 167.18 178.00 148.00
C 169.64 136.76 157.56 124.72 143.00 124.00
M 145.00 125.00 
C 163.65 127.88 158.35 159.37 139.33 155.67 C 120.31 151.97 126.03 122.07 145.00 125.00 Z"/>
</g>
<g fill="#C4C4C4" fill-opacity="1.00" stroke="None">
<path d="
M 145.00 125.00 
C 126.03 122.07 120.31 151.97 139.33 155.67 C 158.35 159.37 163.65 127.88 145.00 125.00
M 145.00 131.00 
C 154.94 132.27 149.42 150.86 140.00 147.00 C 130.58 143.14 136.66 129.93 145.00 131.00 Z"/>
</g>
<g fill="#2B2B2B" fill-opacity="1.00" stroke="None">
<path d="
M 145.00 131.00 
C 136.66 129.93 130.58 143.14 140.00 147.00 C 149.42 150.86 154.94 132.27 145.00 131.00 Z"/>
</g>
<g fill="#272727" fill-opacity="1.00" stroke="None">
<path d="
M 83.00 169.00 
C 89.42 168.62 98.47 172.39 105.00 170.00
C 108.00 169.12 102.82 164.24 101.75 161.25 C 100.69 158.25 96.43 155.08 94.00 153.00
C 93.23 157.70 81.17 163.70 83.00 169.00 Z"/>
</g>
<g fill="#282828" fill-opacity="1.00" stroke="None">
<path d="
M 182.00 170.00 
C 186.91 170.41 193.21 170.69 197.00 168.00
C 194.70 163.17 190.76 159.06 189.00 154.00
C 182.82 156.67 180.85 164.74 177.00 170.00
C 178.61 170.25 180.40 169.67 182.00 170.00 Z"/>
</g>
<g fill="#7A7A7A" fill-opacity="1.00" stroke="None">
<path d="
M 182.00 170.00 
C 185.62 170.75 197.71 173.20 197.00 168.00
C 193.21 170.69 186.91 170.41 182.00 170.00 Z"/>
</g>
<g fill="#797979" fill-opacity="1.00" stroke="None">
<path d="
M 105.00 170.00 
C 98.47 172.39 89.42 168.62 83.00 169.00
C 84.35 172.90 102.25 171.73 105.00 170.00 Z"/>
</g>
<g fill="#828282" fill-opacity="1.00" stroke="None">
<path d="
M 165.00 171.00 
C 157.97 171.54 148.54 169.76 141.00 170.00 C 133.46 170.24 124.31 171.49 117.00 170.00
C 124.25 173.24 132.91 171.82 141.00 171.00 C 149.09 170.18 157.64 173.23 165.00 171.00 Z"/>
</g>
<g fill="#000000" fill-opacity="0.07" stroke="None">
<path d="
M 149.00 204.00 
C 149.16 202.71 144.94 199.79 145.00 197.00
C 147.97 196.99 151.94 195.26 154.00 195.00
C 154.36 195.22 155.00 195.00 155.00 195.00
C 157.89 189.58 161.52 184.67 164.00 179.00
C 149.67 179.00 135.33 179.00 121.00 179.00
C 127.96 190.53 134.85 203.94 144.00 213.00
C 145.58 209.95 147.09 206.87 149.00 204.00 Z"/>
</g>
<g fill="#2D2D2D" fill-opacity="0.20" stroke="None">
<path d="
M 149.00 204.00 
C 149.94 202.59 151.07 200.40 152.00 199.00
C 152.28 198.32 152.37 196.26 154.00 195.00
C 151.94 195.26 147.97 196.99 145.00 197.00
C 144.94 199.79 149.16 202.71 149.00 204.00 Z"/>
</g>
<g fill="#373737" fill-opacity="0.53" stroke="None">
<path d="
M 152.00 199.00 
C 152.85 197.74 154.10 196.52 155.00 195.00
C 155.00 195.00 154.36 195.22 154.00 195.00
C 152.37 196.26 152.28 198.32 152.00 199.00 Z"/>
</g>
</svg>